<svg width="60" height="630" viewBox="0 0 60 630" version="1.1" xmlns="http://www.w3.org/2000/svg" xmlns:xlink="http://www.w3.org/1999/xlink" xml:space="preserve" style="fill-rule:evenodd;clip-rule:evenodd;stroke-linecap:round;stroke-linejoin:round;stroke-miterlimit:1.5;">
    <g transform="matrix(1,0,0,1,-16.4766,6.80022)">
        <path d="M43.996,26.577C51.022,26.981 46.692,16.712 46.042,10.27C47.503,22.282 53.491,29.981 54.026,18.849C54.242,14.371 52.443,9.742 50.663,5.115C53.741,12.844 56.862,20.077 60.211,21.92C62.588,20.491 63.698,18.378 63.139,15.382C63.611,16.867 64.312,18.161 65.373,19.153C69.999,17.758 68.946,12.031 68.946,12.031L73.145,26.827L43.996,26.577Z" style="stroke:black;stroke-width:0.75px;"/>
    </g>
    <g transform="matrix(1.07678,0,0,0.997011,-3.85068,1.89909)">
        <rect x="28.684" y="31.443" width="27.875" height="603.934"/>
    </g>
    <path d="M28.402,68.856L19.553,76.697L19.565,97.206L28.1,112.194L28.402,68.856Z"/>
    <path d="M29.396,162.302L18.239,167.947L19.676,172.462L29.28,180.862L29.396,162.302Z"/>
    <path d="M28.208,192.852L16.124,194.13L8.22,202.134L13.717,208.621L12.638,280.309L15.914,288.4L16.807,304.356L25.914,330.797L25.071,350.99L22.924,353.347L22.972,374.693L25.342,378.54L16.111,380.215L25.144,385.773L26.707,402.387L20.205,405.65L20.193,410.328L25.207,412.697L31.014,412.753L28.208,192.852Z"/>
    <path d="M27.25,581.023L23.165,615.368L14.479,630.032L32.696,630.091L27.25,581.023Z"/>
</svg>
