<svg width="3600" height="3600" viewBox="0 0 3600 3600" version="1.1" xmlns="http://www.w3.org/2000/svg" xmlns:xlink="http://www.w3.org/1999/xlink" xml:space="preserve" style="fill-rule:evenodd;clip-rule:evenodd;stroke-linejoin:round;stroke-miterlimit:1.41421;">
    <g id="Layer1">
        <rect x="-28.539" y="3.254" width="3625.48" height="3593.56"/>
    </g>
    <g transform="matrix(0.1,0,0,-0.1,0,3600)">
        <path d="M17683,34628C17677,34621 17656,34581 17635,34540C17614,34499 17597,34464 17596,34463C17595,34461 17552,34454 17501,34447C17445,34438 17405,34427 17399,34419C17393,34409 17410,34385 17461,34334L17532,34262L17516,34169C17495,34042 17498,34039 17611,34095L17700,34140L17780,34100C17860,34060 17884,34053 17894,34068C17897,34073 17892,34119 17883,34170L17868,34262L17941,34336C17997,34392 18011,34413 18003,34421C17996,34428 17949,34439 17898,34447C17847,34454 17804,34464 17802,34468C17787,34506 17713,34635 17704,34637C17698,34639 17688,34635 17683,34628Z" style="fill:white;fill-rule:nonzero;"/>
        <path d="M7792,34583C7785,34580 7746,34511 7705,34429C7663,34347 7627,34280 7622,34280C7587,34280 7312,34235 7303,34228C7273,34204 7292,34174 7406,34059L7522,33943L7495,33781C7467,33611 7468,33590 7511,33590C7521,33590 7592,33623 7670,33664L7810,33739L7950,33664C8162,33552 8163,33553 8125,33781L8098,33943L8214,34059C8328,34174 8347,34204 8318,34228C8308,34235 8033,34280 7998,34280C7993,34280 7957,34347 7916,34429C7855,34551 7823,34597 7807,34589C7806,34589 7799,34586 7792,34583Z" style="fill:white;fill-rule:nonzero;"/>
        <path d="M10796,34485C10770,34429 10770,34429 10685,34415C10663,34411 10641,34406 10637,34403C10632,34400 10650,34376 10676,34349L10724,34300L10713,34238C10707,34203 10706,34171 10710,34167C10714,34162 10744,34172 10776,34188L10835,34218L10890,34189C10920,34174 10949,34161 10954,34160C10958,34160 10959,34193 10956,34233L10949,34305L10994,34349C11019,34373 11037,34397 11034,34401C11032,34405 11008,34412 10982,34415C10906,34426 10900,34429 10872,34486C10858,34516 10840,34540 10833,34540C10826,34540 10809,34515 10796,34485Z" style="fill:white;fill-rule:nonzero;"/>
        <path d="M34195,34050C34170,34001 34147,33960 34144,33960C34134,33960 33995,33939 33973,33934C33960,33932 33950,33924 33950,33916C33950,33909 33981,33872 34019,33834L34089,33765L34075,33690C34055,33581 34056,33560 34080,33560C34092,33560 34135,33579 34177,33602L34253,33644L34335,33602C34380,33579 34424,33560 34433,33560C34454,33560 34454,33587 34435,33690L34421,33765L34490,33831C34529,33867 34560,33904 34560,33913C34560,33932 34549,33936 34442,33951L34359,33962L34314,34051C34288,34103 34264,34140 34255,34140C34246,34140 34221,34102 34195,34050Z" style="fill:white;fill-rule:nonzero;"/>
        <path d="M3289,34111C3276,34101 3198,33958 3115,33794L2965,33495L2641,33448C2462,33422 2306,33396 2294,33389C2265,33374 2246,33328 2254,33294C2259,33277 2351,33179 2502,33031L2742,32795L2685,32463C2632,32151 2629,32130 2644,32102C2654,32083 2673,32067 2695,32060C2726,32050 2736,32051 2773,32070C2796,32082 2930,32152 3071,32226C3212,32300 3331,32360 3337,32360C3342,32360 3477,32292 3636,32208C3952,32042 3974,32034 4016,32084C4029,32099 4040,32123 4040,32138C4040,32153 4015,32307 3985,32480L3931,32795L4176,33035C4411,33266 4420,33276 4420,33313C4420,33340 4413,33358 4395,33375C4382,33389 4367,33400 4363,33400C4359,33401 4209,33422 4030,33448L3706,33496L3555,33799C3402,34108 3388,34129 3334,34130C3322,34130 3302,34122 3289,34111Z" style="fill:white;fill-rule:nonzero;"/>
        <path d="M24338,34076C24331,34069 24294,34000 24256,33923L24187,33783L24033,33761C23856,33736 23853,33735 23844,33708C23839,33691 23861,33664 23959,33566L24080,33445L24054,33302C24011,33060 24015,33056 24218,33162L24366,33239L24509,33164C24655,33087 24694,33077 24702,33117C24704,33127 24693,33204 24678,33290L24651,33445L24770,33564C24836,33629 24890,33687 24890,33694C24889,33731 24868,33738 24669,33765L24543,33783L24474,33923C24403,34068 24388,34090 24365,34090C24358,34090 24345,34084 24338,34076Z" style="fill:white;fill-rule:nonzero;"/>
        <path d="M27353,33986C27325,33928 27326,33929 27233,33915C27209,33911 27190,33903 27190,33897C27190,33891 27210,33865 27235,33840L27280,33794L27269,33736C27255,33658 27264,33651 27334,33690L27390,33722L27447,33691C27480,33673 27508,33664 27513,33669C27518,33674 27517,33702 27511,33736L27500,33794L27545,33840C27570,33865 27590,33891 27590,33897C27590,33904 27569,33912 27543,33915C27471,33924 27455,33934 27428,33986C27414,34012 27398,34036 27392,34038C27386,34040 27368,34017 27353,33986Z" style="fill:white;fill-rule:nonzero;"/>
        <path d="M19851,33617C19833,33608 19787,33527 19677,33305C19595,33140 19526,33003 19524,33001C19522,32999 19375,32976 19197,32950C19019,32924 18863,32897 18852,32891C18824,32876 18810,32849 18810,32808C18810,32778 18831,32754 19054,32535L19299,32295L19245,31985C19215,31815 19190,31661 19190,31643C19190,31624 19199,31600 19213,31585C19255,31536 19279,31544 19592,31709C19749,31792 19884,31860 19891,31860C19898,31860 20032,31793 20190,31710C20482,31557 20522,31543 20561,31573C20604,31606 20604,31613 20544,31964L20487,32297L20729,32535C20862,32666 20973,32784 20976,32797C20984,32828 20964,32874 20935,32890C20923,32897 20766,32923 20589,32949L20265,32995L20114,33294C20031,33459 19953,33602 19940,33612C19914,33633 19885,33635 19851,33617Z" style="fill:white;fill-rule:nonzero;"/>
        <path d="M16722,32908C16717,32901 16681,32832 16642,32755L16572,32615L16415,32593C16328,32580 16251,32565 16244,32559C16213,32533 16230,32506 16348,32394L16465,32282L16437,32120C16409,31953 16410,31920 16447,31920C16456,31920 16528,31954 16607,31995L16751,32071L16895,31995C16973,31954 17045,31920 17053,31920C17061,31920 17073,31927 17080,31935C17091,31948 17088,31980 17065,32115L17037,32280L17154,32391C17271,32503 17289,32532 17256,32559C17249,32565 17171,32580 17084,32593L16926,32615L16862,32750C16826,32824 16790,32893 16782,32903C16764,32923 16737,32925 16722,32908Z" style="fill:white;fill-rule:nonzero;"/>
        <path d="M5776,32371C5727,32275 5730,32277 5625,32264C5558,32257 5530,32246 5530,32227C5530,32220 5561,32184 5599,32146L5667,32078L5654,32007C5637,31921 5636,31883 5650,31875C5656,31871 5699,31889 5746,31914L5831,31960L5922,31914C5984,31883 6016,31872 6023,31879C6030,31886 6028,31919 6017,31986L6001,32083L6070,32148C6138,32210 6151,32232 6130,32245C6121,32251 5960,32280 5939,32280C5935,32280 5920,32310 5904,32346C5875,32415 5845,32460 5829,32460C5824,32460 5800,32420 5776,32371Z" style="fill:white;fill-rule:nonzero;"/>
        <path d="M33280,32408C33273,32401 33236,32332 33196,32255L33125,32115L32965,32092C32808,32070 32780,32060 32780,32026C32780,32021 32834,31962 32900,31896L33019,31775L32992,31617C32964,31455 32966,31429 33002,31422C33011,31420 33082,31453 33161,31495L33305,31572L33457,31493L33609,31415L33629,31435L33650,31455L33621,31617L33593,31778L33712,31897C33777,31962 33830,32022 33830,32031C33830,32061 33804,32070 33644,32093L33485,32115L33410,32265C33352,32382 33330,32416 33313,32418C33302,32420 33286,32415 33280,32408Z" style="fill:white;fill-rule:nonzero;"/>
        <path d="M12183,32228C12177,32221 12156,32181 12135,32140C12114,32099 12097,32064 12096,32063C12095,32062 12052,32054 12001,32046C11949,32038 11902,32026 11896,32020C11889,32013 11907,31988 11958,31937L12031,31863L12014,31766C12001,31686 12000,31666 12011,31660C12019,31655 12058,31669 12113,31696L12202,31741L12287,31695C12399,31634 12404,31639 12382,31768L12367,31861L12438,31933C12485,31981 12507,32009 12501,32018C12495,32027 12351,32059 12307,32060C12303,32060 12280,32099 12257,32147C12214,32236 12201,32250 12183,32228Z" style="fill:white;fill-rule:nonzero;"/>
        <path d="M22373,31948C22367,31941 22346,31901 22325,31860C22304,31819 22287,31784 22286,31783C22285,31781 22242,31774 22191,31767C22141,31759 22094,31748 22087,31741C22079,31733 22093,31712 22149,31656L22223,31582L22206,31490C22183,31362 22187,31358 22301,31415L22390,31460L22479,31415C22592,31359 22595,31362 22574,31489L22558,31582L22631,31656C22687,31712 22701,31733 22693,31741C22686,31748 22639,31759 22588,31767C22537,31774 22494,31784 22492,31788C22477,31826 22403,31955 22394,31957C22388,31959 22378,31955 22373,31948Z" style="fill:white;fill-rule:nonzero;"/>
        <path d="M28695,31650C28670,31601 28647,31560 28644,31560C28634,31560 28495,31539 28473,31534C28435,31526 28447,31499 28517,31428L28584,31361L28572,31283C28556,31178 28556,31160 28577,31160C28586,31160 28630,31179 28675,31202L28756,31243L28841,31197C28954,31135 28958,31139 28937,31267L28921,31365L28993,31438C29062,31508 29064,31512 29046,31526C29035,31534 29017,31540 29006,31540C28996,31540 28958,31545 28923,31551L28859,31562L28814,31651C28788,31703 28764,31740 28755,31740C28746,31740 28721,31702 28695,31650Z" style="fill:white;fill-rule:nonzero;"/>
        <path d="M10093,31283C10078,31251 10068,31244 10033,31237C10009,31233 9990,31225 9990,31221C9990,31217 10003,31201 10019,31186C10044,31162 10046,31155 10039,31117C10035,31094 10034,31072 10037,31067C10039,31063 10059,31069 10081,31082L10120,31104L10159,31082C10181,31069 10201,31063 10203,31067C10206,31072 10205,31094 10201,31117C10194,31155 10196,31162 10221,31186C10237,31201 10250,31217 10250,31222C10250,31226 10232,31233 10210,31236C10175,31242 10166,31249 10149,31281C10138,31303 10126,31320 10121,31320C10116,31320 10103,31303 10093,31283Z" style="fill:white;fill-rule:nonzero;"/>
        <path d="M26650,30788C26639,30770 26630,30752 26630,30748C26630,30743 26615,30740 26598,30740C26580,30740 26558,30735 26550,30730C26538,30722 26541,30715 26568,30687C26598,30656 26600,30649 26594,30612C26587,30565 26592,30562 26643,30586C26674,30601 26679,30601 26708,30586C26757,30561 26763,30565 26757,30613C26752,30651 26754,30658 26783,30688C26809,30715 26812,30722 26800,30730C26792,30735 26771,30740 26754,30740C26728,30740 26720,30746 26705,30780C26695,30802 26683,30820 26678,30820C26674,30820 26661,30805 26650,30788Z" style="fill:white;fill-rule:nonzero;"/>
        <path d="M2745,30602L2715,30545L2650,30535C2573,30522 2571,30512 2632,30458L2674,30421L2664,30355C2651,30272 2658,30268 2732,30309L2785,30339L2835,30310C2910,30266 2913,30268 2905,30351L2898,30422L2946,30471C2998,30524 2999,30524 2910,30537C2856,30545 2855,30546 2825,30602C2809,30634 2791,30660 2785,30660C2780,30660 2762,30634 2745,30602Z" style="fill:white;fill-rule:nonzero;"/>
        <path d="M31945,30487C31929,30474 31859,30345 31772,30170L31625,29875L31305,29829C31129,29804 30975,29780 30962,29776C30931,29766 30905,29710 30914,29674C30918,29659 30936,29633 30954,29616C30972,29599 31080,29493 31194,29380L31401,29175L31345,28846C31297,28562 31291,28513 31301,28487C31316,28451 31362,28429 31402,28440C31417,28445 31557,28515 31712,28597C31867,28678 31997,28744 32000,28743C32003,28742 32134,28674 32292,28591C32604,28426 32629,28418 32675,28465C32690,28479 32700,28501 32700,28517C32700,28532 32675,28687 32645,28860L32590,29175L32835,29415C33058,29633 33080,29658 33080,29688C33080,29734 33064,29759 33027,29774C33009,29781 32854,29807 32681,29831L32368,29875L32215,30180C32092,30426 32057,30488 32036,30498C31997,30515 31974,30513 31945,30487Z" style="fill:white;fill-rule:nonzero;"/>
        <path d="M11292,30438C11287,30431 11252,30364 11215,30290C11178,30216 11147,30154 11145,30152C11144,30150 11072,30138 10986,30126C10829,30102 10800,30092 10800,30060C10800,30051 10853,29991 10917,29928L11034,29812L11007,29652C10992,29563 10983,29484 10986,29476C10999,29442 11029,29450 11174,29525L11320,29602L11423,29549C11604,29454 11616,29449 11633,29456C11661,29466 11661,29494 11634,29656L11607,29815L11724,29926C11815,30012 11840,30042 11840,30062C11840,30077 11836,30091 11830,30095C11825,30098 11748,30111 11659,30125C11570,30138 11497,30150 11495,30152C11494,30154 11463,30218 11426,30295C11389,30371 11354,30438 11347,30442C11329,30454 11304,30452 11292,30438Z" style="fill:white;fill-rule:nonzero;"/>
        <path d="M19303,30105C19274,30047 19272,30045 19198,30035C19172,30032 19148,30024 19144,30018C19141,30013 19158,29987 19184,29961L19230,29915L19219,29852C19213,29817 19211,29786 19215,29782C19218,29778 19248,29789 19281,29807L19341,29838L19396,29808C19466,29770 19475,29777 19461,29856L19450,29914L19496,29961C19522,29987 19539,30013 19536,30018C19532,30024 19508,30032 19482,30035C19408,30045 19406,30047 19377,30105C19362,30135 19346,30160 19340,30160C19334,30160 19318,30135 19303,30105Z" style="fill:white;fill-rule:nonzero;"/>
        <path d="M27775,29801C27734,29718 27699,29650 27697,29650C27696,29650 27623,29639 27535,29626C27377,29602 27351,29592 27350,29556C27350,29550 27404,29493 27470,29429L27591,29313L27566,29169C27534,28994 27534,28974 27560,28960C27577,28951 27604,28961 27728,29026L27875,29103L28023,29027C28106,28984 28177,28953 28185,28956C28217,28969 28217,28995 28190,29152L28163,29308L28282,29427C28347,29492 28400,29552 28400,29561C28400,29593 28368,29604 28212,29626C28126,29639 28054,29652 28052,29657C28051,29661 28017,29728 27977,29805C27914,29928 27902,29945 27878,29948C27852,29951 27847,29943 27775,29801Z" style="fill:white;fill-rule:nonzero;"/>
        <path d="M4188,29873C4179,29863 4144,29797 4110,29725C4075,29654 4043,29592 4038,29589C4033,29586 3971,29575 3902,29566C3730,29542 3704,29535 3696,29507C3691,29489 3710,29465 3811,29366L3931,29247L3904,29084C3881,28949 3878,28919 3889,28906C3897,28897 3909,28890 3916,28890C3924,28890 3995,28924 4074,28965L4218,29041L4364,28965C4508,28889 4540,28881 4553,28914C4556,28922 4547,29001 4532,29090L4505,29252L4623,29366C4738,29478 4755,29505 4726,29529C4719,29535 4642,29550 4555,29563L4398,29585L4321,29735C4241,29892 4222,29912 4188,29873Z" style="fill:white;fill-rule:nonzero;"/>
        <path d="M20741,29376C20735,29369 20701,29302 20665,29227C20614,29120 20596,29089 20578,29086C20565,29083 20492,29072 20416,29060C20275,29040 20250,29031 20250,29001C20250,28992 20303,28932 20368,28867L20487,28749L20460,28589C20434,28433 20434,28428 20451,28407L20469,28385L20622,28463L20775,28542L20920,28466C20999,28424 21071,28391 21078,28392C21114,28399 21116,28426 21088,28588L21061,28747L21180,28866C21246,28932 21300,28990 21300,28996C21300,29030 21273,29040 21115,29062L20955,29085L20877,29238C20810,29369 20796,29390 20776,29390C20763,29390 20747,29384 20741,29376Z" style="fill:white;fill-rule:nonzero;"/>
        <path d="M7792,28267C7787,28260 7765,28221 7745,28180C7724,28139 7703,28102 7698,28099C7692,28095 7660,28089 7626,28085C7477,28069 7474,28062 7568,27967L7638,27895L7623,27802C7601,27676 7606,27672 7718,27732L7805,27779L7893,27733C8005,27675 8009,27677 7989,27805L7974,27899L8042,27967C8137,28061 8136,28064 7998,28083L7915,28095L7870,28182C7824,28272 7809,28288 7792,28267Z" style="fill:white;fill-rule:nonzero;"/>
        <path d="M17511,28031L17467,27943L17371,27929C17245,27911 17242,27899 17336,27814L17404,27752L17391,27674C17384,27630 17376,27585 17373,27573C17363,27531 17397,27534 17486,27581L17570,27625L17653,27583C17699,27559 17742,27540 17748,27540C17769,27540 17771,27560 17755,27651L17739,27743L17812,27817C17870,27875 17882,27892 17872,27902C17865,27909 17818,27922 17767,27930L17675,27945L17632,28033C17602,28093 17584,28120 17572,28120C17559,28120 17541,28093 17511,28031Z" style="fill:white;fill-rule:nonzero;"/>
        <path d="M10674,27938C10660,27909 10647,27884 10645,27882C10644,27881 10617,27875 10584,27869C10552,27863 10521,27854 10515,27849C10509,27843 10524,27822 10554,27791L10602,27743L10591,27684C10584,27648 10583,27623 10589,27617C10595,27611 10620,27619 10655,27639L10711,27671L10766,27639C10837,27599 10847,27607 10831,27687L10820,27744L10865,27790C10890,27815 10910,27841 10910,27847C10910,27854 10889,27862 10863,27865C10787,27876 10782,27878 10753,27932C10738,27961 10720,27985 10713,27988C10706,27990 10689,27967 10674,27938Z" style="fill:white;fill-rule:nonzero;"/>
        <path d="M24305,27691C24272,27624 24254,27599 24237,27596C24215,27591 24076,27570 24066,27570C24063,27570 24060,27562 24060,27553C24060,27543 24090,27505 24127,27468L24193,27401L24178,27308C24156,27177 24161,27173 24275,27234L24362,27280L24451,27232C24564,27171 24568,27174 24545,27307L24529,27405L24599,27471C24698,27562 24697,27563 24554,27584C24506,27591 24464,27601 24463,27606C24448,27644 24373,27775 24363,27778C24356,27780 24331,27742 24305,27691Z" style="fill:white;fill-rule:nonzero;"/>
        <path d="M34065,27531C34031,27463 34015,27440 34000,27440C33943,27440 33828,27416 33823,27403C33819,27394 33844,27362 33889,27316L33960,27245L33943,27152C33920,27025 33925,27021 34039,27082L34127,27128L34208,27084C34292,27039 34316,27032 34322,27051C34324,27057 34319,27105 34311,27157L34296,27251L34364,27319C34407,27362 34431,27394 34427,27403C34422,27416 34308,27440 34252,27440C34241,27440 34220,27469 34190,27528C34164,27578 34138,27616 34128,27618C34115,27620 34099,27598 34065,27531Z" style="fill:white;fill-rule:nonzero;"/>
        <path d="M27231,27441C27203,27387 27197,27380 27163,27375C27051,27357 27050,27354 27113,27292L27156,27250L27146,27185C27141,27149 27139,27117 27142,27114C27145,27111 27175,27122 27208,27139L27268,27169L27325,27138C27356,27121 27385,27111 27390,27116C27394,27121 27393,27153 27387,27188L27377,27251L27473,27349L27446,27360C27431,27365 27409,27370 27397,27370C27349,27370 27332,27382 27309,27431C27273,27509 27265,27510 27231,27441Z" style="fill:white;fill-rule:nonzero;"/>
        <path d="M2045,27401C2030,27366 2023,27361 1984,27355C1933,27348 1928,27331 1966,27301C1989,27283 1992,27275 1988,27235C1985,27211 1985,27189 1988,27186C1990,27183 2010,27190 2031,27201C2070,27220 2070,27220 2109,27201C2130,27190 2150,27183 2152,27186C2155,27188 2155,27212 2152,27239C2148,27283 2150,27290 2174,27305C2213,27331 2207,27348 2156,27355C2117,27361 2110,27366 2095,27401C2085,27422 2074,27440 2070,27440C2066,27440 2055,27422 2045,27401Z" style="fill:white;fill-rule:nonzero;"/>
        <path d="M14654,27158C14639,27129 14623,27102 14617,27098C14612,27095 14583,27089 14554,27085C14524,27082 14498,27074 14494,27069C14491,27063 14509,27039 14535,27014L14583,26970L14572,26908C14567,26873 14566,26841 14570,26837C14574,26832 14604,26842 14636,26858L14695,26888L14752,26857C14783,26839 14812,26828 14816,26832C14820,26836 14818,26868 14812,26902L14802,26965L14853,27017C14909,27075 14909,27075 14820,27087C14765,27095 14765,27095 14735,27152C14719,27184 14699,27210 14693,27210C14686,27210 14668,27186 14654,27158Z" style="fill:white;fill-rule:nonzero;"/>
        <path d="M18601,26901C18583,26867 18575,26862 18535,26856C18510,26852 18490,26845 18490,26841C18490,26837 18504,26821 18520,26805C18548,26778 18550,26773 18544,26727C18540,26699 18541,26679 18546,26681C18551,26684 18572,26694 18592,26704C18628,26723 18629,26723 18665,26701C18685,26690 18704,26680 18707,26680C18710,26680 18710,26702 18706,26728C18700,26772 18702,26778 18730,26805C18746,26821 18760,26837 18760,26841C18760,26845 18740,26852 18715,26856C18675,26862 18667,26867 18649,26901C18639,26923 18628,26940 18625,26940C18622,26940 18611,26923 18601,26901Z" style="fill:white;fill-rule:nonzero;"/>
        <path d="M31210,26659C31182,26601 31174,26595 31103,26585C31074,26581 31050,26573 31050,26567C31050,26561 31070,26535 31094,26510L31138,26465L31128,26402C31122,26368 31120,26336 31124,26333C31128,26329 31157,26340 31189,26358L31247,26390L31304,26359C31339,26340 31365,26331 31371,26337C31376,26342 31376,26369 31369,26404L31358,26463L31405,26510C31431,26537 31449,26563 31446,26568C31442,26574 31418,26582 31392,26585C31318,26595 31316,26597 31287,26655C31272,26685 31254,26710 31247,26710C31239,26710 31223,26687 31210,26659Z" style="fill:white;fill-rule:nonzero;"/>
        <path d="M8193,26168C8187,26161 8152,26094 8115,26020C8078,25946 8046,25884 8045,25882C8043,25880 7972,25868 7887,25856C7731,25834 7700,25823 7700,25790C7700,25780 7754,25721 7819,25657L7939,25542L7911,25384C7874,25176 7883,25156 7992,25214C8027,25232 8093,25266 8139,25291L8224,25334L8372,25257C8579,25149 8578,25148 8535,25400L8511,25544L8630,25660C8696,25723 8750,25783 8750,25792C8750,25823 8708,25837 8570,25855C8496,25865 8426,25876 8416,25880C8403,25884 8371,25939 8326,26031C8264,26156 8252,26175 8229,26178C8215,26180 8199,26175 8193,26168Z" style="fill:white;fill-rule:nonzero;"/>
        <path d="M24675,25530C24634,25448 24598,25380 24596,25380C24568,25380 24299,25337 24283,25330C24238,25311 24254,25281 24376,25159L24492,25043L24465,24881C24427,24654 24429,24652 24640,24763L24780,24835L24919,24763C25131,24652 25134,24654 25094,24880L25066,25041L25183,25158C25306,25281 25322,25311 25278,25330C25261,25337 24992,25380 24964,25380C24962,25380 24926,25448 24885,25530C24813,25673 24808,25680 24780,25680C24752,25680 24747,25673 24675,25530Z" style="fill:white;fill-rule:nonzero;"/>
        <g transform="matrix(1,0,0,1,14272.4,-4690.1)">
            <path d="M16756,25298C16746,25292 16671,25152 16590,24986L16442,24684L16114,24636C15917,24608 15776,24583 15762,24574C15733,24555 15717,24514 15725,24480C15729,24465 15827,24362 15972,24220L16214,23984L16157,23652C16104,23341 16101,23317 16115,23290C16132,23257 16158,23240 16192,23240C16205,23240 16348,23310 16510,23396L16805,23551L16855,23527C16883,23514 17013,23445 17145,23376C17277,23306 17399,23246 17416,23243C17462,23235 17510,23279 17510,23328C17510,23349 17485,23504 17456,23674L17402,23984L17646,24223C17883,24455 17890,24463 17890,24502C17890,24575 17876,24581 17615,24619C17489,24638 17338,24660 17281,24669L17176,24685L17032,24975C16953,25135 16879,25275 16867,25288C16844,25312 16789,25318 16756,25298Z" style="fill:white;fill-rule:nonzero;"/>
        </g>
        <g transform="matrix(1,0,0,1,-735.417,-20649)">
            <path d="M33304,24790C33294,24778 33220,24638 33140,24477L32995,24185L32745,24148C32608,24128 32457,24106 32411,24099C32310,24085 32280,24063 32280,24003C32279,23966 32289,23956 32525,23725L32770,23485L32715,23170C32685,22997 32660,22842 32660,22827C32660,22809 32671,22788 32690,22768C32716,22743 32727,22739 32753,22743C32771,22746 32893,22806 33025,22876C33157,22945 33288,23014 33316,23028L33367,23053L33656,22900C33961,22738 33996,22726 34038,22763C34049,22773 34061,22793 34064,22806C34068,22820 34046,22976 34014,23158L33958,23485L34199,23720C34406,23922 34441,23961 34446,23992C34451,24021 34447,24032 34424,24058L34395,24089L34064,24137L33733,24184L33585,24480C33504,24642 33431,24783 33422,24793C33400,24818 33329,24816 33304,24790Z" style="fill:white;fill-rule:nonzero;"/>
        </g>
        <path d="M9971,24731C9954,24698 9945,24692 9910,24687C9887,24684 9866,24679 9862,24676C9859,24672 9871,24654 9889,24636C9919,24606 9922,24597 9916,24566C9906,24515 9915,24508 9956,24532L9992,24553L10037,24531L10083,24509L10077,24557C10072,24601 10074,24608 10103,24637C10120,24655 10131,24672 10128,24676C10124,24679 10104,24684 10082,24687C10047,24692 10040,24698 10024,24731C10015,24753 10003,24770 9999,24770C9994,24770 9982,24753 9971,24731Z" style="fill:white;fill-rule:nonzero;"/>
        <path d="M26525,24233C26509,24202 26498,24194 26467,24189C26415,24181 26412,24174 26447,24137C26476,24108 26478,24102 26471,24063C26462,24014 26472,24008 26521,24037C26548,24053 26552,24053 26585,24037C26637,24012 26640,24015 26633,24066C26628,24107 26630,24114 26659,24144L26691,24177L26668,24184C26655,24187 26635,24190 26623,24190C26607,24190 26595,24202 26580,24230C26569,24252 26556,24270 26552,24270C26548,24270 26536,24253 26525,24233Z" style="fill:white;fill-rule:nonzero;"/>
        <path d="M3655,23962L3625,23905L3563,23895C3529,23890 3498,23882 3495,23878C3491,23874 3509,23849 3535,23821L3583,23770L3573,23709C3561,23634 3570,23628 3633,23664C3687,23696 3697,23696 3751,23665C3819,23626 3823,23629 3815,23711L3808,23782L3856,23831C3908,23884 3909,23884 3820,23897C3766,23905 3765,23906 3735,23962C3719,23994 3701,24020 3695,24020C3690,24020 3672,23994 3655,23962Z" style="fill:white;fill-rule:nonzero;"/>
        <path d="M13951,23951C13934,23919 13925,23912 13890,23906C13843,23899 13838,23881 13876,23851C13900,23832 13902,23825 13897,23786C13893,23762 13893,23740 13897,23736C13900,23733 13920,23740 13940,23751L13977,23772L14017,23751C14039,23740 14060,23733 14062,23736C14065,23738 14064,23760 14059,23783C14052,23821 14054,23828 14081,23855C14097,23872 14110,23889 14110,23892C14110,23896 14090,23902 14066,23905C14027,23911 14020,23916 14005,23951C13995,23972 13983,23990 13979,23990C13974,23990 13962,23973 13951,23951Z" style="fill:white;fill-rule:nonzero;"/>
        <path d="M1473,23702C1467,23698 1444,23658 1422,23613C1399,23568 1373,23529 1363,23526C1353,23524 1318,23518 1285,23514C1212,23506 1180,23495 1180,23477C1180,23470 1211,23434 1248,23397L1316,23329L1301,23235C1290,23166 1289,23137 1297,23129C1305,23121 1333,23131 1397,23164L1485,23210L1574,23164C1638,23131 1665,23121 1673,23129C1681,23137 1680,23166 1669,23235L1654,23329L1722,23397C1759,23434 1790,23470 1790,23477C1790,23495 1758,23506 1685,23514C1594,23525 1592,23526 1551,23609C1509,23691 1491,23713 1473,23702Z" style="fill:white;fill-rule:nonzero;"/>
        <path d="M7530,23511L7500,23451L7439,23444C7359,23435 7354,23420 7412,23364L7457,23321L7447,23260C7442,23227 7440,23196 7444,23193C7448,23189 7476,23199 7507,23214L7564,23242L7622,23214C7658,23197 7684,23190 7689,23196C7694,23201 7694,23229 7687,23263L7677,23321L7726,23371C7782,23428 7780,23434 7690,23444L7633,23451L7605,23510C7589,23543 7573,23570 7568,23570C7564,23570 7547,23543 7530,23511Z" style="fill:white;fill-rule:nonzero;"/>
        <path d="M20211,23461L20181,23403L20121,23396C20088,23392 20058,23384 20054,23379C20051,23373 20068,23347 20094,23321L20140,23275L20129,23212C20123,23177 20121,23146 20125,23142C20128,23138 20158,23149 20191,23167L20251,23198L20306,23168C20340,23149 20365,23141 20371,23147C20376,23152 20376,23179 20369,23214L20358,23273L20405,23320C20431,23347 20449,23373 20446,23379C20442,23384 20412,23392 20379,23396L20319,23403L20289,23461C20273,23494 20255,23520 20250,23520C20245,23520 20227,23494 20211,23461Z" style="fill:white;fill-rule:nonzero;"/>
        <path d="M30506,23451C30490,23418 30483,23412 30448,23407C30426,23404 30406,23399 30402,23396C30399,23392 30410,23375 30427,23357C30456,23328 30458,23321 30453,23277L30447,23229L30493,23251L30538,23273L30574,23252C30615,23228 30625,23236 30615,23287C30609,23318 30613,23327 30641,23356C30659,23375 30671,23392 30668,23396C30664,23399 30643,23404 30620,23407C30585,23412 30576,23418 30559,23451C30548,23473 30536,23490 30531,23490C30527,23490 30515,23473 30506,23451Z" style="fill:white;fill-rule:nonzero;"/>
        <path d="M13125,23151C13067,23034 13045,22999 13028,22996C13015,22993 12942,22982 12865,22970C12728,22950 12700,22940 12700,22906C12700,22900 12754,22842 12820,22777L12940,22658L12915,22517C12884,22344 12884,22324 12910,22310C12928,22301 12954,22311 13079,22376L13226,22453L13372,22376C13452,22334 13522,22300 13528,22300C13535,22300 13546,22310 13554,22323C13566,22342 13564,22364 13540,22502L13513,22658L13632,22777C13697,22842 13750,22902 13750,22911C13750,22942 13722,22951 13564,22975C13477,22988 13404,23002 13402,23007C13400,23011 13366,23078 13327,23155C13263,23278 13252,23295 13228,23298C13202,23301 13197,23293 13125,23151Z" style="fill:white;fill-rule:nonzero;"/>
        <path d="M18023,23198C18017,23191 17996,23151 17975,23110C17954,23069 17936,23034 17935,23032C17933,23030 17890,23023 17839,23015C17788,23007 17743,22995 17739,22988C17733,22979 17753,22952 17801,22904L17872,22832L17856,22739C17834,22608 17840,22604 17953,22665L18039,22711L18127,22666C18241,22607 18246,22611 18224,22739L18208,22832L18281,22906C18333,22958 18351,22983 18344,22990C18338,22996 18291,23007 18239,23015C18187,23023 18144,23033 18142,23037C18129,23073 18053,23205 18044,23207C18038,23209 18028,23205 18023,23198Z" style="fill:white;fill-rule:nonzero;"/>
        <path d="M24083,23013L24055,22955L23993,22945C23959,22940 23928,22932 23924,22927C23920,22923 23938,22898 23964,22871C24016,22818 24015,22824 23994,22718C23987,22681 24007,22681 24070,22717L24119,22744L24179,22715C24213,22699 24243,22689 24246,22693C24250,22697 24248,22728 24242,22762L24232,22825L24277,22872C24302,22897 24320,22922 24316,22928C24313,22933 24283,22940 24250,22944L24189,22951L24162,23008C24147,23039 24129,23066 24123,23068C24116,23070 24098,23046 24083,23013Z" style="fill:white;fill-rule:nonzero;"/>
        <path d="M29752,22788C29747,22781 29712,22714 29675,22640C29638,22566 29607,22504 29605,22502C29604,22501 29533,22489 29447,22476C29292,22453 29260,22442 29260,22411C29260,22403 29313,22342 29377,22278L29494,22161L29466,21998L29439,21835L29460,21818C29485,21798 29482,21796 29644,21882C29714,21919 29776,21950 29781,21950C29786,21950 29855,21916 29935,21874C30057,21810 30082,21800 30100,21810C30126,21824 30125,21834 30094,22015L30067,22165L30184,22275C30275,22362 30300,22392 30300,22412C30300,22427 30295,22442 30290,22445C30284,22448 30223,22460 30152,22470C30082,22481 30010,22492 29992,22495C29962,22501 29955,22510 29885,22650C29820,22780 29807,22800 29786,22800C29773,22800 29758,22794 29752,22788Z" style="fill:white;fill-rule:nonzero;"/>
        <path d="M5326,22612C5260,22480 5247,22461 5223,22456C5208,22453 5141,22443 5075,22435C4929,22415 4910,22409 4910,22375C4910,22356 4938,22323 5026,22237L5141,22125L5115,21970C5088,21811 5088,21777 5116,21766C5126,21762 5187,21788 5276,21835C5354,21876 5423,21910 5428,21910C5433,21910 5496,21879 5566,21842C5728,21756 5725,21758 5750,21778L5771,21795L5743,21957L5715,22120L5833,22238C5897,22302 5950,22362 5950,22370C5949,22405 5930,22412 5769,22435C5679,22448 5604,22463 5602,22467C5601,22471 5567,22538 5527,22615C5464,22738 5452,22755 5428,22758C5402,22761 5397,22753 5326,22612Z" style="fill:white;fill-rule:nonzero;"/>
        <g transform="matrix(1,0,0,1,-5474.74,-15083.1)">
            <path d="M26021,22413C26005,22403 25945,22290 25853,22101C25773,21938 25707,21803 25705,21801C25703,21799 25551,21776 25369,21749C25059,21704 25035,21699 25011,21676C24993,21658 24986,21640 24986,21613C24986,21578 24998,21564 25232,21336L25477,21095L25424,20795C25363,20447 25360,20413 25393,20382C25438,20340 25465,20349 25778,20514L26071,20667L26363,20514C26677,20349 26707,20339 26747,20383C26758,20395 26770,20412 26773,20421C26776,20430 26754,20581 26724,20755C26694,20930 26670,21080 26670,21089C26670,21098 26779,21211 26912,21340C27143,21565 27154,21578 27154,21613C27154,21640 27147,21658 27129,21676C27105,21699 27081,21704 26770,21750C26533,21784 26434,21802 26431,21812C26429,21819 26363,21954 26284,22111C26198,22284 26132,22404 26118,22414C26089,22435 26051,22434 26021,22413Z" style="fill:white;fill-rule:nonzero;"/>
        </g>
        <path d="M17506,22298C17498,22285 17484,22258 17474,22238C17458,22204 17454,22201 17399,22195C17366,22191 17337,22184 17334,22178C17330,22173 17348,22147 17373,22122L17418,22075L17408,22012C17402,21978 17400,21947 17404,21943C17407,21939 17438,21949 17471,21965L17531,21994L17586,21965C17620,21947 17643,21939 17649,21945C17655,21951 17654,21978 17648,22013L17638,22072L17685,22120C17711,22146 17730,22173 17726,22178C17723,22184 17693,22191 17660,22195L17599,22202L17569,22261C17553,22293 17535,22320 17530,22320C17525,22320 17514,22310 17506,22298Z" style="fill:white;fill-rule:nonzero;"/>
        <path d="M21953,22248C21947,22241 21912,22174 21875,22100C21838,22026 21807,21964 21806,21963C21804,21961 21730,21950 21641,21937C21414,21904 21412,21898 21579,21738L21698,21624L21670,21465C21640,21294 21642,21270 21684,21270C21697,21270 21767,21302 21840,21340C21913,21379 21977,21410 21983,21410C21989,21410 22054,21378 22128,21339C22275,21263 22313,21255 22318,21301C22320,21315 22309,21394 22295,21476L22270,21625L22390,21741C22456,21804 22510,21864 22510,21873C22510,21902 22468,21917 22345,21934C22279,21943 22210,21954 22192,21957C22160,21962 22155,21970 22086,22109C22024,22234 22010,22255 21988,22258C21975,22260 21959,22255 21953,22248Z" style="fill:white;fill-rule:nonzero;"/>
        <path d="M34042,21763L34015,21705L33953,21695C33919,21690 33888,21682 33884,21677C33880,21673 33898,21648 33924,21621L33972,21572L33962,21513C33956,21481 33956,21451 33960,21446C33965,21441 33992,21449 34024,21466L34079,21494L34139,21465C34172,21449 34203,21440 34207,21443C34211,21447 34209,21478 34203,21513L34192,21575L34236,21620C34260,21645 34280,21671 34280,21676C34280,21682 34252,21691 34218,21696L34155,21705L34125,21762C34109,21794 34089,21820 34082,21820C34075,21820 34057,21794 34042,21763Z" style="fill:white;fill-rule:nonzero;"/>
        <path d="M2693,21521C2679,21486 2672,21479 2641,21474C2575,21464 2574,21462 2610,21425C2640,21394 2642,21388 2636,21346C2628,21294 2634,21290 2681,21319C2713,21339 2714,21339 2751,21319C2772,21309 2792,21300 2796,21300C2800,21300 2800,21320 2798,21344C2793,21384 2796,21392 2821,21416C2859,21453 2858,21470 2818,21470C2777,21470 2767,21477 2746,21517C2722,21565 2711,21566 2693,21521Z" style="fill:white;fill-rule:nonzero;"/>
        <path d="M3317,21319C3307,21313 3232,21173 3149,21007C3066,20841 2997,20704 2996,20703C2995,20701 2844,20679 2660,20652C2336,20605 2326,20603 2304,20576C2290,20560 2280,20536 2280,20517C2279,20488 2305,20460 2525,20243L2771,20002L2715,19678C2685,19500 2660,19346 2660,19336C2660,19308 2715,19260 2746,19260C2768,19260 3178,19465 3340,19557C3364,19570 3379,19564 3660,19416C3837,19323 3966,19260 3983,19260C4018,19260 4070,19309 4070,19341C4070,19353 4045,19507 4015,19682L3959,20001L4205,20243C4429,20464 4451,20488 4450,20518C4450,20541 4441,20560 4423,20579C4396,20605 4382,20608 4066,20653C3885,20679 3736,20701 3734,20702C3733,20704 3666,20838 3586,21000C3505,21162 3430,21303 3418,21313C3396,21332 3345,21335 3317,21319Z" style="fill:white;fill-rule:nonzero;"/>
        <path d="M17340,21145C17318,21098 17295,21058 17288,21056C17281,21053 17236,21046 17188,21040C17127,21032 17100,21024 17095,21013C17091,21002 17112,20976 17161,20930L17233,20864L17216,20765C17204,20694 17202,20664 17210,20656C17218,20648 17246,20658 17310,20691L17400,20737L17490,20691C17555,20657 17582,20648 17590,20656C17598,20664 17596,20694 17584,20765L17566,20863L17640,20931C17730,21015 17727,21024 17595,21042L17505,21055L17460,21142C17401,21256 17391,21256 17340,21145Z" style="fill:white;fill-rule:nonzero;"/>
        <path d="M19251,21021C19231,20983 19209,20970 19163,20970C19133,20970 19134,20959 19169,20926C19196,20900 19198,20893 19193,20849C19190,20822 19191,20800 19196,20800C19201,20800 19220,20809 19238,20820L19271,20840L19310,20820C19332,20809 19352,20800 19356,20800C19359,20800 19359,20821 19355,20846C19349,20889 19351,20895 19380,20925C19415,20961 19413,20964 19357,20974C19327,20980 19316,20988 19300,21020C19289,21042 19278,21060 19275,21060C19272,21060 19262,21043 19251,21021Z" style="fill:white;fill-rule:nonzero;"/>
        <g transform="matrix(1,0,0,1,-4701.3,-2503.91)">
            <path d="M19863,20808C19851,20795 19776,20653 19696,20493C19616,20332 19545,20200 19540,20200C19524,20200 18917,20109 18892,20103C18860,20095 18840,20062 18840,20017C18840,19980 18849,19970 19083,19740L19326,19501L19273,19193C19244,19024 19220,18868 19220,18847C19220,18799 19255,18760 19299,18760C19318,18760 19435,18816 19624,18916L19920,19072L20218,18916C20382,18830 20526,18760 20539,18760C20572,18760 20598,18777 20615,18810C20629,18836 20626,18858 20586,19092C20562,19231 20536,19381 20529,19425L20517,19504L20758,19740C20903,19882 21001,19985 21005,20000C21013,20034 20997,20075 20968,20093C20951,20104 20344,20201 20297,20200C20292,20200 20223,20333 20143,20496C20063,20659 19989,20801 19979,20811C19952,20838 19889,20836 19863,20808Z" style="fill:white;fill-rule:nonzero;"/>
        </g>
        <path d="M33943,20728C33937,20721 33915,20681 33895,20640C33874,20599 33853,20562 33848,20559C33842,20555 33810,20549 33776,20545C33627,20529 33624,20522 33717,20427L33788,20355L33772,20263C33750,20138 33754,20135 33866,20193L33954,20238L34043,20193C34106,20162 34136,20152 34143,20159C34151,20167 34149,20198 34139,20265L34124,20359L34192,20427C34257,20492 34270,20513 34251,20524C34247,20527 34210,20534 34169,20540C34128,20546 34086,20553 34075,20555C34061,20558 34044,20583 34022,20634C33984,20718 33959,20748 33943,20728Z" style="fill:white;fill-rule:nonzero;"/>
        <path d="M6830,20318C6819,20300 6809,20281 6807,20277C6806,20272 6786,20266 6762,20263C6713,20256 6710,20244 6749,20206C6774,20182 6777,20174 6772,20134C6770,20110 6770,20090 6774,20090C6778,20090 6798,20099 6819,20109C6856,20129 6857,20129 6889,20109C6936,20080 6942,20084 6934,20136C6928,20178 6930,20184 6960,20215C6996,20252 6995,20253 6928,20264C6897,20270 6890,20276 6876,20310C6867,20332 6858,20350 6855,20350C6852,20350 6841,20335 6830,20318Z" style="fill:white;fill-rule:nonzero;"/>
        <path d="M23383,19813C23366,19777 23341,19764 23271,19751C23268,19750 23281,19735 23299,19716C23330,19684 23332,19678 23326,19636C23322,19611 23321,19590 23325,19590C23328,19590 23348,19599 23370,19610L23409,19630L23444,19609C23490,19582 23500,19589 23488,19642C23479,19683 23480,19686 23509,19711C23526,19725 23540,19741 23540,19747C23540,19753 23520,19761 23496,19764C23458,19770 23451,19775 23435,19810C23425,19832 23413,19850 23409,19850C23404,19850 23392,19833 23383,19813Z" style="fill:white;fill-rule:nonzero;"/>
        <path d="M11397,19544C11393,19540 11359,19472 11321,19394C11255,19258 11250,19251 11218,19245C11200,19242 11127,19231 11056,19220C10920,19200 10893,19187 10905,19151C10908,19140 10963,19082 11026,19022L11140,18913L11115,18774C11084,18602 11084,18574 11110,18560C11127,18551 11154,18561 11278,18626L11426,18704L11573,18627C11692,18564 11724,18551 11739,18560C11750,18565 11760,18575 11762,18582C11765,18589 11754,18664 11739,18750L11712,18905L11831,19025C11897,19091 11950,19153 11950,19162C11950,19193 11908,19207 11770,19225C11696,19235 11627,19246 11617,19249C11607,19253 11569,19317 11527,19400C11465,19525 11451,19545 11430,19548C11416,19550 11401,19548 11397,19544Z" style="fill:white;fill-rule:nonzero;"/>
        <path d="M16790,19068C16779,19050 16770,19032 16770,19028C16770,19024 16750,19018 16725,19014C16700,19011 16680,19005 16680,19001C16680,18997 16693,18981 16709,18966C16736,18940 16738,18933 16733,18889C16730,18862 16731,18840 16735,18840C16739,18840 16758,18849 16776,18860L16809,18881L16849,18860C16871,18849 16892,18840 16896,18840C16899,18840 16899,18861 16895,18886C16889,18929 16891,18935 16920,18965C16955,19001 16953,19004 16897,19014C16867,19020 16856,19028 16840,19060C16829,19082 16817,19100 16815,19100C16812,19100 16801,19085 16790,19068Z" style="fill:white;fill-rule:nonzero;"/>
        <path d="M27879,18903C27840,18821 27807,18754 27806,18753C27805,18751 27736,18741 27654,18729C27572,18718 27495,18705 27483,18700C27438,18681 27454,18651 27577,18528L27693,18411L27666,18248L27639,18085L27661,18067C27682,18050 27686,18052 27832,18127L27981,18204L28128,18129C28209,18087 28283,18055 28292,18057C28321,18064 28321,18093 28294,18255L28268,18412L28384,18529C28506,18651 28522,18681 28478,18700C28465,18705 28401,18716 28335,18725C28269,18733 28202,18743 28187,18746C28163,18751 28150,18770 28085,18901C28014,19043 28008,19050 27980,19050C27952,19050 27947,19043 27879,18903Z" style="fill:white;fill-rule:nonzero;"/>
        <path d="M7507,18992C7499,18983 7477,18942 7460,18902C7424,18823 7431,18827 7311,18810C7270,18804 7233,18797 7229,18794C7210,18783 7222,18763 7289,18695L7358,18625L7342,18533C7320,18406 7325,18403 7437,18463L7525,18509L7612,18462C7725,18402 7730,18405 7708,18533L7692,18625L7761,18695C7828,18763 7840,18783 7821,18794C7817,18797 7780,18804 7739,18810C7698,18816 7656,18823 7644,18825C7630,18828 7612,18854 7586,18909C7542,19004 7529,19017 7507,18992Z" style="fill:white;fill-rule:nonzero;"/>
        <path d="M33340,18561C33324,18528 33314,18521 33280,18515C33233,18507 33230,18493 33266,18459C33288,18438 33291,18429 33286,18394C33283,18371 33283,18350 33287,18347C33290,18343 33310,18350 33331,18361C33370,18380 33370,18380 33409,18361C33430,18350 33450,18343 33452,18346C33455,18348 33454,18370 33449,18393C33442,18431 33444,18438 33471,18465C33487,18482 33500,18499 33500,18502C33500,18506 33480,18512 33456,18515C33417,18521 33410,18526 33395,18561C33385,18582 33373,18600 33369,18600C33364,18600 33351,18582 33340,18561Z" style="fill:white;fill-rule:nonzero;"/>
        <path d="M24063,18498C24057,18491 24037,18450 24017,18408C23977,18323 23985,18328 23860,18310C23819,18304 23782,18294 23778,18287C23773,18279 23797,18249 23841,18204L23912,18132L23896,18039C23883,17959 23882,17943 23894,17931C23906,17919 23921,17924 23994,17964L24080,18010L24170,17963C24234,17928 24262,17918 24270,17926C24278,17934 24277,17963 24264,18035L24248,18132L24321,18206C24369,18254 24391,18283 24384,18290C24379,18295 24332,18306 24280,18313C24228,18321 24184,18331 24183,18336C24169,18372 24093,18505 24084,18507C24078,18509 24069,18505 24063,18498Z" style="fill:white;fill-rule:nonzero;"/>
        <g transform="matrix(1,0,0,1,463.281,-10969)">
            <path d="M3762,18214C3716,18182 3716,18169 3777,17818L3834,17487L3590,17250C3348,17016 3345,17013 3345,16972C3345,16894 3347,16893 3717,16839C3897,16812 4049,16790 4053,16790C4058,16790 4128,16653 4210,16486C4302,16297 4366,16177 4379,16171C4408,16155 4452,16158 4479,16177C4494,16187 4555,16300 4647,16489C4727,16652 4793,16786 4793,16787C4794,16788 4937,16809 5110,16834C5283,16859 5435,16882 5447,16885C5484,16894 5510,16930 5510,16973C5510,17010 5502,17020 5266,17251L5023,17490L5076,17802C5106,17974 5130,18130 5130,18148C5130,18192 5092,18230 5049,18230C5028,18230 4923,18180 4723,18075L4428,17919L4133,18075C3964,18164 3827,18230 3811,18230C3797,18230 3774,18223 3762,18214Z" style="fill:white;fill-rule:nonzero;"/>
        </g>
        <path d="M11574,17906C11571,17899 11576,17853 11584,17804L11600,17715L11529,17644C11484,17599 11459,17566 11463,17557C11467,17547 11499,17539 11565,17530L11661,17517L11706,17428C11739,17362 11755,17340 11768,17342C11778,17344 11804,17381 11829,17431L11873,17516L11969,17531C12091,17549 12094,17558 12004,17643L11936,17707L11951,17802C11959,17855 11964,17903 11962,17909C11956,17928 11933,17922 11851,17878L11772,17835L11686,17878C11591,17924 11582,17927 11574,17906Z" style="fill:white;fill-rule:nonzero;"/>
        <path d="M7539,17774C7528,17761 7530,17731 7553,17595L7580,17431L7460,17313C7394,17248 7340,17190 7340,17184C7340,17149 7367,17140 7525,17118L7685,17095L7762,16945C7833,16805 7840,16795 7867,16795C7893,16795 7900,16805 7967,16935C8007,17012 8041,17079 8042,17084C8044,17089 8117,17103 8205,17117C8366,17141 8390,17149 8390,17179C8390,17188 8337,17248 8272,17313L8153,17432L8181,17593L8210,17755L8189,17775L8169,17795L8017,17717L7865,17638L7721,17714C7642,17756 7572,17790 7565,17790C7558,17790 7546,17783 7539,17774Z" style="fill:white;fill-rule:nonzero;"/>
        <path d="M2397,17454C2402,17413 2400,17406 2370,17375C2334,17338 2335,17336 2401,17326C2431,17321 2440,17313 2455,17280C2465,17258 2476,17240 2480,17240C2484,17240 2493,17254 2500,17271C2519,17316 2537,17330 2576,17330C2618,17330 2620,17347 2581,17384C2556,17408 2554,17415 2561,17453C2565,17476 2566,17497 2563,17500C2561,17503 2540,17495 2518,17482L2477,17460L2445,17480C2396,17510 2389,17506 2397,17454Z" style="fill:white;fill-rule:nonzero;"/>
        <path d="M28127,17408C28125,17401 28129,17364 28137,17325C28158,17211 28158,17209 28084,17141C27994,17059 27997,17049 28124,17030L28223,17015L28264,16930C28288,16879 28312,16844 28322,16842C28335,16840 28351,16862 28384,16928L28429,17018L28512,17029C28614,17044 28630,17048 28630,17063C28630,17069 28599,17106 28560,17145L28490,17215L28506,17308C28528,17434 28524,17436 28410,17380L28320,17336L28241,17378C28159,17422 28134,17428 28127,17408Z" style="fill:white;fill-rule:nonzero;"/>
        <path d="M24095,17274C24085,17263 24081,17248 24085,17227C24088,17209 24101,17135 24114,17063L24137,16930L24018,16814C23904,16702 23886,16674 23913,16652C23920,16646 23997,16631 24085,16618L24243,16594L24319,16445C24396,16292 24413,16274 24447,16302C24460,16312 24580,16544 24593,16584C24595,16590 24871,16639 24912,16640C24923,16640 24950,16670 24950,16682C24950,16688 24896,16748 24830,16815L24710,16936L24737,17097C24760,17233 24762,17260 24751,17274C24744,17283 24731,17290 24723,17290C24715,17290 24644,17256 24565,17215L24422,17139L24277,17215C24198,17256 24128,17290 24122,17290C24116,17290 24104,17283 24095,17274Z" style="fill:white;fill-rule:nonzero;"/>
        <path d="M18955,16952C18961,16906 18960,16901 18930,16877C18893,16845 18898,16830 18946,16830C18975,16830 18984,16824 18998,16799C19034,16733 19035,16733 19061,16781C19080,16816 19091,16826 19115,16828C19173,16834 19176,16838 19141,16874C19111,16905 19109,16911 19115,16954C19123,17005 19120,17007 19070,16981C19036,16962 19034,16962 18998,16981C18978,16991 18958,17000 18954,17000C18951,17000 18951,16978 18955,16952Z" style="fill:white;fill-rule:nonzero;"/>
        <path d="M12356,16218C12359,16200 12363,16180 12365,16174C12367,16167 12353,16148 12334,16129C12296,16092 12302,16080 12357,16080C12385,16080 12393,16074 12410,16040C12421,16018 12435,16000 12440,16000C12445,16000 12459,16018 12470,16040C12488,16075 12495,16080 12525,16080C12572,16080 12577,16096 12543,16133C12516,16162 12514,16169 12522,16204C12526,16225 12528,16245 12525,16248C12522,16251 12502,16245 12480,16235C12442,16218 12437,16218 12404,16233C12356,16257 12350,16255 12356,16218Z" style="fill:white;fill-rule:nonzero;"/>
        <path d="M28914,15708C28920,15671 28918,15664 28888,15633C28861,15605 28858,15598 28870,15590C28878,15585 28899,15580 28916,15580C28942,15580 28950,15574 28965,15540C28975,15518 28988,15500 28994,15500C29000,15500 29014,15517 29025,15537C29041,15568 29052,15576 29083,15581C29103,15584 29123,15590 29127,15594C29131,15597 29119,15615 29101,15634C29072,15664 29070,15671 29076,15708C29083,15756 29077,15759 29028,15734C28999,15719 28994,15719 28963,15734C28912,15758 28907,15755 28914,15708Z" style="fill:white;fill-rule:nonzero;"/>
        <path d="M1698,15679C1696,15673 1701,15625 1709,15572L1724,15477L1656,15414C1565,15329 1568,15319 1691,15301L1786,15287L1831,15201C1856,15151 1882,15114 1892,15112C1905,15110 1921,15132 1954,15198L1999,15287L2089,15299C2217,15317 2220,15324 2132,15413L2060,15485L2076,15578C2098,15704 2094,15706 1980,15650L1889,15605L1811,15648C1730,15691 1704,15698 1698,15679Z" style="fill:white;fill-rule:nonzero;"/>
        <path d="M18254,15176C18251,15169 18256,15123 18265,15075L18282,14987L18209,14914C18150,14855 18138,14838 18148,14828C18155,14821 18202,14808 18253,14800L18345,14785L18387,14700C18441,14589 18451,14589 18510,14702L18554,14789L18640,14800C18687,14806 18731,14813 18738,14815C18765,14824 18747,14860 18684,14921L18617,14984L18629,15065C18636,15109 18643,15153 18646,15163C18657,15199 18618,15195 18532,15149L18447,15105L18369,15148C18285,15193 18263,15198 18254,15176Z" style="fill:white;fill-rule:nonzero;"/>
        <path d="M16495,14992C16501,14947 16500,14943 16470,14922C16431,14893 16436,14876 16486,14870C16519,14866 16528,14859 16549,14821C16575,14773 16576,14773 16612,14839C16626,14864 16635,14870 16664,14870C16713,14870 16719,14888 16681,14921C16650,14946 16649,14950 16655,14994C16663,15045 16651,15053 16614,15025C16604,15017 16586,15011 16575,15011C16564,15011 16546,15017 16536,15025C16498,15053 16487,15045 16495,14992Z" style="fill:white;fill-rule:nonzero;"/>
        <path d="M13537,14560C13525,14542 13526,14520 13550,14382L13578,14225L13459,14105C13393,14039 13340,13977 13340,13969C13340,13940 13364,13931 13506,13910C13582,13899 13655,13887 13668,13884C13686,13881 13706,13848 13763,13732C13827,13601 13838,13585 13862,13582C13888,13579 13893,13587 13965,13729C14023,13845 14045,13881 14062,13885C14075,13887 14148,13899 14224,13910C14366,13931 14390,13940 14390,13969C14390,13977 14336,14039 14271,14105L14152,14225L14176,14365C14204,14531 14205,14553 14184,14571C14169,14583 14147,14574 14015,14506L13863,14428L13718,14504C13638,14546 13568,14580 13562,14580C13556,14580 13545,14571 13537,14560Z" style="fill:white;fill-rule:nonzero;"/>
        <path d="M33047,14503C33050,14482 33055,14463 33057,14461C33059,14458 33046,14441 33028,14423C33001,14395 32998,14388 33010,14380C33018,14375 33037,14370 33052,14370C33074,14370 33084,14362 33100,14330C33111,14308 33125,14290 33130,14290C33135,14290 33149,14308 33160,14330C33178,14365 33185,14370 33215,14370C33261,14370 33268,14386 33235,14420C33210,14446 33208,14454 33213,14495C33220,14545 33217,14548 33165,14523C33132,14507 33128,14507 33095,14523C33045,14547 33041,14545 33047,14503Z" style="fill:white;fill-rule:nonzero;"/>
        <path d="M1639,14395C1636,14393 1638,14363 1644,14330L1654,14270L1604,14219C1548,14162 1550,14156 1639,14146L1695,14140L1725,14083C1742,14052 1760,14026 1765,14026C1771,14025 1788,14051 1805,14082C1835,14139 1835,14139 1890,14146C1975,14156 1979,14165 1925,14220L1878,14268L1885,14334C1890,14379 1889,14400 1881,14400C1875,14400 1846,14388 1817,14374L1764,14348L1712,14374C1660,14400 1647,14404 1639,14395Z" style="fill:white;fill-rule:nonzero;"/>
        <path d="M30095,14067C30078,14053 30078,14047 30105,13885L30134,13717L30017,13606C29900,13495 29882,13467 29913,13442C29920,13436 29998,13420 30085,13407C30173,13393 30246,13379 30248,13374C30249,13369 30283,13302 30323,13225C30386,13102 30398,13085 30420,13085C30442,13085 30454,13102 30517,13225C30557,13302 30591,13369 30592,13374C30594,13379 30667,13393 30755,13407C30842,13420 30920,13436 30927,13442C30958,13467 30940,13495 30823,13606L30706,13716L30733,13877C30748,13966 30757,14046 30754,14054C30741,14089 30710,14081 30565,14005L30420,13929L30276,14004C30197,14046 30128,14080 30123,14080C30118,14080 30106,14074 30095,14067Z" style="fill:white;fill-rule:nonzero;"/>
        <path d="M5742,14028C5725,14011 5727,13983 5755,13825L5780,13686L5660,13565C5594,13498 5540,13439 5540,13434C5540,13401 5569,13391 5725,13368L5885,13345L5956,13205C6037,13046 6044,13038 6073,13042C6090,13044 6112,13078 6170,13195L6245,13345L6404,13367C6564,13390 6590,13399 6590,13429C6590,13438 6537,13498 6472,13563L6353,13681L6381,13843C6405,13990 6407,14007 6392,14023C6384,14032 6371,14040 6365,14040C6358,14040 6288,14006 6210,13965L6068,13889L5924,13965C5845,14006 5774,14040 5767,14040C5760,14040 5749,14035 5742,14028Z" style="fill:white;fill-rule:nonzero;"/>
        <path d="M18195,13900C18192,13895 18194,13863 18200,13829L18211,13767L18163,13718C18124,13678 18118,13668 18130,13660C18138,13655 18155,13650 18166,13650C18233,13650 18250,13639 18281,13579C18297,13546 18315,13520 18320,13520C18325,13520 18343,13547 18360,13579C18389,13637 18391,13639 18437,13645C18500,13654 18520,13660 18520,13670C18520,13674 18499,13698 18474,13722L18428,13766L18440,13828C18446,13862 18448,13895 18445,13900C18441,13906 18415,13898 18380,13879L18322,13848L18262,13879C18227,13897 18198,13906 18195,13900Z" style="fill:white;fill-rule:nonzero;"/>
        <path d="M22291,13522C22284,13509 22289,13454 22308,13341L22335,13178L22217,13066C22101,12956 22083,12927 22113,12902C22119,12896 22197,12881 22284,12868L22443,12845L22519,12695C22596,12544 22613,12524 22646,12551C22654,12558 22691,12627 22729,12705L22797,12846L22955,12868C23042,12881 23117,12893 23122,12896C23126,12899 23135,12910 23141,12921C23150,12939 23138,12955 23030,13064L22909,13187L22936,13348C22959,13482 22962,13511 22951,13524C22943,13533 22931,13540 22922,13540C22914,13540 22843,13506 22764,13465L22621,13390L22480,13465C22402,13506 22330,13540 22319,13540C22309,13540 22296,13532 22291,13522Z" style="fill:white;fill-rule:nonzero;"/>
        <path d="M17614,13206C17611,13199 17616,13153 17624,13104L17640,13015L17569,12944C17524,12898 17499,12866 17503,12857C17508,12844 17623,12820 17680,12820C17695,12820 17711,12797 17745,12730C17776,12668 17796,12640 17808,12640C17819,12640 17840,12668 17870,12728L17915,12815L17995,12827C18039,12833 18081,12839 18088,12839C18095,12840 18103,12847 18107,12856C18111,12867 18091,12894 18044,12941L17976,13010L17991,13102C18007,13197 18006,13220 17986,13220C17980,13220 17937,13200 17890,13176L17805,13131L17724,13176C17637,13223 17622,13227 17614,13206Z" style="fill:white;fill-rule:nonzero;"/>
        <path d="M11604,13145C11600,13136 11602,13105 11607,13077L11616,13025L11567,12973C11517,12921 11517,12921 11541,12911C11554,12906 11586,12898 11611,12895C11656,12889 11659,12887 11686,12832C11702,12801 11720,12775 11725,12775C11731,12775 11748,12801 11765,12832C11793,12887 11797,12890 11840,12895C11865,12899 11896,12906 11909,12911C11933,12921 11933,12921 11885,12970L11837,13019L11847,13079C11860,13164 11853,13169 11785,13130L11727,13097L11669,13129C11618,13157 11609,13159 11604,13145Z" style="fill:white;fill-rule:nonzero;"/>
        <path d="M34168,12708C34165,12701 34171,12654 34180,12604L34197,12511L34129,12444C34063,12378 34050,12357 34068,12346C34073,12343 34117,12335 34167,12329L34256,12317L34301,12231C34326,12181 34352,12144 34362,12142C34375,12140 34391,12162 34424,12227L34468,12316L34565,12329C34631,12339 34663,12347 34667,12357C34671,12366 34646,12399 34602,12443L34530,12515L34546,12608C34568,12734 34563,12737 34456,12682C34411,12659 34367,12640 34360,12640C34353,12640 34314,12658 34274,12680C34197,12722 34174,12728 34168,12708Z" style="fill:white;fill-rule:nonzero;"/>
        <path d="M15470,12686C15470,12679 15475,12649 15480,12619L15490,12566L15444,12519C15418,12493 15400,12468 15404,12462C15407,12457 15437,12450 15470,12446L15530,12439L15560,12379C15577,12347 15595,12320 15600,12320C15605,12320 15623,12347 15640,12379L15670,12439L15730,12446C15763,12450 15793,12457 15796,12462C15800,12468 15781,12494 15755,12520L15707,12569L15718,12626C15725,12658 15730,12687 15730,12692C15730,12707 15698,12700 15648,12673L15599,12646L15544,12673C15482,12704 15470,12706 15470,12686Z" style="fill:white;fill-rule:nonzero;"/>
        <path d="M28156,12651C28153,12647 28156,12614 28162,12579L28173,12516L28126,12476C28058,12416 28061,12412 28176,12395C28214,12389 28219,12384 28240,12339C28277,12261 28285,12260 28319,12329C28347,12383 28353,12390 28387,12395C28468,12408 28480,12412 28480,12423C28480,12429 28460,12455 28435,12480L28390,12526L28401,12583C28417,12661 28408,12668 28337,12629L28280,12598L28225,12629C28164,12663 28163,12664 28156,12651Z" style="fill:white;fill-rule:nonzero;"/>
        <path d="M5233,12561C5238,12517 5236,12510 5209,12484C5193,12469 5180,12453 5180,12449C5180,12445 5200,12439 5225,12436C5265,12430 5273,12424 5290,12389C5301,12368 5312,12350 5315,12350C5318,12350 5329,12368 5340,12390C5356,12422 5367,12430 5397,12436C5453,12446 5455,12449 5420,12485C5391,12515 5389,12521 5395,12564C5399,12589 5399,12610 5396,12610C5392,12610 5371,12601 5349,12590L5309,12569L5276,12590C5258,12601 5239,12610 5235,12610C5231,12610 5230,12588 5233,12561Z" style="fill:white;fill-rule:nonzero;"/>
        <path d="M32211,12177L32158,12147L32100,12175C32068,12190 32038,12200 32033,12197C32027,12193 32027,12168 32033,12130L32043,12069L31994,12019C31938,11962 31940,11956 32030,11946L32087,11939L32115,11880C32131,11847 32149,11821 32154,11823C32160,11825 32177,11851 32192,11882C32218,11937 32221,11939 32267,11945C32367,11959 32370,11966 32307,12028L32264,12070L32274,12130C32280,12168 32280,12193 32274,12198C32269,12203 32241,12193 32211,12177Z" style="fill:white;fill-rule:nonzero;"/>
        <path d="M21787,12064C21792,12023 21790,12016 21760,11985C21724,11948 21725,11946 21791,11936C21821,11931 21830,11923 21845,11890C21855,11868 21866,11850 21870,11850C21874,11850 21885,11868 21895,11889C21912,11928 21931,11940 21978,11940C22008,11940 22006,11961 21971,11994C21946,12018 21944,12025 21950,12061C21954,12083 21954,12103 21949,12105C21945,12108 21926,12101 21906,12090L21871,12069L21831,12089C21809,12101 21788,12110 21786,12110C21783,12110 21783,12090 21787,12064Z" style="fill:white;fill-rule:nonzero;"/>
        <path d="M9215,11782C9221,11738 9219,11733 9191,11706C9174,11689 9160,11673 9160,11669C9160,11665 9180,11659 9205,11656C9245,11650 9253,11644 9270,11609C9281,11588 9294,11570 9299,11570C9304,11570 9315,11588 9324,11609C9338,11645 9344,11649 9385,11655C9410,11659 9430,11665 9430,11669C9430,11673 9417,11689 9401,11704C9374,11730 9372,11737 9377,11781C9380,11808 9380,11830 9377,11830C9374,11830 9355,11820 9335,11809L9299,11787L9260,11809C9239,11820 9219,11830 9215,11830C9211,11830 9211,11809 9215,11782Z" style="fill:white;fill-rule:nonzero;"/>
        <path d="M25768,11325C25765,11322 25766,11300 25771,11277C25778,11239 25776,11232 25749,11205C25733,11188 25720,11171 25720,11168C25720,11165 25740,11159 25764,11156C25802,11150 25809,11145 25825,11110C25835,11088 25847,11070 25851,11070C25856,11070 25869,11088 25880,11110C25896,11142 25907,11150 25937,11156C25993,11166 25995,11169 25960,11205C25930,11236 25928,11242 25934,11284C25938,11309 25939,11330 25935,11330C25932,11330 25911,11321 25889,11309L25849,11289L25814,11309C25775,11332 25775,11332 25768,11325Z" style="fill:white;fill-rule:nonzero;"/>
        <path d="M10744,11146C10725,11132 10726,11129 10754,10964L10782,10796L10666,10686C10572,10597 10549,10570 10550,10548C10550,10533 10554,10519 10559,10516C10564,10513 10630,10501 10706,10490C10783,10479 10855,10468 10868,10465C10885,10461 10908,10425 10965,10309C11037,10167 11042,10159 11068,10162C11092,10165 11104,10182 11167,10305C11207,10382 11241,10449 11243,10454C11244,10459 11317,10473 11403,10486C11561,10508 11590,10518 11590,10549C11590,10557 11537,10618 11473,10682L11355,10800L11383,10962L11410,11124L11390,11144L11370,11165L11217,11086L11065,11007L10921,11084C10842,11126 10775,11160 10771,11160C10767,11160 10755,11154 10744,11146Z" style="fill:white;fill-rule:nonzero;"/>
        <path d="M27297,10642C27283,10626 27284,10611 27309,10463L27337,10302L27218,10183C27153,10118 27100,10058 27100,10049C27100,10019 27125,10010 27271,9990C27350,9979 27423,9966 27433,9962C27444,9958 27482,9892 27523,9810C27590,9674 27597,9665 27623,9665C27650,9665 27657,9675 27728,9815L27805,9965L27965,9988C28122,10010 28150,10020 28150,10054C28150,10059 28096,10118 28030,10184L27911,10305L27938,10463C27965,10624 27964,10651 27928,10658C27920,10659 27849,10626 27769,10584L27625,10508L27479,10584C27399,10626 27328,10660 27323,10660C27318,10660 27306,10652 27297,10642Z" style="fill:white;fill-rule:nonzero;"/>
        <path d="M4470,9496C4470,9489 4475,9459 4480,9429L4490,9376L4444,9329C4418,9303 4400,9277 4404,9272C4407,9266 4437,9259 4470,9255L4531,9248L4561,9189C4577,9157 4595,9130 4600,9130C4605,9130 4623,9157 4639,9189L4669,9248L4730,9255C4763,9259 4793,9266 4796,9272C4800,9277 4781,9303 4755,9330L4708,9377L4719,9435C4725,9467 4730,9497 4730,9502C4730,9516 4706,9511 4653,9483L4601,9455L4545,9483C4482,9514 4470,9516 4470,9496Z" style="fill:white;fill-rule:nonzero;"/>
        <path d="M17143,9110C17149,9065 17147,9059 17119,9036C17084,9006 17082,8990 17113,8990C17159,8990 17181,8977 17201,8939C17212,8917 17222,8900 17225,8900C17228,8900 17239,8918 17250,8940C17266,8972 17277,8980 17307,8986C17363,8996 17365,8999 17330,9035C17300,9066 17298,9072 17304,9114C17312,9165 17309,9167 17260,9141C17226,9122 17224,9122 17188,9141C17168,9151 17148,9160 17144,9160C17140,9160 17140,9138 17143,9110Z" style="fill:white;fill-rule:nonzero;"/>
        <path d="M21028,9005C21026,9002 21028,8973 21033,8939L21043,8879L20994,8829C20937,8772 20941,8765 21030,8755L21087,8748L21115,8689C21131,8657 21149,8630 21155,8630C21161,8630 21179,8657 21195,8689L21223,8748L21282,8755C21359,8764 21365,8779 21310,8835L21268,8878L21275,8944C21280,8989 21279,9010 21271,9010C21265,9010 21236,8998 21207,8984L21154,8958L21102,8984C21050,9010 21037,9014 21028,9005Z" style="fill:white;fill-rule:nonzero;"/>
        <path d="M1526,8791C1523,8787 1528,8741 1537,8691L1553,8599L1479,8524C1412,8456 1407,8448 1422,8436C1432,8429 1479,8417 1528,8411L1615,8399L1660,8312C1685,8264 1712,8224 1720,8222C1731,8220 1750,8248 1779,8309L1823,8398L1897,8409C1938,8415 1979,8420 1989,8420C1999,8420 2013,8427 2020,8436C2032,8449 2023,8462 1961,8524L1889,8597L1905,8689C1914,8739 1918,8785 1915,8790C1904,8808 1879,8801 1801,8759L1725,8717L1643,8759C1560,8800 1536,8807 1526,8791Z" style="fill:white;fill-rule:nonzero;"/>
        <path d="M8456,8721C8453,8716 8455,8686 8461,8655L8472,8597L8425,8550C8399,8523 8381,8497 8384,8491C8388,8486 8418,8478 8451,8474L8511,8467L8541,8408C8557,8375 8576,8350 8583,8352C8590,8354 8605,8376 8617,8400C8649,8464 8652,8467 8714,8474C8745,8478 8773,8486 8776,8492C8780,8497 8762,8523 8737,8548L8692,8595L8702,8658C8708,8692 8710,8724 8706,8728C8702,8732 8672,8721 8640,8704L8582,8674L8529,8701C8469,8732 8463,8734 8456,8721Z" style="fill:white;fill-rule:nonzero;"/>
        <path d="M33696,8614C33702,8572 33700,8566 33670,8535C33634,8498 33635,8496 33701,8486C33730,8481 33740,8473 33757,8437L33777,8395L33799,8430C33810,8449 33821,8469 33823,8473C33824,8478 33844,8484 33868,8487C33891,8490 33910,8497 33910,8503C33910,8509 33897,8528 33880,8545C33854,8572 33852,8579 33859,8613C33864,8633 33864,8652 33859,8655C33855,8658 33833,8652 33812,8641C33774,8622 33773,8622 33744,8641C33697,8672 33688,8667 33696,8614Z" style="fill:white;fill-rule:nonzero;"/>
        <path d="M11293,8635C11290,8626 11295,8580 11304,8532L11320,8445L11248,8373C11204,8329 11179,8296 11183,8287C11187,8277 11219,8269 11285,8260L11381,8247L11426,8158C11459,8092 11475,8070 11488,8072C11498,8074 11522,8110 11547,8161L11590,8246L11686,8260C11751,8269 11783,8277 11787,8287C11791,8296 11766,8329 11723,8373L11653,8445L11666,8515C11684,8616 11684,8650 11663,8650C11654,8650 11614,8632 11574,8610C11534,8588 11495,8570 11488,8570C11481,8570 11441,8588 11400,8610C11317,8654 11302,8657 11293,8635Z" style="fill:white;fill-rule:nonzero;"/>
        <path d="M18080,8283C18080,8273 18087,8227 18095,8180L18110,8095L18038,8023C17951,7935 17954,7928 18078,7912C18124,7905 18165,7898 18170,7895C18175,7892 18197,7851 18219,7805C18244,7752 18265,7720 18274,7720C18284,7720 18307,7755 18335,7810C18360,7860 18383,7900 18386,7900C18396,7900 18535,7921 18558,7926C18595,7934 18583,7961 18513,8032L18447,8099L18461,8187C18468,8235 18475,8279 18475,8285C18475,8308 18434,8299 18358,8259L18276,8217L18199,8259C18116,8304 18080,8311 18080,8283Z" style="fill:white;fill-rule:nonzero;"/>
        <path d="M25010,8208C25011,8195 25015,8165 25020,8140C25028,8096 25028,8094 24983,8048C24958,8023 24941,7997 24944,7991C24948,7986 24977,7978 25008,7974L25066,7968L25095,7911C25112,7880 25130,7855 25137,7855C25144,7855 25162,7880 25177,7910L25205,7965L25267,7975C25301,7981 25332,7988 25336,7993C25340,7997 25322,8022 25296,8049L25248,8098L25258,8157C25264,8192 25265,8219 25259,8225C25253,8231 25230,8223 25195,8205L25141,8175L25085,8203C25018,8236 25010,8236 25010,8208Z" style="fill:white;fill-rule:nonzero;"/>
        <path d="M27847,8143C27844,8138 27850,8091 27858,8037L27874,7939L27806,7878C27711,7792 27715,7779 27841,7761L27936,7747L27981,7661C28039,7548 28050,7548 28104,7660L28145,7745L28237,7760C28288,7768 28335,7781 28342,7788C28352,7798 28340,7815 28281,7874L28209,7947L28224,8030C28233,8075 28240,8119 28240,8126C28240,8156 28208,8151 28125,8108L28040,8065L27961,8108C27884,8149 27856,8158 27847,8143Z" style="fill:white;fill-rule:nonzero;"/>
        <path d="M14746,7434C14737,7425 14732,7409 14735,7397C14738,7385 14751,7312 14765,7235L14789,7095L14670,6977C14604,6912 14550,6854 14550,6847C14551,6809 14571,6802 14771,6775L14897,6757L14971,6609C15046,6456 15066,6434 15098,6463C15107,6472 15146,6541 15184,6618L15253,6757L15407,6779C15584,6804 15587,6805 15596,6832C15601,6849 15579,6876 15481,6974L15360,7095L15388,7253C15416,7416 15414,7441 15376,7448C15367,7450 15296,7418 15217,7376L15074,7301L14935,7375C14858,7416 14787,7449 14778,7450C14769,7450 14754,7443 14746,7434Z" style="fill:white;fill-rule:nonzero;"/>
        <path d="M31300,6935C31291,6924 31294,6887 31315,6759L31342,6597L31226,6481C31112,6366 31093,6336 31123,6313C31132,6305 31410,6259 31442,6260C31447,6260 31483,6193 31524,6111C31565,6030 31606,5960 31614,5957C31646,5944 31663,5966 31735,6110L31809,6257L31917,6273C31976,6283 32048,6293 32075,6296C32184,6310 32178,6337 32033,6482L31917,6598L31945,6759C31974,6929 31972,6950 31929,6950C31918,6950 31847,6917 31770,6876L31629,6802L31489,6876C31412,6917 31341,6950 31331,6950C31321,6950 31307,6943 31300,6935Z" style="fill:white;fill-rule:nonzero;"/>
        <path d="M7645,6874C7636,6864 7631,6848 7634,6836C7636,6824 7649,6750 7661,6671L7684,6528L7567,6414C7452,6302 7435,6275 7464,6251C7471,6245 7548,6230 7635,6217L7792,6195L7869,6045C7946,5893 7963,5874 7997,5902C8006,5909 8042,5976 8078,6050C8114,6124 8148,6188 8153,6191C8158,6194 8219,6205 8288,6214C8460,6238 8486,6245 8494,6273C8499,6291 8480,6315 8379,6414L8259,6533L8286,6695C8310,6832 8312,6860 8301,6874C8294,6883 8281,6890 8274,6890C8266,6890 8195,6856 8116,6815L7972,6739L7827,6815C7748,6856 7678,6890 7672,6890C7666,6890 7654,6883 7645,6874Z" style="fill:white;fill-rule:nonzero;"/>
        <path d="M24199,6374C24188,6360 24190,6333 24213,6197L24241,6037L24120,5915C24054,5848 24000,5789 24000,5784C24001,5749 24028,5740 24220,5715L24348,5698L24416,5558C24454,5482 24492,5412 24501,5404C24536,5372 24553,5390 24630,5545L24705,5695L24865,5718C24953,5731 25031,5746 25038,5752C25066,5776 25047,5804 24932,5916L24813,6029L24841,6190C24857,6278 24867,6357 24864,6365C24850,6401 24814,6392 24670,6316L24527,6240L24384,6315C24306,6356 24235,6390 24227,6390C24219,6390 24206,6383 24199,6374Z" style="fill:white;fill-rule:nonzero;"/>
        <path d="M16380,6038C16380,6025 16385,5995 16391,5971C16401,5927 16401,5926 16354,5879C16329,5853 16310,5828 16314,5822C16317,5817 16347,5810 16380,5806L16440,5799L16470,5739C16487,5707 16505,5680 16510,5680C16516,5680 16533,5706 16548,5738L16575,5795L16637,5805C16671,5811 16702,5818 16706,5823C16710,5827 16692,5852 16666,5879C16614,5932 16615,5926 16636,6033C16643,6069 16623,6069 16559,6033L16511,6005L16455,6033C16388,6066 16380,6066 16380,6038Z" style="fill:white;fill-rule:nonzero;"/>
        <path d="M32938,5555C32936,5552 32938,5523 32943,5489L32953,5429L32904,5379C32848,5322 32850,5316 32940,5306L32997,5299L33025,5240C33041,5207 33059,5181 33064,5183C33070,5185 33088,5212 33105,5243L33135,5300L33193,5306C33230,5310 33254,5318 33257,5327C33260,5336 33244,5361 33218,5388L33174,5435L33183,5493C33188,5525 33190,5554 33186,5557C33183,5561 33154,5551 33122,5536L33063,5508L33012,5534C32960,5560 32947,5564 32938,5555Z" style="fill:white;fill-rule:nonzero;"/>
        <path d="M9093,5232C9098,5187 9096,5180 9069,5154C9053,5139 9040,5123 9040,5119C9040,5115 9060,5108 9084,5105C9123,5099 9130,5094 9145,5059C9155,5038 9167,5020 9171,5020C9176,5020 9189,5037 9199,5059C9215,5090 9226,5099 9257,5105C9313,5115 9315,5119 9280,5155C9250,5186 9248,5192 9254,5234C9258,5259 9259,5280 9255,5280C9252,5280 9231,5271 9210,5260L9170,5240L9128,5261L9087,5282L9093,5232Z" style="fill:white;fill-rule:nonzero;"/>
        <path d="M25646,4734C25652,4692 25650,4686 25620,4655C25585,4619 25587,4616 25643,4606C25673,4600 25684,4592 25700,4560C25711,4538 25724,4520 25729,4520C25733,4520 25745,4538 25755,4560C25771,4595 25778,4600 25816,4606C25840,4609 25860,4615 25860,4618C25860,4621 25847,4638 25831,4655C25804,4682 25802,4689 25809,4728C25814,4751 25814,4773 25809,4775C25805,4778 25786,4771 25766,4760L25731,4739L25691,4759C25669,4771 25648,4780 25645,4780C25641,4780 25642,4759 25646,4734Z" style="fill:white;fill-rule:nonzero;"/>
        <path d="M6903,4674C6900,4666 6904,4619 6912,4570L6926,4481L6858,4413C6821,4376 6790,4340 6790,4333C6790,4315 6822,4304 6895,4296C6928,4292 6963,4286 6973,4284C6983,4281 7009,4242 7032,4197C7054,4152 7077,4112 7084,4108C7102,4096 7126,4127 7160,4205C7195,4285 7193,4284 7295,4296C7368,4304 7400,4315 7400,4332C7400,4339 7369,4376 7331,4415L7262,4485L7277,4578C7288,4642 7290,4674 7283,4681C7276,4688 7245,4677 7184,4647L7095,4602L7010,4646C6913,4695 6911,4696 6903,4674Z" style="fill:white;fill-rule:nonzero;"/>
        <path d="M13264,4456C13261,4448 13266,4400 13276,4350L13293,4257L13221,4193C13151,4129 13137,4105 13164,4094C13172,4091 13217,4083 13264,4076C13311,4069 13352,4061 13354,4059C13356,4057 13376,4018 13399,3973C13421,3928 13444,3889 13449,3886C13463,3877 13477,3895 13523,3985L13565,4065L13645,4077C13689,4083 13731,4089 13738,4089C13745,4090 13753,4097 13757,4106C13761,4117 13741,4144 13695,4190L13627,4259L13642,4352C13658,4447 13657,4470 13636,4470C13630,4470 13587,4449 13541,4425L13456,4381L13375,4425C13286,4474 13272,4477 13264,4456Z" style="fill:white;fill-rule:nonzero;"/>
        <path d="M2210,4405C2201,4394 2204,4356 2226,4226L2255,4061L2137,3950C2020,3838 2001,3808 2033,3782C2039,3777 2115,3763 2200,3751C2285,3738 2358,3726 2362,3722C2366,3718 2400,3651 2439,3573C2507,3436 2530,3407 2560,3425C2566,3429 2604,3499 2645,3581C2686,3663 2723,3730 2728,3730C2763,3730 3038,3775 3048,3782C3077,3806 3058,3836 2945,3950L2829,4066L2856,4228C2884,4397 2883,4420 2841,4420C2832,4420 2761,4386 2683,4346L2542,4271L2401,4346C2255,4422 2231,4430 2210,4405Z" style="fill:white;fill-rule:nonzero;"/>
        <path d="M23455,4180C23452,4175 23457,4127 23466,4074L23483,3976L23411,3909C23366,3866 23342,3836 23346,3827C23349,3817 23380,3808 23433,3800C23553,3783 23547,3787 23590,3694C23642,3582 23654,3582 23708,3695C23731,3742 23755,3782 23762,3784C23769,3786 23814,3793 23862,3800C23920,3808 23950,3817 23954,3826C23958,3836 23934,3866 23888,3909L23816,3977L23834,4075C23857,4205 23854,4208 23739,4148L23649,4101L23567,4146C23482,4191 23465,4197 23455,4180Z" style="fill:white;fill-rule:nonzero;"/>
        <path d="M29823,3955C29820,3946 29824,3900 29832,3852L29847,3765L29777,3693C29732,3648 29709,3616 29713,3607C29717,3597 29747,3588 29810,3579C29861,3573 29906,3562 29911,3556C29916,3550 29937,3511 29958,3470C29979,3427 30002,3394 30012,3392C30025,3390 30041,3412 30075,3479C30109,3547 30125,3570 30140,3570C30197,3570 30312,3594 30317,3607C30321,3616 30296,3649 30252,3693L30182,3765L30197,3858C30219,3985 30214,3989 30101,3928L30014,3881L29932,3926C29842,3975 29832,3977 29823,3955Z" style="fill:white;fill-rule:nonzero;"/>
        <path d="M18769,3904C18758,3891 18760,3862 18783,3727L18809,3565L18688,3443C18571,3324 18568,3320 18582,3298C18598,3274 18608,3272 18834,3240L18922,3228L18990,3086C19027,3009 19064,2939 19073,2932C19105,2905 19125,2928 19200,3080C19241,3162 19278,3230 19282,3230C19295,3230 19565,3270 19587,3275C19601,3278 19612,3291 19616,3307C19623,3332 19613,3345 19502,3450L19382,3565L19410,3724C19440,3893 19439,3920 19398,3920C19387,3920 19314,3887 19236,3846L19095,3772L18956,3846C18879,3887 18808,3920 18799,3920C18790,3920 18776,3913 18769,3904Z" style="fill:white;fill-rule:nonzero;"/>
        <path d="M11152,2733C11146,2721 11151,2661 11168,2557L11194,2400L11076,2281C10971,2175 10958,2159 10964,2136C10971,2106 10967,2107 11159,2080C11239,2069 11305,2059 11306,2057C11307,2056 11339,1992 11378,1915C11452,1766 11467,1746 11494,1756C11504,1760 11545,1830 11586,1911C11627,1993 11663,2060 11668,2060C11672,2060 11744,2071 11829,2084C11948,2102 11987,2112 11997,2126C12004,2136 12010,2148 12010,2152C12010,2157 11956,2213 11889,2278L11769,2395L11796,2556C11811,2644 11821,2724 11817,2733C11806,2763 11768,2752 11623,2678L11482,2605L11342,2678C11197,2753 11167,2762 11152,2733Z" style="fill:white;fill-rule:nonzero;"/>
        <path d="M1403,2278C1396,2269 1398,2234 1409,2172L1424,2080L1357,2012C1320,1975 1290,1937 1290,1927C1290,1918 1293,1910 1296,1910C1306,1910 1445,1889 1467,1884C1484,1881 1502,1856 1535,1789C1561,1738 1586,1700 1593,1702C1602,1705 1678,1835 1692,1873C1694,1877 1737,1887 1787,1895C1927,1916 1928,1918 1830,2009L1759,2075L1776,2173C1800,2303 1796,2306 1681,2246L1590,2199L1506,2245C1413,2296 1416,2295 1403,2278Z" style="fill:white;fill-rule:nonzero;"/>
        <path d="M28304,2244C28288,2236 28222,2201 28157,2167L28038,2105L27900,2178C27761,2251 27715,2264 27703,2234C27700,2225 27709,2145 27725,2056L27752,1895L27638,1785C27575,1725 27521,1668 27518,1658C27503,1621 27531,1609 27695,1584C27783,1571 27856,1560 27857,1560C27859,1560 27894,1492 27935,1409C28007,1267 28012,1259 28038,1262C28062,1265 28074,1282 28137,1405C28177,1482 28210,1548 28212,1552C28214,1557 28289,1571 28379,1585C28540,1609 28559,1616 28560,1650C28560,1658 28507,1718 28443,1782L28325,1900L28353,2061C28368,2149 28378,2225 28375,2230C28360,2253 28333,2259 28304,2244Z" style="fill:white;fill-rule:nonzero;"/>
        <path d="M8330,2158C8331,2145 8335,2115 8340,2090C8348,2046 8348,2044 8304,2000C8280,1975 8260,1949 8260,1943C8260,1936 8287,1929 8323,1925L8386,1918L8415,1862C8432,1831 8450,1804 8457,1802C8464,1800 8483,1825 8499,1858L8529,1917L8589,1924C8622,1928 8652,1936 8656,1941C8659,1947 8641,1974 8615,2000L8568,2048L8578,2107C8584,2139 8585,2169 8580,2173C8576,2178 8546,2168 8514,2152L8455,2122L8405,2151C8345,2186 8330,2187 8330,2158Z" style="fill:white;fill-rule:nonzero;"/>
        <path d="M17954,1776C17951,1769 17956,1721 17965,1669L17981,1576L17911,1512C17841,1449 17827,1424 17854,1414C17862,1411 17907,1403 17954,1396C18001,1389 18042,1381 18044,1379C18046,1377 18066,1338 18089,1293C18111,1248 18133,1209 18138,1206C18153,1197 18168,1215 18209,1297C18254,1387 18247,1383 18364,1400C18402,1406 18437,1413 18442,1416C18460,1427 18447,1447 18383,1512L18316,1580L18332,1672C18354,1802 18349,1806 18234,1746L18146,1701L18063,1745C17973,1794 17962,1797 17954,1776Z" style="fill:white;fill-rule:nonzero;"/>
        <path d="M24887,1673C24884,1668 24887,1639 24892,1607L24902,1548L24854,1499C24828,1472 24810,1447 24814,1443C24818,1438 24849,1431 24883,1425L24945,1415L24975,1358C24992,1326 25010,1301 25015,1303C25021,1305 25038,1331 25055,1362L25084,1419L25142,1425C25174,1429 25203,1436 25206,1442C25210,1447 25192,1473 25167,1498L25122,1545L25133,1607C25139,1642 25141,1673 25137,1677C25133,1680 25102,1670 25069,1654L25008,1625L24959,1653C24908,1681 24894,1685 24887,1673Z" style="fill:white;fill-rule:nonzero;"/>
    </g>
</svg>
