<svg width="602" height="135" viewBox="0 0 602 135" version="1.1" xmlns="http://www.w3.org/2000/svg" xmlns:xlink="http://www.w3.org/1999/xlink" xml:space="preserve" style="fill-rule:evenodd;clip-rule:evenodd;stroke-linejoin:round;stroke-miterlimit:1.41421;">
    <g id="Layer1">
        <rect x="-0.802" y="106.418" width="177.67" height="7.264"/>
        <g transform="matrix(0.99056,0,0,0.933754,0.108149,8.93313)">
            <rect x="-0.129" y="112.129" width="11.585" height="22.927"/>
        </g>
        <g transform="matrix(1,0,0,0.910139,0,12.1353)">
            <rect x="23.886" y="111.455" width="23.993" height="23.591"/>
        </g>
        <g transform="matrix(1,0,0,0.959829,0,5.56523)">
            <rect x="53.111" y="112.518" width="23.98" height="22.396"/>
        </g>
        <g transform="matrix(1,0,0,0.988882,0,1.60931)">
            <rect x="85.939" y="113.235" width="23.775" height="21.7"/>
        </g>
        <g transform="matrix(1,0,0,0.971247,0,4.13057)">
            <rect x="114.057" y="112.693" width="23.789" height="22.094"/>
        </g>
        <g transform="matrix(1,0,0,0.971247,66.125,4.13057)">
            <rect x="114.057" y="112.693" width="23.789" height="22.094"/>
        </g>
        <g transform="matrix(1,0,0,0.971247,102.514,4.13057)">
            <rect x="114.057" y="112.693" width="23.789" height="22.094"/>
        </g>
        <g transform="matrix(1,0,0,0.971247,163.983,4.13057)">
            <rect x="114.057" y="112.693" width="23.789" height="22.094"/>
        </g>
        <g transform="matrix(1,0,0,0.971247,191.512,4.13057)">
            <rect x="114.057" y="112.693" width="23.789" height="22.094"/>
        </g>
        <g transform="matrix(1.01937,0,0,0.990058,222.75,2.01067)">
            <rect x="114.057" y="112.693" width="23.789" height="22.094"/>
        </g>
        <g transform="matrix(1.01937,0,0,0.990058,258.271,2.01067)">
            <rect x="114.057" y="112.693" width="23.789" height="22.094"/>
        </g>
        <g transform="matrix(1,0,0,0.971247,163.983,-76.2569)">
            <rect x="114.057" y="112.693" width="23.789" height="22.094"/>
        </g>
        <g transform="matrix(1,0,0,0.971247,191.512,-76.2569)">
            <rect x="114.057" y="112.693" width="23.789" height="22.094"/>
        </g>
        <g transform="matrix(1.01937,0,0,0.990058,222.75,-78.3768)">
            <rect x="114.057" y="112.693" width="23.789" height="22.094"/>
        </g>
        <g transform="matrix(1.01937,0,0,0.990058,258.271,-78.3768)">
            <rect x="114.057" y="112.693" width="23.789" height="22.094"/>
        </g>
        <g transform="matrix(1,0,0,1,-0.4,0)">
            <rect x="278.576" y="48.697" width="13.55" height="72.328"/>
        </g>
        <g transform="matrix(1,0,0,0.993122,0,0.931254)">
            <rect x="146.316" y="12.124" width="25.22" height="123.28"/>
        </g>
        <g transform="matrix(1,0,0,1,0,0.0371671)">
            <path d="M146.314,12.974L158.922,1.458L171.538,12.975L146.314,12.974Z"/>
        </g>
        <g transform="matrix(1,0,0,0.993122,98.9554,0.931254)">
            <rect x="146.316" y="12.124" width="25.22" height="123.28"/>
        </g>
        <g transform="matrix(1,0,0,1,98.9554,0.0371671)">
            <path d="M146.314,12.974L158.922,1.458L171.538,12.975L146.314,12.974Z"/>
        </g>
        <g transform="matrix(1,0,0,0.993122,266.359,0.931254)">
            <rect x="146.316" y="12.124" width="25.22" height="123.28"/>
        </g>
        <g transform="matrix(1,0,0,1,266.359,0.0371671)">
            <path d="M146.314,12.974L158.922,1.458L171.538,12.975L146.314,12.974Z"/>
        </g>
        <g transform="matrix(1,0,0,0.993122,294.917,0.931254)">
            <rect x="146.316" y="12.124" width="25.22" height="123.28"/>
        </g>
        <g transform="matrix(1,0,0,1,294.917,0.0371671)">
            <path d="M146.314,12.974L158.922,1.458L171.538,12.975L146.314,12.974Z"/>
        </g>
        <g transform="matrix(1,0,0,0.993122,327.971,0.931254)">
            <rect x="146.316" y="12.124" width="25.22" height="123.28"/>
        </g>
        <g transform="matrix(1,0,0,1,327.971,0.0371671)">
            <path d="M146.314,12.974L158.922,1.458L171.538,12.975L146.314,12.974Z"/>
        </g>
        <g transform="matrix(1,0,0,0.993122,356.914,0.931254)">
            <rect x="146.316" y="12.124" width="25.22" height="123.28"/>
        </g>
        <g transform="matrix(1,0,0,1,356.914,0.0371671)">
            <path d="M146.314,12.974L158.922,1.458L171.538,12.975L146.314,12.974Z"/>
        </g>
        <g transform="matrix(1,0,0,0.993122,389.545,0.931254)">
            <rect x="146.316" y="12.124" width="25.22" height="123.28"/>
        </g>
        <g transform="matrix(1,0,0,1,389.545,0.0371671)">
            <path d="M146.314,12.974L158.922,1.458L171.538,12.975L146.314,12.974Z"/>
        </g>
        <g transform="matrix(1,0,0,0.993122,421.631,0.931254)">
            <rect x="146.316" y="12.124" width="25.22" height="123.28"/>
        </g>
        <g transform="matrix(1,0,0,1,421.631,0.0371671)">
            <path d="M146.314,12.974L158.922,1.458L171.538,12.975L146.314,12.974Z"/>
        </g>
        <rect x="139.946" y="39.04" width="462.318" height="17.544"/>
        <g transform="matrix(0.422616,0,0,1,347.738,54.6901)">
            <rect x="139.946" y="39.04" width="462.318" height="17.544"/>
        </g>
        <g transform="matrix(0.0966597,0,0,1,233.257,54.6901)">
            <rect x="139.946" y="39.04" width="462.318" height="17.544"/>
        </g>
        <g transform="matrix(0.0966597,0,0,1,127.042,54.6901)">
            <rect x="139.946" y="39.04" width="462.318" height="17.544"/>
        </g>
    </g>
</svg>
