<svg width="206" height="320" viewBox="0 0 206 320" version="1.1" xmlns="http://www.w3.org/2000/svg" xmlns:xlink="http://www.w3.org/1999/xlink" xml:space="preserve" style="fill-rule:evenodd;clip-rule:evenodd;stroke-linecap:round;stroke-linejoin:round;stroke-miterlimit:1.5;">
    <g id="Layer1">
        <g transform="matrix(0.999138,0,0,1.0162,0.0141255,-5.02067)">
            <rect x="16.391" y="182.938" width="172.247" height="127.003" style="fill:rgb(51,51,51);"/>
        </g>
        <g transform="matrix(-1.4421,0,0,0.974382,206.894,-0.0233211)">
            <rect x="0.482" y="-0.91" width="3.645" height="38.815" style="fill:rgb(60,60,60);"/>
        </g>
        <g transform="matrix(0.997444,0,0,1.04017,0.0418985,-160.904)">
            <rect x="16.391" y="182.938" width="172.247" height="127.003" style="fill:rgb(40,40,40);"/>
        </g>
        <rect x="158.365" y="310.074" width="30.602" height="9.93" style="fill:rgb(40,40,40);"/>
        <g transform="matrix(1,0,0,1,-141.993,0)">
            <rect x="158.365" y="310.074" width="30.602" height="9.93" style="fill:rgb(40,40,40);"/>
        </g>
        <g transform="matrix(0.994056,-0.10887,0.10887,0.994056,-10.6292,12.5987)">
            <path d="M47.029,53.641L79.322,25.994L100.92,24.387L44.005,72.835L47.029,53.641Z" style="fill:rgb(94,94,94);"/>
        </g>
        <g transform="matrix(0.994056,-0.10887,0.10887,0.994056,-10.6292,12.5987)">
            <path d="M46.021,53.531L82.1,22.832L100.92,24.387L44.005,72.835L46.021,53.531Z" style="fill:rgb(44,44,44);"/>
        </g>
        <g transform="matrix(0.994056,-0.10887,0.10887,0.994056,13.0766,31.6856)">
            <path d="M16.85,79.943L101.447,6.678L121.063,8.5L11.912,101.547L16.85,79.943Z" style="fill:rgb(44,44,44);"/>
        </g>
        <g transform="matrix(0.994056,-0.10887,0.10887,0.994056,69.5589,92.3885)">
            <path d="M16.85,79.943L95.955,11.085L117.692,10.695L30.453,85.565L16.85,79.943Z" style="fill:rgb(44,44,44);"/>
        </g>
        <g transform="matrix(0.994056,-0.10887,0.10887,0.994056,65.4329,91.367)">
            <path d="M27.989,81.163L107.095,12.305L117.692,10.695L30.453,85.565L27.989,81.163Z" style="fill:rgb(47,47,47);"/>
        </g>
        <g transform="matrix(0.994056,-0.10887,0.10887,0.994056,-23.8034,19.9442)">
            <path d="M61.391,51.993L107.095,12.305L117.692,10.695L65.847,54.145L61.391,51.993Z" style="fill:rgb(47,47,47);"/>
        </g>
        <g transform="matrix(0.994056,-0.10887,0.10887,0.994056,11.5937,72.2998)">
            <path d="M16.85,79.943L145.727,-30.425L164.91,-28.278L15.82,97.92L16.85,79.943Z" style="fill:rgb(44,44,44);"/>
        </g>
        <g transform="matrix(0.994056,-0.10887,0.10887,0.994056,7.02239,71.5703)">
            <path d="M14.309,91.374L158.41,-29.952L164.91,-28.278L15.82,97.92L14.309,91.374Z" style="fill:rgb(47,47,47);"/>
        </g>
        <g transform="matrix(0.994056,-0.10887,0.10887,0.994056,30.3903,94.0798)">
            <path d="M16.85,79.943L135.617,-21.874L155.546,-21.774L34.742,81.789L16.85,79.943Z" style="fill:rgb(44,44,44);"/>
        </g>
        <g transform="matrix(0.994056,-0.10887,0.10887,0.994056,25.6765,93.5583)">
            <path d="M27.2,81.601L146.042,-20.209L155.546,-21.774L34.742,81.789L27.2,81.601Z" style="fill:rgb(47,47,47);"/>
        </g>
        <g transform="matrix(0.994056,-0.10887,0.10887,0.994056,-16.5677,57.2673)">
            <path d="M27.2,81.601L146.042,-20.209L155.546,-21.774L34.742,81.789L27.2,81.601Z" style="fill:rgb(47,47,47);"/>
        </g>
        <path d="M18.123,308.746C19.638,317.055 38.81,310.368 43.454,309.297C45.865,308.741 46.536,304.731 45.988,302.318C41.045,280.555 33.225,181.302 36.551,180.802L18.674,178.922C18.674,178.922 13.993,286.1 18.123,308.746Z" style="fill:rgb(40,40,40);stroke:rgb(27,27,27);stroke-width:4.5px;"/>
        <g transform="matrix(0.590424,0,0,1,18.9089,0)">
            <path d="M18.123,308.746C19.638,317.055 38.81,310.368 43.454,309.297C45.865,308.741 46.536,304.731 45.988,302.318C41.045,280.555 33.225,181.302 36.551,180.802L18.674,178.922C18.674,178.922 13.993,286.1 18.123,308.746Z" style="fill:rgb(51,51,51);stroke:rgb(27,27,27);stroke-width:5.48px;"/>
        </g>
        <g transform="matrix(-0.92488,0,0,1,202.972,0)">
            <path d="M18.123,308.746C19.638,317.055 38.81,310.368 43.454,309.297C45.865,308.741 46.536,304.731 45.988,302.318C41.045,280.555 33.225,181.302 36.551,180.802L18.674,178.922C18.674,178.922 13.993,286.1 18.123,308.746Z" style="fill:rgb(39,39,39);stroke:rgb(27,27,27);stroke-width:4.67px;"/>
        </g>
        <g transform="matrix(-0.526203,0,0,1,184.566,0)">
            <path d="M18.123,308.746C19.638,317.055 38.81,310.368 43.454,309.297C45.865,308.741 46.536,304.731 45.988,302.318C41.045,280.555 33.225,181.302 36.551,180.802L18.674,178.922C18.674,178.922 13.993,286.1 18.123,308.746Z" style="fill:rgb(47,47,47);stroke:rgb(27,27,27);stroke-width:5.63px;"/>
        </g>
        <g transform="matrix(1,0,0,1,-0.335938,0)">
            <path d="M36.391,168.55C48.683,140.534 53.056,88.146 54.048,25.353L18.238,25.469L18.981,168.406L36.391,168.55Z" style="fill:rgb(32,32,32);stroke:rgb(27,27,27);stroke-width:4.5px;"/>
        </g>
        <g transform="matrix(0.646517,0,0,1,6.11076,0)">
            <path d="M36.391,168.55C48.683,140.534 53.056,88.146 54.048,25.353L18.238,25.469L18.981,168.406L36.391,168.55Z" style="fill:rgb(48,48,48);stroke:rgb(27,27,27);stroke-width:5.34px;"/>
        </g>
        <g transform="matrix(0.325213,0,0,1,11.9706,0)">
            <path d="M36.391,168.55C48.683,140.534 53.056,88.146 54.048,25.353L18.238,25.469L18.981,168.406L36.391,168.55Z" style="fill:rgb(60,55,55);stroke:rgb(27,27,27);stroke-width:6.05px;"/>
        </g>
        <g transform="matrix(-0.9997,0,0,1,204.975,0)">
            <path d="M36.391,168.55C48.683,140.534 53.056,88.146 54.048,25.353L18.456,24.35L18.731,168.406L36.391,168.55Z" style="fill:rgb(32,32,32);stroke:rgb(27,27,27);stroke-width:4.5px;"/>
        </g>
        <g transform="matrix(-0.659087,0,0,1,198.689,0)">
            <path d="M36.391,168.55C48.683,140.534 53.056,88.146 54.048,25.353L18.456,24.35L18.731,168.406L36.391,168.55Z" style="fill:rgb(48,48,48);stroke:rgb(27,27,27);stroke-width:5.31px;"/>
        </g>
        <g transform="matrix(-0.308468,0,0,1,192.218,0)">
            <path d="M36.391,168.55C48.683,140.534 53.056,88.146 54.048,25.353L18.456,24.35L18.731,168.406L36.391,168.55Z" style="fill:rgb(60,55,55);stroke:rgb(27,27,27);stroke-width:6.08px;"/>
        </g>
        <g transform="matrix(1.00874,0,0,1,-1.50841,0)">
            <rect x="17.277" y="161.021" width="171.237" height="20.961" style="fill:rgb(32,27,27);"/>
        </g>
        <g transform="matrix(1.01764,0,0,1.11332,-1.61245,-172.196)">
            <rect x="17.277" y="161.021" width="171.237" height="20.961" style="fill:rgb(39,39,39);"/>
        </g>
        <g transform="matrix(1.01764,0,0,0.332854,-1.61245,-35.4209)">
            <rect x="17.277" y="161.021" width="171.237" height="20.961" style="fill:rgb(46,46,46);"/>
        </g>
        <g transform="matrix(1,0,0,1.12317,0,-3.1882)">
            <rect x="184.335" y="9.032" width="4.276" height="20.942" style="fill:rgb(28,28,28);"/>
        </g>
        <g transform="matrix(1,0,0,1.12317,-34.7266,-3.1882)">
            <rect x="184.335" y="9.032" width="4.276" height="20.942" style="fill:rgb(28,28,28);"/>
        </g>
        <g transform="matrix(1,0,0,1.12317,-25.6691,-3.1882)">
            <rect x="184.335" y="9.032" width="4.276" height="20.942" style="fill:rgb(28,28,28);"/>
        </g>
        <g transform="matrix(1,0,0,1.12317,-17.058,-3.1882)">
            <rect x="184.335" y="9.032" width="4.276" height="20.942" style="fill:rgb(28,28,28);"/>
        </g>
        <g transform="matrix(1,0,0,1.12317,-8.47879,-3.1882)">
            <rect x="184.335" y="9.032" width="4.276" height="20.942" style="fill:rgb(28,28,28);"/>
        </g>
        <g transform="matrix(1,0,0,1.12317,-133.443,-3.1882)">
            <rect x="184.335" y="9.032" width="4.276" height="20.942" style="fill:rgb(28,28,28);"/>
        </g>
        <g transform="matrix(1,0,0,1.12317,-168.169,-3.1882)">
            <rect x="184.335" y="9.032" width="4.276" height="20.942" style="fill:rgb(28,28,28);"/>
        </g>
        <g transform="matrix(1,0,0,1.12317,-159.112,-3.1882)">
            <rect x="184.335" y="9.032" width="4.276" height="20.942" style="fill:rgb(28,28,28);"/>
        </g>
        <g transform="matrix(1,0,0,1.12317,-150.501,-3.1882)">
            <rect x="184.335" y="9.032" width="4.276" height="20.942" style="fill:rgb(28,28,28);"/>
        </g>
        <g transform="matrix(1,0,0,1.12317,-141.922,-3.1882)">
            <rect x="184.335" y="9.032" width="4.276" height="20.942" style="fill:rgb(28,28,28);"/>
        </g>
        <g transform="matrix(-2.76695,0,0,0.974382,200.021,-0.0233211)">
            <rect x="0.482" y="-0.91" width="3.645" height="38.815" style="fill:rgb(60,60,60);"/>
        </g>
        <g transform="matrix(-1.10588,0,0,0.610556,206.029,-12.8161)">
            <rect x="0.044" y="29.285" width="15.705" height="7.508" style="fill:rgb(32,27,27);"/>
        </g>
        <g transform="matrix(-0.190752,0,0,3.94711,201.535,-115.675)">
            <rect x="0.044" y="29.285" width="15.705" height="7.508" style="fill:rgb(32,27,27);"/>
        </g>
        <g transform="matrix(-1.11994,0,0,1.02177,206.03,-0.470903)">
            <rect x="0.044" y="29.285" width="15.705" height="7.508" style="fill:rgb(32,27,27);"/>
        </g>
        <g transform="matrix(1.25701,0,0,0.958859,-0.735916,-0.0374527)">
            <rect x="0.482" y="-0.91" width="3.645" height="38.815" style="fill:rgb(60,60,60);"/>
        </g>
        <g transform="matrix(2.57669,0,0,0.974382,5.58446,-0.0233211)">
            <rect x="0.482" y="-0.91" width="3.645" height="38.815" style="fill:rgb(60,60,60);"/>
        </g>
        <g transform="matrix(1.03644,0,0,1.01158,-0.00158901,-0.338997)">
            <rect x="0.044" y="29.285" width="15.705" height="7.508" style="fill:rgb(32,27,27);"/>
        </g>
        <g transform="matrix(1.02922,0,0,0.610556,-0.00127431,-12.8161)">
            <rect x="0.044" y="29.285" width="15.705" height="7.508" style="fill:rgb(32,27,27);"/>
        </g>
        <g transform="matrix(0.179229,0,0,3.94711,4.22096,-115.675)">
            <rect x="0.044" y="29.285" width="15.705" height="7.508" style="fill:rgb(32,27,27);"/>
        </g>
        <g transform="matrix(0.970795,0,0,1,0.682061,1.17266)">
            <rect x="23.354" y="166.182" width="161.84" height="8.565" style="fill:rgb(36,36,36);"/>
        </g>
    </g>
</svg>
