<svg width="135" height="203" viewBox="0 0 135 203" version="1.1" xmlns="http://www.w3.org/2000/svg" xmlns:xlink="http://www.w3.org/1999/xlink" xml:space="preserve" style="fill-rule:evenodd;clip-rule:evenodd;stroke-linejoin:round;stroke-miterlimit:1.41421;">
    <g>
        <g transform="matrix(0.582334,0,0,1,24.0288,0.320695)">
            <rect x="54.628" y="2.343" width="21.349" height="147.892" style="fill:rgb(31,31,31);"/>
        </g>
        <g transform="matrix(1.2768,0.0919993,-0.00909073,0.0829204,-39.2461,20.0963)">
            <rect x="54.628" y="2.343" width="21.349" height="147.892" style="fill:rgb(31,31,31);"/>
        </g>
        <g transform="matrix(1.2768,0.0919993,-0.00909073,0.0829204,-1.40607,27.0815)">
            <rect x="54.628" y="2.343" width="21.349" height="147.892" style="fill:rgb(31,31,31);"/>
        </g>
        <path d="M52.459,138.941C47.487,140.853 47.194,146.898 43.366,149.662C39.763,152.265 33.133,154.615 29.495,157.171C25.378,160.063 21.104,165.786 17.365,168.436C14.447,170.505 8.579,172.406 8.579,172.406L8.356,182.767L120.249,183.381L120.388,170.959C120.388,170.959 115.139,170.489 112.323,169.524C107.941,168.022 101.502,158.049 94.873,159.288C88.386,160.501 82.518,151.207 76.657,143.438C73.457,139.196 67.123,136.185 65.378,135.861C61.345,135.111 57.796,136.889 52.459,138.941Z" style="fill:rgb(31,31,31);"/>
        <g transform="matrix(0.974452,0,0,0.851055,2.79863,0.16045)">
            <path d="M48.283,48.093C50.341,49.757 52.046,52.189 52.976,56.31L76.621,39.863C73.592,36.02 71.276,31.051 70.146,24.209L48.283,48.093Z" style="fill:rgb(31,31,31);"/>
        </g>
    </g>
    <g transform="matrix(1,0,0,1,7.6724,146.86)">
        <path d="M0.249,25.671C7.275,26.075 11.009,21.646 7.984,10.778C10.527,15.421 11.781,23.784 14.694,24.503C14.206,19.259 14.209,9.119 12.767,4.382L19.554,21.249C20.727,23.355 21.98,23.901 23.331,22.564C24.595,20.008 25.083,17.424 25.441,14.834C25.472,18.965 26.471,22.555 28.215,25.728C30.261,21 31.48,16.289 31.831,11.597C33.806,18.5 34.277,25.587 38.884,24.313C44.353,21.504 46.692,16.712 46.042,10.27C47.503,22.282 53.491,29.981 54.026,18.849C54.242,14.371 52.443,9.742 50.663,5.115C53.741,12.844 56.862,20.077 60.211,21.92C62.588,20.491 63.698,18.378 63.139,15.382C63.611,16.867 64.312,18.161 65.373,19.153C69.999,17.758 69.723,14.766 68.946,12.031C69.922,17.856 71.847,21.18 75.931,19.42C75.769,15.919 74.784,12.415 73.797,8.911C75.501,15.724 77.956,22.055 81.384,25.53C84.634,23.816 85.682,21.068 85.435,18.086C85.604,21.1 86.173,24.402 87.581,26.185C88.824,24.52 88.221,27.226 88.221,27.226L0.249,25.671Z" style="fill:rgb(31,31,31);"/>
    </g>
    <g transform="matrix(1,0,0,1,29.7552,132.059)">
        <path d="M1.275,27.722C8.301,28.126 11.009,21.646 7.984,10.778C10.527,15.421 11.781,23.784 14.694,24.503C14.206,19.259 14.209,9.119 12.767,4.382L19.554,21.249C20.727,23.355 21.98,23.901 23.331,22.564C24.595,20.008 25.083,17.424 25.441,14.834C25.472,18.965 26.471,22.555 28.215,25.728C30.261,21 31.48,16.289 31.831,11.597C33.806,18.5 34.277,25.587 38.884,24.313C44.353,21.504 46.692,16.712 46.042,10.27C46.453,13.651 47.223,16.69 48.129,19.063C50.442,25.124 53.642,26.848 54.026,18.849C54.242,14.371 52.443,9.742 50.663,5.115C53.741,12.844 58.382,26.435 61.731,28.278C64.108,26.849 1.275,27.722 1.275,27.722Z" style="fill:rgb(31,31,31);"/>
    </g>
    <g transform="matrix(1,0,0,1,31.4937,144.54)">
        <path d="M0.249,25.671C7.275,26.075 11.009,21.646 7.984,10.778C10.527,15.421 11.781,23.784 14.694,24.503C14.206,19.259 14.209,9.119 12.767,4.382L19.554,21.249C20.727,23.355 21.98,23.901 23.331,22.564C24.595,20.008 25.083,17.424 25.441,14.834C25.472,18.965 26.471,22.555 28.215,25.728C30.261,21 31.48,16.289 31.831,11.597C33.806,18.5 34.277,25.587 38.884,24.313C44.353,21.504 46.692,16.712 46.042,10.27C47.503,22.282 53.491,29.981 54.026,18.849C54.242,14.371 52.443,9.742 50.663,5.115C53.741,12.844 56.862,20.077 60.211,21.92C62.588,20.491 63.698,18.378 63.139,15.382C63.611,16.867 64.312,18.161 65.373,19.153C69.999,17.758 69.723,14.766 68.946,12.031C69.922,17.856 71.847,21.18 75.931,19.42C75.769,15.919 74.784,12.415 73.797,8.911C75.501,15.724 77.956,22.055 81.384,25.53C84.634,23.816 85.682,21.068 85.435,18.086C85.604,21.1 86.173,24.402 87.581,26.185C88.824,24.52 88.221,27.226 88.221,27.226L0.249,25.671Z" style="fill:rgb(31,31,31);"/>
    </g>
</svg>
