<svg width="548" height="840" viewBox="0 0 548 840" version="1.1" xmlns="http://www.w3.org/2000/svg" xmlns:xlink="http://www.w3.org/1999/xlink" xml:space="preserve" style="fill-rule:evenodd;clip-rule:evenodd;stroke-linejoin:round;stroke-miterlimit:1.41421;">
    <g transform="matrix(0.1,0,0,-0.1,0,840)">
        <g transform="matrix(1,0,0,1,0,-74.0625)">
            <path d="M5060,8335L5060,8270L5150,8270L5150,8400L5105,8400L5060,8400L5060,8335Z" style="fill:rgb(24,24,24);fill-rule:nonzero;"/>
        </g>
        <g transform="matrix(1,0,0,1,0,-74.0625)">
            <path d="M3320,8320L3320,8270L3275,8270L3230,8270L3230,8180L3230,8090L3320,8090L3320,8270L3420,8270L3420,8370L3370,8370L3320,8370L3320,8320Z" style="fill:rgb(24,24,24);fill-rule:nonzero;"/>
        </g>
        <g transform="matrix(1,0,0,1,0,-74.0625)">
            <path d="M2420,8000L2420,7910L2510,7910L2510,8090L2465,8090L2420,8090L2420,8000Z" style="fill:rgb(24,24,24);fill-rule:nonzero;"/>
        </g>
        <g transform="matrix(1,0,0,1,0,-74.0625)">
            <path d="M4880,8045L4880,8000L4970,8000L4970,8090L4925,8090L4880,8090L4880,8045Z" style="fill:rgb(24,24,24);fill-rule:nonzero;"/>
        </g>
        <g transform="matrix(1,0,0,1,0,-74.0625)">
            <path d="M5060,8045L5060,8000L5150,8000L5150,8090L5105,8090L5060,8090L5060,8045Z" style="fill:rgb(24,24,24);fill-rule:nonzero;"/>
        </g>
        <g transform="matrix(1,0,0,1,0,-74.0625)">
            <path d="M3140,7730L3140,7460L3095,7460L3050,7460L3050,7315L3050,7170L3005,7170L2960,7170L2960,7080L2960,6990L2915,6990L2870,6990L2870,6855L2870,6720L2825,6720L2780,6720L2780,6585L2780,6450L2735,6450L2690,6450L2690,6265L2690,6080L2645,6080L2600,6080L2600,5765L2600,5450L2555,5450L2510,5450L2510,5540L2465,5540L2420,5540L2420,6810L2375,6810L2330,6810L2330,6630L2330,6450L2275,6450L2220,6450L2220,7550L2330,7550L2330,7640L2420,7640L2420,7820L2320,7820L2220,7820L2220,7730L2220,7640L2175,7640L2130,7640L2130,7405L2130,7170L2085,7170L2040,7170L2040,7125L2040,7080L2130,7080L2130,6765L2130,6450L2040,6450L1950,6450L1950,6405L1950,6360L2130,6360L2130,6265L2130,6170L2220,6170L2220,5855L2220,5540L2330,5540L2330,5125L2330,4710L2230,4710L2130,4710L2130,5070L2085,5070L2040,5070L2040,5270L1995,5270L1950,5270L1950,5540L1905,5540L1860,5540L1860,5900L1815,5900L1770,5900L1770,5855L1770,5810L1725,5810L1680,5810L1680,5900L1635,5900L1590,5900L1590,6080L1500,6080L1410,6080L1410,6035L1410,5990L1500,5990L1500,5945L1500,5900L1590,5900L1590,5765L1590,5630L1680,5630L1680,5540L1680,5450L1770,5450L1770,5315L1770,5180L1860,5180L1860,4945L1860,4710L1950,4710L1950,4620L1950,4530L2040,4530L2040,4395L2040,4260L2130,4260L2130,4165L2130,4070L2085,4070L2040,4070L2040,4170L1995,4170L1950,4170L1950,4260L1905,4260L1860,4260L1860,4350L1770,4350L1680,4350L1680,4440L1635,4440L1590,4440L1590,4530L1500,4530L1410,4530L1410,4620L1320,4620L1230,4620L1230,4710L1135,4710L1040,4710L1040,4800L905,4800L770,4800L770,4755L770,4710L950,4710L950,4620L950,4530L1130,4530L1130,4485L1130,4440L1320,4440L1320,4395L1320,4350L1410,4350L1410,4305L1410,4260L1500,4260L1500,4215L1500,4170L1410,4170L1320,4170L1320,4260L1225,4260L1130,4260L1130,4350L1040,4350L950,4350L950,4440L860,4440L770,4440L770,4395L770,4350L950,4350L950,4305L950,4260L1040,4260L1040,4215L1040,4170L1130,4170L1130,4120L1130,4070L1230,4070L1230,4170L1320,4170L1320,4120L1320,4070L1410,4070L1410,4025L1410,3980L1270,3980L1130,3980L1130,3935L1130,3890L1500,3890L1500,3980L1770,3980L1770,3935L1770,3890L1860,3890L1860,3755L1860,3620L1950,3620L1950,3530L1950,3440L2040,3440L2040,3395L2040,3350L2130,3350L2130,2435L2130,1520L2085,1520L2040,1520L2040,1340L2040,1160L1995,1160L1950,1160L1950,970L1950,780L1860,780L1770,780L1770,735L1770,690L1860,690L1860,645L1860,600L1770,600L1680,600L1680,375L1680,150L1635,150L1590,150L1590,105L1590,60L1545,60C1502,60 1500,59 1500,30L1500,0L3780,0L3780,30C3780,59 3778,60 3735,60L3690,60L3690,150L3600,150L3510,150L3510,240L3465,240L3420,240L3420,330L3370,330L3320,330L3320,420L3420,420L3420,510L3370,510L3320,510L3320,465L3320,420L3275,420L3230,420L3230,600L3320,600L3320,690L3275,690L3230,690L3230,780L3185,780L3140,780L3140,870L3230,870L3230,1070L3185,1070L3140,1070L3140,1160L3095,1160L3050,1160L3050,1340L2960,1340L2870,1340L2870,2700L2825,2700L2780,2700L2780,3260L2870,3260L2870,3710L2960,3710L2960,3800L3050,3800L3050,3890L3140,3890L3140,3980L3230,3980L3230,4070L3420,4070L3420,4170L3600,4170L3600,4260L3780,4260L3780,4350L3960,4350L3960,4440L4140,4440L4140,4530L4005,4530L3870,4530L3870,4485L3870,4440L3825,4440L3780,4440L3780,4395L3780,4350L3735,4350L3690,4350L3690,4440L3600,4440L3510,4440L3510,4395L3510,4350L3465,4350L3420,4350L3420,4305L3420,4260L3325,4260L3230,4260L3230,4215L3230,4170L3140,4170L3050,4170L3050,4260L3140,4260L3140,4530L3230,4530L3230,4620L3320,4620L3320,4710L3960,4710L3960,4800L4140,4800L4140,4755L4140,4710L4230,4710L4230,4800L4185,4800L4140,4800L4140,4890L3915,4890L3690,4890L3690,4845L3690,4800L3460,4800L3230,4800L3230,4980L3320,4980L3320,5070L3420,5070L3420,5180L3600,5180L3600,5270L3690,5270L3690,5360L3780,5360L3780,5450L4050,5450L4050,5540L4320,5540L4320,5630L4610,5630L4610,5720L4700,5720L4700,5810L4790,5810L4790,5900L5060,5900L5060,5990L5330,5990L5330,6080L5150,6080L4970,6080L4970,6035L4970,5990L4880,5990L4790,5990L4790,5945L4790,5900L4700,5900L4610,5900L4610,5855L4610,5810L4565,5810L4520,5810L4520,5765L4520,5720L4375,5720L4230,5720L4230,5675L4230,5630L4050,5630L3870,5630L3870,5585L3870,5540L3825,5540L3780,5540L3780,5495L3780,5450L3690,5450L3600,5450L3600,5405L3600,5360L3510,5360L3420,5360L3420,5315L3420,5270L3370,5270L3320,5270L3320,5630L3420,5630L3420,5900L3510,5900L3510,6080L3600,6080L3600,6270L3690,6270L3690,6360L3960,6360L3960,6450L3870,6450L3780,6450L3780,6630L3870,6630L3870,6720L3960,6720L3960,6810L4050,6810L4050,6900L4140,6900L4140,6990L4230,6990L4230,7080L4320,7080L4320,7170L4520,7170L4520,7280L4790,7280L4790,7370L4655,7370L4520,7370L4520,7325L4520,7280L4420,7280L4320,7280L4320,7225L4320,7170L4275,7170L4230,7170L4230,7280L4185,7280L4140,7280L4140,7180L4140,7080L4095,7080L4050,7080L4050,7035L4050,6990L4005,6990L3960,6990L3960,6945L3960,6900L3915,6900L3870,6900L3870,6855L3870,6810L3825,6810L3780,6810L3780,6720L3780,6630L3735,6630L3690,6630L3690,6585L3690,6540L3645,6540L3600,6540L3600,6450L3600,6360L3555,6360L3510,6360L3510,6315L3510,6270L3465,6270L3420,6270L3420,6360L3325,6360L3230,6360L3230,6175L3230,5990L3140,5990L3050,5990L3050,5945L3050,5900L3005,5900L2960,5900L2960,5855L2960,5810L2915,5810L2870,5810L2870,5765L2870,5720L2825,5720L2780,5720L2780,5675L2780,5630L2735,5630L2690,5630L2690,5810L2780,5810L2780,6170L2870,6170L2870,6630L2960,6630L2960,6900L3050,6900L3050,6990L3230,6990L3230,7080L3320,7080L3320,7170L3275,7170L3230,7170L3230,7125L3230,7080L3185,7080L3140,7080L3140,7370L3230,7370L3230,7460L3320,7460L3320,7550L3420,7550L3420,7730L3370,7730L3320,7730L3320,7685L3320,7640L3275,7640L3230,7640L3230,8000L3185,8000L3140,8000L3140,7730ZM3420,6125L3420,6080L3370,6080L3320,6080L3320,6170L3420,6170L3420,6125ZM3140,5630L3140,5360L3095,5360L3050,5360L3050,5215L3050,5070L3005,5070L2960,5070L2960,4980L2960,4890L2915,4890L2870,4890L2870,4845L2870,4800L2825,4800L2780,4800L2780,4710L2780,4620L2735,4620L2690,4620L2690,4575L2690,4530L2645,4530L2600,4530L2600,4800L2690,4800L2690,4890L2645,4890L2600,4890L2600,4980L2690,4980L2690,5450L2780,5450L2780,5540L2870,5540L2870,5720L2960,5720L2960,5810L3050,5810L3050,5900L3140,5900L3140,5630ZM1590,4120L1590,4070L1545,4070L1500,4070L1500,4170L1590,4170L1590,4120Z" style="fill:rgb(24,24,24);fill-rule:nonzero;"/>
        </g>
        <g transform="matrix(1,0,0,1,0,-74.0625)">
            <path d="M4610,7865L4610,7820L4565,7820L4520,7820L4520,7775L4520,7730L4465,7730L4410,7730L4410,7685L4410,7640L4320,7640L4230,7640L4230,7595L4230,7550L4140,7550L4050,7550L4050,7505L4050,7460L4230,7460L4230,7415L4230,7370L4320,7370L4320,7460L4520,7460L4520,7550L4465,7550L4410,7550L4410,7640L4610,7640L4610,7595L4610,7550L4700,7550L4700,7640L4655,7640L4610,7640L4610,7730L4700,7730L4700,7910L4655,7910L4610,7910L4610,7865ZM4320,7505L4320,7460L4275,7460L4230,7460L4230,7550L4320,7550L4320,7505Z" style="fill:rgb(24,24,24);fill-rule:nonzero;"/>
        </g>
        <g transform="matrix(1,0,0,1,0,-74.0625)">
            <path d="M4790,7865L4790,7820L4970,7820L4970,7910L4880,7910L4790,7910L4790,7865Z" style="fill:rgb(24,24,24);fill-rule:nonzero;"/>
        </g>
        <g transform="matrix(1,0,0,1,0,-74.0625)">
            <path d="M3960,7325L3960,7280L3915,7280L3870,7280L3870,7225L3870,7170L3960,7170L3960,7280L4050,7280L4050,7370L4005,7370L3960,7370L3960,7325Z" style="fill:rgb(24,24,24);fill-rule:nonzero;"/>
        </g>
        <g transform="matrix(1,0,0,1,0,-74.0625)">
            <path d="M3780,7035L3780,6990L3870,6990L3870,7080L3825,7080L3780,7080L3780,7035Z" style="fill:rgb(24,24,24);fill-rule:nonzero;"/>
        </g>
        <g transform="matrix(1,0,0,1,0,-74.0625)">
            <path d="M4320,6945L4320,6900L4410,6900L4410,6990L4365,6990L4320,6990L4320,6945Z" style="fill:rgb(24,24,24);fill-rule:nonzero;"/>
        </g>
        <g transform="matrix(1,0,0,1,0,-74.0625)">
            <path d="M3600,6855L3600,6810L3555,6810L3510,6810L3510,6765L3510,6720L3465,6720L3420,6720L3420,6675L3420,6630L3510,6630L3510,6720L3600,6720L3600,6810L3690,6810L3690,6900L3645,6900L3600,6900L3600,6855Z" style="fill:rgb(24,24,24);fill-rule:nonzero;"/>
        </g>
        <g transform="matrix(1,0,0,1,0,-74.0625)">
            <path d="M3230,6585L3230,6450L3420,6450L3420,6540L3370,6540L3320,6540L3320,6720L3275,6720L3230,6720L3230,6585Z" style="fill:rgb(24,24,24);fill-rule:nonzero;"/>
        </g>
        <g transform="matrix(1,0,0,1,0,-74.0625)">
            <path d="M320,4485L320,4440L680,4440L680,4530L500,4530L320,4530L320,4485Z" style="fill:rgb(24,24,24);fill-rule:nonzero;"/>
        </g>
        <g transform="matrix(1,0,0,1,0,-74.0625)">
            <path d="M680,3890L680,3800L500,3800L320,3800L320,3755L320,3710L680,3710L680,3800L1040,3800L1040,3890L905,3890L770,3890L770,3980L725,3980L680,3980L680,3890Z" style="fill:rgb(24,24,24);fill-rule:nonzero;"/>
        </g>
    </g>
</svg>
