
<svg width="60" height="1050" viewBox="0 0 60 1050" version="1.1" xmlns="http://www.w3.org/2000/svg" xmlns:xlink="http://www.w3.org/1999/xlink" xml:space="preserve" style="fill-rule:evenodd;clip-rule:evenodd;stroke-linejoin:round;stroke-miterlimit:1.41421;">
    <g transform="matrix(1.17104,0,0,8.22312,-0.70978,6.40833)">
        <rect x="0.676" y="-0.775" width="3.474" height="127.667" style="fill:rgb(71,71,71);"/>
    </g>
    <g transform="matrix(1.17104,0,0,8.22312,54.9954,6.40833)">
        <rect x="0.676" y="-0.775" width="3.474" height="127.667" style="fill:rgb(71,71,71);"/>
    </g>
    <rect x="3.358" y="25.001" width="53.523" height="5.901" style="fill:rgb(71,71,71);"/>
    <g transform="matrix(1,0,0,1,0,69)">
        <rect x="3.358" y="25.001" width="53.523" height="5.901" style="fill:rgb(71,71,71);"/>
    </g>
    <g transform="matrix(1,0,0,1,0,134.93)">
        <rect x="3.358" y="25.001" width="53.523" height="5.901" style="fill:rgb(71,71,71);"/>
    </g>
    <g transform="matrix(1,0,0,1,0,203.292)">
        <rect x="3.358" y="25.001" width="53.523" height="5.901" style="fill:rgb(71,71,71);"/>
    </g>
    <g transform="matrix(1,0,0,1,0,270.194)">
        <rect x="3.358" y="25.001" width="53.523" height="5.901" style="fill:rgb(71,71,71);"/>
    </g>
    <g transform="matrix(1,0,0,1,0,338.906)">
        <rect x="3.358" y="25.001" width="53.523" height="5.901" style="fill:rgb(71,71,71);"/>
    </g>
    <g transform="matrix(1,0,0,1,0,405.637)">
        <rect x="3.358" y="25.001" width="53.523" height="5.901" style="fill:rgb(71,71,71);"/>
    </g>
    <g transform="matrix(1,0,0,1,0,473.956)">
        <rect x="3.358" y="25.001" width="53.523" height="5.901" style="fill:rgb(71,71,71);"/>
    </g>
    <g transform="matrix(1,0,0,1,0,540.894)">
        <rect x="3.358" y="25.001" width="53.523" height="5.901" style="fill:rgb(71,71,71);"/>
    </g>
    <g transform="matrix(1,0,0,1,0,607.152)">
        <rect x="3.358" y="25.001" width="53.523" height="5.901" style="fill:rgb(71,71,71);"/>
    </g>
    <g transform="matrix(1,0,0,1,0,673.428)">
        <rect x="3.358" y="25.001" width="53.523" height="5.901" style="fill:rgb(71,71,71);"/>
    </g>
    <g transform="matrix(1,0,0,1,0,740.733)">
        <rect x="3.358" y="25.001" width="53.523" height="5.901" style="fill:rgb(71,71,71);"/>
    </g>
    <g transform="matrix(1,0,0,1,0,808.013)">
        <rect x="3.358" y="25.001" width="53.523" height="5.901" style="fill:rgb(71,71,71);"/>
    </g>
    <g transform="matrix(1,0,0,1,0,876.06)">
        <rect x="3.358" y="25.001" width="53.523" height="5.901" style="fill:rgb(71,71,71);"/>
    </g>
    <g transform="matrix(1,0,0,1,0,942.396)">
        <rect x="3.358" y="25.001" width="53.523" height="5.901" style="fill:rgb(71,71,71);"/>
    </g>
    <g transform="matrix(1,0,0,1,0,1008.91)">
        <rect x="3.358" y="25.001" width="53.523" height="5.901" style="fill:rgb(71,71,71);"/>
    </g>
</svg>
