<?xml version="1.0" encoding="UTF-8" standalone="no"?>
<!DOCTYPE svg PUBLIC "-//W3C//DTD SVG 1.1//EN" "http://www.w3.org/Graphics/SVG/1.1/DTD/svg11.dtd">
<svg width="100%" height="100%" viewBox="0 0 30 30" version="1.1" xmlns="http://www.w3.org/2000/svg" xmlns:xlink="http://www.w3.org/1999/xlink" xml:space="preserve" style="fill-rule:evenodd;clip-rule:evenodd;stroke-linecap:round;stroke-linejoin:round;stroke-miterlimit:1.5;">
    <g transform="matrix(0.898721,0,0,0.850854,1.67618,3.14027)">
        <path d="M0.713,9.414L13.484,1.231L27.654,24.597L0.713,9.414Z" style="fill:rgb(255,230,99);stroke:rgb(242,175,70);stroke-width:4.57px;"/>
    </g>
    <g transform="matrix(0.859413,0,0,0.859413,2.85219,2.20398)">
        <path d="M0.713,9.414L13.484,1.231L27.654,24.597L0.713,9.414Z" style="fill:rgb(255,225,99);stroke:rgb(255,225,99);stroke-width:4.65px;"/>
    </g>
    <path d="M12.789,16.653C12.789,17.86 13.278,19.055 13.389,20.277C13.452,20.966 13.523,21.731 13.523,22.411C13.523,23.035 13.625,24.106 13.901,24.657C13.986,24.827 13.98,25.542 14.362,25.276C14.405,25.247 14.35,24.948 14.362,24.898C14.523,24.256 14.496,23.573 14.496,22.897C14.496,21.676 14.562,20.498 14.562,19.274C14.562,18.998 14.614,18.13 14.429,17.945C14.228,17.744 13.766,17.696 13.573,17.503C13.497,17.427 13.088,17.042 12.978,17.042" style="fill:rgb(255,230,99);stroke:rgb(255,230,99);stroke-width:1px;"/>
    <path d="M17.633,19.051C18.373,19.051 18.569,20.433 18.653,20.94C18.965,22.81 18.52,24.88 18.52,26.738C18.52,27.188 18.52,27.638 18.52,28.088C18.52,28.143 18.484,28.504 18.52,28.528C18.805,28.717 18.853,28.213 18.853,28.086C18.853,27.369 18.987,26.695 18.987,25.957C18.987,25.334 19.053,24.723 19.053,24.112C19.053,23.075 19.431,22.093 19.431,21.088" style="fill:none;stroke:rgb(255,230,99);stroke-width:1px;"/>
    <g transform="matrix(1,0,0,1,1.26136,0.785408)">
        <path d="M3.79,11.777C3.79,12.459 4.023,13.07 4.235,13.706C4.326,13.979 4.118,14.252 4.365,14.417C4.588,14.566 5.293,14.671 5.544,14.551C5.61,14.519 5.671,14.158 5.811,14.086C5.996,13.992 6.383,13.842 6.383,13.842C6.383,13.842 6.029,13.842 5.852,13.842C5.531,13.842 5.025,13.942 4.724,13.842C4.464,13.755 4.426,12.975 4.279,12.975" style="fill:none;stroke:rgb(255,230,99);stroke-width:1px;"/>
    </g>
    <path d="M22.96,23.202C23.058,23.202 23.187,23.595 23.249,23.688C23.407,23.925 23.494,24.669 23.494,24.956C23.494,25.044 23.42,25.524 23.494,25.598C23.612,25.716 23.85,25.541 23.889,25.464C23.941,25.36 23.852,25.177 23.889,25.067C23.941,24.908 24.003,24.834 24.022,24.667C24.061,24.314 24.085,23.781 24.333,23.533" style="fill:none;stroke:rgb(255,230,99);stroke-width:1px;"/>
    <g transform="matrix(0.969601,0.24469,-0.24469,0.969601,10.515,-5.37535)">
        <ellipse cx="9.643" cy="12.332" rx="2.242" ry="1.739" style="fill:rgb(203,58,49);"/>
    </g>
    <g transform="matrix(0.969601,0.24469,-0.24469,0.969601,10.8464,-5.41515)">
        <ellipse cx="9.643" cy="12.332" rx="2.242" ry="1.739" style="fill:rgb(183,55,47);"/>
    </g>
    <g transform="matrix(0.904272,0.426956,-0.426956,0.904272,19.1449,3.85601)">
        <ellipse cx="9.643" cy="12.332" rx="2.242" ry="1.739" style="fill:rgb(203,58,49);"/>
    </g>
    <g transform="matrix(0.904272,0.426956,-0.426956,0.904272,19.5141,3.75141)">
        <ellipse cx="9.643" cy="12.332" rx="2.242" ry="1.739" style="fill:rgb(183,55,47);"/>
    </g>
    <g transform="matrix(1,0,0,1,-1.1755,-0.803)">
        <ellipse cx="9.643" cy="12.332" rx="2.242" ry="1.739" style="fill:rgb(203,58,49);"/>
    </g>
    <g transform="matrix(1,0,0,1,-0.7929,-0.547)">
        <ellipse cx="9.643" cy="12.332" rx="2.242" ry="1.739" style="fill:rgb(183,55,47);"/>
    </g>
    <g transform="matrix(0.994621,-0.103583,0.103583,0.994621,4.64146,2.93541)">
        <ellipse cx="9.643" cy="12.332" rx="2.242" ry="1.739" style="fill:rgb(203,58,49);"/>
    </g>
    <g transform="matrix(0.994621,-0.103583,0.103583,0.994621,5.01286,3.16661)">
        <ellipse cx="9.643" cy="12.332" rx="2.242" ry="1.739" style="fill:rgb(183,55,47);"/>
    </g>
    <g transform="matrix(1,0,0,1,-0.79225,-0.67575)">
        <path d="M3.04,10.432L14.66,3.056" style="fill:none;stroke:rgb(255,203,99);stroke-width:4px;"/>
    </g>
    <g transform="matrix(1,0,0,1,-3.55271e-15,-0.54775)">
        <path d="M3.04,10.432L14.66,3.056" style="fill:rgb(242,224,167);stroke:rgb(242,224,167);stroke-width:4px;"/>
    </g>
    <g transform="matrix(1.16941,0,0,1.2835,-0.735105,0.356451)">
        <ellipse cx="1.987" cy="8.072" rx="1.398" ry="1.625" style="fill:rgb(242,175,70);"/>
    </g>
</svg>
