<svg width="80" height="320" viewBox="0 0 80 320" version="1.1" xmlns="http://www.w3.org/2000/svg" xmlns:xlink="http://www.w3.org/1999/xlink" xml:space="preserve" style="fill-rule:evenodd;clip-rule:evenodd;stroke-linejoin:round;stroke-miterlimit:1.41421;">
    <g transform="matrix(0.0288171,0,0,-0.0288171,13.0218,78.9354)">
        <path d="M1045,1370C1033,1370 1080,1277 1080,1294C1080,1298 1100,1340 1124,1388C1148,1436 1173,1493 1180,1515C1187,1537 1204,1577 1216,1605C1232,1637 1240,1674 1240,1708C1240,1737 1249,1786 1261,1818C1290,1898 1315,2002 1344,2165C1358,2242 1383,2352 1400,2410C1433,2524 1450,2640 1433,2640C1412,2640 1398,2610 1389,2544C1384,2507 1366,2431 1350,2376C1334,2320 1316,2253 1310,2225C1304,2198 1289,2153 1275,2125C1260,2093 1245,2033 1235,1960C1226,1897 1212,1834 1205,1820C1198,1806 1187,1769 1181,1738C1176,1707 1158,1647 1141,1604C1124,1560 1106,1503 1100,1476C1086,1414 1063,1370 1045,1370Z" style="fill-rule:nonzero;"/>
    </g>
    <g transform="matrix(-0.0292696,0,-0,-0.0288171,69.0713,77.8729)">
        <path d="M1045,1370C1033,1370 1080,1277 1080,1294C1080,1298 1100,1340 1124,1388C1148,1436 1173,1493 1180,1515C1187,1537 1204,1577 1216,1605C1232,1637 1240,1674 1240,1708C1240,1737 1249,1786 1261,1818C1290,1898 1315,2002 1344,2165C1358,2242 1383,2352 1400,2410C1433,2524 1450,2640 1433,2640C1412,2640 1398,2610 1389,2544C1384,2507 1366,2431 1350,2376C1334,2320 1316,2253 1310,2225C1304,2198 1289,2153 1275,2125C1260,2093 1245,2033 1235,1960C1226,1897 1212,1834 1205,1820C1198,1806 1187,1769 1181,1738C1176,1707 1158,1647 1141,1604C1124,1560 1106,1503 1100,1476C1086,1414 1063,1370 1045,1370Z" style="fill-rule:nonzero;"/>
    </g>
    <g transform="matrix(0.0288171,0,0,-0.0288171,13.2747,77.9105)">
        <path d="M1080,1294C1080,1298 1045,1229 1075,1230C1108,1231 1134,1250 1240,1350C1309,1415 1340,1451 1340,1466C1340,1479 1348,1495 1358,1502C1387,1525 1490,1724 1615,2005C1692,2176 1701,2202 1690,2221C1676,2242 1655,2216 1625,2142C1598,2074 1461,1804 1363,1628C1334,1575 1310,1525 1310,1516C1310,1508 1302,1496 1292,1491C1281,1485 1243,1446 1205,1403C1145,1333 1080,1277 1080,1294Z" style="fill-rule:nonzero;"/>
    </g>
    <g transform="matrix(0.0288171,0,0,0.030963,13.2747,8.40638)">
        <path d="M1080,1294C1080,1298 1045,1229 1075,1230C1108,1231 1134,1250 1240,1350C1309,1415 1340,1451 1340,1466C1340,1479 1348,1495 1358,1502C1387,1525 1490,1724 1615,2005C1692,2176 1701,2202 1690,2221C1676,2242 1655,2216 1625,2142C1598,2074 1461,1804 1363,1628C1334,1575 1310,1525 1310,1516C1310,1508 1302,1496 1292,1491C1281,1485 1243,1446 1205,1403C1145,1333 1080,1277 1080,1294Z" style="fill-rule:nonzero;"/>
    </g>
    <g transform="matrix(-0.0266261,0,0,0.030963,65.7181,8.40638)">
        <path d="M1080,1294C1080,1298 1045,1229 1075,1230C1108,1231 1134,1250 1240,1350C1309,1415 1340,1451 1340,1466C1340,1479 1348,1495 1358,1502C1387,1525 1490,1724 1615,2005C1692,2176 1701,2202 1690,2221C1676,2242 1655,2216 1625,2142C1598,2074 1461,1804 1363,1628C1334,1575 1310,1525 1310,1516C1310,1508 1302,1496 1292,1491C1281,1485 1243,1446 1205,1403C1145,1333 1080,1277 1080,1294Z" style="fill-rule:nonzero;"/>
    </g>
    <g transform="matrix(-0.0244243,0,-0,-0.0288171,63.1188,77.9105)">
        <path d="M1080,1294C1080,1298 1045,1229 1075,1230C1108,1231 1134,1250 1240,1350C1309,1415 1340,1451 1340,1466C1340,1479 1348,1495 1358,1502C1387,1525 1490,1724 1615,2005C1692,2176 1701,2202 1690,2221C1676,2242 1655,2216 1625,2142C1598,2074 1461,1804 1363,1628C1334,1575 1310,1525 1310,1516C1310,1508 1302,1496 1292,1491C1281,1485 1243,1446 1205,1403C1145,1333 1080,1277 1080,1294Z" style="fill-rule:nonzero;"/>
    </g>
    <g transform="matrix(0.0288171,0,0,-0.0288171,13.261,78.4292)">
        <path d="M865,1370C847,1370 830,1298 830,1294C830,1277 802,1231 835,1230C863.123,1229.06 820,1148 820,1126C820,1104 828,1036 749,935C671,836 655,796 655,710C655,650 661,624 682,577C731,473 867,370 955,370C1043,370 1179,473 1228,577C1249,624 1255,650 1255,710C1255,796 1239,836 1161,935C1082,1036 1090,1104 1090,1126C1090,1148 1045,1229 1075,1230C1108,1231 1080,1277 1080,1294C1080,1298 1063,1370 1045,1370C1033,1370 1031,1380 1036,1424C1040,1454 1040,1494 1036,1514C1030,1547 1026,1550 997,1550C970,1549 968,1548 983,1539C995,1532 1000,1517 999,1482C999,1456 996,1441 993,1448C986,1467 972,1462 968,1440C966,1428 961,1419 955,1419C950,1419 944,1428 942,1440C938,1462 924,1467 917,1448C914,1441 911,1456 911,1482C910,1517 915,1532 928,1539C942,1548 940,1549 913,1550C884,1550 880,1547 874,1514C870,1494 870,1454 874,1424C879,1380 877,1370 865,1370Z" style="fill-rule:nonzero;"/>
    </g>
    <g transform="matrix(0.0278003,-0.00758726,0.00597242,0.0218834,6.42009,24.9302)">
        <path d="M1080,1294C1080,1298 1045,1229 1075,1230C1108,1231 1134,1250 1240,1350C1309,1415 1340,1451 1340,1466C1340,1479 1348,1495 1358,1502C1387,1525 1490,1724 1615,2005C1692,2176 1701,2202 1690,2221C1676,2242 1655,2216 1625,2142C1598,2074 1461,1804 1363,1628C1334,1575 1310,1525 1310,1516C1310,1508 1302,1496 1292,1491C1281,1485 1243,1446 1205,1403C1145,1333 1080,1277 1080,1294Z" style="fill-rule:nonzero;"/>
    </g>
    <g transform="matrix(-0.0272317,-0.0076655,-0.00614642,0.0218352,75.0903,24.9746)">
        <path d="M1080,1294C1080,1298 1045,1229 1075,1230C1108,1231 1134,1250 1240,1350C1309,1415 1340,1451 1340,1466C1340,1479 1348,1495 1358,1502C1387,1525 1490,1724 1615,2005C1692,2176 1701,2202 1690,2221C1676,2242 1655,2216 1625,2142C1598,2074 1461,1804 1363,1628C1334,1575 1310,1525 1310,1516C1310,1508 1302,1496 1292,1491C1281,1485 1243,1446 1205,1403C1145,1333 1080,1277 1080,1294Z" style="fill-rule:nonzero;"/>
    </g>
    <g transform="matrix(0.0285442,0.0039564,0.0039564,-0.0285442,7.81936,314.306)">
        <path d="M1045,1370C1033,1370 1080,1277 1080,1294C1080,1298 1100,1340 1124,1388C1148,1436 1173,1493 1180,1515C1187,1537 1204,1577 1216,1605C1232,1637 1240,1674 1240,1708C1240,1737 1249,1786 1261,1818C1290,1898 1315,2002 1344,2165C1358,2242 1383,2352 1400,2410C1433,2524 1450,2640 1433,2640C1412,2640 1398,2610 1389,2544C1384,2507 1366,2431 1350,2376C1334,2320 1316,2253 1310,2225C1304,2198 1289,2153 1275,2125C1260,2093 1245,2033 1235,1960C1226,1897 1212,1834 1205,1820C1198,1806 1187,1769 1181,1738C1176,1707 1158,1647 1141,1604C1124,1560 1106,1503 1100,1476C1086,1414 1063,1370 1045,1370Z" style="fill-rule:nonzero;"/>
    </g>
    <g transform="matrix(-0.0291753,0.00234683,-0.00231055,-0.0287243,72.295,315.725)">
        <path d="M1045,1370C1033,1370 1080,1277 1080,1294C1080,1298 1100,1340 1124,1388C1148,1436 1173,1493 1180,1515C1187,1537 1204,1577 1216,1605C1232,1637 1240,1674 1240,1708C1240,1737 1249,1786 1261,1818C1290,1898 1315,2002 1344,2165C1358,2242 1383,2352 1400,2410C1433,2524 1450,2640 1433,2640C1412,2640 1398,2610 1389,2544C1384,2507 1366,2431 1350,2376C1334,2320 1316,2253 1310,2225C1304,2198 1289,2153 1275,2125C1260,2093 1245,2033 1235,1960C1226,1897 1212,1834 1205,1820C1198,1806 1187,1769 1181,1738C1176,1707 1158,1647 1141,1604C1124,1560 1106,1503 1100,1476C1086,1414 1063,1370 1045,1370Z" style="fill-rule:nonzero;"/>
    </g>
    <g transform="matrix(0.028594,0.00357873,0.00357873,-0.028594,7.74152,314.214)">
        <path d="M1080,1294C1080,1298 1045,1229 1075,1230C1108,1231 1134,1250 1240,1350C1309,1415 1340,1451 1340,1466C1340,1479 1348,1495 1358,1502C1387,1525 1490,1724 1615,2005C1692,2176 1701,2202 1690,2221C1676,2242 1655,2216 1625,2142C1598,2074 1461,1804 1363,1628C1334,1575 1310,1525 1310,1516C1310,1508 1302,1496 1292,1491C1281,1485 1243,1446 1205,1403C1145,1333 1080,1277 1080,1294Z" style="fill-rule:nonzero;"/>
    </g>
    <g transform="matrix(0.0288171,0,0,0.030963,13.2747,248.363)">
        <path d="M1080,1294C1080,1298 1045,1229 1075,1230C1108,1231 1134,1250 1240,1350C1309,1415 1340,1451 1340,1466C1340,1479 1348,1495 1358,1502C1387,1525 1490,1724 1615,2005C1692,2176 1701,2202 1690,2221C1676,2242 1655,2216 1625,2142C1598,2074 1461,1804 1363,1628C1334,1575 1310,1525 1310,1516C1310,1508 1302,1496 1292,1491C1281,1485 1243,1446 1205,1403C1145,1333 1080,1277 1080,1294Z" style="fill-rule:nonzero;"/>
    </g>
    <g transform="matrix(-0.0266261,0,0,0.030963,65.7181,248.363)">
        <path d="M1080,1294C1080,1298 1045,1229 1075,1230C1108,1231 1134,1250 1240,1350C1309,1415 1340,1451 1340,1466C1340,1479 1348,1495 1358,1502C1387,1525 1490,1724 1615,2005C1692,2176 1701,2202 1690,2221C1676,2242 1655,2216 1625,2142C1598,2074 1461,1804 1363,1628C1334,1575 1310,1525 1310,1516C1310,1508 1302,1496 1292,1491C1281,1485 1243,1446 1205,1403C1145,1333 1080,1277 1080,1294Z" style="fill-rule:nonzero;"/>
    </g>
    <g transform="matrix(-0.0241512,0.00364233,-0.00429741,-0.0284948,69.8692,313.209)">
        <path d="M1080,1294C1080,1298 1045,1229 1075,1230C1108,1231 1134,1250 1240,1350C1309,1415 1340,1451 1340,1466C1340,1479 1348,1495 1358,1502C1387,1525 1490,1724 1615,2005C1692,2176 1701,2202 1690,2221C1676,2242 1655,2216 1625,2142C1598,2074 1461,1804 1363,1628C1334,1575 1310,1525 1310,1516C1310,1508 1302,1496 1292,1491C1281,1485 1243,1446 1205,1403C1145,1333 1080,1277 1080,1294Z" style="fill-rule:nonzero;"/>
    </g>
    <g transform="matrix(0.0288171,0,0,-0.0288171,13.261,318.386)">
        <path d="M865,1370C847,1370 830,1298 830,1294C830,1277 802,1231 835,1230C863.123,1229.06 820,1148 820,1126C820,1104 828,1036 749,935C671,836 655,796 655,710C655,650 661,624 682,577C731,473 867,370 955,370C1043,370 1179,473 1228,577C1249,624 1255,650 1255,710C1255,796 1239,836 1161,935C1082,1036 1090,1104 1090,1126C1090,1148 1045,1229 1075,1230C1108,1231 1080,1277 1080,1294C1080,1298 1063,1370 1045,1370C1033,1370 1031,1380 1036,1424C1040,1454 1040,1494 1036,1514C1030,1547 1026,1550 997,1550C970,1549 968,1548 983,1539C995,1532 1000,1517 999,1482C999,1456 996,1441 993,1448C986,1467 972,1462 968,1440C966,1428 961,1419 955,1419C950,1419 944,1428 942,1440C938,1462 924,1467 917,1448C914,1441 911,1456 911,1482C910,1517 915,1532 928,1539C942,1548 940,1549 913,1550C884,1550 880,1547 874,1514C870,1494 870,1454 874,1424C879,1380 877,1370 865,1370Z" style="fill-rule:nonzero;"/>
    </g>
    <g transform="matrix(0.0286718,-0.00289011,0.00227499,0.0225694,10.2433,259.913)">
        <path d="M1080,1294C1080,1298 1045,1229 1075,1230C1108,1231 1134,1250 1240,1350C1309,1415 1340,1451 1340,1466C1340,1479 1348,1495 1358,1502C1387,1525 1490,1724 1615,2005C1692,2176 1701,2202 1690,2221C1676,2242 1655,2216 1625,2142C1598,2074 1461,1804 1363,1628C1334,1575 1310,1525 1310,1516C1310,1508 1302,1496 1292,1491C1281,1485 1243,1446 1205,1403C1145,1333 1080,1277 1080,1294Z" style="fill-rule:nonzero;"/>
    </g>
    <g transform="matrix(-0.0282189,-0.00200604,-0.0016085,0.0226267,69.4661,258.875)">
        <path d="M1080,1294C1080,1298 1045,1229 1075,1230C1108,1231 1134,1250 1240,1350C1309,1415 1340,1451 1340,1466C1340,1479 1348,1495 1358,1502C1387,1525 1490,1724 1615,2005C1692,2176 1701,2202 1690,2221C1676,2242 1655,2216 1625,2142C1598,2074 1461,1804 1363,1628C1334,1575 1310,1525 1310,1516C1310,1508 1302,1496 1292,1491C1281,1485 1243,1446 1205,1403C1145,1333 1080,1277 1080,1294Z" style="fill-rule:nonzero;"/>
    </g>
    <g transform="matrix(0.0288171,0,0,-0.0288171,13.0218,161.283)">
        <path d="M1045,1370C1033,1370 1080,1277 1080,1294C1080,1298 1100,1340 1124,1388C1148,1436 1173,1493 1180,1515C1187,1537 1204,1577 1216,1605C1232,1637 1240,1674 1240,1708C1240,1737 1249,1786 1261,1818C1290,1898 1315,2002 1344,2165C1358,2242 1383,2352 1400,2410C1433,2524 1450,2640 1433,2640C1412,2640 1398,2610 1389,2544C1384,2507 1366,2431 1350,2376C1334,2320 1316,2253 1310,2225C1304,2198 1289,2153 1275,2125C1260,2093 1245,2033 1235,1960C1226,1897 1212,1834 1205,1820C1198,1806 1187,1769 1181,1738C1176,1707 1158,1647 1141,1604C1124,1560 1106,1503 1100,1476C1086,1414 1063,1370 1045,1370Z" style="fill-rule:nonzero;"/>
    </g>
    <g transform="matrix(-0.0292696,0,0,-0.0288171,69.0713,160.221)">
        <path d="M1045,1370C1033,1370 1080,1277 1080,1294C1080,1298 1100,1340 1124,1388C1148,1436 1173,1493 1180,1515C1187,1537 1204,1577 1216,1605C1232,1637 1240,1674 1240,1708C1240,1737 1249,1786 1261,1818C1290,1898 1315,2002 1344,2165C1358,2242 1383,2352 1400,2410C1433,2524 1450,2640 1433,2640C1412,2640 1398,2610 1389,2544C1384,2507 1366,2431 1350,2376C1334,2320 1316,2253 1310,2225C1304,2198 1289,2153 1275,2125C1260,2093 1245,2033 1235,1960C1226,1897 1212,1834 1205,1820C1198,1806 1187,1769 1181,1738C1176,1707 1158,1647 1141,1604C1124,1560 1106,1503 1100,1476C1086,1414 1063,1370 1045,1370Z" style="fill-rule:nonzero;"/>
    </g>
    <g transform="matrix(0.0283251,0.00530188,0.00530188,-0.0283251,5.8144,154.184)">
        <path d="M1080,1294C1080,1298 1045,1229 1075,1230C1108,1231 1134,1250 1240,1350C1309,1415 1340,1451 1340,1466C1340,1479 1348,1495 1358,1502C1387,1525 1490,1724 1615,2005C1692,2176 1701,2202 1690,2221C1676,2242 1655,2216 1625,2142C1598,2074 1461,1804 1363,1628C1334,1575 1310,1525 1310,1516C1310,1508 1302,1496 1292,1491C1281,1485 1243,1446 1205,1403C1145,1333 1080,1277 1080,1294Z" style="fill-rule:nonzero;"/>
    </g>
    <g transform="matrix(0.0286513,-0.00308611,0.00331593,0.030785,8.79849,93.3756)">
        <path d="M1080,1294C1080,1298 1045,1229 1075,1230C1108,1231 1134,1250 1240,1350C1309,1415 1340,1451 1340,1466C1340,1479 1348,1495 1358,1502C1387,1525 1490,1724 1615,2005C1692,2176 1701,2202 1690,2221C1676,2242 1655,2216 1625,2142C1598,2074 1461,1804 1363,1628C1334,1575 1310,1525 1310,1516C1310,1508 1302,1496 1292,1491C1281,1485 1243,1446 1205,1403C1145,1333 1080,1277 1080,1294Z" style="fill-rule:nonzero;"/>
    </g>
    <g transform="matrix(-0.026536,-0.00218805,-0.00254445,0.0308583,69.2993,91.8677)">
        <path d="M1080,1294C1080,1298 1045,1229 1075,1230C1108,1231 1134,1250 1240,1350C1309,1415 1340,1451 1340,1466C1340,1479 1348,1495 1358,1502C1387,1525 1490,1724 1615,2005C1692,2176 1701,2202 1690,2221C1676,2242 1655,2216 1625,2142C1598,2074 1461,1804 1363,1628C1334,1575 1310,1525 1310,1516C1310,1508 1302,1496 1292,1491C1281,1485 1243,1446 1205,1403C1145,1333 1080,1277 1080,1294Z" style="fill-rule:nonzero;"/>
    </g>
    <g transform="matrix(-0.0229032,0.00848472,-0.0100107,-0.0270224,75.4636,148.442)">
        <path d="M1080,1294C1080,1298 1045,1229 1075,1230C1108,1231 1134,1250 1240,1350C1309,1415 1340,1451 1340,1466C1340,1479 1348,1495 1358,1502C1387,1525 1490,1724 1615,2005C1692,2176 1701,2202 1690,2221C1676,2242 1655,2216 1625,2142C1598,2074 1461,1804 1363,1628C1334,1575 1310,1525 1310,1516C1310,1508 1302,1496 1292,1491C1281,1485 1243,1446 1205,1403C1145,1333 1080,1277 1080,1294Z" style="fill-rule:nonzero;"/>
    </g>
    <g transform="matrix(0.0288171,0,0,-0.0288171,13.261,160.777)">
        <path d="M865,1370C847,1370 830,1298 830,1294C830,1277 802,1231 835,1230C863.123,1229.06 820,1148 820,1126C820,1104 828,1036 749,935C671,836 655,796 655,710C655,650 661,624 682,577C731,473 867,370 955,370C1043,370 1179,473 1228,577C1249,624 1255,650 1255,710C1255,796 1239,836 1161,935C1082,1036 1090,1104 1090,1126C1090,1148 1045,1229 1075,1230C1108,1231 1080,1277 1080,1294C1080,1298 1063,1370 1045,1370C1033,1370 1031,1380 1036,1424C1040,1454 1040,1494 1036,1514C1030,1547 1026,1550 997,1550C970,1549 968,1548 983,1539C995,1532 1000,1517 999,1482C999,1456 996,1441 993,1448C986,1467 972,1462 968,1440C966,1428 961,1419 955,1419C950,1419 944,1428 942,1440C938,1462 924,1467 917,1448C914,1441 911,1456 911,1482C910,1517 915,1532 928,1539C942,1548 940,1549 913,1550C884,1550 880,1547 874,1514C870,1494 870,1454 874,1424C879,1380 877,1370 865,1370Z" style="fill-rule:nonzero;"/>
    </g>
    <g transform="matrix(0.0260873,-0.0122424,0.00963676,0.020535,2.77885,113.709)">
        <path d="M1080,1294C1080,1298 1045,1229 1075,1230C1108,1231 1134,1250 1240,1350C1309,1415 1340,1451 1340,1466C1340,1479 1348,1495 1358,1502C1387,1525 1490,1724 1615,2005C1692,2176 1701,2202 1690,2221C1676,2242 1655,2216 1625,2142C1598,2074 1461,1804 1363,1628C1334,1575 1310,1525 1310,1516C1310,1508 1302,1496 1292,1491C1281,1485 1243,1446 1205,1403C1145,1333 1080,1277 1080,1294Z" style="fill-rule:nonzero;"/>
    </g>
    <g transform="matrix(-0.0256831,-0.011862,-0.00951129,0.0205934,78.1069,113.299)">
        <path d="M1080,1294C1080,1298 1045,1229 1075,1230C1108,1231 1134,1250 1240,1350C1309,1415 1340,1451 1340,1466C1340,1479 1348,1495 1358,1502C1387,1525 1490,1724 1615,2005C1692,2176 1701,2202 1690,2221C1676,2242 1655,2216 1625,2142C1598,2074 1461,1804 1363,1628C1334,1575 1310,1525 1310,1516C1310,1508 1302,1496 1292,1491C1281,1485 1243,1446 1205,1403C1145,1333 1080,1277 1080,1294Z" style="fill-rule:nonzero;"/>
    </g>
    <g transform="matrix(0.0287278,0.00226638,0.00226638,-0.0287278,9.67694,237.151)">
        <path d="M1045,1370C1033,1370 1080,1277 1080,1294C1080,1298 1100,1340 1124,1388C1148,1436 1173,1493 1180,1515C1187,1537 1204,1577 1216,1605C1232,1637 1240,1674 1240,1708C1240,1737 1249,1786 1261,1818C1290,1898 1315,2002 1344,2165C1358,2242 1383,2352 1400,2410C1433,2524 1450,2640 1433,2640C1412,2640 1398,2610 1389,2544C1384,2507 1366,2431 1350,2376C1334,2320 1316,2253 1310,2225C1304,2198 1289,2153 1275,2125C1260,2093 1245,2033 1235,1960C1226,1897 1212,1834 1205,1820C1198,1806 1187,1769 1181,1738C1176,1707 1158,1647 1141,1604C1124,1560 1106,1503 1100,1476C1086,1414 1063,1370 1045,1370Z" style="fill-rule:nonzero;"/>
    </g>
    <g transform="matrix(-0.0291753,0.00234796,-0.00231166,-0.0287242,72.5587,235.879)">
        <path d="M1045,1370C1033,1370 1080,1277 1080,1294C1080,1298 1100,1340 1124,1388C1148,1436 1173,1493 1180,1515C1187,1537 1204,1577 1216,1605C1232,1637 1240,1674 1240,1708C1240,1737 1249,1786 1261,1818C1290,1898 1315,2002 1344,2165C1358,2242 1383,2352 1400,2410C1433,2524 1450,2640 1433,2640C1412,2640 1398,2610 1389,2544C1384,2507 1366,2431 1350,2376C1334,2320 1316,2253 1310,2225C1304,2198 1289,2153 1275,2125C1260,2093 1245,2033 1235,1960C1226,1897 1212,1834 1205,1820C1198,1806 1187,1769 1181,1738C1176,1707 1158,1647 1141,1604C1124,1560 1106,1503 1100,1476C1086,1414 1063,1370 1045,1370Z" style="fill-rule:nonzero;"/>
    </g>
    <g transform="matrix(0.0265035,0.0113131,0.0113131,-0.0265035,-0.345622,223.314)">
        <path d="M1080,1294C1080,1298 1045,1229 1075,1230C1108,1231 1134,1250 1240,1350C1309,1415 1340,1451 1340,1466C1340,1479 1348,1495 1358,1502C1387,1525 1490,1724 1615,2005C1692,2176 1701,2202 1690,2221C1676,2242 1655,2216 1625,2142C1598,2074 1461,1804 1363,1628C1334,1575 1310,1525 1310,1516C1310,1508 1302,1496 1292,1491C1281,1485 1243,1446 1205,1403C1145,1333 1080,1277 1080,1294Z" style="fill-rule:nonzero;"/>
    </g>
    <g transform="matrix(0.0283553,-0.00513812,0.00552075,0.0304669,5.07538,173.365)">
        <path d="M1080,1294C1080,1298 1045,1229 1075,1230C1108,1231 1134,1250 1240,1350C1309,1415 1340,1451 1340,1466C1340,1479 1348,1495 1358,1502C1387,1525 1490,1724 1615,2005C1692,2176 1701,2202 1690,2221C1676,2242 1655,2216 1625,2142C1598,2074 1461,1804 1363,1628C1334,1575 1310,1525 1310,1516C1310,1508 1302,1496 1292,1491C1281,1485 1243,1446 1205,1403C1145,1333 1080,1277 1080,1294Z" style="fill-rule:nonzero;"/>
    </g>
    <g transform="matrix(-0.0256965,-0.00697396,-0.0081099,0.0298821,76.1581,176.605)">
        <path d="M1080,1294C1080,1298 1045,1229 1075,1230C1108,1231 1134,1250 1240,1350C1309,1415 1340,1451 1340,1466C1340,1479 1348,1495 1358,1502C1387,1525 1490,1724 1615,2005C1692,2176 1701,2202 1690,2221C1676,2242 1655,2216 1625,2142C1598,2074 1461,1804 1363,1628C1334,1575 1310,1525 1310,1516C1310,1508 1302,1496 1292,1491C1281,1485 1243,1446 1205,1403C1145,1333 1080,1277 1080,1294Z" style="fill-rule:nonzero;"/>
    </g>
    <g transform="matrix(-0.0218923,0.0108293,-0.012777,-0.0258297,78.8532,222.932)">
        <path d="M1080,1294C1080,1298 1045,1229 1075,1230C1108,1231 1134,1250 1240,1350C1309,1415 1340,1451 1340,1466C1340,1479 1348,1495 1358,1502C1387,1525 1490,1724 1615,2005C1692,2176 1701,2202 1690,2221C1676,2242 1655,2216 1625,2142C1598,2074 1461,1804 1363,1628C1334,1575 1310,1525 1310,1516C1310,1508 1302,1496 1292,1491C1281,1485 1243,1446 1205,1403C1145,1333 1080,1277 1080,1294Z" style="fill-rule:nonzero;"/>
    </g>
    <g transform="matrix(0.0288171,0,0,-0.0288171,13.261,239.3)">
        <path d="M865,1370C847,1370 830,1298 830,1294C830,1277 802,1231 835,1230C863.123,1229.06 820,1148 820,1126C820,1104 828,1036 749,935C671,836 655,796 655,710C655,650 661,624 682,577C731,473 867,370 955,370C1043,370 1179,473 1228,577C1249,624 1255,650 1255,710C1255,796 1239,836 1161,935C1082,1036 1090,1104 1090,1126C1090,1148 1045,1229 1075,1230C1108,1231 1080,1277 1080,1294C1080,1298 1063,1370 1045,1370C1033,1370 1031,1380 1036,1424C1040,1454 1040,1494 1036,1514C1030,1547 1026,1550 997,1550C970,1549 968,1548 983,1539C995,1532 1000,1517 999,1482C999,1456 996,1441 993,1448C986,1467 972,1462 968,1440C966,1428 961,1419 955,1419C950,1419 944,1428 942,1440C938,1462 924,1467 917,1448C914,1441 911,1456 911,1482C910,1517 915,1532 928,1539C942,1548 940,1549 913,1550C884,1550 880,1547 874,1514C870,1494 870,1454 874,1424C879,1380 877,1370 865,1370Z" style="fill-rule:nonzero;"/>
    </g>
    <g transform="matrix(0.0249303,-0.0144535,0.0113773,0.0196242,1.36422,195.161)">
        <path d="M1080,1294C1080,1298 1045,1229 1075,1230C1108,1231 1134,1250 1240,1350C1309,1415 1340,1451 1340,1466C1340,1479 1348,1495 1358,1502C1387,1525 1490,1724 1615,2005C1692,2176 1701,2202 1690,2221C1676,2242 1655,2216 1625,2142C1598,2074 1461,1804 1363,1628C1334,1575 1310,1525 1310,1516C1310,1508 1302,1496 1292,1491C1281,1485 1243,1446 1205,1403C1145,1333 1080,1277 1080,1294Z" style="fill-rule:nonzero;"/>
    </g>
    <g transform="matrix(-0.0241913,-0.0146665,-0.01176,0.0193973,79.9389,195.945)">
        <path d="M1080,1294C1080,1298 1045,1229 1075,1230C1108,1231 1134,1250 1240,1350C1309,1415 1340,1451 1340,1466C1340,1479 1348,1495 1358,1502C1387,1525 1490,1724 1615,2005C1692,2176 1701,2202 1690,2221C1676,2242 1655,2216 1625,2142C1598,2074 1461,1804 1363,1628C1334,1575 1310,1525 1310,1516C1310,1508 1302,1496 1292,1491C1281,1485 1243,1446 1205,1403C1145,1333 1080,1277 1080,1294Z" style="fill-rule:nonzero;"/>
    </g>
</svg>
