<?xml version="1.0" encoding="UTF-8" standalone="no"?>
<!DOCTYPE svg PUBLIC "-//W3C//DTD SVG 1.1//EN" "http://www.w3.org/Graphics/SVG/1.1/DTD/svg11.dtd">
<svg width="100%" height="100%" viewBox="0 0 1000 700" version="1.1" xmlns="http://www.w3.org/2000/svg" xmlns:xlink="http://www.w3.org/1999/xlink" xml:space="preserve" style="fill-rule:evenodd;clip-rule:evenodd;stroke-linecap:round;stroke-linejoin:round;stroke-miterlimit:1.5;">
    <rect x="0.469" y="-1.453" width="999.719" height="706.057" style="stroke:rgb(13,0,0);stroke-width:3px;"/>
    <g transform="matrix(0.751329,0,0,0.751329,3.4855,2.62172)">
        <path d="M223.526,690.115C178,669.04 179.205,515.275 175.521,500.547C169.605,476.895 149.064,437.417 145.417,403.859C140.399,357.703 142.946,269.294 145.417,223.609C147.127,191.981 148.587,159.203 160.24,129.75C176.046,89.799 205.814,15.664 240.255,-16.094C273.163,-46.438 322.146,-59.345 366.885,-60.797C412.724,-62.285 474.988,-56.089 515.286,-25.021C556.077,6.426 587.949,72.493 611.63,127.885C640.57,195.578 665.364,305.819 688.927,381.135C709.702,447.537 742.248,545.463 753.01,579.781C753.736,582.096 781.319,688.695 762.276,717.177C743.233,745.66 682.389,760.105 639.24,757.938C549.448,753.427 299.914,725.476 223.526,690.115Z" style="fill:white;stroke:rgb(170,170,170);stroke-width:2.66px;"/>
    </g>
    <g transform="matrix(0.751329,0,0,0.751329,3.4855,2.62172)">
        <path d="M248.353,635.376C238.074,589.174 226.419,536.589 217.517,496.77C210.039,463.323 199.396,423.972 194.938,396.462C191.479,375.111 192.16,353.292 190.77,331.708" style="fill:none;stroke:rgb(209,209,209);stroke-width:2.66px;"/>
    </g>
    <g transform="matrix(0.751329,0,0,0.751329,62.1155,3.83969)">
        <path d="M248.353,635.376C238.074,589.174 226.419,536.589 217.517,496.77C210.039,463.323 199.396,423.972 194.938,396.462C191.479,375.111 192.16,353.292 190.77,331.708" style="fill:none;stroke:rgb(209,209,209);stroke-width:2.66px;"/>
    </g>
    <g transform="matrix(0.751329,0,0,0.751329,3.4855,2.62172)">
        <path d="M869.971,932.794C855.077,903.111 855.852,903.86 843.964,871.646C831.406,837.616 820.082,777.365 805.469,745.984C794.648,722.748 774.865,697.845 758.391,685.182C744.134,674.224 721.332,673.842 706.625,670.01C694.591,666.875 682.08,665.69 670.146,662.193C654.667,657.657 631,652.678 613.75,642.797C591.564,630.088 554.276,606.802 537.031,585.938C521.449,567.084 514.705,541.665 510.281,517.609C505.823,493.367 534.99,447.584 510.281,440.484C477.634,431.104 344.505,445.976 314.396,461.328C292.754,472.363 330.329,513.791 329.625,532.599C329.053,547.89 322.479,565.085 310.172,574.177C293.699,586.346 258.693,600.023 230.786,605.615C201.168,611.549 159.148,608.478 132.464,609.781C111.858,610.787 96.383,611.869 77.922,619.802C59.461,627.735 37.709,645.553 25.458,663.75C11.282,684.806 3.334,708.885 -2.036,738.38C-11.523,790.478 -11.432,826.116 -8.823,902.849" style="fill:rgb(52,52,52);stroke:rgb(180,180,180);stroke-width:2.66px;"/>
    </g>
    <g transform="matrix(0.751329,0,0,0.751329,3.4855,2.62172)">
        <path d="M105.885,809.427C114.667,823.248 130.624,834.595 132.229,850.891C134.313,872.045 89.547,927.594 118.391,928.536C214.55,931.677 611.087,935.591 709.188,935.948C722.278,935.996 701.464,910.877 698.995,898.021C696.379,884.404 689.19,875.941 693.495,862.063C697.799,848.184 714.38,835.733 724.823,822.568" style="fill:rgb(52,52,52);stroke:rgb(153,153,153);stroke-width:2.66px;"/>
    </g>
    <g transform="matrix(0.751329,0,0,0.751329,3.4855,2.62172)">
        <path d="M176.036,609.094C231.97,626.172 288.753,637.692 346.375,643.719" style="fill:none;stroke:rgb(154,154,154);stroke-width:2.66px;"/>
    </g>
    <g transform="matrix(0.751329,0,0,0.751329,3.4855,3.31826)">
        <path d="M692.37,666.401C651.066,670.658 596.404,668.719 538.172,665.125" style="fill:none;stroke:rgb(154,154,154);stroke-width:2.66px;"/>
    </g>
    <g transform="matrix(0.751329,0,0,0.751329,3.4855,2.62172)">
        <path d="M557.763,267.853C569.587,253.773 586.324,243.012 594.185,266.231C598.854,294.939 592.38,323.738 584.255,352.53C575.8,374.16 530.039,394.196 518.388,392.606" style="fill:rgb(52,52,52);stroke:rgb(167,162,162);stroke-width:2.66px;"/>
    </g>
    <g transform="matrix(0.751329,0,0,0.751329,3.4855,2.62172)">
        <path d="M92.664,910.338L58.388,934.13L-5.123,933.609L-6.196,763.359L14.033,744.463L92.664,910.338Z" style="fill:rgb(52,52,52);stroke:black;stroke-width:2.66px;"/>
    </g>
    <g transform="matrix(0.751329,0,0,0.751329,3.4855,2.62172)">
        <path d="M196.808,102.103C201.692,146.515 205.142,273.379 214.241,315.824C223.172,357.49 231.236,401.354 254.182,437.26C277.54,473.812 329.343,515.648 354.392,535.136C368.49,546.103 389.514,546.601 414.533,546.386C445.658,546.118 499.571,487.034 524.237,457.489C542.476,435.642 547.767,400.938 552.473,376.916C556.546,356.124 554.814,334.411 552.473,313.354C549.883,290.05 541.665,258.761 536.93,237.09C532.996,219.088 503.45,96.041 499.161,78.121" style="fill:rgb(52,52,52);stroke:rgb(166,166,166);stroke-width:2.66px;"/>
    </g>
    <g transform="matrix(0.751329,0,0,0.751329,3.4855,2.62172)">
        <path d="M418.728,312.611C421.101,303.261 422.96,293.909 431.169,284.575C439.763,276.755 449.465,273.561 459.379,271.251C469.393,269.713 479.425,269.727 487.952,267.43C493.4,265.688 498.741,264.025 503.803,262.567C507.392,261.549 510.692,259.604 513.617,256.458L511.938,270.455C511.238,276.537 509.955,281.22 508.117,284.568C504.25,290.939 500.047,295.549 495.85,300.186C493.984,302.913 494.939,306.444 497.072,310.311L485.673,312.396C481.87,316.994 478.644,322.123 475.722,327.53C472.119,325.212 468.174,323.023 462.587,321.451L437.632,315.719L429.367,314.156L424.937,317.036C420.123,317.941 418.138,316.393 418.728,312.611Z" style="stroke:black;stroke-width:2.66px;"/>
    </g>
    <g transform="matrix(0.751329,0,0,0.751329,3.4855,2.62172)">
        <path d="M322.09,327.452C320.596,324.054 315.089,316.521 310.089,312.57C303.931,307.706 294.097,301.674 285.147,298.268C275.942,294.765 261.939,296.397 254.591,297.69C249.973,298.503 245.894,301.616 241.229,302.09C235.147,302.707 219.77,298.155 218.098,301.395C216.426,304.635 231.197,321.53 231.197,321.53L229.012,325.54L238.956,328.203L228.474,340.449L235.917,338.031L235.917,341.13L245.848,336.499L245.5,344.576L260.715,344.576L262.409,348.109L279.75,341.176C279.75,341.176 304.799,333.991 311.349,332.621C313.864,332.095 317.261,333.816 319.051,332.954C320.841,332.093 322.933,329.37 322.09,327.452Z"/>
    </g>
    <g transform="matrix(0.751329,0,0,0.751329,3.4855,2.62172)">
        <path d="M421.167,313.712C416.034,313.698 426.42,299.273 432.464,295.906C456.454,282.54 471.033,285.065 482.535,284.72C487.475,284.572 493.021,282.495 493.477,286.187C493.933,289.878 489.33,297.915 483.553,303.6C477.601,309.459 466.963,314.45 457.518,314.272C447.226,314.078 425.878,313.726 421.167,313.712Z" style="fill:white;stroke:black;stroke-width:2.66px;"/>
    </g>
    <g transform="matrix(0.751329,0,0,0.751329,3.4855,2.62172)">
        <path d="M312.684,324.566C312.626,321.324 301.612,315.873 289.278,312.853C271.263,308.442 246.016,312.011 247.132,314.901C258.597,344.565 285.608,335.509 292.113,332.918C300.182,329.705 312.742,327.808 312.684,324.566Z" style="fill:white;stroke:black;stroke-width:2.66px;"/>
    </g>
    <g transform="matrix(0.751329,0,0,0.751329,4.64478,-1.39173)">
        <path d="M437.565,300.503C437.669,294.906 478.721,288.086 480.326,293.187C481.033,295.431 481.688,296.174 481.688,298.635C481.688,309.873 471.711,317.491 459.422,317.491C447.134,317.491 437.354,311.739 437.565,300.503Z" style="fill:rgb(194,51,113);stroke:black;stroke-width:2.66px;"/>
    </g>
    <g transform="matrix(0.37923,0,0,0.37923,175.857,111.046)">
        <path d="M438.171,291.509C442.299,288.051 472.159,283.733 475.766,285.4C480.807,287.728 481.688,292.367 481.688,298.074C481.688,309.312 471.711,317.491 459.422,317.491C447.134,317.491 437.157,309.312 437.157,298.074C437.157,296.098 436.24,293.127 438.171,291.509Z" style="stroke:black;stroke-width:5.27px;"/>
    </g>
    <g transform="matrix(0.751329,0,0,0.751329,-130.742,15.6717)">
        <path d="M437.157,297.271C437.151,294.097 450.384,293.581 462.322,295.55C472.128,297.167 481.061,301.022 481.063,301.66C481.078,306.078 479.959,310.222 476.679,311.949C470.911,314.984 465.381,316.434 458.098,317.462C445.929,319.179 437.177,308.509 437.157,297.271Z" style="fill:rgb(194,51,113);stroke:black;stroke-width:2.66px;"/>
    </g>
    <g transform="matrix(0.37923,0,0,0.37923,40.5858,129.645)">
        <path d="M441.898,286.194C446.006,285.237 477.637,288.261 480.559,293.901C481.546,295.807 481.688,296.509 481.688,298.749C481.688,309.987 471.711,317.491 459.422,317.491C447.134,317.491 437.157,309.987 437.157,298.749C437.157,294.014 437.457,287.228 441.898,286.194Z" style="stroke:black;stroke-width:5.27px;"/>
    </g>
    <g transform="matrix(0.751329,0,0,0.751329,3.4855,2.62172)">
        <path d="M578.203,248.432C581.214,235.148 581.803,202.753 578.203,180.344C573.581,151.568 561.489,103.385 550.469,75.776C541.554,53.442 529.431,31.347 512.083,14.693C485.285,-11.035 430.826,-32.821 389.677,-37.589C348.529,-42.356 293.167,-29.971 265.193,-13.911C243.155,-1.259 225.622,20.988 211.979,42.427C198.112,64.218 186.148,96.383 181.99,116.833C178.749,132.769 185.667,153.721 188.88,165.13C191.018,172.722 195.747,190.916 201.271,185.286C210.806,175.569 220.335,122.444 246.089,106.823C276.939,88.11 351.037,77.865 386.375,73.01C410.116,69.749 438.067,64.568 458.115,77.698C479.142,91.47 501.597,125.902 512.542,155.641C525.628,191.196 529.093,267.627 536.63,291.031C538.85,297.925 553.198,290.447 557.766,296.068C566.017,306.22 574.016,334.93 586.135,351.943C598.255,368.957 633.977,410.484 630.484,398.151C626.991,385.819 576.901,300.964 565.177,277.948C562.364,272.426 557.97,264.971 560.141,260.052C562.312,255.133 576.621,255.414 578.203,248.432Z" style="fill:white;stroke:rgb(151,151,151);stroke-width:2.66px;"/>
    </g>
    <g transform="matrix(0.751329,0,0,0.751329,3.4855,2.62172)">
        <path d="M243.395,60.207C216.936,74.322 188.774,113.472 188.16,151.48C187.892,168.066 188.389,194.565 196.434,200.551C204.478,206.536 236.646,201.425 236.426,187.393C236.042,162.9 247.474,112.858 247.521,121.906C247.566,130.352 251.838,193.579 262.307,208.273C252.748,179.655 250.948,151.13 254.012,122.664C252.476,127.308 284.376,213.119 306.182,209.727C295.95,202.949 287.534,193.928 285.404,177.135C309.325,203.417 336.169,207.761 365.521,193.268C359.286,197.785 345.494,95.724 346.938,107.158C347.598,112.391 381.128,178.954 398.35,179.461C404.243,179.635 417.661,178.852 415.029,173.576C408.583,160.651 387.576,91.358 391.234,97.867C392.563,100.231 418.247,165.422 437.826,173.402C451.375,178.925 492.491,175.164 481.707,174.445C471.075,173.737 437.92,116.746 440.584,108.615C441.921,104.535 456.736,143.21 468.117,152.561C479.071,161.56 510.094,174.638 508.871,164.719C507.648,154.8 458.843,93.079 460.779,93.047C464.97,92.978 501.826,152.154 519.836,168.561C533.167,180.705 568.838,191.488 568.838,191.488C574.654,197.164 544.38,141.365 518.637,109.9C502.116,89.708 483.926,66.072 465.59,52.672C448.613,40.265 425.813,39.021 405.924,32.195" style="fill:white;stroke:rgb(170,170,170);stroke-width:2.66px;"/>
    </g>
    <g transform="matrix(0.751329,0,0,0.751329,3.4855,2.62172)">
        <path d="M296.007,875.01C291.134,874.034 291.605,862.458 286.393,859.947C281.181,857.437 269.856,865.037 264.737,859.947C259.351,854.593 259.938,835.792 254.08,827.822C248.338,820.01 232.601,820.343 229.591,812.13C226.58,803.916 238.566,789.148 236.018,778.541C233.47,767.934 218.155,758.854 214.304,748.489C210.57,738.437 216.832,723.789 212.914,716.348C208.995,708.907 193.341,709.604 190.794,703.843C188.247,698.082 198.362,689.445 197.632,681.781C196.783,672.863 188.837,658.938 185.7,650.338C183.267,643.667 181.404,636.791 178.81,630.182C175.355,621.38 171.313,603.741 164.971,597.525C159.102,591.773 148.824,591.323 140.757,592.89C127.737,595.419 104.147,604.499 86.846,612.697C69.455,620.939 50.038,628.388 36.414,642.338C22.701,656.378 12.193,680.049 4.57,696.937C-2.116,711.748 -4.095,734.093 -9.326,743.666C-12.604,749.665 -27.264,747.553 -26.815,754.374C-26.247,763.02 -12.785,787.599 -5.914,795.541C-1.262,800.919 9.751,796.653 14.408,802.025C20.324,808.849 22.829,825.904 29.58,836.484C37.513,848.914 51.567,862.941 62.002,876.609C72.569,890.448 82.066,912.368 92.981,919.52C102.603,925.825 121.814,909.515 127.492,919.52C133.707,930.472 125.993,929.062 138.033,935.14C149.712,941.035 630.299,938.826 722.721,932.603C738.524,931.54 691.047,905.139 698.992,891.437C709.086,874.027 756.028,851.674 776.862,834.515C791.484,822.471 813.965,813.169 817.565,794.853C821.165,776.537 805.881,745.638 798.461,724.619C791.649,705.323 787.354,683.366 773.044,668.739C758.202,653.568 727.833,639.673 709.409,633.593C694.553,628.691 674.552,627.309 662.497,632.26C650.442,637.21 643.613,654.659 637.08,663.296C632.065,669.926 626.523,677.086 623.299,684.083C620.243,690.716 621.501,700.681 617.737,705.275C613.973,709.87 604.113,706.634 600.716,711.65C597.029,717.094 598.773,731.712 595.617,737.937C592.946,743.204 585.156,744.491 581.778,748.999C578.401,753.507 579.499,761.012 575.351,764.984C570.584,769.55 558.019,771.511 553.174,776.395C548.673,780.934 551.36,791.077 546.283,794.291C541.207,797.505 528.014,791.156 522.716,795.682C517.417,800.208 521.393,817.153 514.492,821.447C507.591,825.741 488.538,818.745 481.31,821.447C475.331,823.682 475.783,833.801 471.122,837.661C466.461,841.521 458.757,841.268 453.341,844.609C446.082,849.086 435.919,861.206 427.57,864.525C420.036,867.521 410.525,863 403.247,864.525C396.266,865.988 390.867,872.13 383.903,873.676C375.989,875.433 362.904,873.919 355.763,875.067C350.595,875.898 346.154,881.745 341.054,880.567C334.366,879.023 323.14,866.728 315.632,865.801C308.461,864.917 300.881,875.985 296.007,875.01Z" style="fill:rgb(225,223,234);stroke:rgb(193,189,210);stroke-width:3.33px;"/>
    </g>
    <g transform="matrix(-1.61147,-0.0070712,-0.00783168,1.78467,663.084,220.358)">
        <path d="M242.328,273.206L304.447,273.618L44.931,16.95L0,0.046L19.388,42.49L242.328,273.206Z" style="fill:white;fill-rule:nonzero;stroke:rgb(140,140,140);stroke-width:0.88px;stroke-linecap:butt;stroke-miterlimit:1.41421;"/>
    </g>
    <g transform="matrix(0.751329,0,0,0.751329,3.4855,2.62172)">
        <path d="M878.56,288.755L273.57,964.666" style="stroke:rgb(138,138,138);stroke-width:2.66px;"/>
    </g>
    <g transform="matrix(5.12797,0,0,7.07851,-2988.6,-2047.76)">
        <path d="M696.255,305.146L695.255,305.146L695.255,306.146L693.255,306.146L693.255,310.146L689.255,310.146L689.255,306.146L687.255,306.146L687.255,305.146L686.255,305.146L686.255,300.146L690.255,300.146L690.255,304.146L692.255,304.146L692.255,300.146L696.255,300.146L696.255,305.146Z" style="fill:white;fill-rule:nonzero;"/>
        <path d="M708.255,309.146L707.255,309.146L707.255,310.146L699.255,310.146L699.255,309.146L698.255,309.146L698.255,301.146L699.255,301.146L699.255,300.146L707.255,300.146L707.255,301.146L708.255,301.146L708.255,309.146ZM704.255,308.146L704.255,302.146L702.255,302.146L702.255,308.146L704.255,308.146Z" style="fill:white;fill-rule:nonzero;"/>
        <path d="M720.255,309.146L719.255,309.146L719.255,310.146L711.255,310.146L711.255,309.146L710.255,309.146L710.255,300.146L714.255,300.146L714.255,308.146L716.255,308.146L716.255,300.146L720.255,300.146L720.255,309.146Z" style="fill:white;fill-rule:nonzero;"/>
        <path d="M738.255,309.146L737.255,309.146L737.255,310.146L728.255,310.146L728.255,300.146L737.255,300.146L737.255,301.146L738.255,301.146L738.255,309.146ZM734.255,308.146L734.255,302.146L732.255,302.146L732.255,308.146L734.255,308.146Z" style="fill:white;fill-rule:nonzero;"/>
        <rect x="740.255" y="300.146" width="4" height="10" style="fill:white;"/>
        <path d="M756.255,310.146L747.255,310.146L747.255,309.146L746.255,309.146L746.255,301.146L747.255,301.146L747.255,300.146L756.255,300.146L756.255,302.146L750.255,302.146L750.255,304.146L753.255,304.146L753.255,306.146L750.255,306.146L750.255,308.146L756.255,308.146L756.255,310.146Z" style="fill:white;fill-rule:nonzero;"/>
        <path d="M768.255,309.146L767.255,309.146L767.255,310.146L758.255,310.146L758.255,300.146L767.255,300.146L767.255,301.146L768.255,301.146L768.255,309.146ZM764.255,308.146L764.255,302.146L762.255,302.146L762.255,308.146L764.255,308.146Z" style="fill:white;fill-rule:nonzero;"/>
    </g>
    <g transform="matrix(1.44416,0,0,1.44416,-551.359,-235.214)">
        <path d="M760.046,278.487L757.046,278.487L757.046,286.487L753.046,286.487L753.046,278.487L750.046,278.487L750.046,276.487L760.046,276.487L760.046,278.487Z" style="fill:rgb(194,194,194);fill-rule:nonzero;"/>
        <path d="M772.046,286.487L768.046,286.487L768.046,282.487L766.046,282.487L766.046,286.487L762.046,286.487L762.046,276.487L771.046,276.487L771.046,277.487L772.046,277.487L772.046,280.487L771.046,280.487L771.046,282.487L772.046,282.487L772.046,286.487ZM768.046,280.487L768.046,278.487L766.046,278.487L766.046,280.487L768.046,280.487Z" style="fill:rgb(194,194,194);fill-rule:nonzero;"/>
        <path d="M784.046,281.487L783.046,281.487L783.046,282.487L781.046,282.487L781.046,286.487L777.046,286.487L777.046,282.487L775.046,282.487L775.046,281.487L774.046,281.487L774.046,276.487L778.046,276.487L778.046,280.487L780.046,280.487L780.046,276.487L784.046,276.487L784.046,281.487Z" style="fill:rgb(194,194,194);fill-rule:nonzero;"/>
        <path d="M802.046,286.487L798.046,286.487L798.046,282.487L796.046,282.487L796.046,286.487L792.046,286.487L792.046,277.487L793.046,277.487L793.046,276.487L801.046,276.487L801.046,277.487L802.046,277.487L802.046,286.487ZM798.046,280.487L798.046,278.487L796.046,278.487L796.046,280.487L798.046,280.487Z" style="fill:rgb(194,194,194);fill-rule:nonzero;"/>
        <path d="M814.046,286.487L805.046,286.487L805.046,285.487L804.046,285.487L804.046,277.487L805.046,277.487L805.046,276.487L814.046,276.487L814.046,278.487L808.046,278.487L808.046,284.487L810.046,284.487L810.046,282.487L809.046,282.487L809.046,280.487L814.046,280.487L814.046,286.487Z" style="fill:rgb(194,194,194);fill-rule:nonzero;"/>
        <path d="M826.046,286.487L822.046,286.487L822.046,282.487L820.046,282.487L820.046,286.487L816.046,286.487L816.046,277.487L817.046,277.487L817.046,276.487L825.046,276.487L825.046,277.487L826.046,277.487L826.046,286.487ZM822.046,280.487L822.046,278.487L820.046,278.487L820.046,280.487L822.046,280.487Z" style="fill:rgb(194,194,194);fill-rule:nonzero;"/>
        <rect x="828.046" y="276.487" width="4" height="10" style="fill:rgb(194,194,194);fill-rule:nonzero;"/>
        <path d="M844.046,286.487L840.046,286.487L840.046,278.487L838.046,278.487L838.046,286.487L834.046,286.487L834.046,276.487L843.046,276.487L843.046,277.487L844.046,277.487L844.046,286.487Z" style="fill:rgb(194,194,194);fill-rule:nonzero;"/>
        <path d="M862.046,285.487L861.046,285.487L861.046,286.487L852.046,286.487L852.046,276.487L861.046,276.487L861.046,277.487L862.046,277.487L862.046,280.487L861.046,280.487L861.046,282.487L862.046,282.487L862.046,285.487ZM858.046,280.487L858.046,278.487L856.046,278.487L856.046,280.487L858.046,280.487ZM858.046,284.487L858.046,282.487L856.046,282.487L856.046,284.487L858.046,284.487Z" style="fill:rgb(194,194,194);fill-rule:nonzero;"/>
        <path d="M874.046,281.487L873.046,281.487L873.046,282.487L871.046,282.487L871.046,286.487L867.046,286.487L867.046,282.487L865.046,282.487L865.046,281.487L864.046,281.487L864.046,276.487L868.046,276.487L868.046,280.487L870.046,280.487L870.046,276.487L874.046,276.487L874.046,281.487Z" style="fill:rgb(194,194,194);fill-rule:nonzero;"/>
        <path d="M892.046,281.487L891.046,281.487L891.046,282.487L886.046,282.487L886.046,286.487L882.046,286.487L882.046,276.487L891.046,276.487L891.046,277.487L892.046,277.487L892.046,281.487ZM888.046,280.487L888.046,278.487L886.046,278.487L886.046,280.487L888.046,280.487Z" style="fill:rgb(194,194,194);fill-rule:nonzero;"/>
        <path d="M904.046,286.487L900.046,286.487L900.046,282.487L898.046,282.487L898.046,286.487L894.046,286.487L894.046,276.487L903.046,276.487L903.046,277.487L904.046,277.487L904.046,280.487L903.046,280.487L903.046,282.487L904.046,282.487L904.046,286.487ZM900.046,280.487L900.046,278.487L898.046,278.487L898.046,280.487L900.046,280.487Z" style="fill:rgb(194,194,194);fill-rule:nonzero;"/>
        <path d="M916.046,286.487L907.046,286.487L907.046,285.487L906.046,285.487L906.046,277.487L907.046,277.487L907.046,276.487L916.046,276.487L916.046,278.487L910.046,278.487L910.046,280.487L913.046,280.487L913.046,282.487L910.046,282.487L910.046,284.487L916.046,284.487L916.046,286.487Z" style="fill:rgb(194,194,194);fill-rule:nonzero;"/>
        <path d="M928.046,285.487L927.046,285.487L927.046,286.487L918.046,286.487L918.046,284.487L924.046,284.487L924.046,282.487L919.046,282.487L919.046,281.487L918.046,281.487L918.046,277.487L919.046,277.487L919.046,276.487L928.046,276.487L928.046,278.487L922.046,278.487L922.046,280.487L927.046,280.487L927.046,281.487L928.046,281.487L928.046,285.487Z" style="fill:rgb(194,194,194);fill-rule:nonzero;"/>
        <path d="M940.046,285.487L939.046,285.487L939.046,286.487L930.046,286.487L930.046,284.487L936.046,284.487L936.046,282.487L931.046,282.487L931.046,281.487L930.046,281.487L930.046,277.487L931.046,277.487L931.046,276.487L940.046,276.487L940.046,278.487L934.046,278.487L934.046,280.487L939.046,280.487L939.046,281.487L940.046,281.487L940.046,285.487Z" style="fill:rgb(194,194,194);fill-rule:nonzero;"/>
        <rect x="942.046" y="276.487" width="4" height="10" style="fill:rgb(194,194,194);fill-rule:nonzero;"/>
        <path d="M958.046,286.487L954.046,286.487L954.046,278.487L952.046,278.487L952.046,286.487L948.046,286.487L948.046,276.487L957.046,276.487L957.046,277.487L958.046,277.487L958.046,286.487Z" style="fill:rgb(194,194,194);fill-rule:nonzero;"/>
        <path d="M970.046,286.487L961.046,286.487L961.046,285.487L960.046,285.487L960.046,277.487L961.046,277.487L961.046,276.487L970.046,276.487L970.046,278.487L964.046,278.487L964.046,284.487L966.046,284.487L966.046,282.487L965.046,282.487L965.046,280.487L970.046,280.487L970.046,286.487Z" style="fill:rgb(194,194,194);fill-rule:nonzero;"/>
        <path d="M988.046,286.487L979.046,286.487L979.046,285.487L978.046,285.487L978.046,277.487L979.046,277.487L979.046,276.487L988.046,276.487L988.046,278.487L982.046,278.487L982.046,280.487L985.046,280.487L985.046,282.487L982.046,282.487L982.046,284.487L988.046,284.487L988.046,286.487Z" style="fill:rgb(194,194,194);fill-rule:nonzero;"/>
        <path d="M1000.05,286.487L996.046,286.487L996.046,278.487L994.046,278.487L994.046,286.487L990.046,286.487L990.046,276.487L999.046,276.487L999.046,277.487L1000.05,277.487L1000.05,286.487Z" style="fill:rgb(194,194,194);fill-rule:nonzero;"/>
        <path d="M1012.05,278.487L1009.05,278.487L1009.05,286.487L1005.05,286.487L1005.05,278.487L1002.05,278.487L1002.05,276.487L1012.05,276.487L1012.05,278.487Z" style="fill:rgb(194,194,194);fill-rule:nonzero;"/>
        <path d="M1024.05,286.487L1015.05,286.487L1015.05,285.487L1014.05,285.487L1014.05,277.487L1015.05,277.487L1015.05,276.487L1024.05,276.487L1024.05,278.487L1018.05,278.487L1018.05,280.487L1021.05,280.487L1021.05,282.487L1018.05,282.487L1018.05,284.487L1024.05,284.487L1024.05,286.487Z" style="fill:rgb(194,194,194);fill-rule:nonzero;"/>
        <path d="M1036.05,286.487L1032.05,286.487L1032.05,282.487L1030.05,282.487L1030.05,286.487L1026.05,286.487L1026.05,276.487L1035.05,276.487L1035.05,277.487L1036.05,277.487L1036.05,280.487L1035.05,280.487L1035.05,282.487L1036.05,282.487L1036.05,286.487ZM1032.05,280.487L1032.05,278.487L1030.05,278.487L1030.05,280.487L1032.05,280.487Z" style="fill:rgb(194,194,194);fill-rule:nonzero;"/>
    </g>
</svg>
