<svg width="90" height="90" viewBox="0 0 90 90" version="1.1" xmlns="http://www.w3.org/2000/svg" xmlns:xlink="http://www.w3.org/1999/xlink" xml:space="preserve" style="fill-rule:evenodd;clip-rule:evenodd;stroke-linecap:round;stroke-linejoin:round;stroke-miterlimit:1.5;">
    <g transform="matrix(0.931814,0,0,1,5.22302,0)">
        <g>
            <rect x="-5.3" y="25.574" width="95.706" height="58.481" style="stroke:black;stroke-width:1.03px;"/>
        </g>
    </g>
    <path d="M0.249,25.671C7.275,26.075 11.009,21.646 7.984,10.778C10.527,15.421 11.781,23.784 14.694,24.503C14.206,19.259 14.209,9.119 12.767,4.382L19.554,21.249C20.727,23.355 21.98,23.901 23.331,22.564C24.595,20.008 25.083,17.424 25.441,14.834C25.472,18.965 26.471,22.555 28.215,25.728C30.261,21 31.48,16.289 31.831,11.597C33.806,18.5 34.277,25.587 38.884,24.313C44.353,21.504 46.692,16.712 46.042,10.27C47.503,22.282 53.491,29.981 54.026,18.849C54.242,14.371 52.443,9.742 50.663,5.115C53.741,12.844 56.862,20.077 60.211,21.92C62.588,20.491 63.698,18.378 63.139,15.382C63.611,16.867 64.312,18.161 65.373,19.153C69.999,17.758 69.723,14.766 68.946,12.031C69.922,17.856 71.847,21.18 75.931,19.42C75.769,15.919 74.784,12.415 73.797,8.911C75.501,15.724 77.956,22.055 81.384,25.53C84.634,23.816 85.682,21.068 85.435,18.086C85.604,21.1 86.173,24.402 87.581,26.185C88.824,24.52 88.221,27.226 88.221,27.226L0.249,25.671Z" style="stroke:black;stroke-width:0.75px;"/>
</svg>
