<svg width="119" height="135" viewBox="0 0 119 135" version="1.1" xmlns="http://www.w3.org/2000/svg" xmlns:xlink="http://www.w3.org/1999/xlink" xml:space="preserve" style="fill-rule:evenodd;clip-rule:evenodd;stroke-linejoin:round;stroke-miterlimit:1.41421;">
    <g transform="matrix(1,0,0,1.00114,-139.073,-0.526428)">
        <rect x="146.316" y="12.124" width="25.22" height="123.28"/>
    </g>
    <g transform="matrix(1,0,0,1,-139.073,-1.32326)">
        <path d="M146.314,12.974L158.922,1.458L171.538,12.975L146.314,12.974Z"/>
    </g>
    <g transform="matrix(1,0,0,1.00114,-110.393,-0.526428)">
        <rect x="146.316" y="12.124" width="25.22" height="123.28"/>
    </g>
    <g transform="matrix(1,0,0,1,-110.393,-1.32326)">
        <path d="M146.314,12.974L158.922,1.458L171.538,12.975L146.314,12.974Z"/>
    </g>
    <g transform="matrix(1,0,0,1.00114,-76.4336,-0.526428)">
        <rect x="146.316" y="12.124" width="25.22" height="123.28"/>
    </g>
    <g transform="matrix(1,0,0,1,-76.4336,-1.32326)">
        <path d="M146.314,12.974L158.922,1.458L171.538,12.975L146.314,12.974Z"/>
    </g>
    <g transform="matrix(1,0,0,1.00114,-48.4736,-0.526428)">
        <rect x="146.316" y="12.124" width="25.22" height="123.28"/>
    </g>
    <g transform="matrix(1,0,0,1,-48.4736,-1.32326)">
        <path d="M146.314,12.974L158.922,1.458L171.538,12.975L146.314,12.974Z"/>
    </g>
    <g transform="matrix(0.260276,0,0,1,-37.0805,55.6357)">
        <rect x="139.946" y="39.04" width="462.318" height="17.544"/>
    </g>
    <g transform="matrix(0.260519,0,0,1,-37.4111,-1.08921)">
        <rect x="139.946" y="39.04" width="462.318" height="17.544"/>
    </g>
</svg>
