<svg width="663" height="750" viewBox="0 0 663 750" version="1.1" xmlns="http://www.w3.org/2000/svg" xmlns:xlink="http://www.w3.org/1999/xlink" xml:space="preserve" style="fill-rule:evenodd;clip-rule:evenodd;stroke-linejoin:round;stroke-miterlimit:1.41421;">
    <rect x="28.192" y="279.996" width="612.143" height="471.124"/>
    <rect x="-0.607" y="306.275" width="664.148" height="33.813"/>
    <g transform="matrix(0.837597,0,0,1.04798,56.1437,-71.7009)">
        <rect x="-0.607" y="306.275" width="664.148" height="33.813"/>
    </g>
    <g transform="matrix(0.750252,0,0,1.02742,84.1688,-91.783)">
        <rect x="-0.607" y="306.275" width="664.148" height="33.813"/>
    </g>
    <g transform="matrix(0.667259,0,0,1.00685,111.965,-113.422)">
        <rect x="-0.607" y="306.275" width="664.148" height="33.813"/>
    </g>
    <g transform="matrix(0.583144,0,0,1.14903,141.351,-184.941)">
        <rect x="-0.607" y="306.275" width="664.148" height="33.813"/>
    </g>
    <g transform="matrix(0.493466,0,0,1.00685,169.729,-172.61)">
        <rect x="-0.607" y="306.275" width="664.148" height="33.813"/>
    </g>
    <g transform="matrix(0.401501,0,0,1.00685,199.634,-201.297)">
        <rect x="-0.607" y="306.275" width="664.148" height="33.813"/>
    </g>
    <g transform="matrix(0.319429,0,0,1.00685,227.025,-228.131)">
        <rect x="-0.607" y="306.275" width="664.148" height="33.813"/>
    </g>
    <g transform="matrix(0.228069,0,0,1.00685,258.409,-255.461)">
        <rect x="-0.607" y="306.275" width="664.148" height="33.813"/>
    </g>
    <g transform="matrix(0.136449,0,0,1.00685,288.07,-283.5)">
        <rect x="-0.607" y="306.275" width="664.148" height="33.813"/>
    </g>
    <g transform="matrix(0.0540205,0,0,1.00685,315.348,-307.62)">
        <rect x="-0.607" y="306.275" width="664.148" height="33.813"/>
    </g>
</svg>
