<?xml version="1.0" encoding="UTF-8" standalone="no"?>
<!DOCTYPE svg PUBLIC "-//W3C//DTD SVG 1.1//EN" "http://www.w3.org/Graphics/SVG/1.1/DTD/svg11.dtd">
<svg width="100%" height="100%" viewBox="0 0 90 30" version="1.1" xmlns="http://www.w3.org/2000/svg" xmlns:xlink="http://www.w3.org/1999/xlink" xml:space="preserve" style="fill-rule:evenodd;clip-rule:evenodd;stroke-linejoin:round;stroke-miterlimit:1.41421;">
    <g transform="matrix(-0.0729242,-0.0777647,-0.0835009,0.0783034,77.5425,15.5488)">
        <path d="M396.79,418.759L419.006,396.657C419.006,396.657 348.83,320.093 337.397,312.941C345.253,303.971 379.902,270.37 379.902,270.37L351.571,241.256C351.571,241.256 324.314,267.759 310.251,279.624L44.931,16.95L0,0.046L19.388,42.49L277.326,309.028C265.846,322.768 232.487,347.082 232.487,347.082L261.584,375.781C261.584,375.781 303.972,342.911 311.727,336.118C318.884,347.555 396.79,418.759 396.79,418.759Z" style="fill:white;fill-rule:nonzero;stroke:rgb(218,218,218);stroke-width:9.04px;"/>
    </g>
</svg>
