<svg width="209" height="185" viewBox="0 0 209 185" version="1.1" xmlns="http://www.w3.org/2000/svg" xmlns:xlink="http://www.w3.org/1999/xlink" xml:space="preserve" style="fill-rule:evenodd;clip-rule:evenodd;stroke-linecap:round;stroke-linejoin:round;stroke-miterlimit:1.5;">
    <g transform="matrix(1,0,0,1,-0.0534,0.5136)">
        <path d="M-1.568,14.314C10.084,24.443 22.01,34.125 34.225,43.335C86.091,82.446 143.159,113.054 206.562,133.301" style="fill:none;stroke:rgb(72,72,72);stroke-width:2px;"/>
    </g>
    <g transform="matrix(1,0,0,1,0.0576,0.049)">
        <path d="M2.11,125.856C34.795,113.111 69.436,104.05 99.68,82.761C126.719,63.728 155.267,42.116 182.619,20.156" style="fill:none;stroke:rgb(72,72,72);stroke-width:2px;"/>
    </g>
    <path d="M84.545,1.51C87.133,32.463 86.889,61.199 96.31,84.902C107.534,113.142 112.277,141.351 116.073,169.398" style="fill:none;stroke:rgb(72,72,72);stroke-width:2px;"/>
    <path d="M96.154,84.829C90.368,109.301 71.539,149.458 51.877,184.411" style="fill:none;stroke:rgb(72,72,72);stroke-width:2px;"/>
    <path d="M199.232,131.408C167.536,118.314 149.4,91.624 161.404,36.846C130.125,45.877 104.797,38.407 85.486,15.191C71.182,40.059 52.953,44.887 33.611,43.363C36.106,85.897 23.858,109.736 4.847,124.833C42.793,123.643 59.249,140.059 60.696,168.436C75.024,147.439 92.901,147.712 115.348,164.767" style="fill:none;stroke:rgb(72,72,72);stroke-width:2px;"/>
    <path d="M149.288,111.984C137.047,104.626 131.507,90.863 136.451,56.094C120.725,63.781 103.912,59.748 87.555,43.551C79.743,55.801 66.027,57.713 49.954,55.332C56.329,77.387 54.742,96.661 43.58,110.679C59.346,114.372 70.246,121.053 77.966,133.31C88.997,131.566 99.301,131.876 110.33,135.219" style="fill:none;stroke:rgb(72,72,72);stroke-width:2px;"/>
    <path d="M128.546,102.223C119.7,94.569 114.881,84.633 116.376,70.904C105.814,76.418 96.768,71.204 89.878,60.929C87.908,66.886 82.671,71.569 77.35,73.379C82.875,80.641 83.446,88.692 71.983,98.872C77.966,103.754 82.233,109.429 84.84,116.858C92.135,114.695 99.298,114.376 106.415,118.07" style="fill:none;stroke:rgb(72,72,72);stroke-width:2px;"/>
    <path d="M107.046,118.247C110.794,109.294 117.487,103.442 128.813,102.465" style="fill:none;stroke:rgb(72,72,72);stroke-width:2px;"/>
    <path d="M110.769,135.364C119.839,121.158 132.053,112.162 149.728,112.214" style="fill:none;stroke:rgb(72,72,72);stroke-width:2px;"/>
    <path d="M115.575,164.939C129.917,132.032 157.09,117.832 204.363,132.936" style="fill:none;stroke:rgb(72,72,72);stroke-width:2px;"/>
</svg>
