<svg width="84" height="80" viewBox="0 0 84 80" version="1.1" xmlns="http://www.w3.org/2000/svg" xmlns:xlink="http://www.w3.org/1999/xlink" xml:space="preserve" style="fill-rule:evenodd;clip-rule:evenodd;stroke-linejoin:round;stroke-miterlimit:1.41421;">
    <g id="Layer1" transform="matrix(0.8947,0,0,0.8947,8.20455,5.68639)">
        <g transform="matrix(0.931748,0,0,1.00161,-0.633186,0.0102168)">
            <rect x="-9.165" y="-6.357" width="100.786" height="89.285" style="fill:rgb(34,35,37);"/>
        </g>
        <g transform="matrix(1.11769,0,0,1.15925,-9.17017,-8.33784)">
            <rect x="3.161" y="29.942" width="8.664" height="17.761" style="fill:rgb(57,71,73);"/>
        </g>
        <g transform="matrix(1.11769,0,0,1.14721,8.37401,-7.76372)">
            <rect x="3.161" y="29.942" width="8.664" height="17.761" style="fill:rgb(57,71,73);"/>
        </g>
        <g transform="matrix(0.948996,0,0,1.14475,0.710096,3.24434)">
            <rect x="3.161" y="29.942" width="8.664" height="17.761" style="fill:rgb(57,71,73);"/>
        </g>
        <g transform="matrix(1.11769,0,0,1.11769,-9.17017,31.8833)">
            <rect x="-0.517" y="23.025" width="85.858" height="6.725" style="fill:rgb(48,55,59);"/>
        </g>
        <g transform="matrix(1.11769,0,0,1.11769,-9.17017,-6.35564)">
            <rect x="-0.517" y="23.025" width="85.858" height="6.725" style="fill:rgb(48,55,59);"/>
        </g>
        <g transform="matrix(1.11769,0,0,1.11769,-8.357,-6.35564)">
            <rect x="35.909" y="38.956" width="7.198" height="9.006" style="fill:rgb(57,71,73);"/>
        </g>
        <g transform="matrix(1.11769,0,0,1.11769,9.73401,-6.35564)">
            <rect x="35.909" y="38.956" width="7.198" height="9.006" style="fill:rgb(57,71,73);"/>
        </g>
        <g transform="matrix(1.11769,0,0,1.11769,28.4379,-6.35564)">
            <rect x="35.909" y="38.956" width="7.198" height="9.006" style="fill:rgb(57,71,73);"/>
        </g>
    </g>
</svg>
