<svg width="450" height="291" viewBox="0 0 450 291" version="1.1" xmlns="http://www.w3.org/2000/svg" xmlns:xlink="http://www.w3.org/1999/xlink" xml:space="preserve" style="fill-rule:evenodd;clip-rule:evenodd;stroke-linecap:round;stroke-linejoin:round;stroke-miterlimit:1.5;">
    <g transform="matrix(1.29964,0,0,1.29543,190.084,-15.6483)">
        <path d="M108.985,73.345L121.792,71.392C124.189,75.643 124.154,83.181 123.265,90.113C122.505,96.039 122.283,101.854 121.216,106.666L113.333,106.94C112.477,102.06 114.312,95.739 114.321,89.716C113.652,83.483 111.083,78.42 108.985,73.345Z" style="fill:white;stroke:rgb(126,126,126);stroke-width:1px;"/>
    </g>
    <g transform="matrix(1.24834,-0.00671891,0.00671891,1.24834,-148.74,-21.1493)">
        <path d="M395.689,104.916C395.689,104.718 393.348,104.446 393.373,104.865C393.508,107.163 393.373,106.298 393.373,106.537C393.373,108.196 393.45,108.264 393.059,109.834C392.725,111.172 392.066,111.467 391.503,112.78C391.432,112.945 390.919,114.036 391.155,114.272C391.277,114.394 392.166,114.272 392.357,114.272C393.753,114.272 394.274,112.425 395.013,111.319C395.458,110.651 396.664,110.521 396.975,109.994C397.14,109.715 396.778,109.099 396.975,108.843C397.51,108.147 398.538,106.595 397.984,105.481C397.723,104.958 396.485,105.296 396.485,104.967" style="fill:rgb(168,10,10);stroke:rgb(100,0,0);stroke-width:0.8px;"/>
    </g>
    <g transform="matrix(1.29452,-0.115239,0.114866,1.29033,206.852,-3.55922)">
        <path d="M87.752,73.181C89.366,75.589 92.847,86.17 91.875,90.569C90.614,96.276 88.02,100.663 86.33,104.506L92.229,108.516C96.151,101.376 100.607,94.404 102.784,84.828C103.263,79.906 103.371,76.843 102.487,74.425C97.748,73.483 91.798,74.55 87.752,73.181Z" style="fill:white;stroke:rgb(97,97,97);stroke-width:1px;"/>
    </g>
    <g transform="matrix(1.29964,0,0,1.29543,189.08,-16.081)">
        <path d="M112.513,106.293C116.479,106.739 118.452,106.089 122.344,105.961C122.572,108.513 120.349,116.745 122.581,120.252C124.638,120.392 127.413,125.652 125.322,126.64C121.787,126.645 118.543,126.558 113.893,126.482C113.767,126.985 113.196,122.771 114.075,120.378C115.42,116.717 114.044,108.856 112.513,106.293Z" style="fill:rgb(72,51,51);stroke:rgb(76,76,76);stroke-width:0.77px;stroke-linecap:butt;stroke-miterlimit:1.41421;"/>
    </g>
    <g transform="matrix(1.29452,-0.115239,0.114866,1.29033,208.488,-4.88956)">
        <path d="M84.568,103.424L92.643,107.188L88.564,116.582C87.733,118.373 93.582,122.557 94.192,126.293C94.476,128.029 85,127.943 85,127.943C82.415,127.929 78.743,119.283 79.449,117.137C81.422,111.489 82.052,108.893 84.568,103.424Z" style="fill:rgb(72,51,51);stroke:rgb(76,76,76);stroke-width:0.77px;stroke-linecap:butt;stroke-miterlimit:1.41421;"/>
    </g>
    <g transform="matrix(1.08048,0.128485,-0.128485,1.08048,229.678,-9.91148)">
        <path d="M118.369,32.083L112.54,45.365L108.76,38.419L112.894,28.492L118.369,32.083Z" style="fill:rgb(215,215,215);stroke:rgb(72,51,51);stroke-width:1px;"/>
    </g>
    <g transform="matrix(1.02349,0.174418,-0.173853,1.02017,248.917,-8.4054)">
        <path d="M103.882,36.377C101.782,34.686 98.983,33.347 96.295,33.567C95.127,33.663 92.251,49.542 95.391,57.52C96.89,61.329 84.64,74.833 88.538,77.769C92.435,80.704 116.529,77.846 120.208,75.132C123.887,72.418 113.13,62.252 111.195,57.06C110.059,54.01 108.488,46.892 108.281,44.301C108.066,41.627 106.24,38.276 103.882,36.377Z" style="fill:rgb(72,51,51);stroke:rgb(76,76,76);stroke-width:1px;"/>
    </g>
    <g transform="matrix(0.980069,0.18444,-0.18444,0.980069,8.67881,-72.0352)">
        <path d="M342.088,91.278C342.986,94.919 373.201,92.952 374.7,88.464" style="fill:rgb(72,51,51);stroke:rgb(76,76,76);stroke-width:1px;"/>
    </g>
    <g transform="matrix(1.17547,-0.427279,0.427279,1.17547,-160.753,110.654)">
        <path d="M395.375,102.901C395.375,102.703 393.355,102.553 393.059,102.85C392.898,103.011 393.059,104.283 393.059,104.522C393.059,106.181 393.45,108.264 393.059,109.834C392.725,111.172 392.066,111.467 391.503,112.78C391.432,112.945 390.919,114.036 391.155,114.272C391.277,114.394 392.166,114.272 392.357,114.272C393.753,114.272 394.274,112.425 395.013,111.319C395.458,110.651 396.664,110.521 396.975,109.994C397.14,109.715 396.778,109.099 396.975,108.843C397.51,108.147 398.224,104.58 397.669,103.466C397.409,102.942 396.171,103.281 396.171,102.951" style="fill:rgb(168,10,10);stroke:rgb(100,0,0);stroke-width:0.8px;"/>
    </g>
    <g transform="matrix(1.5992,1.88142,-1.04541,0.888601,-176.732,-724.876)">
        <path d="M393.059,102.85C392.898,103.011 393.059,104.283 393.059,104.522C393.059,106.181 393.45,108.264 393.059,109.834C392.725,111.172 392.204,112.031 392.943,110.924C393.388,110.257 394.594,110.127 394.905,109.6C395.07,109.32 394.891,107.844 395.029,107.486C395.424,106.463 394.049,104.165 393.494,103.051" style="fill:rgb(168,10,10);stroke:rgb(100,0,0);stroke-width:0.5px;"/>
    </g>
    <g transform="matrix(1.24836,0,0,1.24836,-101.554,-34.0825)">
        <path d="M350.805,117.927C350.765,118.026 351.482,121.508 351.419,121.575C351.338,121.658 351.653,123.747 351.755,123.893C351.808,123.969 352.073,123.993 352.164,124.053C353.417,124.888 352.954,121.137 353.431,120.302C353.612,119.985 354.511,119.662 354.713,119.365" style="fill:rgb(168,10,10);stroke:rgb(100,0,0);stroke-width:0.8px;"/>
    </g>
    <g transform="matrix(0.534621,-0.76768,0.57926,0.598831,-56.0743,95.8234)">
        <path d="M121.652,18.798C120.085,17.277 117.64,15.112 114.946,15.731C107.374,17.468 100.507,18.285 99.816,16.908C98.245,13.776 85.795,34.245 89.98,31.612C96.57,27.467 119.826,22.975 118.719,26.838C117.507,31.066 122.423,19.547 121.652,18.798Z" style="fill:rgb(143,127,122);stroke:rgb(58,58,58);stroke-width:1.44px;"/>
    </g>
    <g transform="matrix(0.380241,-0.884655,0.704014,0.373512,-36.7595,121.45)">
        <path d="M121.652,18.798C120.085,17.277 113.711,13.538 111.017,14.156C105.308,15.467 95.312,17.428 90.012,18.434C87.558,18.899 87.57,24.34 88.471,24.668C96.333,27.526 121.67,13.387 118.468,19.608C116.455,23.52 122.423,19.547 121.652,18.798Z" style="fill:rgb(137,114,107);stroke:rgb(58,58,58);stroke-width:1.44px;"/>
    </g>
    <g transform="matrix(0.534621,-0.76768,0.57926,0.598831,-55.88,98.8663)">
        <path d="M121.652,18.798C122.78,15.474 119.101,14.134 114.946,15.731C108.59,18.172 102.284,18.296 100.358,17.363C100.086,17.231 99.902,17.079 99.816,16.908C98.245,13.776 85.795,34.245 89.98,31.612C96.57,27.467 119.575,15.745 118.468,19.608C117.257,23.837 121.306,19.816 121.652,18.798Z" style="fill:rgb(105,97,94);stroke:rgb(58,58,58);stroke-width:1.44px;"/>
    </g>
    <g transform="matrix(0.611923,-0.672063,0.484849,0.717386,-60.8849,86.3839)">
        <path d="M121.652,18.798C120.085,17.277 119.548,12.443 117.08,13.69C108.468,18.041 91.371,25.593 90.45,22.012C89.828,19.593 89.618,30.268 89.011,31.01C85.074,35.826 113.345,15.093 118.468,19.608C121.768,22.517 122.423,19.547 121.652,18.798Z" style="fill:rgb(119,103,98);stroke:rgb(58,58,58);stroke-width:1.44px;"/>
    </g>
    <g transform="matrix(0.502442,-0.79876,0.61104,0.550829,-49.7369,103.387)">
        <path d="M121.652,18.798C120.085,17.277 117.548,14.796 114.946,15.731C106.877,18.629 91.311,23.994 90.45,22.012C89.455,19.721 87.153,28.67 88.003,29.115C92.11,31.269 119.507,12.835 118.468,19.608C117.801,23.957 122.423,19.547 121.652,18.798Z" style="fill:rgb(143,127,122);stroke:rgb(58,58,58);stroke-width:1.44px;"/>
    </g>
    <g transform="matrix(0.53484,0.74782,-0.735271,0.525864,319.69,-40.8173)">
        <path d="M121.214,52.161C117.627,48.66 132.144,66.248 132.144,66.248C132.144,66.248 135.086,71.328 135.741,71.08C136.992,69.589 142.243,72.715 143.591,70.707C143.368,67.47 140.58,62.149 135.006,61.098C135.006,61.098 122.437,53.355 121.214,52.161Z" style="fill:white;stroke:rgb(109,109,109);stroke-width:1px;"/>
    </g>
    <g transform="matrix(1.03376,-0.0963436,0.0960317,1.03041,239.474,25.5972)">
        <path d="M93.701,35.775C93.14,32.24 101.556,31.607 101.491,34.429C101.306,42.405 96.899,68.101 98.715,66.373C96.209,66.152 94.183,66.27 91.693,66.21C91.502,68.895 90.886,61.024 92.737,52.683C93.967,47.141 94.358,39.919 93.701,35.775Z" style="fill:rgb(72,51,51);stroke:rgb(76,76,76);stroke-width:1px;"/>
    </g>
    <g transform="matrix(0.99566,-0.0566901,0.0566901,0.99566,-0.789082,17.2825)">
        <rect x="337.634" y="87.374" width="7.831" height="5.395" style="fill:rgb(175,175,175);stroke:rgb(76,76,76);stroke-width:1px;"/>
    </g>
    <g transform="matrix(1.28522,0,0,1.28106,-98.9166,-14.7546)">
        <path d="M108.985,73.345L121.792,71.392C124.189,75.643 124.154,83.181 123.265,90.113C122.505,96.039 122.283,101.854 121.216,106.666L113.333,106.94C112.477,102.06 114.312,95.739 114.321,89.716C113.652,83.483 111.083,78.42 108.985,73.345Z" style="fill:white;stroke:rgb(126,126,126);stroke-width:1px;"/>
    </g>
    <g transform="matrix(1.28522,0,0,1.28106,-85.3273,-14.7546)">
        <path d="M87.752,73.181C89.366,75.589 92.847,86.17 91.875,90.569C90.614,96.276 88.02,100.663 86.33,104.506L92.229,108.516C96.151,101.376 100.607,94.404 102.784,84.828C103.263,79.906 103.371,76.843 102.487,74.425C97.748,73.483 91.798,74.55 87.752,73.181Z" style="fill:white;stroke:rgb(97,97,97);stroke-width:1px;"/>
    </g>
    <g transform="matrix(1.28522,0,0,1.28106,-83.5998,-15.9216)">
        <path d="M84.568,103.424L92.643,107.188L88.564,116.582C87.733,118.373 93.582,122.557 94.192,126.293C94.476,128.029 85,127.943 85,127.943C82.415,127.929 78.743,119.283 79.449,117.137C81.422,111.489 82.052,108.893 84.568,103.424Z" style="fill:rgb(72,51,51);stroke:rgb(76,76,76);stroke-width:0.78px;stroke-linecap:butt;stroke-miterlimit:1.41421;"/>
    </g>
    <g transform="matrix(1.28522,0,0,1.28106,-99.294,-15.1826)">
        <path d="M112.513,106.293C116.479,106.739 118.452,106.089 122.344,105.961C122.572,108.513 120.349,116.745 122.581,120.252C124.638,120.392 127.413,125.652 125.322,126.64C121.787,126.645 118.543,126.558 113.893,126.482C113.767,126.985 113.196,122.771 114.075,120.378C115.42,116.717 114.044,108.856 112.513,106.293Z" style="fill:rgb(72,51,51);stroke:rgb(76,76,76);stroke-width:0.78px;stroke-linecap:butt;stroke-miterlimit:1.41421;"/>
    </g>
    <g transform="matrix(0.87413,0,0,1.26124,-272.497,-38.9526)">
        <path d="M365.608,98.103C365.608,102.008 362.309,109.702 362.155,108.34C361.953,106.551 359.705,104.993 357.19,104.297C354.596,103.58 351.716,103.781 350.505,105.594C349.608,106.935 347.952,101.207 347.371,100.042C347.096,99.492 347.904,98.78 348.862,97.78C349.353,97.269 350.998,97.083 351.702,96.669C354.32,95.129 357.519,93.056 360.665,93.056C361.145,93.056 362.743,92.511 363.227,92.848" style="fill:rgb(88,88,88);stroke:rgb(106,106,106);stroke-width:0.92px;"/>
    </g>
    <g transform="matrix(-0.791655,0,0,2.44753,336.351,-158.548)">
        <path d="M365.608,98.103C365.608,102.008 362.309,109.702 362.155,108.34C361.744,104.705 352.891,102.023 350.505,105.594C349.608,106.935 347.952,101.207 347.371,100.042C347.096,99.492 347.904,98.78 348.862,97.78C349.353,97.269 350.998,97.083 351.702,96.669C354.32,95.129 357.519,93.056 360.665,93.056C361.145,93.056 362.743,92.511 363.227,92.848" style="fill:rgb(91,91,91);stroke:rgb(130,130,130);stroke-width:0.55px;"/>
    </g>
    <g transform="matrix(0.866469,-0.658162,0.658162,0.866469,-92.0488,85.8059)">
        <path d="M118.369,32.083L112.54,45.365L108.76,38.419L112.894,28.492L118.369,32.083Z" style="fill:rgb(215,215,215);stroke:rgb(72,51,51);stroke-width:1px;"/>
    </g>
    <g transform="matrix(1.04108,0,0,1.03771,-63.745,5.14639)">
        <path d="M108.281,44.301C109.69,40.216 95.453,32.635 92.069,35.009C90.225,36.303 88.129,37.224 87.42,37.724C85.176,43.646 85.187,39.763 87.176,46.703C87.176,46.703 91.818,46.992 94.958,54.97C96.457,58.779 84.64,74.833 88.538,77.769C92.435,80.704 116.529,77.846 120.208,75.132C123.887,72.418 112.349,59.325 110.414,54.133C109.278,51.083 107.434,46.758 108.281,44.301Z" style="fill:rgb(72,51,51);stroke:rgb(76,76,76);stroke-width:1px;"/>
    </g>
    <g transform="matrix(1,0,0,1,-313.478,-10.6018)">
        <path d="M358.398,64.007C358.297,53.043 348.87,52.815 339.774,55.737C339.716,55.763 342.934,52.633 345.149,51.895C354.266,48.857 364.624,60.923 362.617,61.882" style="fill:white;stroke:rgb(195,195,195);stroke-width:1px;"/>
    </g>
    <g transform="matrix(1,0,0,1,-313.478,-10.6018)">
        <path d="M342.088,91.278C342.986,94.919 373.201,92.952 374.7,88.464" style="fill:none;stroke:rgb(76,76,76);stroke-width:1px;"/>
    </g>
    <g transform="matrix(0.538406,0.748356,-0.735798,0.529371,-1.79599,-47.7365)">
        <path d="M121.214,52.161C117.627,48.66 133.114,65.678 133.114,65.678C133.114,65.678 135.086,71.328 135.741,71.08C136.992,69.589 142.243,72.715 143.591,70.707C143.368,67.47 141.112,60.776 135.538,59.725C135.538,59.725 122.437,53.355 121.214,52.161Z" style="fill:white;stroke:rgb(109,109,109);stroke-width:1px;"/>
    </g>
    <g transform="matrix(1.03709,0.0910645,-0.0907697,1.03373,-68.9689,1.6081)">
        <path d="M93.701,35.775C93.14,32.24 101.556,31.607 101.491,34.429C101.306,42.405 96.899,68.101 98.715,66.373C96.209,66.152 94.183,66.27 91.693,66.21C91.502,68.895 90.886,61.024 92.737,52.683C93.967,47.141 94.358,39.919 93.701,35.775Z" style="fill:rgb(72,51,51);stroke:rgb(76,76,76);stroke-width:1px;"/>
    </g>
    <g transform="matrix(1,0,0,1,-318.059,-8.98074)">
        <rect x="337.634" y="87.374" width="7.831" height="5.395" style="fill:rgb(175,175,175);stroke:rgb(76,76,76);stroke-width:1px;"/>
    </g>
    <g transform="matrix(1.23449,-0.00664439,0.00664439,1.23449,-433.436,-19.4672)">
        <path d="M395.689,104.916C395.689,104.718 393.348,104.446 393.373,104.865C393.508,107.163 393.373,106.298 393.373,106.537C393.373,108.196 393.45,108.264 393.059,109.834C392.725,111.172 392.066,111.467 391.503,112.78C391.432,112.945 390.919,114.036 391.155,114.272C391.277,114.394 392.166,114.272 392.357,114.272C393.753,114.272 394.274,112.425 395.013,111.319C395.458,110.651 396.664,110.521 396.975,109.994C397.14,109.715 396.778,109.099 396.975,108.843C397.51,108.147 398.538,106.595 397.984,105.481C397.723,104.958 396.485,105.296 396.485,104.967" style="fill:rgb(168,10,10);stroke:rgb(100,0,0);stroke-width:0.81px;"/>
    </g>
    <g transform="matrix(1.41026,1.99345,-1.10766,0.783616,-400.611,-758.767)">
        <path d="M393.059,102.85C392.898,103.011 393.059,104.283 393.059,104.522C393.059,106.181 393.45,108.264 393.059,109.834C392.725,111.172 392.204,112.031 392.943,110.924C393.388,110.257 394.594,110.127 394.905,109.6C395.07,109.32 394.891,107.844 395.029,107.486C395.424,106.463 394.049,104.165 393.494,103.051" style="fill:rgb(168,10,10);stroke:rgb(100,0,0);stroke-width:0.51px;"/>
    </g>
    <g transform="matrix(1.23451,0,0,1.23451,-400.129,-34.6722)">
        <path d="M350.805,117.927C350.765,118.026 351.482,121.508 351.419,121.575C351.338,121.658 351.653,123.747 351.755,123.893C351.808,123.969 352.073,123.993 352.164,124.053C353.417,124.888 352.954,121.137 353.431,120.302C353.612,119.985 354.511,119.662 354.713,119.365" style="fill:rgb(168,10,10);stroke:rgb(100,0,0);stroke-width:0.81px;"/>
    </g>
    <g transform="matrix(1.23202,-0.234541,0.234541,1.23202,-472.58,19.4775)">
        <path d="M395.375,102.901C395.375,102.703 393.355,102.553 393.059,102.85C392.898,103.011 393.059,104.283 393.059,104.522C393.059,106.181 393.45,108.264 393.059,109.834C392.725,111.172 392.066,111.467 391.503,112.78C391.432,112.945 390.919,114.036 391.155,114.272C391.277,114.394 392.166,114.272 392.357,114.272C393.753,114.272 394.274,112.425 395.013,111.319C395.458,110.651 396.664,110.521 396.975,109.994C397.14,109.715 396.778,109.099 396.975,108.843C397.51,108.147 398.224,104.58 397.669,103.466C397.409,102.942 396.171,103.281 396.171,102.951" style="fill:rgb(168,10,10);stroke:rgb(100,0,0);stroke-width:0.8px;"/>
    </g>
    <g transform="matrix(1.2951,0,0,1.29091,-24.9129,-15.4438)">
        <path d="M108.985,73.345L121.792,71.392C124.189,75.643 124.154,83.181 123.265,90.113C122.505,96.039 122.283,101.854 121.216,106.666L113.333,106.94C112.477,102.06 114.312,95.739 114.321,89.716C113.652,83.483 111.083,78.42 108.985,73.345Z" style="fill:white;stroke:rgb(126,126,126);stroke-width:1px;"/>
    </g>
    <g transform="matrix(1.29,-0.114837,0.114465,1.28582,-18.3489,-4.86447)">
        <path d="M87.752,73.181C89.366,75.589 92.847,86.17 91.875,90.569C90.614,96.276 88.02,100.663 86.33,104.506L92.229,108.516C96.151,101.376 100.607,94.404 102.784,84.828C103.263,79.906 103.371,76.843 102.487,74.425C97.748,73.483 91.798,74.55 87.752,73.181Z" style="fill:white;stroke:rgb(97,97,97);stroke-width:1px;"/>
    </g>
    <g transform="matrix(-0.797738,0,0,2.46633,413.7,-160.342)">
        <path d="M365.608,98.103C365.608,102.008 362.309,109.702 362.155,108.34C361.744,104.705 352.891,102.023 350.505,105.594C349.608,106.935 347.952,101.207 347.371,100.042C347.096,99.492 347.904,98.78 348.862,97.78C349.353,97.269 350.998,97.083 351.702,96.669C354.32,95.129 357.519,93.056 360.665,93.056C361.145,93.056 362.743,92.511 363.227,92.848" style="fill:rgb(91,91,91);stroke:rgb(130,130,130);stroke-width:0.55px;"/>
    </g>
    <g transform="matrix(1.29,-0.114837,0.114465,1.28582,-16.7192,-6.19017)">
        <path d="M84.568,103.424L92.643,107.188L88.564,116.582C87.733,118.373 93.582,122.557 94.192,126.293C94.476,128.029 85,127.943 85,127.943C82.415,127.929 78.743,119.283 79.449,117.137C81.422,111.489 82.052,108.893 84.568,103.424Z" style="fill:rgb(72,51,51);stroke:rgb(76,76,76);stroke-width:0.77px;stroke-linecap:butt;stroke-miterlimit:1.41421;"/>
    </g>
    <g transform="matrix(1.2951,0,0,1.29091,-25.2932,-15.875)">
        <path d="M112.513,106.293C116.479,106.739 118.452,106.089 122.344,105.961C122.572,108.513 120.349,116.745 122.581,120.252C124.638,120.392 127.413,125.652 125.322,126.64C121.787,126.645 118.543,126.558 113.893,126.482C113.767,126.985 113.196,122.771 114.075,120.378C115.42,116.717 114.044,108.856 112.513,106.293Z" style="fill:rgb(72,51,51);stroke:rgb(76,76,76);stroke-width:0.77px;stroke-linecap:butt;stroke-miterlimit:1.41421;"/>
    </g>
    <g transform="matrix(0.877378,-0.0781049,0.112694,1.26593,-208.376,-12.4284)">
        <path d="M365.608,98.103C365.608,102.008 362.309,109.702 362.155,108.34C361.744,104.705 352.891,102.023 350.505,105.594C349.608,106.935 347.952,101.207 347.371,100.042C347.096,99.492 347.904,98.78 348.862,97.78C349.353,97.269 350.998,97.083 351.702,96.669C354.32,95.129 357.519,93.056 360.665,93.056C361.145,93.056 362.743,92.511 363.227,92.848" style="fill:rgb(88,88,88);stroke:rgb(106,106,106);stroke-width:0.91px;"/>
    </g>
    <g transform="matrix(1.00746,-0.411069,0.411069,1.00746,-21.4755,51.2521)">
        <path d="M118.369,32.083L112.54,45.365L108.76,38.419L112.894,28.492L118.369,32.083Z" style="fill:rgb(215,215,215);stroke:rgb(72,51,51);stroke-width:1px;"/>
    </g>
    <g transform="matrix(1.04108,0,0,1.03771,12.0135,6.4858)">
        <path d="M103.882,36.377C101.782,34.686 98.983,33.347 96.295,33.567C95.127,33.663 93.569,34.272 92.069,35.009C90.046,36.001 88.129,37.224 87.42,37.724C85.176,43.646 85.187,39.763 87.176,46.703C87.176,46.703 91.818,46.992 94.958,54.97C96.457,58.779 84.64,74.833 88.538,77.769C92.435,80.704 116.529,77.846 120.208,75.132C123.887,72.418 112.683,60.832 110.748,55.64C109.612,52.59 108.488,46.892 108.281,44.301C108.066,41.627 106.24,38.276 103.882,36.377Z" style="fill:rgb(72,51,51);stroke:rgb(76,76,76);stroke-width:1px;"/>
    </g>
    <g transform="matrix(1,0,0,1,-237.719,-9.26243)">
        <path d="M358.398,64.007C358.658,51.35 349.144,51.529 339.774,55.737C339.716,55.763 342.982,52.765 345.149,51.895C352.362,49.001 357.418,52.839 359.656,55.279C361.266,57.036 362.846,60.924 362.617,61.882" style="fill:white;stroke:rgb(195,195,195);stroke-width:1px;"/>
    </g>
    <g transform="matrix(1.244,0,0,1.244,-324.874,-35.0345)">
        <path d="M345.649,91.284C346.546,94.924 368.651,93.231 370.15,88.744" style="fill:none;stroke:rgb(76,76,76);stroke-width:0.8px;"/>
    </g>
    <g transform="matrix(0.606429,0.694379,-0.682726,0.596252,64.8369,-42.1516)">
        <path d="M121.214,52.161C117.627,48.66 132.144,66.248 132.144,66.248C132.144,66.248 135.086,71.328 135.741,71.08C136.992,69.589 142.243,72.715 143.591,70.707C143.368,67.47 140.58,62.149 135.006,61.098C135.006,61.098 122.437,53.355 121.214,52.161Z" style="fill:white;stroke:rgb(109,109,109);stroke-width:1px;"/>
    </g>
    <g transform="matrix(1.04106,-0.00691681,0.00689442,1.03769,2.60461,13.2942)">
        <path d="M93.701,35.775C93.14,32.24 101.556,31.607 101.491,34.429C101.306,42.405 96.899,68.101 98.715,66.373C96.209,66.152 94.183,66.27 91.693,66.21C91.502,68.895 90.886,61.024 92.737,52.683C93.967,47.141 94.358,39.919 93.701,35.775Z" style="fill:rgb(72,51,51);stroke:rgb(76,76,76);stroke-width:1px;"/>
    </g>
    <g transform="matrix(0.995564,-0.0940876,0.0940876,0.995564,-246.377,26.1887)">
        <rect x="337.634" y="87.374" width="7.831" height="5.395" style="fill:rgb(175,175,175);stroke:rgb(76,76,76);stroke-width:1px;"/>
    </g>
    <g transform="matrix(1.24398,-0.00669545,0.00669545,1.24398,-362.003,-20.1925)">
        <path d="M395.689,104.916C395.689,104.718 393.348,104.446 393.373,104.865C393.508,107.163 393.373,106.298 393.373,106.537C393.373,108.196 393.45,108.264 393.059,109.834C392.725,111.172 392.066,111.467 391.503,112.78C391.432,112.945 390.919,114.036 391.155,114.272C391.277,114.394 392.166,114.272 392.357,114.272C393.753,114.272 394.274,112.425 395.013,111.319C395.458,110.651 396.664,110.521 396.975,109.994C397.14,109.715 396.778,109.099 396.975,108.843C397.51,108.147 398.538,106.595 397.984,105.481C397.723,104.958 396.485,105.296 396.485,104.967" style="fill:rgb(168,10,10);stroke:rgb(100,0,0);stroke-width:0.8px;"/>
    </g>
    <g transform="matrix(1.59362,1.87485,-1.04176,0.885498,-401.282,-723.47)">
        <path d="M393.059,102.85C392.898,103.011 393.059,104.283 393.059,104.522C393.059,106.181 393.45,108.264 393.059,109.834C392.725,111.172 392.204,112.031 392.943,110.924C393.388,110.257 394.594,110.127 394.905,109.6C395.07,109.32 394.891,107.844 395.029,107.486C395.424,106.463 394.049,104.165 393.494,103.051" style="fill:rgb(168,10,10);stroke:rgb(100,0,0);stroke-width:0.5px;"/>
    </g>
    <g transform="matrix(1.244,0,0,1.244,-328.439,-35.5144)">
        <path d="M350.805,117.927C350.765,118.026 351.482,121.508 351.419,121.575C351.338,121.658 351.653,123.747 351.755,123.893C351.808,123.969 352.073,123.993 352.164,124.053C353.417,124.888 352.954,121.137 353.431,120.302C353.612,119.985 354.511,119.662 354.713,119.365" style="fill:rgb(168,10,10);stroke:rgb(100,0,0);stroke-width:0.8px;"/>
    </g>
    <g transform="matrix(-0.688829,0.777966,0.775493,0.668026,241.619,-61.3533)">
        <path d="M121.214,52.161C117.627,48.66 132.144,66.248 132.144,66.248C132.144,66.248 135.086,71.328 135.741,71.08C136.992,69.589 142.243,72.715 143.591,70.707C143.368,67.47 140.58,62.149 135.006,61.098C135.006,61.098 122.437,53.355 121.214,52.161Z" style="fill:white;stroke:rgb(109,109,109);stroke-width:1px;"/>
    </g>
    <g transform="matrix(1.23202,-0.234541,0.234541,1.23202,-396.821,20.8169)">
        <path d="M395.375,102.901C395.375,102.703 393.355,102.553 393.059,102.85C392.898,103.011 393.059,104.283 393.059,104.522C393.059,106.181 393.45,108.264 393.059,109.834C392.725,111.172 392.066,111.467 391.503,112.78C391.432,112.945 390.919,114.036 391.155,114.272C391.277,114.394 392.166,114.272 392.357,114.272C393.753,114.272 394.274,112.425 395.013,111.319C395.458,110.651 396.664,110.521 396.975,109.994C397.14,109.715 396.778,109.099 396.975,108.843C397.51,108.147 398.224,104.58 397.669,103.466C397.409,102.942 396.171,103.281 396.171,102.951" style="fill:rgb(168,10,10);stroke:rgb(100,0,0);stroke-width:0.8px;"/>
    </g>
    <g transform="matrix(1.11242,-0.133295,0.133295,1.11242,56.302,5.92112)">
        <path d="M118.369,32.083L112.54,45.365L108.76,38.419L112.894,28.492L118.369,32.083Z" style="fill:rgb(215,215,215);stroke:rgb(72,51,51);stroke-width:1px;"/>
    </g>
    <g transform="matrix(1.43418,0,0,1.42954,22.4971,-33.8492)">
        <path d="M108.985,73.345L121.792,71.392C124.189,75.643 124.154,83.181 123.265,90.113C122.505,96.039 122.283,101.854 121.216,106.666L113.333,106.94C112.477,102.06 114.312,95.739 114.321,89.716C113.652,83.483 111.083,78.42 108.985,73.345Z" style="fill:white;stroke:rgb(126,126,126);stroke-width:1px;"/>
    </g>
    <g transform="matrix(1.27781,-0.00666326,0.00687752,1.238,-311.123,-20.7374)">
        <path d="M395.689,104.916C395.689,104.718 393.348,104.446 393.373,104.865C393.508,107.163 393.373,106.298 393.373,106.537C393.373,108.196 393.45,108.264 393.059,109.834C392.725,111.172 392.066,111.467 391.503,112.78C391.432,112.945 390.919,114.036 391.155,114.272C391.277,114.394 392.166,114.272 392.357,114.272C393.753,114.272 394.274,112.425 395.013,111.319C395.458,110.651 396.664,110.521 396.975,109.994C397.14,109.715 396.778,109.099 396.975,108.843C397.51,108.147 398.538,106.595 397.984,105.481C397.723,104.958 396.485,105.296 396.485,104.967" style="fill:rgb(168,10,10);stroke:rgb(100,0,0);stroke-width:0.79px;"/>
    </g>
    <g transform="matrix(1.32507,-0.114285,0.117577,1.27964,52.8629,-3.29302)">
        <path d="M87.752,73.181C89.366,75.589 92.847,86.17 91.875,90.569C90.614,96.276 88.02,100.663 86.33,104.506L92.229,108.516C96.151,101.376 100.607,94.404 102.784,84.828C103.263,79.906 103.371,76.843 102.487,74.425C97.748,73.483 91.798,74.55 87.752,73.181Z" style="fill:white;stroke:rgb(97,97,97);stroke-width:1px;"/>
    </g>
    <g transform="matrix(1.33031,0,0,1.35197,34.6708,-24.2311)">
        <path d="M112.513,106.293C116.479,106.739 118.452,106.089 122.344,105.961C122.572,108.513 120.349,116.745 122.581,120.252C124.638,120.392 127.413,125.652 125.322,126.64C121.787,126.645 118.543,126.558 113.893,126.482C113.767,126.985 113.196,122.771 114.075,120.378C115.42,116.717 114.044,108.856 112.513,106.293Z" style="fill:rgb(72,51,51);stroke:rgb(76,76,76);stroke-width:0.76px;stroke-linecap:butt;stroke-miterlimit:1.41421;"/>
    </g>
    <g transform="matrix(1.32507,-0.114285,0.117577,1.27964,54.537,-4.61235)">
        <path d="M84.568,103.424L92.643,107.188L88.564,116.582C87.733,118.373 93.582,122.557 94.192,126.293C94.476,128.029 85,127.943 85,127.943C82.415,127.929 78.743,119.283 79.449,117.137C81.422,111.489 82.052,108.893 84.568,103.424Z" style="fill:rgb(72,51,51);stroke:rgb(76,76,76);stroke-width:0.76px;stroke-linecap:butt;stroke-miterlimit:1.41421;"/>
    </g>
    <g transform="matrix(0.971604,-0.086493,0.124797,1.40189,-169.414,-28.8849)">
        <path d="M365.608,98.103C365.608,102.008 364.762,109.853 364.608,108.491C364.197,104.856 353.785,102.382 350.505,105.594C349.164,106.908 347.426,101.587 346.845,100.422C346.57,99.872 347.904,98.78 348.862,97.78C349.353,97.269 350.998,97.083 351.702,96.669C354.32,95.129 357.519,93.056 360.665,93.056C361.145,93.056 362.743,92.511 363.227,92.848" style="fill:rgb(88,88,88);stroke:rgb(106,106,106);stroke-width:0.9px;"/>
    </g>
    <g transform="matrix(1.1664,0,0,1.17935,68.6835,-9.74726)">
        <path d="M103.882,36.377C101.782,34.686 98.983,33.347 96.295,33.567C95.127,33.663 95.281,50.122 98.421,58.1C99.92,61.909 84.996,73.937 88.537,77.889C92.078,81.841 114.639,82.603 117.566,78.303C120.493,74.003 111.614,60.793 111.614,60.793C111.614,60.793 108.488,46.892 108.281,44.301C108.066,41.627 106.24,38.276 103.882,36.377Z" style="fill:rgb(72,51,51);stroke:rgb(76,76,76);stroke-width:1px;"/>
    </g>
    <g transform="matrix(0.924715,0,0,0.414408,-139.141,41.5671)">
        <path d="M336.468,83.769C340.872,96.88 370.947,95.515 373.405,86.446" style="fill:rgb(72,51,51);stroke:rgb(76,76,76);stroke-width:0.8px;"/>
    </g>
    <g transform="matrix(0.906679,0.658159,-0.658159,0.906679,-90.8797,-243.989)">
        <path d="M361.311,62.894C356.344,53.223 349.681,52.053 339.774,55.737C339.714,55.759 343.32,52.722 345.652,52.587C353.095,52.155 356.111,53.994 358.348,56.434C359.959,58.191 362.116,61.668 362.617,61.882" style="fill:white;stroke:rgb(195,195,195);stroke-width:0.98px;"/>
    </g>
    <g transform="matrix(0.679428,0.777966,-0.76491,0.668026,134.571,-63.9164)">
        <path d="M121.214,52.161C118.903,49.905 123.515,57.098 127.51,62.007C129.714,64.716 132.144,66.248 132.144,66.248C132.144,66.248 135.086,71.328 135.741,71.08C136.992,69.589 142.243,72.715 143.591,70.707C143.368,67.47 140.58,62.149 135.006,61.098C135.006,61.098 122.437,53.355 121.214,52.161Z" style="fill:white;stroke:rgb(109,109,109);stroke-width:1px;"/>
    </g>
    <g transform="matrix(1.16638,-0.00774942,0.00772433,1.1626,64.1988,-3.08967)">
        <path d="M97.292,34.234C96.731,30.699 101.556,31.607 101.491,34.429C101.306,42.405 96.899,68.101 98.715,66.373C96.209,66.152 95.098,66.276 92.608,66.216C92.417,68.901 92.428,61.674 94.279,53.333C95.509,47.791 97.949,38.378 97.292,34.234Z" style="fill:rgb(72,51,51);stroke:rgb(76,76,76);stroke-width:1px;"/>
    </g>
    <g transform="matrix(1.09709,0.0105988,-0.0114267,1.18279,-255.151,-67.1889)">
        <path d="M395.375,102.901C395.375,102.703 393.355,102.553 393.059,102.85C392.898,103.011 393.059,104.283 393.059,104.522C393.059,106.181 393.45,108.264 393.059,109.834C392.725,111.172 392.066,111.467 391.503,112.78C391.432,112.945 390.919,114.036 391.155,114.272C391.277,114.394 392.166,114.272 392.357,114.272C393.753,114.272 394.274,112.425 395.013,111.319C395.458,110.651 396.664,110.521 396.975,109.994C397.14,109.715 396.778,109.099 396.975,108.843C397.51,108.147 398.224,104.58 397.669,103.466C397.409,102.942 396.171,103.281 396.171,102.951" style="fill:rgb(168,10,10);stroke:rgb(100,0,0);stroke-width:0.78px;"/>
    </g>
    <g transform="matrix(0.880473,-0.0806187,0.0705276,0.723019,-130.739,38.0843)">
        <rect x="337.634" y="87.374" width="7.831" height="5.395" style="fill:rgb(175,175,175);stroke:rgb(76,76,76);stroke-width:0.98px;"/>
    </g>
    <g transform="matrix(1.63695,1.86583,-1.07009,0.881241,-339.776,-718.635)">
        <path d="M393.059,102.85C392.898,103.011 393.059,104.283 393.059,104.522C393.059,106.181 393.45,108.264 393.059,109.834C392.725,111.172 392.204,112.031 392.943,110.924C393.388,110.257 394.594,110.127 394.905,109.6C395.07,109.32 394.891,107.844 395.029,107.486C395.424,106.463 394.049,104.165 393.494,103.051" style="fill:rgb(168,10,10);stroke:rgb(100,0,0);stroke-width:0.5px;"/>
    </g>
    <g transform="matrix(1.27782,0,0,1.23801,-260.402,-34.2405)">
        <path d="M350.805,117.927C350.765,118.026 351.482,121.508 351.419,121.575C351.338,121.658 351.653,123.747 351.755,123.893C351.808,123.969 352.073,123.993 352.164,124.053C353.417,124.888 352.954,121.137 353.431,120.302C353.612,119.985 354.511,119.662 354.713,119.365" style="fill:rgb(168,10,10);stroke:rgb(100,0,0);stroke-width:0.79px;"/>
    </g>
    <g transform="matrix(1.06585,-0.218879,0.218879,1.06585,142.737,30.077)">
        <path d="M118.369,32.083L112.54,45.365L108.76,38.419L112.894,28.492L118.369,32.083Z" style="fill:rgb(215,215,215);stroke:rgb(72,51,51);stroke-width:1px;"/>
    </g>
    <g transform="matrix(1.13279,0,0,1.12912,127.262,0.033437)">
        <path d="M108.985,73.345L121.792,71.392C124.189,75.643 124.154,83.181 123.265,90.113C122.505,96.039 122.283,101.854 121.216,106.666L113.333,106.94C112.477,102.06 114.312,95.739 114.321,89.716C113.652,83.483 111.083,78.42 108.985,73.345Z" style="fill:white;stroke:rgb(126,126,126);stroke-width:1px;"/>
    </g>
    <g transform="matrix(1.26308,-0.00679824,0.00679824,1.26308,-236.896,-22.6605)">
        <path d="M395.689,104.916C395.689,104.718 393.348,104.446 393.373,104.865C393.508,107.163 393.373,106.298 393.373,106.537C393.373,108.196 393.45,108.264 393.059,109.834C392.725,111.172 392.066,111.467 391.503,112.78C391.432,112.945 390.919,114.036 391.155,114.272C391.277,114.394 392.166,114.272 392.357,114.272C393.753,114.272 394.274,112.425 395.013,111.319C395.458,110.651 396.664,110.521 396.975,109.994C397.14,109.715 396.778,109.099 396.975,108.843C397.51,108.147 398.538,106.595 397.984,105.481C397.723,104.958 396.485,105.296 396.485,104.967" style="fill:rgb(168,10,10);stroke:rgb(100,0,0);stroke-width:0.79px;"/>
    </g>
    <g transform="matrix(1.3098,-0.1166,0.116222,1.30556,122.895,-4.86275)">
        <path d="M88.802,75.859C90.416,78.267 92.847,86.17 91.875,90.569C90.614,96.276 88.02,100.663 86.33,104.506L92.229,108.516C96.151,101.376 100.607,94.404 102.784,84.828C103.263,79.906 103.371,76.843 102.487,74.425C97.748,73.483 92.848,77.228 88.802,75.859Z" style="fill:white;stroke:rgb(97,97,97);stroke-width:1px;"/>
    </g>
    <g transform="matrix(1.31498,0,0,1.31073,104.913,-17.5324)">
        <path d="M112.513,106.293C116.479,106.739 118.452,106.089 122.344,105.961C122.572,108.513 120.349,116.745 122.581,120.252C124.638,120.392 127.413,125.652 125.322,126.64C121.787,126.645 118.543,126.558 113.893,126.482C113.767,126.985 113.196,122.771 114.075,120.378C115.42,116.717 114.044,108.856 112.513,106.293Z" style="fill:rgb(72,51,51);stroke:rgb(76,76,76);stroke-width:0.76px;stroke-linecap:butt;stroke-miterlimit:1.41421;"/>
    </g>
    <g transform="matrix(1.3098,-0.1166,0.116222,1.30556,124.55,-6.2088)">
        <path d="M84.568,103.424L92.643,107.188L88.564,116.582C87.733,118.373 93.582,122.557 94.192,126.293C94.476,128.029 85,127.943 85,127.943C82.415,127.929 78.743,119.283 79.449,117.137C81.422,111.489 82.052,108.893 84.568,103.424Z" style="fill:rgb(72,51,51);stroke:rgb(76,76,76);stroke-width:0.76px;stroke-linecap:butt;stroke-miterlimit:1.41421;"/>
    </g>
    <g transform="matrix(1.03078,0.469779,-0.468258,1.02745,185.49,-36.298)">
        <path d="M103.882,36.377C101.782,34.686 98.983,33.347 96.295,33.567C95.127,33.663 100.672,52.221 97.529,60.202C94.268,68.484 90.289,80.14 90.631,80.697C93.818,85.885 122.362,82.302 123.383,76.555C123.952,73.353 111.73,62.673 111.029,56.899C110.636,53.668 108.488,46.892 108.281,44.301C108.066,41.627 106.24,38.276 103.882,36.377Z" style="fill:rgb(72,51,51);stroke:rgb(76,76,76);stroke-width:1px;"/>
    </g>
    <g transform="matrix(0.982193,0.468225,-0.468225,0.982193,-50.1248,-170.498)">
        <path d="M346.12,95.153C348.961,99.887 372.79,95.132 376.973,91.668" style="fill:none;stroke:rgb(76,76,76);stroke-width:0.92px;"/>
    </g>
    <g transform="matrix(1.34054,-0.255202,0.255202,1.34054,-286.004,27.6168)">
        <path d="M395.375,102.901C395.375,102.703 393.355,102.553 393.059,102.85C392.898,103.011 393.059,104.283 393.059,104.522C393.059,106.181 393.45,108.264 393.059,109.834C392.725,111.172 392.066,111.467 391.503,112.78C391.432,112.945 390.919,114.036 391.155,114.272C391.277,114.394 392.166,114.272 392.357,114.272C393.753,114.272 394.274,112.425 395.013,111.319C395.458,110.651 396.664,110.521 396.975,109.994C397.14,109.715 396.778,109.099 396.975,108.843C397.51,108.147 398.224,104.58 397.669,103.466C397.409,102.942 396.171,103.281 396.171,102.951" style="fill:rgb(168,10,10);stroke:rgb(100,0,0);stroke-width:0.73px;"/>
    </g>
    <g transform="matrix(1.61809,1.90363,-1.05776,0.899093,-265.218,-734.696)">
        <path d="M393.059,102.85C392.898,103.011 393.059,104.283 393.059,104.522C393.059,106.181 393.45,108.264 393.059,109.834C392.725,111.172 392.204,112.031 392.943,110.924C393.388,110.257 394.594,110.127 394.905,109.6C395.07,109.32 394.891,107.844 395.029,107.486C395.424,106.463 394.049,104.165 393.494,103.051" style="fill:rgb(168,10,10);stroke:rgb(100,0,0);stroke-width:0.49px;"/>
    </g>
    <g transform="matrix(1.2631,0,0,1.2631,-188.067,-36.4371)">
        <path d="M350.805,117.927C350.765,118.026 351.482,121.508 351.419,121.575C351.338,121.658 351.653,123.747 351.755,123.893C351.808,123.969 352.073,123.993 352.164,124.053C353.417,124.888 352.954,121.137 353.431,120.302C353.612,119.985 354.511,119.662 354.713,119.365" style="fill:rgb(168,10,10);stroke:rgb(100,0,0);stroke-width:0.79px;"/>
    </g>
    <g transform="matrix(1.1279,-0.105117,0.104777,1.12425,154.683,26.7526)">
        <path d="M93.701,35.775C93.14,32.24 101.556,31.607 101.491,34.429C101.306,42.405 96.899,68.101 98.715,66.373C96.209,66.152 94.183,66.27 91.693,66.21C91.502,68.895 90.886,61.024 92.737,52.683C93.967,47.141 94.358,39.919 93.701,35.775Z" style="fill:rgb(72,51,51);stroke:rgb(76,76,76);stroke-width:1px;"/>
    </g>
    <g transform="matrix(-0.36734,-1.16149,-0.853308,0.566769,261.089,146.75)">
        <path d="M121.652,18.798C120.085,17.277 117.64,15.112 114.946,15.731C107.374,17.468 100.507,18.285 99.816,16.908C98.245,13.776 85.795,34.245 89.98,31.612C96.57,27.467 119.826,22.975 118.719,26.838C117.507,31.066 122.423,19.547 121.652,18.798Z" style="fill:rgb(143,127,122);stroke:rgb(58,58,58);stroke-width:1.44px;"/>
    </g>
    <g transform="matrix(-0.138182,-1.19087,-0.832158,0.224148,228.81,162.866)">
        <path d="M121.652,18.798C120.085,17.277 113.711,13.538 111.017,14.156C105.308,15.467 95.312,17.428 90.012,18.434C87.558,18.899 87.57,24.34 88.471,24.668C96.333,27.526 121.67,13.387 118.468,19.608C116.455,23.52 122.423,19.547 121.652,18.798Z" style="fill:rgb(137,114,107);stroke:rgb(58,58,58);stroke-width:1.44px;"/>
    </g>
    <g transform="matrix(-0.36734,-1.16149,-0.853308,0.566769,259.898,150.566)">
        <path d="M121.652,18.798C122.78,15.474 119.101,14.134 114.946,15.731C107.694,18.516 100.507,18.285 99.816,16.908C98.245,13.776 85.795,34.245 89.98,31.612C96.57,27.467 119.575,15.745 118.468,19.608C117.257,23.837 121.306,19.816 121.652,18.798Z" style="fill:rgb(105,97,94);stroke:rgb(58,58,58);stroke-width:1.44px;"/>
    </g>
    <g transform="matrix(-0.486212,-1.06582,-0.783023,0.750176,269.597,136.345)">
        <path d="M121.652,18.798C120.085,17.277 119.548,12.443 117.08,13.69C108.468,18.041 91.371,25.593 90.45,22.012C89.828,19.593 89.618,30.268 89.011,31.01C85.074,35.826 113.345,15.093 118.468,19.608C121.768,22.517 122.423,19.547 121.652,18.798Z" style="fill:rgb(119,103,98);stroke:rgb(58,58,58);stroke-width:1.44px;"/>
    </g>
    <g transform="matrix(-0.28866,-1.12653,-0.787198,0.468244,247.352,145.235)">
        <path d="M121.652,18.798C120.085,17.277 117.548,14.796 114.946,15.731C106.877,18.629 91.311,23.994 90.45,22.012C89.455,19.721 87.153,28.67 88.003,29.115C92.11,31.269 119.507,12.835 118.468,19.608C117.801,23.957 122.423,19.547 121.652,18.798Z" style="fill:rgb(143,127,122);stroke:rgb(58,58,58);stroke-width:1.44px;"/>
    </g>
    <g transform="matrix(0.583545,0.81592,-0.802228,0.573752,243.319,-45.71)">
        <path d="M129.191,57.912C125.604,54.411 132.144,66.248 132.144,66.248C132.144,66.248 135.086,71.328 135.741,71.08C136.992,69.589 142.243,72.715 143.591,70.707C143.368,67.47 140.58,62.149 135.006,61.098C135.006,61.098 130.414,59.106 129.191,57.912Z" style="fill:white;stroke:rgb(109,109,109);stroke-width:1px;"/>
    </g>
    <g transform="matrix(1.08633,-0.0618526,0.0618526,1.08633,-107.46,17.6807)">
        <rect x="337.634" y="87.374" width="7.831" height="5.395" style="fill:rgb(175,175,175);stroke:rgb(76,76,76);stroke-width:0.92px;"/>
    </g>
    <g transform="matrix(0.409214,-1.16149,0.950579,0.566769,115.521,143.672)">
        <path d="M121.652,18.798C120.085,17.277 117.64,15.112 114.946,15.731C107.374,17.468 100.507,18.285 99.816,16.908C98.245,13.776 85.795,34.245 89.98,31.612C96.57,27.467 119.826,22.975 118.719,26.838C117.507,31.066 122.423,19.547 121.652,18.798Z" style="fill:rgb(143,127,122);stroke:rgb(58,58,58);stroke-width:1.44px;"/>
    </g>
    <g transform="matrix(0.170984,-1.25817,1.0297,0.236815,149.224,169.791)">
        <path d="M121.652,18.798C120.085,17.277 113.711,13.538 111.017,14.156C105.308,15.467 95.312,17.428 90.012,18.434C87.558,18.899 87.57,24.34 88.471,24.668C96.333,27.526 121.67,13.387 118.468,19.608C116.455,23.52 122.423,19.547 121.652,18.798Z" style="fill:rgb(137,114,107);stroke:rgb(58,58,58);stroke-width:1.44px;"/>
    </g>
    <g transform="matrix(0.782555,-0.0937698,0.121104,1.01067,151.951,-0.115842)">
        <path d="M51.474,11.454C58.793,11.454 64.735,16.764 64.735,23.304C64.735,26.743 63.121,29.687 60.349,31.959C56.877,34.804 54.661,35.653 51.191,35.653C47.846,35.653 46.118,34.105 43.784,32.276C41.011,30.103 38.213,26.855 38.213,23.304C38.213,16.764 44.155,11.454 51.474,11.454Z" style="fill:rgb(252,252,252);stroke:rgb(53,53,53);stroke-width:1.31px;"/>
    </g>
    <g transform="matrix(0.608165,0.129561,-0.167651,0.78696,79.9516,-43.3165)">
        <path d="M203.302,43.861C205.274,43.861 208.591,46.417 208.591,47.961C208.591,49.506 204.788,50.649 202.815,50.649C200.843,50.649 197.499,49.395 197.499,47.851C197.499,46.307 201.329,43.861 203.302,43.861Z" style="fill:white;stroke:rgb(53,53,53);stroke-width:0.7px;"/>
    </g>
    <g transform="matrix(-0.479855,0.241849,-0.315117,-0.625228,316.572,1.64923)">
        <path d="M203.409,45.857C205.367,45.622 207.777,46.744 207.777,48.288C207.777,49.833 204.56,50.685 202.608,50.965C196.455,51.849 198.842,46.406 203.409,45.857Z" style="fill:white;stroke:rgb(53,53,53);stroke-width:0.8px;"/>
    </g>
    <g transform="matrix(0.409214,-1.16149,0.950579,0.566769,116.848,147.488)">
        <path d="M121.652,18.798C122.78,15.474 119.101,14.134 114.946,15.731C107.694,18.516 100.507,18.285 99.816,16.908C98.245,13.776 85.795,34.245 89.98,31.612C96.57,27.467 119.575,15.745 118.468,19.608C117.257,23.837 121.306,19.816 121.652,18.798Z" style="fill:rgb(105,97,94);stroke:rgb(58,58,58);stroke-width:1.44px;"/>
    </g>
    <g transform="matrix(0.541636,-1.06582,0.872282,0.750176,106.043,133.267)">
        <path d="M121.652,18.798C120.085,17.277 119.548,12.443 117.08,13.69C108.468,18.041 91.371,25.593 90.45,22.012C89.828,19.593 89.618,30.268 89.011,31.01C85.074,35.826 113.345,15.093 118.468,19.608C121.768,22.517 122.423,19.547 121.652,18.798Z" style="fill:rgb(119,103,98);stroke:rgb(58,58,58);stroke-width:1.44px;"/>
    </g>
    <g transform="matrix(0.357183,-1.19019,0.974064,0.494704,126.28,151.164)">
        <path d="M121.652,18.798C120.085,17.277 117.548,14.796 114.946,15.731C106.877,18.629 91.311,23.994 90.45,22.012C89.455,19.721 87.153,28.67 88.003,29.115C92.11,31.269 119.507,12.835 118.468,19.608C117.801,23.957 122.423,19.547 121.652,18.798Z" style="fill:rgb(143,127,122);stroke:rgb(58,58,58);stroke-width:1.44px;"/>
    </g>
    <g transform="matrix(-0.169168,0.148037,-0.468732,-0.535639,230.595,8.71204)">
        <path d="M109.756,25.784C100.948,23.228 113.437,10.61 111.03,11.352C93.514,16.749 91.333,28.393 101.768,31.038C108.394,32.717 113.717,26.933 109.756,25.784Z" style="fill:rgb(143,127,122);stroke:rgb(58,58,58);stroke-width:2.07px;"/>
    </g>
    <g transform="matrix(-0.169168,0.148037,-0.468732,-0.535639,230.595,8.71204)">
        <path d="M110.591,25.483C101.782,22.926 113.437,10.61 111.03,11.352C93.514,16.749 91.333,28.393 101.768,31.038C108.394,32.717 114.551,26.632 110.591,25.483Z" style="fill:rgb(143,127,122);stroke:rgb(58,58,58);stroke-width:2.07px;"/>
    </g>
    <g transform="matrix(-0.065956,0.0725795,-0.396046,-0.359902,218.204,12.3606)">
        <path d="M108.268,26.405C99.46,23.849 113.437,10.61 111.03,11.352C93.514,16.749 91.333,28.393 101.768,31.038C108.394,32.717 112.229,27.555 108.268,26.405Z" style="fill:rgb(143,127,122);stroke:rgb(58,58,58);stroke-width:2.07px;"/>
    </g>
    <g transform="matrix(0.674846,-0.3458,0.344682,0.672661,111.165,35.6661)">
        <path d="M118.885,18.281C113.854,12.657 101.875,14.372 98.235,18.67C95.97,21.344 98.53,27.155 100.041,29.042C101.015,30.258 100.756,29.644 102.68,29.943C108.483,30.844 118.544,26.151 118.693,24.104C119.013,19.711 119.602,19.082 118.885,18.281Z" style="fill:rgb(143,127,122);stroke:rgb(58,58,58);stroke-width:1.44px;"/>
    </g>
    <g transform="matrix(0.604737,-0.457481,0.355932,0.4705,117.312,52.1309)">
        <path d="M118.885,18.281C108.286,8.607 96.326,10.934 98.235,18.67C99.074,22.072 98.53,27.155 100.041,29.042C101.015,30.258 101.683,31.616 102.68,29.943C105.054,25.963 115.8,24.892 118.719,26.838C122.384,29.28 119.679,19.005 118.885,18.281Z" style="fill:rgb(159,143,138);stroke:rgb(58,58,58);stroke-width:1.44px;"/>
    </g>
    <g transform="matrix(0.622563,-0.390514,0.138781,0.221246,120.464,49.6589)">
        <path d="M118.885,18.281C112.652,8.824 100.174,8.948 98.235,18.67C97.549,22.107 99.093,33.318 98.941,30.906C98.465,23.368 116.557,16.618 118.719,26.838C119.631,31.147 119.477,19.178 118.885,18.281Z" style="fill:rgb(168,157,153);stroke:rgb(58,58,58);stroke-width:1.44px;"/>
    </g>
    <g transform="matrix(1.04872,0.306176,-0.306176,1.04872,2.09043,-72.1224)">
        <path d="M190.489,32.419C191.818,33.942 193.534,34.535 195.945,33.461" style="fill:none;stroke:rgb(184,153,141);stroke-width:1.37px;"/>
    </g>
    <g transform="matrix(-0.724507,-0.0855958,-0.0681343,0.576708,345.405,20.1908)">
        <path d="M190.489,32.419C191.818,33.942 193.534,34.535 195.945,33.461" style="fill:none;stroke:rgb(184,153,141);stroke-width:2.27px;"/>
    </g>
    <g transform="matrix(1.0925,0,0,1.0925,-16.6495,-13.0269)">
        <path d="M196.93,36.996C196.93,36.895 196.848,36.813 196.747,36.813L193.328,36.813C193.227,36.813 193.145,36.895 193.145,36.996L193.145,37.362C193.145,37.463 193.227,37.545 193.328,37.545L196.747,37.545C196.848,37.545 196.93,37.463 196.93,37.362L196.93,36.996Z" style="fill:rgb(252,252,252);stroke:rgb(184,153,141);stroke-width:0.92px;"/>
    </g>
    <g transform="matrix(0.29211,0.0195259,-0.0195109,0.291888,80.4871,-10.5687)">
        <path d="M393.683,102.02C393.522,102.181 393.059,104.283 393.059,104.522C393.059,106.181 393.45,108.264 393.059,109.834C392.725,111.172 392.066,111.467 391.503,112.78C391.432,112.945 390.919,114.036 391.155,114.272C391.277,114.394 392.166,114.272 392.357,114.272C393.753,114.272 394.274,112.425 395.013,111.319C395.458,110.651 396.664,110.521 396.975,109.994C397.14,109.715 396.778,109.099 396.975,108.843C397.51,108.147 398.076,101.743 397.522,100.629" style="fill:rgb(168,10,10);stroke:rgb(100,0,0);stroke-width:1.97px;"/>
    </g>
    <g transform="matrix(0.906679,0.658159,-0.658159,0.906679,-9.2289,-234.229)">
        <path d="M361.311,62.894C356.344,53.223 349.681,52.053 339.774,55.737C339.714,55.759 343.32,52.722 345.652,52.587C353.095,52.155 356.111,53.994 358.348,56.434C359.959,58.191 362.116,61.668 362.617,61.882" style="fill:white;stroke:rgb(195,195,195);stroke-width:0.98px;"/>
    </g>
    <g transform="matrix(-0.36734,-1.16149,-0.853308,0.566769,343.427,152.739)">
        <path d="M121.652,18.798C120.085,17.277 117.64,15.112 114.946,15.731C107.374,17.468 100.507,18.285 99.816,16.908C98.245,13.776 85.795,34.245 89.98,31.612C96.57,27.467 119.826,22.975 118.719,26.838C117.507,31.066 122.423,19.547 121.652,18.798Z" style="fill:rgb(143,127,122);stroke:rgb(58,58,58);stroke-width:1.44px;"/>
    </g>
    <g transform="matrix(-0.138182,-1.19087,-0.832158,0.224148,311.147,168.855)">
        <path d="M121.652,18.798C120.085,17.277 113.711,13.538 111.017,14.156C105.308,15.467 95.312,17.428 90.012,18.434C87.558,18.899 87.57,24.34 88.471,24.668C96.333,27.526 121.67,13.387 118.468,19.608C116.455,23.52 122.423,19.547 121.652,18.798Z" style="fill:rgb(137,114,107);stroke:rgb(58,58,58);stroke-width:1.44px;"/>
    </g>
    <g transform="matrix(-0.36734,-1.16149,-0.853308,0.566769,342.236,156.555)">
        <path d="M121.652,18.798C122.78,15.474 119.101,14.134 114.946,15.731C107.694,18.516 100.507,18.285 99.816,16.908C98.245,13.776 85.795,34.245 89.98,31.612C96.57,27.467 119.575,15.745 118.468,19.608C117.257,23.837 121.306,19.816 121.652,18.798Z" style="fill:rgb(105,97,94);stroke:rgb(58,58,58);stroke-width:1.44px;"/>
    </g>
    <g transform="matrix(-0.28866,-1.12653,-0.787198,0.468244,329.689,151.225)">
        <path d="M121.652,18.798C120.085,17.277 117.548,14.796 114.946,15.731C106.877,18.629 91.311,23.994 90.45,22.012C89.455,19.721 87.153,28.67 88.003,29.115C92.11,31.269 119.507,12.835 118.468,19.608C117.801,23.957 122.423,19.547 121.652,18.798Z" style="fill:rgb(143,127,122);stroke:rgb(58,58,58);stroke-width:1.44px;"/>
    </g>
    <g transform="matrix(0.170984,-1.25817,1.0297,0.236815,231.561,175.78)">
        <path d="M121.652,18.798C120.085,17.277 113.711,13.538 111.017,14.156C105.308,15.467 95.312,17.428 90.012,18.434C87.558,18.899 87.57,24.34 88.471,24.668C96.333,27.526 121.67,13.387 118.468,19.608C116.455,23.52 122.423,19.547 121.652,18.798Z" style="fill:rgb(137,114,107);stroke:rgb(58,58,58);stroke-width:1.44px;"/>
    </g>
    <g transform="matrix(0.782555,-0.0937698,0.121104,1.01067,234.541,8.75786)">
        <path d="M51.474,11.454C58.793,11.454 64.735,16.764 64.735,23.304C64.735,26.743 63.091,29.666 60.349,31.959C58.444,33.552 56.738,34.964 53.19,35.467C49.899,35.934 46.118,34.105 43.784,32.276C41.011,30.103 38.213,26.855 38.213,23.304C38.213,16.764 44.155,11.454 51.474,11.454Z" style="fill:rgb(252,252,252);stroke:rgb(53,53,53);stroke-width:1.31px;"/>
    </g>
    <g transform="matrix(0.608165,0.129561,-0.167651,0.78696,164.702,-34.5678)">
        <path d="M203.302,43.861C205.274,43.861 208.591,46.417 208.591,47.961C208.591,49.506 204.788,50.649 202.815,50.649C200.843,50.649 197.499,49.395 197.499,47.851C197.499,46.307 201.329,43.861 203.302,43.861Z" style="fill:white;stroke:rgb(53,53,53);stroke-width:0.7px;"/>
    </g>
    <g transform="matrix(-0.375483,0.189245,-0.270177,-0.536063,376.343,16.8999)">
        <path d="M203.409,45.857C205.367,45.622 207.777,46.744 207.777,48.288C207.777,49.833 204.56,50.685 202.608,50.965C196.455,51.849 198.842,46.406 203.409,45.857Z" style="fill:white;stroke:rgb(53,53,53);stroke-width:0.96px;"/>
    </g>
    <g transform="matrix(0.409214,-1.16149,0.950579,0.566769,200.064,150.99)">
        <path d="M121.652,18.798C122.78,15.474 119.101,14.134 114.946,15.731C107.694,18.516 100.507,18.285 99.816,16.908C98.245,13.776 85.795,34.245 89.98,31.612C96.57,27.467 119.575,15.745 118.468,19.608C117.257,23.837 121.306,19.816 121.652,18.798Z" style="fill:rgb(105,97,94);stroke:rgb(58,58,58);stroke-width:1.44px;"/>
    </g>
    <g transform="matrix(0.541636,-1.06582,0.872282,0.750176,188.381,139.256)">
        <path d="M121.652,18.798C120.085,17.277 119.548,12.443 117.08,13.69C108.468,18.041 91.371,25.593 90.45,22.012C89.828,19.593 89.618,30.268 89.011,31.01C85.074,35.826 113.345,15.093 118.468,19.608C121.768,22.517 122.423,19.547 121.652,18.798Z" style="fill:rgb(119,103,98);stroke:rgb(58,58,58);stroke-width:1.44px;"/>
    </g>
    <g transform="matrix(0.357183,-1.19019,0.974064,0.494704,208.617,157.154)">
        <path d="M121.652,18.798C120.085,17.277 117.548,14.796 114.946,15.731C106.877,18.629 91.311,23.994 90.45,22.012C89.455,19.721 87.153,28.67 88.003,29.115C92.11,31.269 119.507,12.835 118.468,19.608C117.801,23.957 122.423,19.547 121.652,18.798Z" style="fill:rgb(143,127,122);stroke:rgb(58,58,58);stroke-width:1.44px;"/>
    </g>
    <g transform="matrix(0.541636,-1.06582,0.872282,0.750176,194.51,136.759)">
        <path d="M121.652,18.798C120.085,17.277 119.548,12.443 117.08,13.69C108.468,18.041 91.371,25.593 90.45,22.012C89.828,19.593 89.618,30.268 89.011,31.01C85.074,35.826 113.345,15.093 118.468,19.608C121.768,22.517 122.423,19.547 121.652,18.798Z" style="fill:rgb(119,103,98);stroke:rgb(58,58,58);stroke-width:1.44px;"/>
    </g>
    <g transform="matrix(0.357183,-1.19019,0.974064,0.494704,214.746,154.657)">
        <path d="M121.652,18.798C120.085,17.277 117.548,14.796 114.946,15.731C106.877,18.629 91.311,23.994 90.45,22.012C89.455,19.721 87.153,28.67 88.003,29.115C92.11,31.269 119.507,12.835 118.468,19.608C117.801,23.957 122.423,19.547 121.652,18.798Z" style="fill:rgb(143,127,122);stroke:rgb(58,58,58);stroke-width:1.44px;"/>
    </g>
    <g transform="matrix(-0.169168,0.148037,-0.468732,-0.535639,313.185,17.5857)">
        <path d="M109.756,25.784C100.948,23.228 113.437,10.61 111.03,11.352C93.514,16.749 91.333,28.393 101.768,31.038C108.394,32.717 113.717,26.933 109.756,25.784Z" style="fill:rgb(143,127,122);stroke:rgb(58,58,58);stroke-width:2.07px;"/>
    </g>
    <g transform="matrix(-0.169168,0.148037,-0.468732,-0.535639,313.185,17.5857)">
        <path d="M110.591,25.483C101.782,22.926 113.437,10.61 111.03,11.352C93.514,16.749 91.333,28.393 101.768,31.038C108.394,32.717 114.551,26.632 110.591,25.483Z" style="fill:rgb(143,127,122);stroke:rgb(58,58,58);stroke-width:2.07px;"/>
    </g>
    <g transform="matrix(-0.065956,0.0725795,-0.396046,-0.359902,300.794,21.2343)">
        <path d="M108.268,26.405C99.46,23.849 113.437,10.61 111.03,11.352C93.514,16.749 91.333,28.393 101.768,31.038C108.394,32.717 112.229,27.555 108.268,26.405Z" style="fill:rgb(143,127,122);stroke:rgb(58,58,58);stroke-width:2.07px;"/>
    </g>
    <g transform="matrix(0.674846,-0.3458,0.344682,0.672661,193.755,44.5398)">
        <path d="M118.885,18.281C113.854,12.657 101.875,14.372 98.235,18.67C95.97,21.344 98.53,27.155 100.041,29.042C101.015,30.258 100.756,29.644 102.68,29.943C108.483,30.844 118.544,26.151 118.693,24.104C119.013,19.711 119.602,19.082 118.885,18.281Z" style="fill:rgb(143,127,122);stroke:rgb(58,58,58);stroke-width:1.44px;"/>
    </g>
    <g transform="matrix(0.604737,-0.457481,0.355932,0.4705,199.902,61.0046)">
        <path d="M118.885,18.281C108.286,8.607 96.326,10.934 98.235,18.67C99.074,22.072 98.53,27.155 100.041,29.042C101.015,30.258 101.683,31.616 102.68,29.943C105.054,25.963 115.8,24.892 118.719,26.838C122.384,29.28 119.679,19.005 118.885,18.281Z" style="fill:rgb(159,143,138);stroke:rgb(58,58,58);stroke-width:1.44px;"/>
    </g>
    <g transform="matrix(0.622563,-0.390514,0.138781,0.221246,203.054,58.5326)">
        <path d="M118.885,18.281C112.652,8.824 100.174,8.948 98.235,18.67C97.549,22.107 99.093,33.318 98.941,30.906C98.465,23.368 116.557,16.618 118.719,26.838C119.631,31.147 119.477,19.178 118.885,18.281Z" style="fill:rgb(168,157,153);stroke:rgb(58,58,58);stroke-width:1.44px;"/>
    </g>
    <g transform="matrix(1.04872,0.306176,-0.306176,1.04872,86.8028,-63.3581)">
        <path d="M190.489,32.419C191.818,33.942 193.534,34.535 195.945,33.461" style="fill:none;stroke:rgb(184,153,141);stroke-width:1.37px;"/>
    </g>
    <g transform="matrix(-0.444782,-0.052548,-0.0547303,0.463253,374.618,25.9692)">
        <path d="M190.489,32.419C191.818,33.942 193.534,34.535 195.945,33.461" style="fill:none;stroke:rgb(184,153,141);stroke-width:3.28px;"/>
    </g>
    <g transform="matrix(1.0925,0,0,1.0925,68.7196,-5.23918)">
        <path d="M196.93,36.996C196.93,36.895 196.848,36.813 196.747,36.813L193.328,36.813C193.227,36.813 193.145,36.895 193.145,36.996L193.145,37.362C193.145,37.463 193.227,37.545 193.328,37.545L196.747,37.545C196.848,37.545 196.93,37.463 196.93,37.362L196.93,36.996Z" style="fill:rgb(252,252,252);stroke:rgb(184,153,141);stroke-width:0.92px;"/>
    </g>
    <g transform="matrix(0.29211,0.0195259,-0.0195109,0.291888,165.856,-2.78099)">
        <path d="M393.683,102.02C393.522,102.181 393.059,104.283 393.059,104.522C393.059,106.181 393.45,108.264 393.059,109.834C392.725,111.172 392.066,111.467 391.503,112.78C391.432,112.945 390.919,114.036 391.155,114.272C391.277,114.394 392.166,114.272 392.357,114.272C393.753,114.272 394.274,112.425 395.013,111.319C395.458,110.651 396.664,110.521 396.975,109.994C397.14,109.715 396.778,109.099 396.975,108.843C397.51,108.147 398.076,101.743 397.522,100.629" style="fill:rgb(168,10,10);stroke:rgb(100,0,0);stroke-width:1.97px;"/>
    </g>
    <g transform="matrix(0.906679,0.658159,-0.658159,0.906679,66.3623,-233.738)">
        <path d="M361.311,62.894C356.344,53.223 349.681,52.053 339.774,55.737C339.714,55.759 343.32,52.722 345.652,52.587C353.095,52.155 356.111,53.994 358.348,56.434C359.959,58.191 362.116,61.668 362.617,61.882" style="fill:white;stroke:rgb(195,195,195);stroke-width:0.98px;"/>
    </g>
    <g transform="matrix(0.782555,-0.0937698,0.121104,1.01067,310.401,9.52609)">
        <path d="M51.474,11.454C58.793,11.454 64.735,16.764 64.735,23.304C64.735,26.743 62.828,29.493 60.349,31.959C56.766,35.524 54.263,35.997 50.912,35.045C45.164,33.411 37.73,26.22 38.394,22.443C38.936,19.358 44.155,11.454 51.474,11.454Z" style="fill:rgb(252,252,252);stroke:rgb(53,53,53);stroke-width:1.31px;"/>
    </g>
    <g transform="matrix(0.628403,0.133873,-0.167651,0.78696,240.719,-35.9517)">
        <path d="M203.302,43.861C205.274,43.861 208.591,46.417 208.591,47.961C208.591,49.506 204.788,50.649 202.815,50.649C200.843,50.649 197.499,49.395 197.499,47.851C197.499,46.307 201.329,43.861 203.302,43.861Z" style="fill:white;stroke:rgb(53,53,53);stroke-width:0.69px;"/>
    </g>
    <g transform="matrix(0.812329,-0.210493,0.188569,0.834447,256.939,25.6761)">
        <path d="M118.885,18.281C113.854,12.657 101.875,14.372 98.235,18.67C95.97,21.344 98.53,27.155 100.041,29.042C101.015,30.258 100.756,29.644 102.68,29.943C108.483,30.844 118.544,26.151 118.693,24.104C119.013,19.711 119.602,19.082 118.885,18.281Z" style="fill:rgb(143,127,122);stroke:rgb(58,58,58);stroke-width:1.44px;"/>
    </g>
    <g transform="matrix(0.767273,-0.352338,0.254451,0.61311,259.11,45.5138)">
        <path d="M118.885,18.281C108.286,8.607 96.326,10.934 98.235,18.67C99.074,22.072 98.53,27.155 100.041,29.042C101.015,30.258 101.683,31.616 102.68,29.943C105.054,25.963 115.8,24.892 118.719,26.838C122.384,29.28 119.679,19.005 118.885,18.281Z" style="fill:rgb(159,143,138);stroke:rgb(58,58,58);stroke-width:1.44px;"/>
    </g>
    <g transform="matrix(0.76845,-0.273492,0.0891402,0.280975,263.133,43.5803)">
        <path d="M118.885,18.281C112.652,8.824 100.174,8.948 98.235,18.67C97.549,22.107 99.093,33.318 98.941,30.906C98.465,23.368 116.557,16.618 118.719,26.838C119.631,31.147 119.477,19.178 118.885,18.281Z" style="fill:rgb(168,157,153);stroke:rgb(58,58,58);stroke-width:1.44px;"/>
    </g>
    <g transform="matrix(0.718741,-0.433125,0.418409,0.746187,265.748,53.8958)">
        <path d="M118.885,18.281C113.854,12.657 101.875,14.372 98.235,18.67C95.97,21.344 98.53,27.155 100.041,29.042C101.015,30.258 100.756,29.644 102.68,29.943C108.483,30.844 118.544,26.151 118.693,24.104C119.013,19.711 119.602,19.082 118.885,18.281Z" style="fill:rgb(143,127,122);stroke:rgb(58,58,58);stroke-width:1.44px;"/>
    </g>
    <g transform="matrix(0.635154,-0.556265,0.418526,0.515252,273.48,72.2935)">
        <path d="M118.885,18.281C108.286,8.607 96.326,10.934 98.235,18.67C99.074,22.072 98.53,27.155 100.041,29.042C101.015,30.258 101.683,31.616 102.68,29.943C105.054,25.963 115.8,24.892 118.719,26.838C122.384,29.28 119.679,19.005 118.885,18.281Z" style="fill:rgb(159,143,138);stroke:rgb(58,58,58);stroke-width:1.44px;"/>
    </g>
    <g transform="matrix(0.658737,-0.481019,0.16547,0.243952,276.785,69.2943)">
        <path d="M118.885,18.281C112.652,8.824 100.174,8.948 98.235,18.67C97.549,22.107 99.093,33.318 98.941,30.906C98.465,23.368 116.557,16.618 118.719,26.838C119.631,31.147 119.477,19.178 118.885,18.281Z" style="fill:rgb(168,157,153);stroke:rgb(58,58,58);stroke-width:1.44px;"/>
    </g>
    <g transform="matrix(1.04872,0.306176,-0.306176,1.04872,167.223,-63.3677)">
        <path d="M190.489,32.419C191.818,33.942 193.534,34.535 195.945,33.461" style="fill:none;stroke:rgb(184,153,141);stroke-width:1.37px;"/>
    </g>
    <g transform="matrix(1.0925,0,0,1.0925,145.971,-5.0541)">
        <path d="M196.93,36.996C196.93,36.895 196.848,36.813 196.747,36.813L193.328,36.813C193.227,36.813 193.145,36.895 193.145,36.996L193.145,37.362C193.145,37.463 193.227,37.545 193.328,37.545L196.747,37.545C196.848,37.545 196.93,37.463 196.93,37.362L196.93,36.996Z" style="fill:rgb(252,252,252);stroke:rgb(184,153,141);stroke-width:0.92px;"/>
    </g>
    <g transform="matrix(0.29211,0.0195259,-0.0195109,0.291888,243.108,-2.59591)">
        <path d="M393.683,102.02C393.522,102.181 393.059,104.283 393.059,104.522C393.059,106.181 393.45,108.264 393.059,109.834C392.725,111.172 392.066,111.467 391.503,112.78C391.432,112.945 390.919,114.036 391.155,114.272C391.277,114.394 392.166,114.272 392.357,114.272C393.753,114.272 394.274,112.425 395.013,111.319C395.458,110.651 396.664,110.521 396.975,109.994C397.14,109.715 396.778,109.099 396.975,108.843C397.51,108.147 398.076,101.743 397.522,100.629" style="fill:rgb(168,10,10);stroke:rgb(100,0,0);stroke-width:1.97px;"/>
    </g>
    <g transform="matrix(0.839649,-0.741779,0.741779,0.839649,-16.7062,93.0585)">
        <path d="M118.369,32.083L112.54,45.365L108.76,38.419L112.894,28.492L118.369,32.083Z" style="fill:rgb(215,215,215);stroke:rgb(72,51,51);stroke-width:1px;"/>
    </g>
    <g transform="matrix(1.12006,0.0263991,-0.0263991,1.12006,-278.215,-24.3968)">
        <path d="M361.311,62.894C356.344,53.223 349.681,52.053 339.774,55.737C339.714,55.759 343.32,52.722 345.652,52.587C353.095,52.155 356.111,53.994 358.348,56.434C359.959,58.191 362.116,61.668 362.617,61.882" style="fill:white;stroke:rgb(195,195,195);stroke-width:0.98px;"/>
    </g>
    <g transform="matrix(-0.335972,-1.17095,-0.868241,0.543616,169.134,152.311)">
        <path d="M121.652,18.798C120.085,17.277 117.64,15.112 114.946,15.731C107.374,17.468 100.507,18.285 99.816,16.908C98.245,13.776 85.795,34.245 89.98,31.612C96.57,27.467 119.826,22.975 118.719,26.838C117.507,31.066 122.423,19.547 121.652,18.798Z" style="fill:rgb(143,127,122);stroke:rgb(58,58,58);stroke-width:1.44px;"/>
    </g>
    <g transform="matrix(-0.106107,-1.19415,-0.837885,0.201689,136.433,167.553)">
        <path d="M121.652,18.798C120.085,17.277 113.711,13.538 111.017,14.156C105.308,15.467 95.312,17.428 90.012,18.434C87.558,18.899 87.57,24.34 88.471,24.668C96.333,27.526 121.67,13.387 118.468,19.608C116.455,23.52 122.423,19.547 121.652,18.798Z" style="fill:rgb(137,114,107);stroke:rgb(58,58,58);stroke-width:1.44px;"/>
    </g>
    <g transform="matrix(-0.335972,-1.17095,-0.868241,0.543616,167.841,156.093)">
        <path d="M121.652,18.798C122.78,15.474 119.101,14.134 114.946,15.731C107.694,18.516 100.507,18.285 99.816,16.908C98.245,13.776 85.795,34.245 89.98,31.612C96.57,27.467 119.575,15.745 118.468,19.608C117.257,23.837 121.306,19.816 121.652,18.798Z" style="fill:rgb(105,97,94);stroke:rgb(58,58,58);stroke-width:1.44px;"/>
    </g>
    <g transform="matrix(-0.457373,-1.07851,-0.802913,0.728847,177.918,142.138)">
        <path d="M121.652,18.798C120.085,17.277 119.548,12.443 117.08,13.69C108.468,18.041 91.371,25.593 90.45,22.012C89.828,19.593 89.618,30.268 89.011,31.01C85.074,35.826 113.345,15.093 118.468,19.608C121.768,22.517 122.423,19.547 121.652,18.798Z" style="fill:rgb(119,103,98);stroke:rgb(58,58,58);stroke-width:1.44px;"/>
    </g>
    <g transform="matrix(-0.258261,-1.13388,-0.799505,0.446905,155.442,150.427)">
        <path d="M121.652,18.798C120.085,17.277 117.548,14.796 114.946,15.731C106.877,18.629 91.311,23.994 90.45,22.012C89.455,19.721 87.153,28.67 88.003,29.115C92.11,31.269 119.507,12.835 118.468,19.608C117.801,23.957 122.423,19.547 121.652,18.798Z" style="fill:rgb(143,127,122);stroke:rgb(58,58,58);stroke-width:1.44px;"/>
    </g>
    <g transform="matrix(0.440302,-1.15007,0.934993,0.592127,23.7011,145.319)">
        <path d="M121.652,18.798C120.085,17.277 117.64,15.112 114.946,15.731C107.374,17.468 100.507,18.285 99.816,16.908C98.245,13.776 85.795,34.245 89.98,31.612C96.57,27.467 119.826,22.975 118.719,26.838C117.507,31.066 122.423,19.547 121.652,18.798Z" style="fill:rgb(143,127,122);stroke:rgb(58,58,58);stroke-width:1.44px;"/>
    </g>
    <g transform="matrix(0.204757,-1.25311,1.02296,0.26442,56.689,172.335)">
        <path d="M121.652,18.798C120.085,17.277 113.711,13.538 111.017,14.156C105.308,15.467 95.312,17.428 90.012,18.434C87.558,18.899 87.57,24.34 88.471,24.668C96.333,27.526 121.67,13.387 118.468,19.608C116.455,23.52 122.423,19.547 121.652,18.798Z" style="fill:rgb(137,114,107);stroke:rgb(58,58,58);stroke-width:1.44px;"/>
    </g>
    <g transform="matrix(0.590668,-0.52182,0.67393,0.762847,58.571,33.7418)">
        <path d="M51.474,11.454C58.793,11.454 64.735,16.764 64.735,23.304C64.735,26.743 63.121,29.687 60.349,31.959C56.877,34.804 54.661,35.653 51.191,35.653C47.846,35.653 46.118,34.105 43.784,32.276C41.011,30.103 38.213,26.855 38.213,23.304C38.213,16.764 44.155,11.454 51.474,11.454Z" style="fill:rgb(252,252,252);stroke:rgb(53,53,53);stroke-width:1.31px;"/>
    </g>
    <g transform="matrix(0.574066,-0.238954,0.309205,0.742836,-25.2229,39.1037)">
        <path d="M203.302,43.861C205.274,43.861 208.591,46.417 208.591,47.961C208.591,49.506 204.788,50.649 202.815,50.649C200.843,50.649 197.499,49.395 197.499,47.851C197.499,46.307 201.329,43.861 203.302,43.861Z" style="fill:white;stroke:rgb(53,53,53);stroke-width:0.7px;"/>
    </g>
    <g transform="matrix(-0.257442,0.471673,-0.614567,-0.335434,195.038,-58.346)">
        <path d="M203.409,45.857C205.367,45.622 207.777,46.744 207.777,48.288C207.777,49.833 204.56,50.685 202.608,50.965C196.455,51.849 198.842,46.406 203.409,45.857Z" style="fill:white;stroke:rgb(53,53,53);stroke-width:0.8px;"/>
    </g>
    <g transform="matrix(0.440302,-1.15007,0.934993,0.592127,24.9245,149.17)">
        <path d="M121.652,18.798C122.78,15.474 119.101,14.134 114.946,15.731C107.694,18.516 100.507,18.285 99.816,16.908C98.245,13.776 85.795,34.245 89.98,31.612C96.57,27.467 119.575,15.745 118.468,19.608C117.257,23.837 121.306,19.816 121.652,18.798Z" style="fill:rgb(105,97,94);stroke:rgb(58,58,58);stroke-width:1.44px;"/>
    </g>
    <g transform="matrix(0.570103,-1.05087,0.851792,0.773362,14.5068,134.663)">
        <path d="M121.652,18.798C120.085,17.277 119.548,12.443 117.08,13.69C108.468,18.041 91.371,25.593 90.45,22.012C89.828,19.593 89.618,30.268 89.011,31.01C85.074,35.826 113.345,15.093 118.468,19.608C121.768,22.517 122.423,19.547 121.652,18.798Z" style="fill:rgb(119,103,98);stroke:rgb(58,58,58);stroke-width:1.44px;"/>
    </g>
    <g transform="matrix(0.389061,-1.18015,0.960408,0.52072,34.2545,153.098)">
        <path d="M121.652,18.798C120.085,17.277 117.548,14.796 114.946,15.731C106.877,18.629 91.311,23.994 90.45,22.012C89.455,19.721 87.153,28.67 88.003,29.115C92.11,31.269 119.507,12.835 118.468,19.608C117.801,23.957 122.423,19.547 121.652,18.798Z" style="fill:rgb(143,127,122);stroke:rgb(58,58,58);stroke-width:1.44px;"/>
    </g>
    <g transform="matrix(-0.0550884,0.21794,-0.690068,-0.174427,128.302,-3.68047)">
        <path d="M109.756,25.784C100.948,23.228 113.437,10.61 111.03,11.352C93.514,16.749 91.333,28.393 101.768,31.038C108.394,32.717 113.717,26.933 109.756,25.784Z" style="fill:rgb(143,127,122);stroke:rgb(58,58,58);stroke-width:2.07px;"/>
    </g>
    <g transform="matrix(-0.0550884,0.21794,-0.690068,-0.174427,128.302,-3.68047)">
        <path d="M110.591,25.483C101.782,22.926 113.437,10.61 111.03,11.352C93.514,16.749 91.333,28.393 101.768,31.038C108.394,32.717 114.551,26.632 110.591,25.483Z" style="fill:rgb(143,127,122);stroke:rgb(58,58,58);stroke-width:2.07px;"/>
    </g>
    <g transform="matrix(-0.0130332,0.0972014,-0.5304,-0.071118,120.179,6.36247)">
        <path d="M108.268,26.405C99.46,23.849 113.437,10.61 111.03,11.352C93.514,16.749 91.333,28.393 101.768,31.038C108.394,32.717 112.229,27.555 108.268,26.405Z" style="fill:rgb(143,127,122);stroke:rgb(58,58,58);stroke-width:2.07px;"/>
    </g>
    <g transform="matrix(0.358829,-0.66801,0.665848,0.357667,45.3413,86.3609)">
        <path d="M118.885,18.281C113.854,12.657 101.875,14.372 98.235,18.67C95.97,21.344 98.53,27.155 100.041,29.042C101.015,30.258 100.756,29.644 102.68,29.943C108.483,30.844 118.544,26.151 118.693,24.104C119.013,19.711 119.602,19.082 118.885,18.281Z" style="fill:rgb(143,127,122);stroke:rgb(58,58,58);stroke-width:1.44px;"/>
    </g>
    <g transform="matrix(0.237679,-0.720072,0.560234,0.184919,59.7548,96.4169)">
        <path d="M118.885,18.281C108.286,8.607 96.326,10.934 98.235,18.67C99.074,22.072 98.53,27.155 100.041,29.042C101.015,30.258 101.683,31.616 102.68,29.943C105.054,25.963 115.8,24.892 118.719,26.838C122.384,29.28 119.679,19.005 118.885,18.281Z" style="fill:rgb(159,143,138);stroke:rgb(58,58,58);stroke-width:1.44px;"/>
    </g>
    <g transform="matrix(0.2904,-0.675095,0.239915,0.103202,60.944,92.5916)">
        <path d="M118.885,18.281C112.652,8.824 100.174,8.948 98.235,18.67C97.549,22.107 99.093,33.318 98.941,30.906C98.465,23.368 116.557,16.618 118.719,26.838C119.631,31.147 119.477,19.178 118.885,18.281Z" style="fill:rgb(168,157,153);stroke:rgb(58,58,58);stroke-width:1.44px;"/>
    </g>
    <g transform="matrix(1.03695,-0.343953,0.343953,1.03695,-105.661,59.6417)">
        <path d="M190.489,32.419C191.818,33.942 193.534,34.535 195.945,33.461" style="fill:none;stroke:rgb(184,153,141);stroke-width:1.37px;"/>
    </g>
    <g transform="matrix(-0.64482,0.34124,0.271627,0.513277,229.299,-59.4716)">
        <path d="M190.489,32.419C191.818,33.942 193.534,34.535 195.945,33.461" style="fill:none;stroke:rgb(184,153,141);stroke-width:2.27px;"/>
    </g>
    <g transform="matrix(0.899001,-0.620776,0.620776,0.899001,-87.5032,118.919)">
        <path d="M196.93,36.996C196.93,36.895 196.848,36.813 196.747,36.813L193.328,36.813C193.227,36.813 193.145,36.895 193.145,36.996L193.145,37.362C193.145,37.463 193.227,37.545 193.328,37.545L196.747,37.545C196.848,37.545 196.93,37.463 196.93,37.362L196.93,36.996Z" style="fill:rgb(252,252,252);stroke:rgb(184,153,141);stroke-width:0.92px;"/>
    </g>
    <g transform="matrix(0.251466,-0.149913,0.149799,0.251275,-6.17456,65.747)">
        <path d="M393.683,102.02C393.522,102.181 393.059,104.283 393.059,104.522C393.059,106.181 393.45,108.264 393.059,109.834C392.725,111.172 392.066,111.467 391.503,112.78C391.432,112.945 390.919,114.036 391.155,114.272C391.277,114.394 392.166,114.272 392.357,114.272C393.753,114.272 394.274,112.425 395.013,111.319C395.458,110.651 396.664,110.521 396.975,109.994C397.14,109.715 396.778,109.099 396.975,108.843C397.51,108.147 398.076,101.743 397.522,100.629" style="fill:rgb(168,10,10);stroke:rgb(100,0,0);stroke-width:1.97px;"/>
    </g>
    <g transform="matrix(0.363568,-1.17658,0.971976,0.529234,-50.4853,153.748)">
        <path d="M121.652,18.798C120.085,17.277 117.64,15.112 114.946,15.731C107.374,17.468 100.507,18.285 99.816,16.908C98.245,13.776 85.795,34.245 89.98,31.612C96.57,27.467 119.826,22.975 118.719,26.838C117.507,31.066 122.423,19.547 121.652,18.798Z" style="fill:rgb(143,127,122);stroke:rgb(58,58,58);stroke-width:1.44px;"/>
    </g>
    <g transform="matrix(0.121746,-1.26388,1.03816,0.196444,-15.7891,178.531)">
        <path d="M121.652,18.798C120.085,17.277 113.711,13.538 111.017,14.156C105.308,15.467 95.312,17.428 90.012,18.434C87.558,18.899 87.57,24.34 88.471,24.668C96.333,27.526 121.67,13.387 118.468,19.608C116.455,23.52 122.423,19.547 121.652,18.798Z" style="fill:rgb(137,114,107);stroke:rgb(58,58,58);stroke-width:1.44px;"/>
    </g>
    <g transform="matrix(0.339762,-0.711159,0.918461,0.438801,-16.4432,53.8743)">
        <path d="M51.474,11.454C58.793,11.454 64.735,16.764 64.735,23.304C64.735,26.743 63.121,29.687 60.349,31.959C56.877,34.804 54.661,35.653 51.191,35.653C47.846,35.653 46.118,34.105 43.784,32.276C41.011,30.103 38.213,26.855 38.213,23.304C38.213,16.764 44.155,11.454 51.474,11.454Z" style="fill:rgb(252,252,252);stroke:rgb(53,53,53);stroke-width:1.31px;"/>
    </g>
    <g transform="matrix(0.435026,-0.444301,0.574921,0.562919,-91.4777,91.5572)">
        <path d="M203.302,43.861C205.274,43.861 208.591,46.417 208.591,47.961C208.591,49.506 204.788,50.649 202.815,50.649C200.843,50.649 197.499,49.395 197.499,47.851C197.499,46.307 201.329,43.861 203.302,43.861Z" style="fill:white;stroke:rgb(53,53,53);stroke-width:0.7px;"/>
    </g>
    <g transform="matrix(-0.0526341,0.534773,-0.696782,-0.0685797,73.1819,-84.2223)">
        <path d="M203.409,45.857C205.367,45.622 207.777,46.744 207.777,48.288C207.777,49.833 204.56,50.685 202.608,50.965C196.455,51.849 198.842,46.406 203.409,45.857Z" style="fill:white;stroke:rgb(53,53,53);stroke-width:0.8px;"/>
    </g>
    <g transform="matrix(0.363568,-1.17658,0.971976,0.529234,-49.0109,157.509)">
        <path d="M121.652,18.798C122.78,15.474 119.101,14.134 114.946,15.731C108.59,18.172 102.284,18.296 100.358,17.363C100.086,17.231 99.902,17.079 99.816,16.908C98.245,13.776 85.795,34.245 89.98,31.612C96.57,27.467 119.575,15.745 118.468,19.608C117.257,23.837 121.306,19.816 121.652,18.798Z" style="fill:rgb(105,97,94);stroke:rgb(58,58,58);stroke-width:1.44px;"/>
    </g>
    <g transform="matrix(0.499623,-1.08615,0.900898,0.715558,-60.3619,143.72)">
        <path d="M121.652,18.798C120.085,17.277 119.548,12.443 117.08,13.69C108.468,18.041 91.371,25.593 90.45,22.012C89.828,19.593 89.618,30.268 89.011,31.01C85.074,35.826 113.345,15.093 118.468,19.608C121.768,22.517 122.423,19.547 121.652,18.798Z" style="fill:rgb(119,103,98);stroke:rgb(58,58,58);stroke-width:1.44px;"/>
    </g>
    <g transform="matrix(0.310456,-1.20322,0.992631,0.456308,-39.4423,160.814)">
        <path d="M121.652,18.798C120.085,17.277 117.548,14.796 114.946,15.731C106.877,18.629 91.311,23.994 90.45,22.012C89.455,19.721 87.153,28.67 88.003,29.115C92.11,31.269 119.507,12.835 118.468,19.608C117.801,23.957 122.423,19.547 121.652,18.798Z" style="fill:rgb(143,127,122);stroke:rgb(58,58,58);stroke-width:1.44px;"/>
    </g>
    <g transform="matrix(0.0344655,0.222137,-0.703356,0.10913,33.117,-7.82322)">
        <path d="M109.756,25.784C100.948,23.228 113.437,10.61 111.03,11.352C93.514,16.749 91.333,28.393 101.768,31.038C108.394,32.717 113.717,26.933 109.756,25.784Z" style="fill:rgb(143,127,122);stroke:rgb(58,58,58);stroke-width:2.07px;"/>
    </g>
    <g transform="matrix(0.0344655,0.222137,-0.703356,0.10913,33.117,-7.82322)">
        <path d="M110.591,25.483C101.782,22.926 113.437,10.61 111.03,11.352C93.514,16.749 91.333,28.393 101.768,31.038C108.394,32.717 114.551,26.632 110.591,25.483Z" style="fill:rgb(143,127,122);stroke:rgb(58,58,58);stroke-width:2.07px;"/>
    </g>
    <g transform="matrix(0.0259904,0.0945647,-0.516012,0.141823,29.5649,4.59555)">
        <path d="M108.268,26.405C99.46,23.849 113.437,10.61 111.03,11.352C93.514,16.749 91.333,28.393 101.768,31.038C108.394,32.717 112.229,27.555 108.268,26.405Z" style="fill:rgb(143,127,122);stroke:rgb(58,58,58);stroke-width:2.07px;"/>
    </g>
    <g transform="matrix(0.229032,-0.722869,0.720529,0.22829,-24.6116,100.556)">
        <path d="M118.885,18.281C113.854,12.657 101.875,14.372 98.235,18.67C95.97,21.344 98.53,27.155 100.041,29.042C101.015,30.258 100.756,29.644 102.68,29.943C108.483,30.844 118.544,26.151 118.693,24.104C119.013,19.711 119.602,19.082 118.885,18.281Z" style="fill:rgb(143,127,122);stroke:rgb(58,58,58);stroke-width:1.44px;"/>
    </g>
    <g transform="matrix(0.10034,-0.751617,0.584776,0.0780665,-8.58632,107.772)">
        <path d="M118.885,18.281C108.286,8.607 96.326,10.934 98.235,18.67C99.074,22.072 98.53,27.155 100.041,29.042C101.015,30.258 101.683,31.616 102.68,29.943C105.054,25.963 115.8,24.892 118.719,26.838C122.384,29.28 119.679,19.005 118.885,18.281Z" style="fill:rgb(159,143,138);stroke:rgb(58,58,58);stroke-width:1.44px;"/>
    </g>
    <g transform="matrix(0.160473,-0.717171,0.254868,0.0570284,-8.12544,103.792)">
        <path d="M118.885,18.281C112.652,8.824 100.174,8.948 98.235,18.67C97.549,22.107 99.093,33.318 98.941,30.906C98.465,23.368 116.557,16.618 118.719,26.838C119.631,31.147 119.477,19.178 118.885,18.281Z" style="fill:rgb(168,157,153);stroke:rgb(58,58,58);stroke-width:1.44px;"/>
    </g>
    <g transform="matrix(0.820062,-0.721848,0.721848,0.820062,-157.493,141.898)">
        <path d="M190.489,32.419C191.818,33.942 193.534,34.535 195.945,33.461" style="fill:none;stroke:rgb(184,153,141);stroke-width:1.37px;"/>
    </g>
    <g transform="matrix(-0.460179,0.566103,0.450618,0.366303,104.279,-98.6481)">
        <path d="M190.489,32.419C191.818,33.942 193.534,34.535 195.945,33.461" style="fill:none;stroke:rgb(184,153,141);stroke-width:2.27px;"/>
    </g>
    <g transform="matrix(0.5849,-0.922744,0.922744,0.5849,-117.613,189.364)">
        <path d="M196.93,36.996C196.93,36.895 196.848,36.813 196.747,36.813L193.328,36.813C193.227,36.813 193.145,36.895 193.145,36.996L193.145,37.362C193.145,37.463 193.227,37.545 193.328,37.545L196.747,37.545C196.848,37.545 196.93,37.463 196.93,37.362L196.93,36.996Z" style="fill:rgb(252,252,252);stroke:rgb(184,153,141);stroke-width:0.92px;"/>
    </g>
    <g transform="matrix(0.5849,-0.922744,0.922744,0.5849,-116.34,191.401)">
        <path d="M196.93,36.996C196.93,36.895 196.848,36.813 196.747,36.813L193.328,36.813C193.227,36.813 193.145,36.895 193.145,36.996L193.145,37.362C193.145,37.463 193.227,37.545 193.328,37.545L196.747,37.545C196.848,37.545 196.93,37.463 196.93,37.362L196.93,36.996Z" style="fill:white;stroke:rgb(184,153,141);stroke-width:0.92px;"/>
    </g>
    <g transform="matrix(0.17288,-0.236266,0.236087,0.172749,-63.5318,108.637)">
        <path d="M393.683,102.02C393.522,102.181 393.059,104.283 393.059,104.522C393.059,106.181 393.45,108.264 393.059,109.834C392.725,111.172 392.066,111.467 391.503,112.78C391.432,112.945 390.919,114.036 391.155,114.272C391.277,114.394 392.166,114.272 392.357,114.272C393.753,114.272 394.274,112.425 395.013,111.319C395.458,110.651 396.664,110.521 396.975,109.994C397.14,109.715 396.778,109.099 396.975,108.843C397.51,108.147 398.076,101.743 397.522,100.629" style="fill:rgb(168,10,10);stroke:rgb(100,0,0);stroke-width:1.97px;"/>
    </g>
    <g transform="matrix(0.395224,-1.23791,0.918079,0.604056,275.381,154.087)">
        <path d="M121.652,18.798C120.085,17.277 117.64,15.112 114.946,15.731C107.374,17.468 100.507,18.285 99.816,16.908C98.245,13.776 85.795,34.245 89.98,31.612C96.57,27.467 119.826,22.975 118.719,26.838C117.507,31.066 122.423,19.547 121.652,18.798Z" style="fill:rgb(143,127,122);stroke:rgb(58,58,58);stroke-width:1.44px;"/>
    </g>
    <g transform="matrix(0.165138,-1.34094,0.994492,0.252395,307.932,181.924)">
        <path d="M121.652,18.798C120.085,17.277 113.711,13.538 111.017,14.156C105.308,15.467 95.312,17.428 90.012,18.434C87.558,18.899 87.57,24.34 88.471,24.668C96.333,27.526 121.67,13.387 118.468,19.608C116.455,23.52 122.423,19.547 121.652,18.798Z" style="fill:rgb(137,114,107);stroke:rgb(58,58,58);stroke-width:1.44px;"/>
    </g>
    <g transform="matrix(0.395224,-1.23791,0.918079,0.604056,276.663,158.154)">
        <path d="M121.652,18.798C122.78,15.474 119.101,14.134 114.946,15.731C107.694,18.516 100.507,18.285 99.816,16.908C98.245,13.776 85.795,34.245 89.98,31.612C96.57,27.467 119.575,15.745 118.468,19.608C117.257,23.837 121.306,19.816 121.652,18.798Z" style="fill:rgb(105,97,94);stroke:rgb(58,58,58);stroke-width:1.44px;"/>
    </g>
    <g transform="matrix(0.523118,-1.13594,0.842459,0.799529,266.228,142.997)">
        <path d="M121.652,18.798C120.085,17.277 119.548,12.443 117.08,13.69C108.468,18.041 91.371,25.593 90.45,22.012C89.828,19.593 89.618,30.268 89.011,31.01C85.074,35.826 113.345,15.093 118.468,19.608C121.768,22.517 122.423,19.547 121.652,18.798Z" style="fill:rgb(119,103,98);stroke:rgb(58,58,58);stroke-width:1.44px;"/>
    </g>
    <g transform="matrix(0.344971,-1.26849,0.940762,0.52725,285.772,162.072)">
        <path d="M121.652,18.798C120.085,17.277 117.548,14.796 114.946,15.731C106.877,18.629 91.311,23.994 90.45,22.012C89.455,19.721 87.153,28.67 88.003,29.115C92.11,31.269 119.507,12.835 118.468,19.608C117.801,23.957 122.423,19.547 121.652,18.798Z" style="fill:rgb(143,127,122);stroke:rgb(58,58,58);stroke-width:1.44px;"/>
    </g>
    <g transform="matrix(0.395224,-1.23791,0.918079,0.604056,279.848,155.55)">
        <path d="M121.652,18.798C120.085,17.277 117.64,15.112 114.946,15.731C107.374,17.468 100.507,18.285 99.816,16.908C98.245,13.776 85.795,34.245 89.98,31.612C96.57,27.467 119.826,22.975 118.719,26.838C117.507,31.066 122.423,19.547 121.652,18.798Z" style="fill:rgb(143,127,122);stroke:rgb(58,58,58);stroke-width:1.44px;"/>
    </g>
    <g transform="matrix(0.165138,-1.34094,0.994492,0.252395,312.398,183.387)">
        <path d="M121.652,18.798C120.085,17.277 113.711,13.538 111.017,14.156C105.308,15.467 95.312,17.428 90.012,18.434C87.558,18.899 87.57,24.34 88.471,24.668C96.333,27.526 121.67,13.387 118.468,19.608C116.455,23.52 122.423,19.547 121.652,18.798Z" style="fill:rgb(137,114,107);stroke:rgb(58,58,58);stroke-width:1.44px;"/>
    </g>
    <g transform="matrix(0.395224,-1.23791,0.918079,0.604056,281.129,159.617)">
        <path d="M121.652,18.798C122.78,15.474 119.101,14.134 114.946,15.731C107.694,18.516 100.507,18.285 99.816,16.908C98.245,13.776 85.795,34.245 89.98,31.612C96.57,27.467 119.575,15.745 118.468,19.608C117.257,23.837 121.306,19.816 121.652,18.798Z" style="fill:rgb(105,97,94);stroke:rgb(58,58,58);stroke-width:1.44px;"/>
    </g>
    <g transform="matrix(0.523118,-1.13594,0.842459,0.799529,270.694,144.46)">
        <path d="M121.652,18.798C120.085,17.277 119.548,12.443 117.08,13.69C108.468,18.041 91.371,25.593 90.45,22.012C89.828,19.593 89.618,30.268 89.011,31.01C85.074,35.826 113.345,15.093 118.468,19.608C121.768,22.517 122.423,19.547 121.652,18.798Z" style="fill:rgb(119,103,98);stroke:rgb(58,58,58);stroke-width:1.44px;"/>
    </g>
    <g transform="matrix(0.344971,-1.26849,0.940762,0.52725,290.239,163.535)">
        <path d="M121.652,18.798C120.085,17.277 117.548,14.796 114.946,15.731C106.877,18.629 91.311,23.994 90.45,22.012C89.455,19.721 87.153,28.67 88.003,29.115C92.11,31.269 119.507,12.835 118.468,19.608C117.801,23.957 122.423,19.547 121.652,18.798Z" style="fill:rgb(143,127,122);stroke:rgb(58,58,58);stroke-width:1.44px;"/>
    </g>
</svg>
