<svg width="450" height="291" viewBox="0 0 450 291" version="1.1" xmlns="http://www.w3.org/2000/svg" xmlns:xlink="http://www.w3.org/1999/xlink" xml:space="preserve" style="fill-rule:evenodd;clip-rule:evenodd;stroke-linecap:round;stroke-linejoin:round;stroke-miterlimit:1.5;">
    <g transform="matrix(0.996386,-0.0420387,0.0420387,0.996386,230.913,11.7438)">
        <path d="M118.369,32.083L112.54,45.365L108.76,38.419L112.894,28.492L118.369,32.083Z" style="fill:rgb(215,215,215);stroke:black;stroke-width:1px;"/>
    </g>
    <g transform="matrix(0.958494,-0.275393,0.275393,0.958494,231.132,35.8212)">
        <path d="M118.369,32.083L112.54,45.365L108.76,38.419L112.894,28.492L118.369,32.083Z" style="fill:rgb(215,215,215);stroke:black;stroke-width:1px;"/>
    </g>
    <g transform="matrix(1.29964,0,0,1.29543,190.084,-15.6483)">
        <path d="M108.985,73.345L121.792,71.392C124.189,75.643 124.154,83.181 123.265,90.113C122.505,96.039 122.283,101.854 121.216,106.666L113.333,106.94C112.477,102.06 114.312,95.739 114.321,89.716C113.652,83.483 111.083,78.42 108.985,73.345Z" style="fill:rgb(237,237,237);stroke:rgb(126,126,126);stroke-width:1px;"/>
    </g>
    <g transform="matrix(1.24834,-0.00671891,0.00671891,1.24834,-148.74,-21.1493)">
        <path d="M395.689,104.916C395.689,104.718 393.348,104.446 393.373,104.865C393.508,107.163 393.373,106.298 393.373,106.537C393.373,108.196 393.45,108.264 393.059,109.834C392.725,111.172 392.066,111.467 391.503,112.78C391.432,112.945 390.919,114.036 391.155,114.272C391.277,114.394 392.166,114.272 392.357,114.272C393.753,114.272 394.274,112.425 395.013,111.319C395.458,110.651 396.664,110.521 396.975,109.994C397.14,109.715 396.778,109.099 396.975,108.843C397.51,108.147 398.538,106.595 397.984,105.481C397.723,104.958 396.485,105.296 396.485,104.967" style="fill:rgb(168,10,10);stroke:rgb(100,0,0);stroke-width:0.8px;"/>
    </g>
    <g transform="matrix(1.29452,-0.115239,0.114866,1.29033,206.852,-3.55922)">
        <path d="M87.752,73.181C89.366,75.589 92.847,86.17 91.875,90.569C90.614,96.276 88.02,100.663 86.33,104.506L92.229,108.516C96.151,101.376 100.607,94.404 102.784,84.828C103.263,79.906 103.371,76.843 102.487,74.425C97.748,73.483 91.798,74.55 87.752,73.181Z" style="fill:rgb(237,237,237);stroke:rgb(97,97,97);stroke-width:1px;"/>
    </g>
    <g transform="matrix(1.29964,0,0,1.29543,189.08,-16.081)">
        <path d="M112.513,106.293C116.479,106.739 118.452,106.089 122.344,105.961C122.572,108.513 120.349,116.745 122.581,120.252C124.638,120.392 127.413,125.652 125.322,126.64C121.787,126.645 118.543,126.558 113.893,126.482C113.767,126.985 113.196,122.771 114.075,120.378C115.42,116.717 114.044,108.856 112.513,106.293Z" style="fill:rgb(76,20,24);stroke:rgb(76,76,76);stroke-width:0.77px;stroke-linecap:butt;stroke-miterlimit:1.41421;"/>
    </g>
    <g transform="matrix(1.29452,-0.115239,0.114866,1.29033,208.488,-4.88956)">
        <path d="M84.568,103.424L92.643,107.188L88.564,116.582C87.733,118.373 93.582,122.557 94.192,126.293C94.476,128.029 85,127.943 85,127.943C82.415,127.929 78.743,119.283 79.449,117.137C81.422,111.489 82.052,108.893 84.568,103.424Z" style="fill:rgb(76,20,24);stroke:rgb(76,76,76);stroke-width:0.77px;stroke-linecap:butt;stroke-miterlimit:1.41421;"/>
    </g>
    <g transform="matrix(0.674274,-0.193731,0.250204,0.870824,314.317,16.9083)">
        <ellipse cx="51.474" cy="23.304" rx="13.261" ry="11.85" style="fill:rgb(200,199,198);stroke:rgb(53,53,53);stroke-width:1.31px;"/>
    </g>
    <g transform="matrix(0.332041,-0.587647,0.585744,0.330967,298.362,78.3829)">
        <path d="M106.758,11.025C97.386,17.543 106.012,26.203 114.664,20.392C112.693,20.338 112.773,22.437 111.766,23.41C110.759,24.382 109.725,24.599 108.526,25.354C106.003,26.946 104.116,20.547 103.16,17.054C102.355,14.111 84.387,33.077 80.267,33.569C77.336,33.918 86.123,25.92 84.498,27.53C76.669,35.281 59.862,41.691 60.591,40.935C67.428,33.856 62.891,28.229 80.89,19.749C90.313,15.308 94.859,8.673 97.585,12.673C100.479,16.919 109.144,9.365 106.758,11.025Z" style="fill:rgb(79,79,79);stroke:black;stroke-width:1px;"/>
    </g>
    <g transform="matrix(1.02349,0.174418,-0.173853,1.02017,248.917,-8.4054)">
        <path d="M103.882,36.377C101.782,34.686 98.983,33.347 96.295,33.567C95.127,33.663 91.818,46.992 94.958,54.97C96.457,58.779 84.64,74.833 88.538,77.769C92.435,80.704 116.529,77.846 120.208,75.132C123.887,72.418 113.99,58.655 112.055,53.463C110.919,50.413 108.488,46.892 108.281,44.301C108.066,41.627 106.24,38.276 103.882,36.377Z" style="fill:rgb(43,37,37);stroke:rgb(76,76,76);stroke-width:1px;"/>
    </g>
    <g transform="matrix(0.980069,0.18444,-0.18444,0.980069,8.67881,-72.0352)">
        <path d="M342.088,91.278C342.986,94.919 373.201,92.952 374.7,88.464" style="fill:none;stroke:rgb(76,76,76);stroke-width:1px;"/>
    </g>
    <g transform="matrix(0.512223,1.1667,-0.81574,0.35814,212.198,-393.626)">
        <path d="M352.265,34.398C351.557,36.3 351.089,39.813 344.652,34.167C344.315,33.871 344.118,36.898 343.938,37.258C343.579,37.975 344.066,39.162 343.764,39.914C343.361,40.919 342.958,40.889 343.482,41.933C343.823,42.616 345.6,43.495 346.536,42.961C347.109,42.635 347.404,41.641 347.81,41.167C348.431,40.442 349.225,40.049 349.894,39.488C350.249,39.191 351.242,38.838 351.557,38.436C351.977,37.901 352.25,37.055 352.531,36.672" style="fill:rgb(52,52,52);stroke:rgb(66,66,66);stroke-width:0.91px;"/>
    </g>
    <g transform="matrix(1.17547,-0.427279,0.427279,1.17547,-160.753,110.654)">
        <path d="M395.375,102.901C395.375,102.703 393.355,102.553 393.059,102.85C392.898,103.011 393.059,104.283 393.059,104.522C393.059,106.181 393.45,108.264 393.059,109.834C392.725,111.172 392.066,111.467 391.503,112.78C391.432,112.945 390.919,114.036 391.155,114.272C391.277,114.394 392.166,114.272 392.357,114.272C393.753,114.272 394.274,112.425 395.013,111.319C395.458,110.651 396.664,110.521 396.975,109.994C397.14,109.715 396.778,109.099 396.975,108.843C397.51,108.147 398.224,104.58 397.669,103.466C397.409,102.942 396.171,103.281 396.171,102.951" style="fill:rgb(168,10,10);stroke:rgb(100,0,0);stroke-width:0.8px;"/>
    </g>
    <g transform="matrix(1.12822,0.945112,-1.1016,1.31502,33.4901,-308.686)">
        <ellipse cx="305.189" cy="32.294" rx="3.648" ry="3.626" style="fill:rgb(8,2,0);stroke:black;stroke-width:0.63px;"/>
    </g>
    <g transform="matrix(0.986113,0.826068,-0.962842,1.14939,70.7579,-267.43)">
        <ellipse cx="305.189" cy="32.294" rx="3.648" ry="3.626" style="fill:rgb(135,135,135);stroke:rgb(68,68,68);stroke-width:0.72px;"/>
    </g>
    <g transform="matrix(0.758591,0.635472,-0.740689,0.884193,132.997,-202.355)">
        <ellipse cx="305.189" cy="32.294" rx="3.648" ry="3.626" style="fill:rgb(196,196,196);stroke:rgb(171,171,171);stroke-width:0.93px;"/>
    </g>
    <g transform="matrix(1.5992,1.88142,-1.04541,0.888601,-176.732,-724.876)">
        <path d="M393.059,102.85C392.898,103.011 393.059,104.283 393.059,104.522C393.059,106.181 393.45,108.264 393.059,109.834C392.725,111.172 392.204,112.031 392.943,110.924C393.388,110.257 394.594,110.127 394.905,109.6C395.07,109.32 394.891,107.844 395.029,107.486C395.424,106.463 394.049,104.165 393.494,103.051" style="fill:rgb(168,10,10);stroke:rgb(100,0,0);stroke-width:0.5px;"/>
    </g>
    <g transform="matrix(1.24836,0,0,1.24836,-101.554,-34.0825)">
        <path d="M350.805,117.927C350.765,118.026 351.482,121.508 351.419,121.575C351.338,121.658 351.653,123.747 351.755,123.893C351.808,123.969 352.073,123.993 352.164,124.053C353.417,124.888 352.954,121.137 353.431,120.302C353.612,119.985 354.511,119.662 354.713,119.365" style="fill:rgb(168,10,10);stroke:rgb(100,0,0);stroke-width:0.8px;"/>
    </g>
    <g transform="matrix(0.246376,0.55764,-0.674562,0.298035,330.356,-216.053)">
        <path d="M393.683,102.02C393.522,102.181 393.059,104.283 393.059,104.522C393.059,106.181 393.45,108.264 393.059,109.834C392.725,111.172 392.066,111.467 391.503,112.78C391.432,112.945 390.919,114.036 391.155,114.272C391.277,114.394 392.166,114.272 392.357,114.272C393.753,114.272 394.274,112.425 395.013,111.319C395.458,110.651 396.664,110.521 396.975,109.994C397.14,109.715 396.778,109.099 396.975,108.843C397.51,108.147 398.076,101.743 397.522,100.629" style="fill:rgb(168,10,10);stroke:rgb(100,0,0);stroke-width:1.48px;"/>
    </g>
    <g transform="matrix(0.431372,0.129955,-0.15338,0.509131,204.367,-73.4332)">
        <path d="M393.683,102.02C393.522,102.181 393.059,104.283 393.059,104.522C393.059,106.181 393.45,108.264 393.059,109.834C392.725,111.172 392.066,111.467 391.503,112.78C391.432,112.945 390.919,114.036 391.155,114.272C391.277,114.394 392.166,114.272 392.357,114.272C393.753,114.272 394.274,112.425 395.013,111.319C395.458,110.651 396.664,110.521 396.975,109.994C397.14,109.715 396.778,109.099 396.975,108.843C397.51,108.147 398.076,101.743 397.522,100.629" style="fill:rgb(168,10,10);stroke:rgb(100,0,0);stroke-width:2.03px;"/>
    </g>
    <g transform="matrix(0.255178,0.115518,-0.219291,0.484408,284.891,-64.9686)">
        <path d="M393.683,102.02C393.522,102.181 393.059,104.283 393.059,104.522C393.059,106.181 393.45,108.264 393.059,109.834C392.725,111.172 392.066,111.467 391.503,112.78C391.432,112.945 390.919,114.036 391.155,114.272C391.277,114.394 392.166,114.272 392.357,114.272C393.753,114.272 394.274,112.425 395.013,111.319C395.458,110.651 396.664,110.521 396.975,109.994C397.14,109.715 396.778,109.099 396.975,108.843C397.51,108.147 398.076,101.743 397.522,100.629" style="fill:rgb(168,10,10);stroke:rgb(100,0,0);stroke-width:2.35px;"/>
    </g>
    <g transform="matrix(1.04073,0.871818,-0.734381,0.876663,21.543,-310.605)">
        <path d="M355.107,37.9C354.508,42.532 354.988,47.875 355.023,40.238" style="fill:white;stroke:black;stroke-width:0.8px;"/>
    </g>
    <g transform="matrix(0.956114,0.283547,-0.283547,0.956114,64.1204,-84.8782)">
        <path d="M296.459,19.797C300.395,12.057 308.835,11.345 316.804,15.027C312.193,23.729 316.185,31.867 311.09,35.049C298.444,36.752 292.857,26.878 296.459,19.797Z" style="stroke:black;stroke-width:1px;"/>
    </g>
    <g transform="matrix(0.819303,0.242974,-0.242974,0.819303,105.413,-69.9627)">
        <path d="M296.459,19.797C300.395,12.057 308.835,11.345 316.804,15.027C312.193,23.729 316.185,31.867 311.09,35.049C298.444,36.752 292.857,26.878 296.459,19.797Z" style="fill:rgb(52,51,50);stroke:black;stroke-width:1.17px;"/>
    </g>
    <g transform="matrix(0.53484,0.74782,-0.735271,0.525864,319.69,-40.8173)">
        <path d="M121.214,52.161C117.627,48.66 132.144,66.248 132.144,66.248C132.144,66.248 135.086,71.328 135.741,71.08C136.992,69.589 142.243,72.715 143.591,70.707C143.368,67.47 140.58,62.149 135.006,61.098C135.006,61.098 122.437,53.355 121.214,52.161Z" style="fill:rgb(230,230,230);stroke:rgb(109,109,109);stroke-width:1px;"/>
    </g>
    <g transform="matrix(1.03376,-0.0963436,0.0960317,1.03041,239.474,25.5972)">
        <path d="M93.701,35.775C93.14,32.24 101.556,31.607 101.491,34.429C101.306,42.405 96.899,68.101 98.715,66.373C96.209,66.152 94.183,66.27 91.693,66.21C91.502,68.895 90.886,61.024 92.737,52.683C93.967,47.141 94.358,39.919 93.701,35.775Z" style="fill:rgb(51,51,51);stroke:rgb(76,76,76);stroke-width:1px;"/>
    </g>
    <g transform="matrix(0.477004,-0.922177,0.919192,0.47546,283.121,113.061)">
        <path d="M103.909,10.827C94.537,17.345 106.012,26.203 114.664,20.392C112.693,20.338 112.773,22.437 111.766,23.41C110.759,24.382 108.001,26.258 106.803,27.014C104.28,28.605 102.703,22.238 101.747,18.744C100.941,15.801 84.387,33.077 80.267,33.569C77.336,33.918 86.123,25.92 84.498,27.53C76.669,35.281 59.862,41.691 60.591,40.935C67.428,33.856 64.261,35.881 79.895,23.554C89.529,15.958 96.415,11.665 99.141,15.665C102.034,19.91 106.296,9.167 103.909,10.827Z" style="fill:rgb(20,20,20);stroke:black;stroke-width:1px;"/>
    </g>
    <g transform="matrix(0.390994,-0.723597,0.721255,0.389729,297.108,94.3652)">
        <path d="M106.758,11.025C97.386,17.543 106.012,26.203 114.664,20.392C112.693,20.338 112.773,22.437 111.766,23.41C110.759,24.382 109.725,24.599 108.526,25.354C106.003,26.946 102.916,21.547 101.96,18.053C101.155,15.11 84.387,33.077 80.267,33.569C77.336,33.918 86.123,25.92 84.498,27.53C76.669,35.281 59.862,41.691 60.591,40.935C61.538,39.955 62.249,38.958 62.821,37.952C66.384,31.685 64.589,25.039 80.89,19.749C93.089,15.789 96.096,9.808 98.822,13.809C101.716,18.054 109.144,9.365 106.758,11.025Z" style="fill:rgb(47,47,47);stroke:rgb(57,57,57);stroke-width:1px;"/>
    </g>
    <g transform="matrix(0.360451,-0.570662,0.568815,0.359284,304.922,75.0551)">
        <path d="M106.758,11.025C97.386,17.543 106.012,26.203 114.664,20.392C112.693,20.338 112.773,22.437 111.766,23.41C110.759,24.382 109.725,24.599 108.526,25.354C106.003,26.946 104.116,20.547 103.16,17.054C102.355,14.111 84.387,33.077 80.267,33.569C77.336,33.918 86.123,25.92 84.498,27.53C76.669,35.281 59.862,41.691 60.591,40.935C67.428,33.856 62.891,28.229 80.89,19.749C90.313,15.308 94.859,8.673 97.585,12.673C100.479,16.919 109.144,9.365 106.758,11.025Z" style="fill:rgb(79,79,79);stroke:rgb(84,84,84);stroke-width:1px;"/>
    </g>
    <g transform="matrix(1.12822,0.945112,-1.1016,1.31502,43.8723,-309.422)">
        <ellipse cx="305.189" cy="32.294" rx="3.648" ry="3.626" style="fill:rgb(8,2,0);stroke:black;stroke-width:0.63px;"/>
    </g>
    <g transform="matrix(0.986113,0.826068,-0.962842,1.14939,82.746,-268.776)">
        <ellipse cx="305.189" cy="32.294" rx="3.648" ry="3.626" style="fill:rgb(135,135,135);stroke:rgb(68,68,68);stroke-width:0.72px;"/>
    </g>
    <g transform="matrix(0.758591,0.635472,-0.740689,0.884193,144.985,-203.701)">
        <ellipse cx="305.189" cy="32.294" rx="3.648" ry="3.626" style="fill:rgb(196,196,196);stroke:rgb(171,171,171);stroke-width:0.93px;"/>
    </g>
    <g transform="matrix(0.99566,-0.0566901,0.0566901,0.99566,-0.789082,17.2825)">
        <rect x="337.634" y="87.374" width="7.831" height="5.395" style="fill:rgb(175,175,175);stroke:rgb(76,76,76);stroke-width:1px;"/>
    </g>
    <g transform="matrix(0.559435,-0.828874,0.828874,0.559435,-57.4532,112.967)">
        <path d="M118.369,32.083L112.54,45.365L104.597,39.94L112.894,28.492L118.369,32.083Z" style="fill:rgb(215,215,215);stroke:black;stroke-width:1px;"/>
    </g>
    <g transform="matrix(1.28522,0,0,1.28106,-98.9166,-14.7546)">
        <path d="M108.985,73.345L121.792,71.392C124.189,75.643 124.154,83.181 123.265,90.113C122.505,96.039 122.283,101.854 121.216,106.666L113.333,106.94C112.477,102.06 114.312,95.739 114.321,89.716C113.652,83.483 111.083,78.42 108.985,73.345Z" style="fill:rgb(237,237,237);stroke:rgb(126,126,126);stroke-width:1px;"/>
    </g>
    <g transform="matrix(1.28522,0,0,1.28106,-85.3273,-14.7546)">
        <path d="M87.752,73.181C89.366,75.589 92.847,86.17 91.875,90.569C90.614,96.276 88.02,100.663 86.33,104.506L92.229,108.516C96.151,101.376 100.607,94.404 102.784,84.828C103.263,79.906 103.371,76.843 102.487,74.425C97.748,73.483 91.798,74.55 87.752,73.181Z" style="fill:rgb(237,237,237);stroke:rgb(97,97,97);stroke-width:1px;"/>
    </g>
    <g transform="matrix(1.28522,0,0,1.28106,-83.5998,-15.9216)">
        <path d="M84.568,103.424L92.643,107.188L88.564,116.582C87.733,118.373 93.582,122.557 94.192,126.293C94.476,128.029 85,127.943 85,127.943C82.415,127.929 78.743,119.283 79.449,117.137C81.422,111.489 82.052,108.893 84.568,103.424Z" style="fill:rgb(76,20,24);stroke:rgb(76,76,76);stroke-width:0.78px;stroke-linecap:butt;stroke-miterlimit:1.41421;"/>
    </g>
    <g transform="matrix(1.28522,0,0,1.28106,-99.294,-15.1826)">
        <path d="M112.513,106.293C116.479,106.739 118.452,106.089 122.344,105.961C122.572,108.513 120.349,116.745 122.581,120.252C124.638,120.392 127.413,125.652 125.322,126.64C121.787,126.645 118.543,126.558 113.893,126.482C113.767,126.985 113.196,122.771 114.075,120.378C115.42,116.717 114.044,108.856 112.513,106.293Z" style="fill:rgb(76,20,24);stroke:rgb(76,76,76);stroke-width:0.78px;stroke-linecap:butt;stroke-miterlimit:1.41421;"/>
    </g>
    <g transform="matrix(0.393547,-0.58309,0.75306,0.508266,-5.68939,44.8646)">
        <ellipse cx="51.474" cy="23.304" rx="13.261" ry="11.85" style="fill:rgb(200,199,198);stroke:rgb(53,53,53);stroke-width:1.31px;"/>
    </g>
    <g transform="matrix(0.376896,-0.558419,0.494395,0.333684,-2.02495,65.0688)">
        <rect x="78.991" y="7.239" width="3.709" height="6.829" style="fill:white;stroke:white;stroke-width:1.19px;"/>
    </g>
    <g transform="matrix(0.447958,-0.663707,0.140463,0.0948031,-2.54303,77.1713)">
        <rect x="78.991" y="7.239" width="3.709" height="6.829" style="stroke:black;stroke-width:1.19px;"/>
    </g>
    <g transform="matrix(0.470624,-0.69729,0.140463,0.0948031,-7.9225,77.4026)">
        <rect x="78.991" y="7.239" width="3.709" height="6.829" style="stroke:black;stroke-width:1.19px;"/>
    </g>
    <g transform="matrix(0.228071,-0.337916,0.494395,0.333684,12.6949,43.4041)">
        <rect x="78.991" y="7.239" width="3.709" height="6.829" style="fill:white;stroke:white;stroke-width:1.19px;"/>
    </g>
    <g transform="matrix(0.277545,-0.411218,0.0874539,0.0590256,14.5572,53.2724)">
        <rect x="78.991" y="7.239" width="3.709" height="6.829" style="stroke:black;stroke-width:1.19px;"/>
    </g>
    <g transform="matrix(0.296791,-0.439734,0.114188,0.0770696,9.3689,53.148)">
        <rect x="78.991" y="7.239" width="3.709" height="6.829" style="stroke:black;stroke-width:1.19px;"/>
    </g>
    <g transform="matrix(0.391034,-0.55242,0.550632,0.389768,-23.9012,84.3826)">
        <path d="M106.758,11.025C97.386,17.543 106.012,26.203 114.664,20.392C112.693,20.338 112.773,22.437 111.766,23.41C110.759,24.382 109.725,24.599 108.526,25.354C106.003,26.946 104.116,20.547 103.16,17.054C102.355,14.111 84.387,33.077 80.267,33.569C77.336,33.918 86.123,25.92 84.498,27.53C76.669,35.281 59.862,41.691 60.591,40.935C67.428,33.856 62.891,28.229 80.89,19.749C90.313,15.308 94.859,8.673 97.585,12.673C100.479,16.919 109.144,9.365 106.758,11.025Z" style="fill:rgb(79,79,79);stroke:black;stroke-width:1px;"/>
    </g>
    <g transform="matrix(0.87413,0,0,1.26124,-272.497,-38.9526)">
        <path d="M365.608,98.103C365.608,102.008 362.309,109.702 362.155,108.34C361.953,106.551 359.705,104.993 357.19,104.297C354.596,103.58 351.716,103.781 350.505,105.594C349.608,106.935 347.952,101.207 347.371,100.042C347.096,99.492 347.904,98.78 348.862,97.78C349.353,97.269 350.998,97.083 351.702,96.669C354.32,95.129 357.519,93.056 360.665,93.056C361.145,93.056 362.743,92.511 363.227,92.848" style="fill:rgb(88,88,88);stroke:rgb(106,106,106);stroke-width:0.92px;"/>
    </g>
    <g transform="matrix(-0.791655,0,0,2.44753,336.351,-158.548)">
        <path d="M365.608,98.103C365.608,102.008 362.309,109.702 362.155,108.34C361.744,104.705 352.891,102.023 350.505,105.594C349.608,106.935 347.952,101.207 347.371,100.042C347.096,99.492 347.904,98.78 348.862,97.78C349.353,97.269 350.998,97.083 351.702,96.669C354.32,95.129 357.519,93.056 360.665,93.056C361.145,93.056 362.743,92.511 363.227,92.848" style="fill:rgb(91,91,91);stroke:rgb(130,130,130);stroke-width:0.55px;"/>
    </g>
    <g transform="matrix(1.04108,0,0,1.03771,-63.745,5.14639)">
        <path d="M103.882,36.377C101.782,34.686 98.983,33.347 96.295,33.567C95.127,33.663 93.569,34.272 92.069,35.009C90.046,36.001 88.129,37.224 87.42,37.724C85.176,43.646 85.187,39.763 87.176,46.703C87.176,46.703 91.818,46.992 94.958,54.97C96.457,58.779 84.64,74.833 88.538,77.769C92.435,80.704 116.529,77.846 120.208,75.132C123.887,72.418 113.99,58.655 112.055,53.463C110.919,50.413 108.488,46.892 108.281,44.301C108.066,41.627 106.24,38.276 103.882,36.377Z" style="fill:rgb(43,37,37);stroke:rgb(76,76,76);stroke-width:1px;"/>
    </g>
    <g transform="matrix(1,5.55112e-17,-5.55112e-17,1,-312.733,-7.07114)">
        <path d="M364.442,70.204C364.442,73.127 360.825,71.697 359.635,73.418C359.326,73.865 359.015,74.832 358.621,75.243C358.488,75.382 353.35,75.637 354.61,76.951C354.874,77.226 356.935,76.951 357.36,76.951C359.063,76.951 365.149,77.349 366.004,75.678C367.278,73.186 366.373,69.958 363.586,69.958" style="stroke:black;stroke-width:1px;"/>
    </g>
    <g transform="matrix(1,0,0,1,-313.478,-10.6018)">
        <path d="M358.398,64.007C358.658,51.35 349.144,51.529 339.774,55.737C339.716,55.763 342.982,52.765 345.149,51.895C352.362,49.001 357.418,52.839 359.656,55.279C361.266,57.036 362.846,60.924 362.617,61.882" style="fill:white;stroke:rgb(195,195,195);stroke-width:1px;"/>
    </g>
    <g transform="matrix(1,0,0,1,-313.478,-10.6018)">
        <path d="M342.088,91.278C342.986,94.919 373.201,92.952 374.7,88.464" style="fill:none;stroke:rgb(76,76,76);stroke-width:1px;"/>
    </g>
    <g transform="matrix(1.69605,0,0,1.31154,-559.044,-22.1622)">
        <path d="M352.265,34.398C351.557,36.3 351.089,39.813 344.652,34.167C344.315,33.871 344.118,36.898 343.938,37.258C343.579,37.975 344.066,39.162 343.764,39.914C343.361,40.919 342.958,40.889 343.482,41.933C343.823,42.616 345.6,43.495 346.536,42.961C347.109,42.635 347.404,41.641 347.81,41.167C348.431,40.442 349.225,40.049 349.894,39.488C350.249,39.191 351.242,38.838 351.557,38.436C351.977,37.901 352.25,37.055 352.531,36.672" style="fill:rgb(52,52,52);stroke:rgb(66,66,66);stroke-width:0.66px;"/>
    </g>
    <g transform="matrix(0.538406,0.748356,-0.735798,0.529371,-1.79599,-47.7365)">
        <path d="M121.214,52.161C117.627,48.66 133.114,65.678 133.114,65.678C133.114,65.678 135.086,71.328 135.741,71.08C136.992,69.589 142.243,72.715 143.591,70.707C143.368,67.47 141.112,60.776 135.538,59.725C135.538,59.725 122.437,53.355 121.214,52.161Z" style="fill:rgb(230,230,230);stroke:rgb(109,109,109);stroke-width:1px;"/>
    </g>
    <g transform="matrix(1.03709,0.0910645,-0.0907697,1.03373,-68.9689,1.6081)">
        <path d="M93.701,35.775C93.14,32.24 101.556,31.607 101.491,34.429C101.306,42.405 96.899,68.101 98.715,66.373C96.209,66.152 94.183,66.27 91.693,66.21C91.502,68.895 90.886,61.024 92.737,52.683C93.967,47.141 94.358,39.919 93.701,35.775Z" style="fill:rgb(51,51,51);stroke:rgb(76,76,76);stroke-width:1px;"/>
    </g>
    <g transform="matrix(1,0,0,1,-318.059,-8.98074)">
        <rect x="337.634" y="87.374" width="7.831" height="5.395" style="fill:rgb(175,175,175);stroke:rgb(76,76,76);stroke-width:1px;"/>
    </g>
    <g transform="matrix(1.4758,0,0,1.72015,-430.342,-29.8436)">
        <ellipse cx="305.189" cy="32.294" rx="3.648" ry="3.626" style="fill:rgb(8,2,0);stroke:black;stroke-width:0.62px;"/>
    </g>
    <g transform="matrix(1.28991,0,0,1.50349,-374.289,-23.6322)">
        <ellipse cx="305.189" cy="32.294" rx="3.648" ry="3.626" style="fill:rgb(135,135,135);stroke:rgb(68,68,68);stroke-width:0.71px;"/>
    </g>
    <g transform="matrix(0.992294,0,0,1.15659,-284.546,-13.6874)">
        <ellipse cx="305.189" cy="32.294" rx="3.648" ry="3.626" style="fill:rgb(196,196,196);stroke:rgb(171,171,171);stroke-width:0.93px;"/>
    </g>
    <g transform="matrix(1.23449,-0.00664439,0.00664439,1.23449,-433.436,-19.4672)">
        <path d="M395.689,104.916C395.689,104.718 393.348,104.446 393.373,104.865C393.508,107.163 393.373,106.298 393.373,106.537C393.373,108.196 393.45,108.264 393.059,109.834C392.725,111.172 392.066,111.467 391.503,112.78C391.432,112.945 390.919,114.036 391.155,114.272C391.277,114.394 392.166,114.272 392.357,114.272C393.753,114.272 394.274,112.425 395.013,111.319C395.458,110.651 396.664,110.521 396.975,109.994C397.14,109.715 396.778,109.099 396.975,108.843C397.51,108.147 398.538,106.595 397.984,105.481C397.723,104.958 396.485,105.296 396.485,104.967" style="fill:rgb(168,10,10);stroke:rgb(100,0,0);stroke-width:0.81px;"/>
    </g>
    <g transform="matrix(1.41026,1.99345,-1.10766,0.783616,-400.611,-758.767)">
        <path d="M393.059,102.85C392.898,103.011 393.059,104.283 393.059,104.522C393.059,106.181 393.45,108.264 393.059,109.834C392.725,111.172 392.204,112.031 392.943,110.924C393.388,110.257 394.594,110.127 394.905,109.6C395.07,109.32 394.891,107.844 395.029,107.486C395.424,106.463 394.049,104.165 393.494,103.051" style="fill:rgb(168,10,10);stroke:rgb(100,0,0);stroke-width:0.51px;"/>
    </g>
    <g transform="matrix(1.23451,0,0,1.23451,-400.129,-34.6722)">
        <path d="M350.805,117.927C350.765,118.026 351.482,121.508 351.419,121.575C351.338,121.658 351.653,123.747 351.755,123.893C351.808,123.969 352.073,123.993 352.164,124.053C353.417,124.888 352.954,121.137 353.431,120.302C353.612,119.985 354.511,119.662 354.713,119.365" style="fill:rgb(168,10,10);stroke:rgb(100,0,0);stroke-width:0.81px;"/>
    </g>
    <g transform="matrix(1.23202,-0.234541,0.234541,1.23202,-472.58,19.4775)">
        <path d="M395.375,102.901C395.375,102.703 393.355,102.553 393.059,102.85C392.898,103.011 393.059,104.283 393.059,104.522C393.059,106.181 393.45,108.264 393.059,109.834C392.725,111.172 392.066,111.467 391.503,112.78C391.432,112.945 390.919,114.036 391.155,114.272C391.277,114.394 392.166,114.272 392.357,114.272C393.753,114.272 394.274,112.425 395.013,111.319C395.458,110.651 396.664,110.521 396.975,109.994C397.14,109.715 396.778,109.099 396.975,108.843C397.51,108.147 398.224,104.58 397.669,103.466C397.409,102.942 396.171,103.281 396.171,102.951" style="fill:rgb(168,10,10);stroke:rgb(100,0,0);stroke-width:0.8px;"/>
    </g>
    <g transform="matrix(0.322904,0.519068,-0.627903,0.390609,-25.3151,-211.379)">
        <path d="M393.683,102.02C393.522,102.181 393.059,104.283 393.059,104.522C393.059,106.181 393.45,108.264 393.059,109.834C392.725,111.172 392.066,111.467 391.503,112.78C391.432,112.945 390.919,114.036 391.155,114.272C391.277,114.394 392.166,114.272 392.357,114.272C393.753,114.272 394.274,112.425 395.013,111.319C395.458,110.651 396.664,110.521 396.975,109.994C397.14,109.715 396.778,109.099 396.975,108.843C397.51,108.147 398.076,101.743 397.522,100.629" style="fill:rgb(168,10,10);stroke:rgb(100,0,0);stroke-width:1.47px;"/>
    </g>
    <g transform="matrix(0.449039,0.0494598,-0.0583753,0.529982,-134.476,-45.2876)">
        <path d="M393.683,102.02C393.522,102.181 393.059,104.283 393.059,104.522C393.059,106.181 393.45,108.264 393.059,109.834C392.725,111.172 392.066,111.467 391.503,112.78C391.432,112.945 390.919,114.036 391.155,114.272C391.277,114.394 392.166,114.272 392.357,114.272C393.753,114.272 394.274,112.425 395.013,111.319C395.458,110.651 396.664,110.521 396.975,109.994C397.14,109.715 396.778,109.099 396.975,108.843C397.51,108.147 398.076,101.743 397.522,100.629" style="fill:rgb(168,10,10);stroke:rgb(100,0,0);stroke-width:2.02px;"/>
    </g>
    <g transform="matrix(0.449039,0.0494598,-0.0583753,0.529982,-130.114,-46.3444)">
        <path d="M393.683,102.02C393.522,102.181 393.059,104.283 393.059,104.522C393.059,106.181 393.45,108.264 393.059,109.834C392.725,111.172 392.066,111.467 391.503,112.78C391.432,112.945 390.919,114.036 391.155,114.272C391.277,114.394 392.166,114.272 392.357,114.272C393.753,114.272 394.274,112.425 395.013,111.319C395.458,110.651 396.664,110.521 396.975,109.994C397.14,109.715 396.778,109.099 396.975,108.843C397.51,108.147 398.076,101.743 397.522,100.629" style="fill:rgb(168,10,10);stroke:rgb(100,0,0);stroke-width:2.02px;"/>
    </g>
    <g transform="matrix(1.36135,0,0,1.14674,-441.626,-18.3631)">
        <path d="M355.107,37.9C354.508,42.532 354.988,47.875 355.023,40.238" style="fill:white;stroke:black;stroke-width:0.79px;"/>
    </g>
    <g transform="matrix(0.917515,-0.397702,0.397702,0.917515,-263.55,127.73)">
        <path d="M296.459,19.797C300.395,12.057 307.796,10.504 315.765,14.186C309.804,18.286 305.485,23.796 302.806,30.714C299.114,29.624 292.857,26.878 296.459,19.797Z" style="stroke:black;stroke-width:1px;"/>
    </g>
    <g transform="matrix(0.74977,-0.234588,0.234588,0.74977,-209.22,79.1881)">
        <path d="M296.459,19.797C300.395,12.057 307.796,10.504 315.765,14.186C309.804,18.286 305.485,23.796 302.806,30.714C299.114,29.624 292.857,26.878 296.459,19.797Z" style="fill:rgb(59,54,52);stroke:rgb(57,57,57);stroke-width:1.27px;"/>
    </g>
    <g transform="matrix(0.639267,-0.200014,0.210187,0.671781,-175.083,69.9315)">
        <path d="M291.88,25.779C295.816,18.039 307.796,10.504 315.765,14.186C309.804,18.286 305.485,23.796 302.806,30.714C299.114,29.624 288.279,32.86 291.88,25.779Z" style="fill:rgb(76,73,72);stroke:rgb(57,57,57);stroke-width:1.46px;"/>
    </g>
    <g transform="matrix(0.601492,-0.849738,0.846987,0.599545,-56.9304,110.466)">
        <path d="M106.758,11.025C97.386,17.543 106.012,26.203 114.664,20.392C112.693,20.338 112.773,22.437 111.766,23.41C110.759,24.382 108.001,26.258 106.803,27.014C104.28,28.605 102.703,22.238 101.747,18.744C100.941,15.801 84.387,33.077 80.267,33.569C77.336,33.918 86.123,25.92 84.498,27.53C76.669,35.281 59.862,41.691 60.591,40.935C67.428,33.856 64.261,35.881 79.895,23.554C89.529,15.958 96.415,11.665 99.141,15.665C102.034,19.91 109.144,9.365 106.758,11.025Z" style="fill:rgb(20,20,20);stroke:black;stroke-width:1px;"/>
    </g>
    <g transform="matrix(0.476492,-0.673149,0.67097,0.47495,-41.7671,94.3967)">
        <path d="M106.758,11.025C97.386,17.543 106.012,26.203 114.664,20.392C112.693,20.338 112.773,22.437 111.766,23.41C110.759,24.382 109.725,24.599 108.526,25.354C106.003,26.946 102.916,21.547 101.96,18.053C101.155,15.11 84.387,33.077 80.267,33.569C77.336,33.918 86.123,25.92 84.498,27.53C76.669,35.281 59.862,41.691 60.591,40.935C67.428,33.856 61.971,25.889 80.89,19.749C93.089,15.789 96.096,9.808 98.822,13.809C101.716,18.054 109.144,9.365 106.758,11.025Z" style="fill:rgb(47,47,47);stroke:rgb(57,57,57);stroke-width:1px;"/>
    </g>
    <g transform="matrix(0.391034,-0.55242,0.550632,0.389768,-31.0532,84.0576)">
        <path d="M106.758,11.025C97.386,17.543 106.012,26.203 114.664,20.392C112.693,20.338 112.773,22.437 111.766,23.41C110.759,24.382 109.725,24.599 108.526,25.354C106.003,26.946 104.116,20.547 103.16,17.054C102.355,14.111 84.387,33.077 80.267,33.569C77.336,33.918 86.123,25.92 84.498,27.53C76.669,35.281 59.862,41.691 60.591,40.935C67.428,33.856 62.891,28.229 80.89,19.749C90.313,15.308 94.859,8.673 97.585,12.673C100.479,16.919 109.144,9.365 106.758,11.025Z" style="fill:rgb(79,79,79);stroke:rgb(84,84,84);stroke-width:1px;"/>
    </g>
    <g transform="matrix(1.4758,0,0,1.72015,-433.712,-25.0889)">
        <ellipse cx="305.189" cy="32.294" rx="3.648" ry="3.626" style="fill:rgb(8,2,0);stroke:black;stroke-width:0.62px;"/>
    </g>
    <g transform="matrix(1.28991,0,0,1.50349,-377.659,-18.8775)">
        <ellipse cx="305.189" cy="32.294" rx="3.648" ry="3.626" style="fill:rgb(135,135,135);stroke:rgb(68,68,68);stroke-width:0.71px;"/>
    </g>
    <g transform="matrix(0.992294,0,0,1.15659,-287.915,-8.93274)">
        <ellipse cx="305.189" cy="32.294" rx="3.648" ry="3.626" style="fill:rgb(196,196,196);stroke:rgb(171,171,171);stroke-width:0.93px;"/>
    </g>
    <g transform="matrix(0.898922,-0.438109,0.438109,0.898922,-7.18211,59.8412)">
        <path d="M118.369,32.083L112.54,45.365L104.597,39.94L112.894,28.492L118.369,32.083Z" style="fill:rgb(215,215,215);stroke:black;stroke-width:1px;"/>
    </g>
    <g transform="matrix(1.2951,0,0,1.29091,-24.9129,-15.4438)">
        <path d="M108.985,73.345L121.792,71.392C124.189,75.643 124.154,83.181 123.265,90.113C122.505,96.039 122.283,101.854 121.216,106.666L113.333,106.94C112.477,102.06 114.312,95.739 114.321,89.716C113.652,83.483 111.083,78.42 108.985,73.345Z" style="fill:rgb(237,237,237);stroke:rgb(126,126,126);stroke-width:1px;"/>
    </g>
    <g transform="matrix(1.29,-0.114837,0.114465,1.28582,-18.3489,-4.86447)">
        <path d="M87.752,73.181C89.366,75.589 92.847,86.17 91.875,90.569C90.614,96.276 88.02,100.663 86.33,104.506L92.229,108.516C96.151,101.376 100.607,94.404 102.784,84.828C103.263,79.906 103.371,76.843 102.487,74.425C97.748,73.483 91.798,74.55 87.752,73.181Z" style="fill:rgb(237,237,237);stroke:rgb(97,97,97);stroke-width:1px;"/>
    </g>
    <g transform="matrix(-0.797738,0,0,2.46633,413.7,-160.342)">
        <path d="M365.608,98.103C365.608,102.008 362.309,109.702 362.155,108.34C361.744,104.705 352.891,102.023 350.505,105.594C349.608,106.935 347.952,101.207 347.371,100.042C347.096,99.492 347.904,98.78 348.862,97.78C349.353,97.269 350.998,97.083 351.702,96.669C354.32,95.129 357.519,93.056 360.665,93.056C361.145,93.056 362.743,92.511 363.227,92.848" style="fill:rgb(91,91,91);stroke:rgb(130,130,130);stroke-width:0.55px;"/>
    </g>
    <g transform="matrix(1.29,-0.114837,0.114465,1.28582,-16.7192,-6.19017)">
        <path d="M84.568,103.424L92.643,107.188L88.564,116.582C87.733,118.373 93.582,122.557 94.192,126.293C94.476,128.029 85,127.943 85,127.943C82.415,127.929 78.743,119.283 79.449,117.137C81.422,111.489 82.052,108.893 84.568,103.424Z" style="fill:rgb(76,20,24);stroke:rgb(76,76,76);stroke-width:0.77px;stroke-linecap:butt;stroke-miterlimit:1.41421;"/>
    </g>
    <g transform="matrix(1.2951,0,0,1.29091,-25.2932,-15.875)">
        <path d="M112.513,106.293C116.479,106.739 118.452,106.089 122.344,105.961C122.572,108.513 120.349,116.745 122.581,120.252C124.638,120.392 127.413,125.652 125.322,126.64C121.787,126.645 118.543,126.558 113.893,126.482C113.767,126.985 113.196,122.771 114.075,120.378C115.42,116.717 114.044,108.856 112.513,106.293Z" style="fill:rgb(76,20,24);stroke:rgb(76,76,76);stroke-width:0.77px;stroke-linecap:butt;stroke-miterlimit:1.41421;"/>
    </g>
    <g transform="matrix(0.632367,-0.308197,0.398036,0.816701,71.6977,26.745)">
        <ellipse cx="51.474" cy="23.304" rx="13.261" ry="11.85" style="fill:rgb(200,199,198);stroke:rgb(53,53,53);stroke-width:1.31px;"/>
    </g>
    <g transform="matrix(0.605611,-0.295157,0.261317,0.536176,64.7691,46.0746)">
        <rect x="78.991" y="7.239" width="3.709" height="6.829" style="fill:white;stroke:white;stroke-width:1.19px;"/>
    </g>
    <g transform="matrix(0.719796,-0.350808,0.0742429,0.152333,58.2692,56.2966)">
        <rect x="78.991" y="7.239" width="3.709" height="6.829" style="stroke:black;stroke-width:1.19px;"/>
    </g>
    <g transform="matrix(0.756218,-0.368559,0.0742429,0.152333,53.4948,53.8071)">
        <rect x="78.991" y="7.239" width="3.709" height="6.829" style="stroke:black;stroke-width:1.19px;"/>
    </g>
    <g transform="matrix(0.366473,-0.178608,0.261317,0.536176,88.3492,34.6723)">
        <rect x="78.991" y="7.239" width="3.709" height="6.829" style="fill:white;stroke:white;stroke-width:1.19px;"/>
    </g>
    <g transform="matrix(0.44597,-0.217353,0.0462245,0.0948446,85.0279,44.1496)">
        <rect x="78.991" y="7.239" width="3.709" height="6.829" style="stroke:black;stroke-width:1.19px;"/>
    </g>
    <g transform="matrix(0.476896,-0.232425,0.0603552,0.123838,80.5969,41.4477)">
        <rect x="78.991" y="7.239" width="3.709" height="6.829" style="stroke:black;stroke-width:1.19px;"/>
    </g>
    <g transform="matrix(0.614855,-0.282893,0.281977,0.612865,36.1668,51.8626)">
        <path d="M106.758,11.025C97.386,17.543 106.012,26.203 114.664,20.392C112.693,20.338 112.773,22.437 111.766,23.41C110.759,24.382 109.725,24.599 108.526,25.354C106.003,26.946 104.116,20.547 103.16,17.054C102.355,14.111 84.387,33.077 80.267,33.569C77.336,33.918 86.123,25.92 84.498,27.53C76.669,35.281 59.862,41.691 60.591,40.935C67.428,33.856 62.891,28.229 80.89,19.749C90.313,15.308 94.859,8.673 97.585,12.673C100.479,16.919 109.144,9.365 106.758,11.025Z" style="fill:rgb(79,79,79);stroke:black;stroke-width:1px;"/>
    </g>
    <g transform="matrix(0.877378,-0.0781049,0.112694,1.26593,-208.376,-12.4284)">
        <path d="M365.608,98.103C365.608,102.008 362.309,109.702 362.155,108.34C361.744,104.705 352.891,102.023 350.505,105.594C349.608,106.935 347.952,101.207 347.371,100.042C347.096,99.492 347.904,98.78 348.862,97.78C349.353,97.269 350.998,97.083 351.702,96.669C354.32,95.129 357.519,93.056 360.665,93.056C361.145,93.056 362.743,92.511 363.227,92.848" style="fill:rgb(88,88,88);stroke:rgb(106,106,106);stroke-width:0.91px;"/>
    </g>
    <g transform="matrix(1.04108,0,0,1.03771,12.0135,6.4858)">
        <path d="M103.882,36.377C101.782,34.686 98.983,33.347 96.295,33.567C95.127,33.663 93.569,34.272 92.069,35.009C90.046,36.001 88.129,37.224 87.42,37.724C85.176,43.646 85.187,39.763 87.176,46.703C87.176,46.703 91.818,46.992 94.958,54.97C96.457,58.779 84.64,74.833 88.538,77.769C92.435,80.704 116.529,77.846 120.208,75.132C123.887,72.418 113.99,58.655 112.055,53.463C110.919,50.413 108.488,46.892 108.281,44.301C108.066,41.627 106.24,38.276 103.882,36.377Z" style="fill:rgb(43,37,37);stroke:rgb(76,76,76);stroke-width:1px;"/>
    </g>
    <g transform="matrix(1,5.55112e-17,-5.55112e-17,1,-236.975,-5.73173)">
        <path d="M364.442,70.204C364.442,73.127 360.825,71.697 359.635,73.418C359.326,73.865 359.015,74.832 358.621,75.243C358.488,75.382 353.35,75.637 354.61,76.951C354.874,77.226 356.935,76.951 357.36,76.951C359.063,76.951 365.149,77.349 366.004,75.678C367.278,73.186 366.373,69.958 363.586,69.958" style="stroke:black;stroke-width:1px;"/>
    </g>
    <g transform="matrix(1,0,0,1,-237.719,-9.26243)">
        <path d="M358.398,64.007C358.658,51.35 349.144,51.529 339.774,55.737C339.716,55.763 342.982,52.765 345.149,51.895C352.362,49.001 357.418,52.839 359.656,55.279C361.266,57.036 362.846,60.924 362.617,61.882" style="fill:white;stroke:rgb(195,195,195);stroke-width:1px;"/>
    </g>
    <g transform="matrix(1.244,0,0,1.244,-324.874,-35.0345)">
        <path d="M345.649,91.284C346.546,94.924 368.651,93.231 370.15,88.744" style="fill:none;stroke:rgb(76,76,76);stroke-width:0.8px;"/>
    </g>
    <g transform="matrix(1.46882,0.848023,-0.655769,1.13583,-374.008,-307.979)">
        <path d="M352.265,34.398C351.557,36.3 351.089,39.813 344.652,34.167C344.315,33.871 344.118,36.898 343.938,37.258C343.579,37.975 344.066,39.162 343.764,39.914C343.361,40.919 342.958,40.889 343.482,41.933C343.823,42.616 345.6,43.495 346.536,42.961C347.109,42.635 347.404,41.641 347.81,41.167C348.431,40.442 349.225,40.049 349.894,39.488C350.249,39.191 351.242,38.838 351.557,38.436C351.977,37.901 352.25,37.055 352.531,36.672" style="fill:rgb(52,52,52);stroke:rgb(66,66,66);stroke-width:0.66px;"/>
    </g>
    <g transform="matrix(0.606429,0.694379,-0.682726,0.596252,64.8369,-42.1516)">
        <path d="M121.214,52.161C117.627,48.66 132.144,66.248 132.144,66.248C132.144,66.248 135.086,71.328 135.741,71.08C136.992,69.589 142.243,72.715 143.591,70.707C143.368,67.47 140.58,62.149 135.006,61.098C135.006,61.098 122.437,53.355 121.214,52.161Z" style="fill:rgb(230,230,230);stroke:rgb(109,109,109);stroke-width:1px;"/>
    </g>
    <g transform="matrix(1.04106,-0.00691681,0.00689442,1.03769,2.60461,13.2942)">
        <path d="M93.701,35.775C93.14,32.24 101.556,31.607 101.491,34.429C101.306,42.405 96.899,68.101 98.715,66.373C96.209,66.152 94.183,66.27 91.693,66.21C91.502,68.895 90.886,61.024 92.737,52.683C93.967,47.141 94.358,39.919 93.701,35.775Z" style="fill:rgb(51,51,51);stroke:rgb(76,76,76);stroke-width:1px;"/>
    </g>
    <g transform="matrix(0.995564,-0.0940876,0.0940876,0.995564,-246.377,26.1887)">
        <rect x="337.634" y="87.374" width="7.831" height="5.395" style="fill:rgb(175,175,175);stroke:rgb(76,76,76);stroke-width:1px;"/>
    </g>
    <g transform="matrix(1.27808,0.7379,-0.860076,1.4897,-258.708,-250.281)">
        <ellipse cx="305.189" cy="32.294" rx="3.648" ry="3.626" style="fill:rgb(8,2,0);stroke:black;stroke-width:0.62px;"/>
    </g>
    <g transform="matrix(1.1171,0.644956,-0.751743,1.30206,-213.271,-216.875)">
        <ellipse cx="305.189" cy="32.294" rx="3.648" ry="3.626" style="fill:rgb(135,135,135);stroke:rgb(68,68,68);stroke-width:0.71px;"/>
    </g>
    <g transform="matrix(0.859352,0.496147,-0.578296,1.00164,-140.523,-163.391)">
        <ellipse cx="305.189" cy="32.294" rx="3.648" ry="3.626" style="fill:rgb(196,196,196);stroke:rgb(171,171,171);stroke-width:0.93px;"/>
    </g>
    <g transform="matrix(1.24398,-0.00669545,0.00669545,1.24398,-362.003,-20.1925)">
        <path d="M395.689,104.916C395.689,104.718 393.348,104.446 393.373,104.865C393.508,107.163 393.373,106.298 393.373,106.537C393.373,108.196 393.45,108.264 393.059,109.834C392.725,111.172 392.066,111.467 391.503,112.78C391.432,112.945 390.919,114.036 391.155,114.272C391.277,114.394 392.166,114.272 392.357,114.272C393.753,114.272 394.274,112.425 395.013,111.319C395.458,110.651 396.664,110.521 396.975,109.994C397.14,109.715 396.778,109.099 396.975,108.843C397.51,108.147 398.538,106.595 397.984,105.481C397.723,104.958 396.485,105.296 396.485,104.967" style="fill:rgb(168,10,10);stroke:rgb(100,0,0);stroke-width:0.8px;"/>
    </g>
    <g transform="matrix(1.59362,1.87485,-1.04176,0.885498,-401.282,-723.47)">
        <path d="M393.059,102.85C392.898,103.011 393.059,104.283 393.059,104.522C393.059,106.181 393.45,108.264 393.059,109.834C392.725,111.172 392.204,112.031 392.943,110.924C393.388,110.257 394.594,110.127 394.905,109.6C395.07,109.32 394.891,107.844 395.029,107.486C395.424,106.463 394.049,104.165 393.494,103.051" style="fill:rgb(168,10,10);stroke:rgb(100,0,0);stroke-width:0.5px;"/>
    </g>
    <g transform="matrix(1.244,0,0,1.244,-328.439,-35.5144)">
        <path d="M350.805,117.927C350.765,118.026 351.482,121.508 351.419,121.575C351.338,121.658 351.653,123.747 351.755,123.893C351.808,123.969 352.073,123.993 352.164,124.053C353.417,124.888 352.954,121.137 353.431,120.302C353.612,119.985 354.511,119.662 354.713,119.365" style="fill:rgb(168,10,10);stroke:rgb(100,0,0);stroke-width:0.8px;"/>
    </g>
    <g transform="matrix(1.23202,-0.234541,0.234541,1.23202,-396.821,20.8169)">
        <path d="M395.375,102.901C395.375,102.703 393.355,102.553 393.059,102.85C392.898,103.011 393.059,104.283 393.059,104.522C393.059,106.181 393.45,108.264 393.059,109.834C392.725,111.172 392.066,111.467 391.503,112.78C391.432,112.945 390.919,114.036 391.155,114.272C391.277,114.394 392.166,114.272 392.357,114.272C393.753,114.272 394.274,112.425 395.013,111.319C395.458,110.651 396.664,110.521 396.975,109.994C397.14,109.715 396.778,109.099 396.975,108.843C397.51,108.147 398.224,104.58 397.669,103.466C397.409,102.942 396.171,103.281 396.171,102.951" style="fill:rgb(168,10,10);stroke:rgb(100,0,0);stroke-width:0.8px;"/>
    </g>
    <g transform="matrix(0.0201094,0.610978,-0.739085,0.0243258,182.823,-204.982)">
        <path d="M393.683,102.02C393.522,102.181 393.059,104.283 393.059,104.522C393.059,106.181 393.45,108.264 393.059,109.834C392.725,111.172 392.066,111.467 391.503,112.78C391.432,112.945 390.919,114.036 391.155,114.272C391.277,114.394 392.166,114.272 392.357,114.272C393.753,114.272 394.274,112.425 395.013,111.319C395.458,110.651 396.664,110.521 396.975,109.994C397.14,109.715 396.778,109.099 396.975,108.843C397.51,108.147 398.076,101.743 397.522,100.629" style="fill:rgb(168,10,10);stroke:rgb(100,0,0);stroke-width:1.47px;"/>
    </g>
    <g transform="matrix(0.364149,0.267353,-0.315545,0.42979,5.24168,-115.722)">
        <path d="M393.683,102.02C393.522,102.181 393.059,104.283 393.059,104.522C393.059,106.181 393.45,108.264 393.059,109.834C392.725,111.172 392.066,111.467 391.503,112.78C391.432,112.945 390.919,114.036 391.155,114.272C391.277,114.394 392.166,114.272 392.357,114.272C393.753,114.272 394.274,112.425 395.013,111.319C395.458,110.651 396.664,110.521 396.975,109.994C397.14,109.715 396.778,109.099 396.975,108.843C397.51,108.147 398.076,101.743 397.522,100.629" style="fill:rgb(168,10,10);stroke:rgb(100,0,0);stroke-width:2.02px;"/>
    </g>
    <g transform="matrix(0.364149,0.267353,-0.315545,0.42979,9.54706,-114.457)">
        <path d="M393.683,102.02C393.522,102.181 393.059,104.283 393.059,104.522C393.059,106.181 393.45,108.264 393.059,109.834C392.725,111.172 392.066,111.467 391.503,112.78C391.432,112.945 390.919,114.036 391.155,114.272C391.277,114.394 392.166,114.272 392.357,114.272C393.753,114.272 394.274,112.425 395.013,111.319C395.458,110.651 396.664,110.521 396.975,109.994C397.14,109.715 396.778,109.099 396.975,108.843C397.51,108.147 398.076,101.743 397.522,100.629" style="fill:rgb(168,10,10);stroke:rgb(100,0,0);stroke-width:2.02px;"/>
    </g>
    <g transform="matrix(1.17896,0.680675,-0.573371,0.993107,-274.221,-245.98)">
        <path d="M355.107,37.9C354.508,42.532 354.988,47.875 355.023,40.238" style="fill:white;stroke:black;stroke-width:0.79px;"/>
    </g>
    <g transform="matrix(0.993442,0.114337,-0.114337,0.993442,-193.049,-30.4217)">
        <path d="M296.459,19.797C300.395,12.057 307.796,10.504 315.765,14.186C309.804,18.286 305.485,23.796 302.806,30.714C299.114,29.624 292.857,26.878 296.459,19.797Z" style="stroke:black;stroke-width:1px;"/>
    </g>
    <g transform="matrix(0.766614,0.171725,-0.171725,0.766614,-121.726,-45.2952)">
        <path d="M296.459,19.797C300.395,12.057 307.796,10.504 315.765,14.186C309.804,18.286 305.485,23.796 302.806,30.714C299.114,29.624 292.857,26.878 296.459,19.797Z" style="fill:rgb(59,54,52);stroke:rgb(57,57,57);stroke-width:1.27px;"/>
    </g>
    <g transform="matrix(0.653629,0.146416,-0.153863,0.686873,-87.535,-36.2433)">
        <path d="M291.88,25.779C295.816,18.039 307.796,10.504 315.765,14.186C309.804,18.286 305.485,23.796 302.806,30.714C299.114,29.624 288.279,32.86 291.88,25.779Z" style="fill:rgb(76,73,72);stroke:rgb(57,57,57);stroke-width:1.46px;"/>
    </g>
    <g transform="matrix(0.601492,-0.849738,0.846987,0.599545,18.8281,111.806)">
        <path d="M106.758,11.025C97.386,17.543 106.012,26.203 114.664,20.392C112.693,20.338 112.773,22.437 111.766,23.41C110.759,24.382 108.001,26.258 106.803,27.014C104.28,28.605 102.703,22.238 101.747,18.744C100.941,15.801 84.387,33.077 80.267,33.569C77.336,33.918 86.123,25.92 84.498,27.53C76.669,35.281 59.862,41.691 60.591,40.935C67.428,33.856 64.261,35.881 79.895,23.554C89.529,15.958 96.415,11.665 99.141,15.665C102.034,19.91 109.144,9.365 106.758,11.025Z" style="fill:rgb(20,20,20);stroke:black;stroke-width:1px;"/>
    </g>
    <g transform="matrix(0.627871,-0.534745,0.533014,0.625838,25.386,75.4449)">
        <path d="M106.758,11.025C97.386,17.543 106.012,26.203 114.664,20.392C112.693,20.338 112.773,22.437 111.766,23.41C110.759,24.382 109.725,24.599 108.526,25.354C106.003,26.946 102.916,21.547 101.96,18.053C101.155,15.11 84.387,33.077 80.267,33.569C77.336,33.918 86.123,25.92 84.498,27.53C76.669,35.281 59.862,41.691 60.591,40.935C61.538,39.955 62.249,38.958 62.821,37.952C66.384,31.685 64.589,25.039 80.89,19.749C93.089,15.789 96.096,9.808 98.822,13.809C101.716,18.054 109.144,9.365 106.758,11.025Z" style="fill:rgb(47,47,47);stroke:rgb(57,57,57);stroke-width:1px;"/>
    </g>
    <g transform="matrix(0.543871,-0.402839,0.401535,0.542111,36.0316,63.4829)">
        <path d="M106.758,11.025C97.386,17.543 106.012,26.203 114.664,20.392C112.693,20.338 112.773,22.437 111.766,23.41C110.759,24.382 109.725,24.599 108.526,25.354C106.003,26.946 104.116,20.547 103.16,17.054C102.355,14.111 84.387,33.077 80.267,33.569C77.336,33.918 86.123,25.92 84.498,27.53C76.669,35.281 59.862,41.691 60.591,40.935C67.428,33.856 62.891,28.229 80.89,19.749C90.313,15.308 94.859,8.673 97.585,12.673C100.479,16.919 109.144,9.365 106.758,11.025Z" style="fill:rgb(79,79,79);stroke:rgb(84,84,84);stroke-width:1px;"/>
    </g>
    <g transform="matrix(1.27808,0.7379,-0.860076,1.4897,-264.004,-247.848)">
        <ellipse cx="305.189" cy="32.294" rx="3.648" ry="3.626" style="fill:rgb(8,2,0);stroke:black;stroke-width:0.62px;"/>
    </g>
    <g transform="matrix(1.1171,0.644956,-0.751743,1.30206,-218.566,-214.442)">
        <ellipse cx="305.189" cy="32.294" rx="3.648" ry="3.626" style="fill:rgb(135,135,135);stroke:rgb(68,68,68);stroke-width:0.71px;"/>
    </g>
    <g transform="matrix(0.859352,0.496147,-0.578296,1.00164,-145.818,-160.958)">
        <ellipse cx="305.189" cy="32.294" rx="3.648" ry="3.626" style="fill:rgb(196,196,196);stroke:rgb(171,171,171);stroke-width:0.93px;"/>
    </g>
    <g transform="matrix(1.01823,-0.122009,0.122009,1.01823,66.086,18.0697)">
        <path d="M118.369,32.083L112.54,45.365L108.76,38.419L112.894,28.492L118.369,32.083Z" style="fill:rgb(215,215,215);stroke:black;stroke-width:1px;"/>
    </g>
    <g transform="matrix(1.31275,0,0,1.3085,35.1434,-18.3332)">
        <path d="M108.985,73.345L121.792,71.392C124.189,75.643 124.154,83.181 123.265,90.113C122.505,96.039 122.283,101.854 121.216,106.666L113.333,106.94C112.477,102.06 114.312,95.739 114.321,89.716C113.652,83.483 111.083,78.42 108.985,73.345Z" style="fill:rgb(237,237,237);stroke:rgb(126,126,126);stroke-width:1px;"/>
    </g>
    <g transform="matrix(1.26094,-0.00678672,0.00678672,1.26094,-307.082,-23.8897)">
        <path d="M395.689,104.916C395.689,104.718 393.348,104.446 393.373,104.865C393.508,107.163 393.373,106.298 393.373,106.537C393.373,108.196 393.45,108.264 393.059,109.834C392.725,111.172 392.066,111.467 391.503,112.78C391.432,112.945 390.919,114.036 391.155,114.272C391.277,114.394 392.166,114.272 392.357,114.272C393.753,114.272 394.274,112.425 395.013,111.319C395.458,110.651 396.664,110.521 396.975,109.994C397.14,109.715 396.778,109.099 396.975,108.843C397.51,108.147 398.538,106.595 397.984,105.481C397.723,104.958 396.485,105.296 396.485,104.967" style="fill:rgb(168,10,10);stroke:rgb(100,0,0);stroke-width:0.79px;"/>
    </g>
    <g transform="matrix(1.30758,-0.116402,0.116025,1.30335,52.0991,-6.12212)">
        <path d="M87.752,73.181C89.366,75.589 92.847,86.17 91.875,90.569C90.614,96.276 88.02,100.663 86.33,104.506L92.229,108.516C96.151,101.376 100.607,94.404 102.784,84.828C103.263,79.906 103.371,76.843 102.487,74.425C97.748,73.483 91.798,74.55 87.752,73.181Z" style="fill:rgb(237,237,237);stroke:rgb(97,97,97);stroke-width:1px;"/>
    </g>
    <g transform="matrix(1.31275,0,0,1.3085,34.1472,-18.7703)">
        <path d="M112.513,106.293C116.479,106.739 118.452,106.089 122.344,105.961C122.572,108.513 120.349,116.745 122.581,120.252C124.638,120.392 127.413,125.652 125.322,126.64C121.787,126.645 118.543,126.558 113.893,126.482C113.767,126.985 113.196,122.771 114.075,120.378C115.42,116.717 114.044,108.856 112.513,106.293Z" style="fill:rgb(76,20,24);stroke:rgb(76,76,76);stroke-width:0.76px;stroke-linecap:butt;stroke-miterlimit:1.41421;"/>
    </g>
    <g transform="matrix(1.30758,-0.116402,0.116025,1.30335,53.7511,-7.46589)">
        <path d="M84.568,103.424L92.643,107.188L88.564,116.582C87.733,118.373 93.582,122.557 94.192,126.293C94.476,128.029 85,127.943 85,127.943C82.415,127.929 78.743,119.283 79.449,117.137C81.422,111.489 82.052,108.893 84.568,103.424Z" style="fill:rgb(76,20,24);stroke:rgb(76,76,76);stroke-width:0.76px;stroke-linecap:butt;stroke-miterlimit:1.41421;"/>
    </g>
    <g transform="matrix(0.716295,-0.0858302,0.11085,0.925094,153.636,12.5439)">
        <ellipse cx="51.474" cy="23.304" rx="13.261" ry="11.85" style="fill:rgb(200,199,198);stroke:rgb(53,53,53);stroke-width:1.31px;"/>
    </g>
    <g transform="matrix(0.685988,-0.0821986,0.0727744,0.607338,143.8,27.4239)">
        <rect x="78.991" y="7.239" width="3.709" height="6.829" style="fill:white;stroke:white;stroke-width:1.19px;"/>
    </g>
    <g transform="matrix(0.815328,-0.0976968,0.020676,0.172551,134.064,35.1399)">
        <rect x="78.991" y="7.239" width="3.709" height="6.829" style="stroke:black;stroke-width:1.19px;"/>
    </g>
    <g transform="matrix(0.856584,-0.10264,0.020676,0.172551,130.277,31.122)">
        <rect x="78.991" y="7.239" width="3.709" height="6.829" style="stroke:black;stroke-width:1.19px;"/>
    </g>
    <g transform="matrix(0.669443,-0.183281,0.182688,0.667276,112.602,37.0554)">
        <path d="M106.758,11.025C97.386,17.543 106.012,26.203 114.664,20.392C112.693,20.338 112.773,22.437 111.766,23.41C110.759,24.382 109.725,24.599 108.526,25.354C106.003,26.946 104.116,20.547 103.16,17.054C102.355,14.111 84.387,33.077 80.267,33.569C77.336,33.918 86.123,25.92 84.498,27.53C76.669,35.281 59.862,41.691 60.591,40.935C67.428,33.856 62.891,28.229 80.89,19.749C90.313,15.308 94.859,8.673 97.585,12.673C100.479,16.919 109.144,9.365 106.758,11.025Z" style="fill:rgb(79,79,79);stroke:black;stroke-width:1px;"/>
    </g>
    <g transform="matrix(0.889337,-0.0791695,0.11423,1.28319,-140.518,-13.7892)">
        <path d="M365.608,98.103C365.608,102.008 362.309,109.702 362.155,108.34C361.744,104.705 352.891,102.023 350.505,105.594C349.608,106.935 347.952,101.207 347.371,100.042C347.096,99.492 347.904,98.78 348.862,97.78C349.353,97.269 350.998,97.083 351.702,96.669C354.32,95.129 357.519,93.056 360.665,93.056C361.145,93.056 362.743,92.511 363.227,92.848" style="fill:rgb(88,88,88);stroke:rgb(106,106,106);stroke-width:0.9px;"/>
    </g>
    <g transform="matrix(1.06764,0,0,1.06418,77.4191,4.24167)">
        <path d="M103.882,36.377C101.782,34.686 98.983,33.347 96.295,33.567C95.127,33.663 91.818,46.992 94.958,54.97C96.457,58.779 84.64,74.833 88.538,77.769C92.435,80.704 116.529,77.846 120.208,75.132C123.887,72.418 113.99,58.655 112.055,53.463C110.919,50.413 108.488,46.892 108.281,44.301C108.066,41.627 106.24,38.276 103.882,36.377Z" style="fill:rgb(43,37,37);stroke:rgb(76,76,76);stroke-width:1px;"/>
    </g>
    <g transform="matrix(0.829909,0.602432,-0.602432,0.829909,-68.6336,-210.68)">
        <path d="M361.311,62.894C356.344,53.223 349.681,52.053 339.774,55.737C339.714,55.759 343.32,52.722 345.652,52.587C353.095,52.155 356.111,53.994 358.348,56.434C359.959,58.191 362.116,61.668 362.617,61.882" style="fill:white;stroke:rgb(195,195,195);stroke-width:0.98px;"/>
    </g>
    <g transform="matrix(1.26095,-0.00246612,0.00246612,1.26095,-263.266,-37.4865)">
        <path d="M345.656,92.428C346.554,96.068 369.196,94.874 370.695,90.386" style="fill:none;stroke:rgb(76,76,76);stroke-width:0.79px;"/>
    </g>
    <g transform="matrix(1.13764,1.31567,-1.0174,0.879731,-165.539,-461.667)">
        <path d="M352.265,34.398C351.557,36.3 351.089,39.813 344.652,34.167C344.315,33.871 344.118,36.898 343.938,37.258C343.579,37.975 344.066,39.162 343.764,39.914C343.361,40.919 342.958,40.889 343.482,41.933C343.823,42.616 345.6,43.495 346.536,42.961C347.109,42.635 347.404,41.641 347.81,41.167C348.431,40.442 349.225,40.049 349.894,39.488C350.249,39.191 351.242,38.838 351.557,38.436C351.977,37.901 352.25,37.055 352.531,36.672" style="fill:rgb(52,52,52);stroke:rgb(66,66,66);stroke-width:0.64px;"/>
    </g>
    <g transform="matrix(0.6219,0.712094,-0.700144,0.611463,143.859,-45.41)">
        <path d="M121.214,52.161C117.627,48.66 132.144,66.248 132.144,66.248C132.144,66.248 135.086,71.328 135.741,71.08C136.992,69.589 142.243,72.715 143.591,70.707C143.368,67.47 140.58,62.149 135.006,61.098C135.006,61.098 122.437,53.355 121.214,52.161Z" style="fill:rgb(230,230,230);stroke:rgb(109,109,109);stroke-width:1px;"/>
    </g>
    <g transform="matrix(1.26345,-0.240525,0.240525,1.26345,-337.909,27.898)">
        <path d="M395.375,102.901C395.375,102.703 393.355,102.553 393.059,102.85C392.898,103.011 393.059,104.283 393.059,104.522C393.059,106.181 393.45,108.264 393.059,109.834C392.725,111.172 392.066,111.467 391.503,112.78C391.432,112.945 390.919,114.036 391.155,114.272C391.277,114.394 392.166,114.272 392.357,114.272C393.753,114.272 394.274,112.425 395.013,111.319C395.458,110.651 396.664,110.521 396.975,109.994C397.14,109.715 396.778,109.099 396.975,108.843C397.51,108.147 398.224,104.58 397.669,103.466C397.409,102.942 396.171,103.281 396.171,102.951" style="fill:rgb(168,10,10);stroke:rgb(100,0,0);stroke-width:0.78px;"/>
    </g>
    <g transform="matrix(1.06762,-0.00709326,0.0070703,1.06416,79.4454,10.2664)">
        <path d="M93.701,35.775C93.14,32.24 101.556,31.607 101.491,34.429C101.306,42.405 96.899,68.101 98.715,66.373C96.209,66.152 94.183,66.27 91.693,66.21C91.502,68.895 90.886,61.024 92.737,52.683C93.967,47.141 94.358,39.919 93.701,35.775Z" style="fill:rgb(51,51,51);stroke:rgb(76,76,76);stroke-width:1px;"/>
    </g>
    <g transform="matrix(1.02096,-0.096488,0.096488,1.02096,-175.789,23.3823)">
        <rect x="337.634" y="87.374" width="7.831" height="5.395" style="fill:rgb(175,175,175);stroke:rgb(76,76,76);stroke-width:0.98px;"/>
    </g>
    <g transform="matrix(0.989912,1.14482,-1.33437,1.15381,-76.8022,-365.767)">
        <ellipse cx="305.189" cy="32.294" rx="3.648" ry="3.626" style="fill:rgb(8,2,0);stroke:black;stroke-width:0.61px;"/>
    </g>
    <g transform="matrix(0.865224,1.00062,-1.16629,1.00848,-45.7528,-317.762)">
        <ellipse cx="305.189" cy="32.294" rx="3.648" ry="3.626" style="fill:rgb(135,135,135);stroke:rgb(68,68,68);stroke-width:0.7px;"/>
    </g>
    <g transform="matrix(0.665594,0.769749,-0.897198,0.775798,6.72941,-241.475)">
        <ellipse cx="305.189" cy="32.294" rx="3.648" ry="3.626" style="fill:rgb(196,196,196);stroke:rgb(171,171,171);stroke-width:0.9px;"/>
    </g>
    <g transform="matrix(1.61534,1.9004,-1.05596,0.897569,-335.356,-734.718)">
        <path d="M393.059,102.85C392.898,103.011 393.059,104.283 393.059,104.522C393.059,106.181 393.45,108.264 393.059,109.834C392.725,111.172 392.204,112.031 392.943,110.924C393.388,110.257 394.594,110.127 394.905,109.6C395.07,109.32 394.891,107.844 395.029,107.486C395.424,106.463 394.049,104.165 393.494,103.051" style="fill:rgb(168,10,10);stroke:rgb(100,0,0);stroke-width:0.5px;"/>
    </g>
    <g transform="matrix(1.26095,0,0,1.26095,-257.03,-37.643)">
        <path d="M350.805,117.927C350.765,118.026 351.482,121.508 351.419,121.575C351.338,121.658 351.653,123.747 351.755,123.893C351.808,123.969 352.073,123.993 352.164,124.053C353.417,124.888 352.954,121.137 353.431,120.302C353.612,119.985 354.511,119.662 354.713,119.365" style="fill:rgb(168,10,10);stroke:rgb(100,0,0);stroke-width:0.79px;"/>
    </g>
    <g transform="matrix(-0.186063,0.598657,-0.72418,-0.225075,339.247,-174.559)">
        <path d="M393.683,102.02C393.522,102.181 393.059,104.283 393.059,104.522C393.059,106.181 393.45,108.264 393.059,109.834C392.725,111.172 392.066,111.467 391.503,112.78C391.432,112.945 390.919,114.036 391.155,114.272C391.277,114.394 392.166,114.272 392.357,114.272C393.753,114.272 394.274,112.425 395.013,111.319C395.458,110.651 396.664,110.521 396.975,109.994C397.14,109.715 396.778,109.099 396.975,108.843C397.51,108.147 398.076,101.743 397.522,100.629" style="fill:rgb(168,10,10);stroke:rgb(100,0,0);stroke-width:1.44px;"/>
    </g>
    <g transform="matrix(0.262831,0.381507,-0.450277,0.310209,137.184,-147.83)">
        <path d="M393.683,102.02C393.522,102.181 393.059,104.283 393.059,104.522C393.059,106.181 393.45,108.264 393.059,109.834C392.725,111.172 392.066,111.467 391.503,112.78C391.432,112.945 390.919,114.036 391.155,114.272C391.277,114.394 392.166,114.272 392.357,114.272C393.753,114.272 394.274,112.425 395.013,111.319C395.458,110.651 396.664,110.521 396.975,109.994C397.14,109.715 396.778,109.099 396.975,108.843C397.51,108.147 398.076,101.743 397.522,100.629" style="fill:rgb(168,10,10);stroke:rgb(100,0,0);stroke-width:1.97px;"/>
    </g>
    <g transform="matrix(0.262831,0.381507,-0.450277,0.310209,140.929,-145.155)">
        <path d="M393.683,102.02C393.522,102.181 393.059,104.283 393.059,104.522C393.059,106.181 393.45,108.264 393.059,109.834C392.725,111.172 392.066,111.467 391.503,112.78C391.432,112.945 390.919,114.036 391.155,114.272C391.277,114.394 392.166,114.272 392.357,114.272C393.753,114.272 394.274,112.425 395.013,111.319C395.458,110.651 396.664,110.521 396.975,109.994C397.14,109.715 396.778,109.099 396.975,108.843C397.51,108.147 398.076,101.743 397.522,100.629" style="fill:rgb(168,10,10);stroke:rgb(100,0,0);stroke-width:1.97px;"/>
    </g>
    <g transform="matrix(0.913143,1.05604,-0.889558,0.769191,-89.727,-368.035)">
        <path d="M355.107,37.9C354.508,42.532 354.988,47.875 355.023,40.238" style="fill:white;stroke:black;stroke-width:0.77px;"/>
    </g>
    <g transform="matrix(0.923942,0.444977,-0.444977,0.923942,-83.608,-131.902)">
        <path d="M296.459,19.797C300.395,12.057 307.796,10.504 315.765,14.186C309.804,18.286 305.485,23.796 302.806,30.714C299.114,29.624 292.857,26.878 296.459,19.797Z" style="stroke:black;stroke-width:0.98px;"/>
    </g>
    <g transform="matrix(0.684894,0.424263,-0.424263,0.684894,-9.51037,-122.317)">
        <path d="M296.459,19.797C300.395,12.057 307.796,10.504 315.765,14.186C309.804,18.286 305.485,23.796 302.806,30.714C299.114,29.624 292.857,26.878 296.459,19.797Z" style="fill:rgb(59,54,52);stroke:rgb(57,57,57);stroke-width:1.24px;"/>
    </g>
    <g transform="matrix(0.583953,0.361734,-0.380133,0.613654,20.5677,-102.045)">
        <path d="M291.88,25.779C295.816,18.039 307.796,10.504 315.765,14.186C309.804,18.286 305.485,23.796 302.806,30.714C299.114,29.624 288.279,32.86 291.88,25.779Z" style="fill:rgb(76,73,72);stroke:rgb(57,57,57);stroke-width:1.42px;"/>
    </g>
    <g transform="matrix(0.750822,-0.759026,0.756569,0.748392,88.3418,90.1047)">
        <path d="M106.758,11.025C97.386,17.543 106.012,26.203 114.664,20.392C112.693,20.338 112.773,22.437 111.766,23.41C110.759,24.382 108.001,26.258 106.803,27.014C104.28,28.605 102.703,22.238 101.747,18.744C100.941,15.801 84.387,33.077 80.267,33.569C77.336,33.918 86.123,25.92 84.498,27.53C76.669,35.281 59.862,41.691 60.591,40.935C67.428,33.856 64.261,35.881 79.895,23.554C89.529,15.958 96.415,11.665 99.141,15.665C102.034,19.91 109.144,9.365 106.758,11.025Z" style="fill:rgb(20,20,20);stroke:black;stroke-width:1px;"/>
    </g>
    <g transform="matrix(0.724776,-0.435915,0.434504,0.72243,103.53,55.6165)">
        <path d="M106.758,11.025C97.386,17.543 106.012,26.203 114.664,20.392C112.693,20.338 112.773,22.437 111.766,23.41C110.759,24.382 109.725,24.599 108.526,25.354C106.003,26.946 102.916,21.547 101.96,18.053C101.155,15.11 84.387,33.077 80.267,33.569C77.336,33.918 86.123,25.92 84.498,27.53C76.669,35.281 59.862,41.691 60.591,40.935C61.538,39.955 62.249,38.958 62.821,37.952C66.384,31.685 64.589,25.039 80.89,19.749C93.089,15.789 96.096,9.808 98.822,13.809C101.716,18.054 109.144,9.365 106.758,11.025Z" style="fill:rgb(47,47,47);stroke:rgb(57,57,57);stroke-width:1px;"/>
    </g>
    <g transform="matrix(0.617706,-0.316521,0.315497,0.615706,116.304,45.2961)">
        <path d="M106.758,11.025C97.386,17.543 106.012,26.203 114.664,20.392C112.693,20.338 112.773,22.437 111.766,23.41C110.759,24.382 109.725,24.599 108.526,25.354C106.003,26.946 104.116,20.547 103.16,17.054C102.355,14.111 84.387,33.077 80.267,33.569C77.336,33.918 86.123,25.92 84.498,27.53C76.669,35.281 59.862,41.691 60.591,40.935C67.428,33.856 62.891,28.229 80.89,19.749C90.313,15.308 94.859,8.673 97.585,12.673C100.479,16.919 109.144,9.365 106.758,11.025Z" style="fill:rgb(79,79,79);stroke:rgb(84,84,84);stroke-width:1px;"/>
    </g>
    <g transform="matrix(0.989912,1.14482,-1.33437,1.15381,-70.0079,-364.351)">
        <ellipse cx="305.189" cy="32.294" rx="3.648" ry="3.626" style="fill:rgb(8,2,0);stroke:black;stroke-width:0.61px;"/>
    </g>
    <g transform="matrix(0.865224,1.00062,-1.16629,1.00848,-37.228,-316.703)">
        <ellipse cx="305.189" cy="32.294" rx="3.648" ry="3.626" style="fill:rgb(135,135,135);stroke:rgb(68,68,68);stroke-width:0.7px;"/>
    </g>
    <g transform="matrix(0.665594,0.769749,-0.897198,0.775798,15.2543,-240.416)">
        <ellipse cx="305.189" cy="32.294" rx="3.648" ry="3.626" style="fill:rgb(196,196,196);stroke:rgb(171,171,171);stroke-width:0.9px;"/>
    </g>
    <g transform="matrix(1.08048,0.128485,-0.128485,1.08048,153.083,-10.6094)">
        <path d="M118.369,32.083L112.54,45.365L108.76,38.419L112.894,28.492L118.369,32.083Z" style="fill:rgb(215,215,215);stroke:black;stroke-width:1px;"/>
    </g>
    <g transform="matrix(1.08036,-0.129454,0.129454,1.08036,149.12,15.361)">
        <path d="M118.369,32.083L112.54,45.365L108.76,38.419L112.894,28.492L118.369,32.083Z" style="fill:rgb(215,215,215);stroke:black;stroke-width:1px;"/>
    </g>
    <g transform="matrix(1.13279,0,0,1.12912,127.262,0.033437)">
        <path d="M108.985,73.345L121.792,71.392C124.189,75.643 124.154,83.181 123.265,90.113C122.505,96.039 122.283,101.854 121.216,106.666L113.333,106.94C112.477,102.06 114.312,95.739 114.321,89.716C113.652,83.483 111.083,78.42 108.985,73.345Z" style="fill:rgb(237,237,237);stroke:rgb(126,126,126);stroke-width:1px;"/>
    </g>
    <g transform="matrix(1.26308,-0.00679824,0.00679824,1.26308,-236.896,-22.6605)">
        <path d="M395.689,104.916C395.689,104.718 393.348,104.446 393.373,104.865C393.508,107.163 393.373,106.298 393.373,106.537C393.373,108.196 393.45,108.264 393.059,109.834C392.725,111.172 392.066,111.467 391.503,112.78C391.432,112.945 390.919,114.036 391.155,114.272C391.277,114.394 392.166,114.272 392.357,114.272C393.753,114.272 394.274,112.425 395.013,111.319C395.458,110.651 396.664,110.521 396.975,109.994C397.14,109.715 396.778,109.099 396.975,108.843C397.51,108.147 398.538,106.595 397.984,105.481C397.723,104.958 396.485,105.296 396.485,104.967" style="fill:rgb(168,10,10);stroke:rgb(100,0,0);stroke-width:0.79px;"/>
    </g>
    <g transform="matrix(1.3098,-0.1166,0.116222,1.30556,122.895,-4.86275)">
        <path d="M87.752,73.181C89.366,75.589 92.847,86.17 91.875,90.569C90.614,96.276 88.02,100.663 86.33,104.506L92.229,108.516C96.151,101.376 100.607,94.404 102.784,84.828C103.263,79.906 103.371,76.843 102.487,74.425C97.748,73.483 91.798,74.55 87.752,73.181Z" style="fill:rgb(237,237,237);stroke:rgb(97,97,97);stroke-width:1px;"/>
    </g>
    <g transform="matrix(1.31498,0,0,1.31073,104.913,-17.5324)">
        <path d="M112.513,106.293C116.479,106.739 118.452,106.089 122.344,105.961C122.572,108.513 120.349,116.745 122.581,120.252C124.638,120.392 127.413,125.652 125.322,126.64C121.787,126.645 118.543,126.558 113.893,126.482C113.767,126.985 113.196,122.771 114.075,120.378C115.42,116.717 114.044,108.856 112.513,106.293Z" style="fill:rgb(76,20,24);stroke:rgb(76,76,76);stroke-width:0.76px;stroke-linecap:butt;stroke-miterlimit:1.41421;"/>
    </g>
    <g transform="matrix(1.3098,-0.1166,0.116222,1.30556,124.55,-6.2088)">
        <path d="M84.568,103.424L92.643,107.188L88.564,116.582C87.733,118.373 93.582,122.557 94.192,126.293C94.476,128.029 85,127.943 85,127.943C82.415,127.929 78.743,119.283 79.449,117.137C81.422,111.489 82.052,108.893 84.568,103.424Z" style="fill:rgb(76,20,24);stroke:rgb(76,76,76);stroke-width:0.76px;stroke-linecap:butt;stroke-miterlimit:1.41421;"/>
    </g>
    <g transform="matrix(0.760004,-0.0910676,0.117614,0.981544,242.012,9.49803)">
        <ellipse cx="51.474" cy="23.304" rx="13.261" ry="11.85" style="fill:rgb(200,199,198);stroke:rgb(53,53,53);stroke-width:1.31px;"/>
    </g>
    <g transform="matrix(0.523539,-0.517919,0.516242,0.521844,207.446,67.1625)">
        <path d="M106.758,11.025C97.386,17.543 106.012,26.203 114.664,20.392C112.693,20.338 112.773,22.437 111.766,23.41C110.759,24.382 109.725,24.599 108.526,25.354C106.003,26.946 104.116,20.547 103.16,17.054C102.355,14.111 84.387,33.077 80.267,33.569C77.336,33.918 86.123,25.92 84.498,27.53C76.669,35.281 59.862,41.691 60.591,40.935C67.428,33.856 62.891,28.229 80.89,19.749C90.313,15.308 94.859,8.673 97.585,12.673C100.479,16.919 109.144,9.365 106.758,11.025Z" style="fill:rgb(79,79,79);stroke:black;stroke-width:1px;"/>
    </g>
    <g transform="matrix(1.03078,0.469779,-0.468258,1.02745,185.49,-36.298)">
        <path d="M103.882,36.377C101.782,34.686 98.983,33.347 96.295,33.567C95.127,33.663 91.818,46.992 94.958,54.97C96.457,58.779 84.64,74.833 88.538,77.769C92.435,80.704 116.529,77.846 120.208,75.132C123.887,72.418 113.99,58.655 112.055,53.463C110.919,50.413 108.488,46.892 108.281,44.301C108.066,41.627 106.24,38.276 103.882,36.377Z" style="fill:rgb(43,37,37);stroke:rgb(76,76,76);stroke-width:1px;"/>
    </g>
    <g transform="matrix(0.982193,0.468225,-0.468225,0.982193,-50.1248,-170.498)">
        <path d="M342.088,91.278C342.986,94.919 373.201,92.952 374.7,88.464" style="fill:none;stroke:rgb(76,76,76);stroke-width:0.92px;"/>
    </g>
    <g transform="matrix(0.34822,1.3459,-0.94104,0.243471,203.62,-450.472)">
        <path d="M352.265,34.398C351.557,36.3 351.089,39.813 344.652,34.167C344.315,33.871 344.118,36.898 343.938,37.258C343.579,37.975 344.066,39.162 343.764,39.914C343.361,40.919 342.958,40.889 343.482,41.933C343.823,42.616 345.6,43.495 346.536,42.961C347.109,42.635 347.404,41.641 347.81,41.167C348.431,40.442 349.225,40.049 349.894,39.488C350.249,39.191 351.242,38.838 351.557,38.436C351.977,37.901 352.25,37.055 352.531,36.672" style="fill:rgb(52,52,52);stroke:rgb(66,66,66);stroke-width:0.83px;"/>
    </g>
    <g transform="matrix(1.34054,-0.255202,0.255202,1.34054,-286.004,27.6168)">
        <path d="M395.375,102.901C395.375,102.703 393.355,102.553 393.059,102.85C392.898,103.011 393.059,104.283 393.059,104.522C393.059,106.181 393.45,108.264 393.059,109.834C392.725,111.172 392.066,111.467 391.503,112.78C391.432,112.945 390.919,114.036 391.155,114.272C391.277,114.394 392.166,114.272 392.357,114.272C393.753,114.272 394.274,112.425 395.013,111.319C395.458,110.651 396.664,110.521 396.975,109.994C397.14,109.715 396.778,109.099 396.975,108.843C397.51,108.147 398.224,104.58 397.669,103.466C397.409,102.942 396.171,103.281 396.171,102.951" style="fill:rgb(168,10,10);stroke:rgb(100,0,0);stroke-width:0.73px;"/>
    </g>
    <g transform="matrix(1.05032,1.21467,-1.41579,1.22422,-3.66791,-390.154)">
        <ellipse cx="305.189" cy="32.294" rx="3.648" ry="3.626" style="fill:rgb(8,2,0);stroke:black;stroke-width:0.57px;"/>
    </g>
    <g transform="matrix(0.918021,1.06168,-1.23746,1.07002,29.2761,-339.22)">
        <ellipse cx="305.189" cy="32.294" rx="3.648" ry="3.626" style="fill:rgb(135,135,135);stroke:rgb(68,68,68);stroke-width:0.66px;"/>
    </g>
    <g transform="matrix(0.706209,0.81672,-0.951946,0.823138,84.9609,-258.278)">
        <ellipse cx="305.189" cy="32.294" rx="3.648" ry="3.626" style="fill:rgb(196,196,196);stroke:rgb(171,171,171);stroke-width:0.85px;"/>
    </g>
    <g transform="matrix(1.61809,1.90363,-1.05776,0.899093,-265.218,-734.696)">
        <path d="M393.059,102.85C392.898,103.011 393.059,104.283 393.059,104.522C393.059,106.181 393.45,108.264 393.059,109.834C392.725,111.172 392.204,112.031 392.943,110.924C393.388,110.257 394.594,110.127 394.905,109.6C395.07,109.32 394.891,107.844 395.029,107.486C395.424,106.463 394.049,104.165 393.494,103.051" style="fill:rgb(168,10,10);stroke:rgb(100,0,0);stroke-width:0.49px;"/>
    </g>
    <g transform="matrix(1.2631,0,0,1.2631,-188.067,-36.4371)">
        <path d="M350.805,117.927C350.765,118.026 351.482,121.508 351.419,121.575C351.338,121.658 351.653,123.747 351.755,123.893C351.808,123.969 352.073,123.993 352.164,124.053C353.417,124.888 352.954,121.137 353.431,120.302C353.612,119.985 354.511,119.662 354.713,119.365" style="fill:rgb(168,10,10);stroke:rgb(100,0,0);stroke-width:0.79px;"/>
    </g>
    <g transform="matrix(0.0535426,0.663,-0.802014,0.0647691,347.627,-231.384)">
        <path d="M393.683,102.02C393.522,102.181 393.059,104.283 393.059,104.522C393.059,106.181 393.45,108.264 393.059,109.834C392.725,111.172 392.066,111.467 391.503,112.78C391.432,112.945 390.919,114.036 391.155,114.272C391.277,114.394 392.166,114.272 392.357,114.272C393.753,114.272 394.274,112.425 395.013,111.319C395.458,110.651 396.664,110.521 396.975,109.994C397.14,109.715 396.778,109.099 396.975,108.843C397.51,108.147 398.076,101.743 397.522,100.629" style="fill:rgb(168,10,10);stroke:rgb(100,0,0);stroke-width:1.35px;"/>
    </g>
    <g transform="matrix(0.409642,0.271688,-0.320661,0.483483,159.252,-125.163)">
        <path d="M393.683,102.02C393.522,102.181 393.059,104.283 393.059,104.522C393.059,106.181 393.45,108.264 393.059,109.834C392.725,111.172 392.066,111.467 391.503,112.78C391.432,112.945 390.919,114.036 391.155,114.272C391.277,114.394 392.166,114.272 392.357,114.272C393.753,114.272 394.274,112.425 395.013,111.319C395.458,110.651 396.664,110.521 396.975,109.994C397.14,109.715 396.778,109.099 396.975,108.843C397.51,108.147 398.076,101.743 397.522,100.629" style="fill:rgb(168,10,10);stroke:rgb(100,0,0);stroke-width:1.86px;"/>
    </g>
    <g transform="matrix(0.409642,0.271688,-0.320661,0.483483,163.997,-124.011)">
        <path d="M393.683,102.02C393.522,102.181 393.059,104.283 393.059,104.522C393.059,106.181 393.45,108.264 393.059,109.834C392.725,111.172 392.066,111.467 391.503,112.78C391.432,112.945 390.919,114.036 391.155,114.272C391.277,114.394 392.166,114.272 392.357,114.272C393.753,114.272 394.274,112.425 395.013,111.319C395.458,110.651 396.664,110.521 396.975,109.994C397.14,109.715 396.778,109.099 396.975,108.843C397.51,108.147 398.076,101.743 397.522,100.629" style="fill:rgb(168,10,10);stroke:rgb(100,0,0);stroke-width:1.86px;"/>
    </g>
    <g transform="matrix(0.968863,1.12048,-0.943839,0.816128,-16.2008,-394.304)">
        <path d="M355.107,37.9C354.508,42.532 354.988,47.875 355.023,40.238" style="fill:white;stroke:black;stroke-width:0.73px;"/>
    </g>
    <g transform="matrix(0.980322,0.47213,-0.47213,0.980322,-9.7084,-143.762)">
        <path d="M296.459,19.797C300.395,12.057 308.835,11.345 316.804,15.027C312.193,23.729 316.185,31.867 311.09,35.049C298.444,36.752 292.857,26.878 296.459,19.797Z" style="stroke:black;stroke-width:0.92px;"/>
    </g>
    <g transform="matrix(0.840047,0.404572,-0.404572,0.840047,32.1642,-120.497)">
        <path d="M296.459,19.797C300.395,12.057 308.835,11.345 316.804,15.027C312.193,23.729 316.185,31.867 311.09,35.049C298.444,36.752 292.857,26.878 296.459,19.797Z" style="fill:rgb(52,51,50);stroke:black;stroke-width:1.07px;"/>
    </g>
    <g transform="matrix(1.1279,-0.105117,0.104777,1.12425,154.683,26.7526)">
        <path d="M93.701,35.775C93.14,32.24 101.556,31.607 101.491,34.429C101.306,42.405 96.899,68.101 98.715,66.373C96.209,66.152 94.183,66.27 91.693,66.21C91.502,68.895 90.886,61.024 92.737,52.683C93.967,47.141 94.358,39.919 93.701,35.775Z" style="fill:rgb(51,51,51);stroke:rgb(76,76,76);stroke-width:1px;"/>
    </g>
    <g transform="matrix(0.485009,-1.02371,1.02039,0.483439,210.399,124.349)">
        <path d="M103.909,10.827C94.537,17.345 106.012,26.203 114.664,20.392C112.693,20.338 112.773,22.437 111.766,23.41C110.759,24.382 108.001,26.258 106.803,27.014C104.28,28.605 102.703,22.238 101.747,18.744C100.941,15.801 84.387,33.077 80.267,33.569C77.336,33.918 86.123,25.92 84.498,27.53C76.669,35.281 59.862,41.691 60.591,40.935C67.428,33.856 64.261,35.881 79.895,23.554C89.529,15.958 96.415,11.665 99.141,15.665C102.034,19.91 106.296,9.167 103.909,10.827Z" style="fill:rgb(20,20,20);stroke:black;stroke-width:1px;"/>
    </g>
    <g transform="matrix(0.398786,-0.803899,0.801297,0.397495,224.938,103.43)">
        <path d="M106.758,11.025C97.386,17.543 106.012,26.203 114.664,20.392C112.693,20.338 112.773,22.437 111.766,23.41C110.759,24.382 109.725,24.599 108.526,25.354C106.003,26.946 102.916,21.547 101.96,18.053C101.155,15.11 84.387,33.077 80.267,33.569C77.336,33.918 86.123,25.92 84.498,27.53C76.669,35.281 59.862,41.691 60.591,40.935C61.538,39.955 62.249,38.958 62.821,37.952C66.384,31.685 64.589,25.039 80.89,19.749C93.089,15.789 96.096,9.808 98.822,13.809C101.716,18.054 109.144,9.365 106.758,11.025Z" style="fill:rgb(47,47,47);stroke:rgb(57,57,57);stroke-width:1px;"/>
    </g>
    <g transform="matrix(0.371305,-0.635976,0.633917,0.370103,232.723,82.0766)">
        <path d="M106.758,11.025C97.386,17.543 106.012,26.203 114.664,20.392C112.693,20.338 112.773,22.437 111.766,23.41C110.759,24.382 109.725,24.599 108.526,25.354C106.003,26.946 104.116,20.547 103.16,17.054C102.355,14.111 84.387,33.077 80.267,33.569C77.336,33.918 86.123,25.92 84.498,27.53C76.669,35.281 59.862,41.691 60.591,40.935C67.428,33.856 62.891,28.229 80.89,19.749C90.313,15.308 94.859,8.673 97.585,12.673C100.479,16.919 109.144,9.365 106.758,11.025Z" style="fill:rgb(79,79,79);stroke:rgb(84,84,84);stroke-width:1px;"/>
    </g>
    <g transform="matrix(1.05032,1.21467,-1.41579,1.22422,7.64232,-389.135)">
        <ellipse cx="305.189" cy="32.294" rx="3.648" ry="3.626" style="fill:rgb(8,2,0);stroke:black;stroke-width:0.57px;"/>
    </g>
    <g transform="matrix(0.918021,1.06168,-1.23746,1.07002,42.4225,-338.579)">
        <ellipse cx="305.189" cy="32.294" rx="3.648" ry="3.626" style="fill:rgb(135,135,135);stroke:rgb(68,68,68);stroke-width:0.66px;"/>
    </g>
    <g transform="matrix(0.706209,0.81672,-0.951946,0.823138,98.1072,-257.637)">
        <ellipse cx="305.189" cy="32.294" rx="3.648" ry="3.626" style="fill:rgb(196,196,196);stroke:rgb(171,171,171);stroke-width:0.85px;"/>
    </g>
    <g transform="matrix(0.583545,0.81592,-0.802228,0.573752,243.319,-45.71)">
        <path d="M129.191,57.912C125.604,54.411 132.144,66.248 132.144,66.248C132.144,66.248 135.086,71.328 135.741,71.08C136.992,69.589 142.243,72.715 143.591,70.707C143.368,67.47 140.58,62.149 135.006,61.098C135.006,61.098 130.414,59.106 129.191,57.912Z" style="fill:rgb(230,230,230);stroke:rgb(109,109,109);stroke-width:1px;"/>
    </g>
    <g transform="matrix(1.08633,-0.0618526,0.0618526,1.08633,-107.46,17.6807)">
        <rect x="337.634" y="87.374" width="7.831" height="5.395" style="fill:rgb(175,175,175);stroke:rgb(76,76,76);stroke-width:0.92px;"/>
    </g>
</svg>
