<svg width="15" height="30" viewBox="0 0 15 30" version="1.1" xmlns="http://www.w3.org/2000/svg" xmlns:xlink="http://www.w3.org/1999/xlink" xml:space="preserve" style="fill-rule:evenodd;clip-rule:evenodd;stroke-linecap:round;stroke-linejoin:round;stroke-miterlimit:1.5;">
    <g id="Layer1">
        <g transform="matrix(1,0,0,1.65107,-0.27173,22.2112)">
            <ellipse cx="7.42" cy="2.238" rx="5.222" ry="0.76" style="fill:rgb(124,124,124);stroke:rgb(106,106,106);stroke-width:0.66px;"/>
        </g>
        <path d="M0.936,25.379C0.767,24.24 0.832,12.174 0.981,5.578C1.228,4.744 1.686,3.918 2.313,3.099C6.591,3.764 9.961,3.635 12.528,2.858C13.072,3.677 13.488,4.505 13.745,5.347C13.805,12.055 13.727,24.821 13.517,25.458C12.971,27.122 1.273,27.639 0.936,25.379Z" style="fill:rgb(255,0,0);stroke:rgb(111,0,0);stroke-width:0.2px;"/>
        <g transform="matrix(1,0,0,1.15913,-0.0120995,0.0461276)">
            <ellipse cx="7.42" cy="2.238" rx="5.222" ry="0.76" style="fill:rgb(89,89,89);stroke:rgb(155,155,155);stroke-width:0.42px;"/>
        </g>
        <g transform="matrix(0.778322,0,0,0.384896,-1.27424,-1.0298)">
            <path d="M10.009,9.374C10.009,8.955 9.841,8.615 9.633,8.615L5.198,8.615C4.99,8.615 4.822,8.955 4.822,9.374L4.822,9.543C4.822,9.962 4.99,10.302 5.198,10.302L9.633,10.302C9.841,10.302 10.009,9.962 10.009,9.543L10.009,9.374Z" style="fill:rgb(100,82,82);stroke:rgb(155,155,155);stroke-width:0.33px;"/>
        </g>
        <g transform="matrix(-0.00281645,-0.718118,0.718118,-0.00281645,-0.681647,25.1544)">
            <path d="M11.788,6.183C11.788,7.015 11.288,7.851 10.288,8.691C9.52,9.339 8.64,9.863 7.648,10.263C7.232,11.359 6.592,12.271 5.728,12.999C4.784,13.799 3.76,14.199 2.656,14.199C2.024,14.199 1.496,14.083 1.072,13.851C0.536,13.563 0.268,13.131 0.268,12.555C0.268,12.203 0.388,11.901 0.628,11.649C0.868,11.397 1.164,11.271 1.516,11.271C1.74,11.271 1.936,11.335 2.104,11.463C2.272,11.591 2.356,11.763 2.356,11.979C2.356,12.307 2.232,12.523 1.984,12.627C1.56,12.699 1.34,12.739 1.324,12.747C1.052,12.827 0.916,12.963 0.916,13.155C0.916,13.419 1.116,13.631 1.516,13.791C1.836,13.919 2.144,13.983 2.44,13.983C3.184,13.983 3.872,13.587 4.504,12.795C4.96,12.227 5.36,11.495 5.704,10.599C5,10.583 4.404,10.383 3.916,9.999C3.38,9.583 3.112,9.031 3.112,8.343C3.112,7.295 3.652,6.459 4.732,5.835C5.644,5.307 6.66,5.043 7.78,5.043C8.204,5.043 8.416,5.103 8.416,5.223C8.416,5.311 8.368,5.355 8.272,5.355C8.24,5.355 8.196,5.351 8.14,5.343C8.084,5.335 8.04,5.331 8.008,5.331C6.968,5.331 6.036,5.631 5.212,6.231C4.3,6.895 3.844,7.727 3.844,8.727C3.844,9.279 4.04,9.699 4.432,9.987C4.784,10.235 5.244,10.359 5.812,10.359C6.276,9.183 6.908,8.079 7.708,7.047C8.756,5.703 9.76,5.031 10.72,5.031C11.04,5.031 11.298,5.141 11.494,5.361C11.69,5.581 11.788,5.855 11.788,6.183ZM11.32,6.003C11.32,5.531 11.124,5.295 10.732,5.295C9.636,5.295 8.656,6.831 7.792,9.903C8.568,9.575 9.32,9.051 10.048,8.331C10.896,7.491 11.32,6.715 11.32,6.003Z" style="fill:white;fill-rule:nonzero;"/>
            <path d="M12.844,9.555L11.836,11.259C11.716,11.451 11.54,11.735 11.308,12.111C11.116,12.423 10.968,12.723 10.864,13.011L10.972,13.083C11.292,12.979 11.578,12.741 11.83,12.369C12.082,11.997 12.232,11.799 12.28,11.775L12.328,11.775C12.36,11.815 12.376,11.859 12.376,11.907C12.376,12.235 12.096,12.685 11.536,13.257C10.976,13.829 10.532,14.115 10.204,14.115C9.948,14.115 9.772,14.051 9.676,13.923C9.652,13.891 9.584,13.715 9.472,13.395C9.2,13.875 8.828,14.115 8.356,14.115C8.14,14.115 7.952,14.023 7.792,13.839C7.632,13.655 7.552,13.455 7.552,13.239C7.552,13.079 7.592,12.911 7.672,12.735L9.064,9.663L10.444,9.555C10.124,9.979 9.812,10.483 9.508,11.067C9.14,11.779 8.956,12.323 8.956,12.699C8.956,12.795 8.976,12.891 9.016,12.987C9.064,13.115 9.128,13.179 9.208,13.179C9.424,13.179 9.844,12.663 10.468,11.631C10.94,10.855 11.296,10.199 11.536,9.663L12.844,9.555Z" style="fill:white;fill-rule:nonzero;"/>
            <path d="M17.5,12.147C16.62,13.003 15.772,13.571 14.956,13.851C13.724,16.227 12.552,17.415 11.44,17.415C11.144,17.415 10.892,17.343 10.684,17.199C10.444,17.031 10.324,16.807 10.324,16.527C10.324,15.567 11.472,14.715 13.768,13.971L14.08,13.419L14.068,13.395C13.804,13.875 13.432,14.115 12.952,14.115C12.736,14.115 12.548,14.023 12.388,13.839C12.228,13.655 12.148,13.455 12.148,13.239C12.148,12.551 12.708,11.623 13.828,10.455C14.436,9.823 14.984,9.507 15.472,9.507C15.544,9.507 15.658,9.549 15.814,9.633C15.97,9.717 16.084,9.763 16.156,9.771C16.212,9.747 16.24,9.691 16.24,9.603C16.344,9.531 16.504,9.495 16.72,9.495C16.976,9.495 17.168,9.507 17.296,9.531C17.24,9.747 17.012,10.223 16.612,10.959C16.028,12.039 15.532,12.907 15.124,13.563C15.652,13.387 16.324,12.935 17.14,12.207L17.5,12.147ZM15.928,10.107C15.904,10.003 15.832,9.951 15.712,9.951C15.6,9.951 15.48,10.003 15.352,10.107L15.352,10.095C14.96,10.423 14.584,10.851 14.224,11.379C13.808,11.987 13.6,12.503 13.6,12.927C13.6,13.095 13.668,13.179 13.804,13.179C13.988,13.179 14.372,12.727 14.956,11.823C15.476,11.015 15.8,10.443 15.928,10.107ZM13.684,14.211C13.012,14.435 12.408,14.731 11.872,15.099C11.128,15.611 10.756,16.115 10.756,16.611C10.756,16.987 10.956,17.175 11.356,17.175C11.916,17.175 12.692,16.187 13.684,14.211Z" style="fill:white;fill-rule:nonzero;"/>
            <path d="M22.18,9.531C22.06,9.995 21.768,10.583 21.304,11.295C20.8,12.071 20.48,12.643 20.344,13.011L20.452,13.083C20.772,12.979 21.058,12.741 21.31,12.369C21.562,11.997 21.712,11.799 21.76,11.775L21.808,11.775C21.84,11.815 21.856,11.859 21.856,11.907C21.856,12.235 21.576,12.685 21.016,13.257C20.456,13.829 20.012,14.115 19.684,14.115C19.428,14.115 19.252,14.051 19.156,13.923C19.132,13.891 19.064,13.715 18.952,13.395C18.68,13.875 18.308,14.115 17.836,14.115C17.62,14.115 17.432,14.023 17.272,13.839C17.112,13.655 17.032,13.455 17.032,13.239C17.032,12.631 17.438,11.857 18.25,10.917C19.062,9.977 19.764,9.507 20.356,9.507C20.428,9.507 20.54,9.549 20.692,9.633C20.844,9.717 20.96,9.763 21.04,9.771C21.088,9.747 21.116,9.691 21.124,9.603C21.212,9.531 21.38,9.495 21.628,9.495C21.868,9.495 22.052,9.507 22.18,9.531ZM20.812,10.107C20.788,10.003 20.716,9.951 20.596,9.951C20.484,9.951 20.364,10.003 20.236,10.107L20.236,10.095C19.844,10.423 19.468,10.851 19.108,11.379C18.692,11.995 18.484,12.511 18.484,12.927C18.484,13.095 18.552,13.179 18.688,13.179C18.872,13.179 19.256,12.727 19.84,11.823C20.36,11.015 20.684,10.443 20.812,10.107Z" style="fill:white;fill-rule:nonzero;"/>
            <path d="M26.08,10.299C26.08,10.531 25.996,10.767 25.828,11.007C25.644,11.279 25.444,11.415 25.228,11.415C25.188,11.415 25.116,11.375 25.012,11.295C24.964,11.199 24.94,11.131 24.94,11.091C24.94,10.907 25.028,10.733 25.204,10.569C25.38,10.405 25.556,10.339 25.732,10.371L25.732,10.263C25.732,10.151 25.612,10.095 25.372,10.095L25.3,10.095C25.188,10.095 24.914,10.285 24.478,10.665C24.042,11.045 23.776,11.307 23.68,11.451C23.44,11.811 23.192,12.263 22.936,12.807C22.736,13.279 22.532,13.751 22.324,14.223L21.124,14.199L22.3,11.691C22.364,11.571 22.46,11.393 22.588,11.157C22.716,10.921 22.78,10.751 22.78,10.647C22.78,10.519 22.744,10.455 22.672,10.455C22.64,10.455 22.518,10.571 22.306,10.803C22.094,11.035 21.96,11.151 21.904,11.151C21.896,11.143 21.88,11.135 21.856,11.127L21.844,11.091C21.852,10.947 22.078,10.637 22.522,10.161C22.966,9.685 23.256,9.447 23.392,9.447C23.752,9.447 23.932,9.755 23.932,10.371C23.932,10.443 23.952,10.479 23.992,10.479C23.992,10.479 24.196,10.345 24.604,10.077C25.012,9.809 25.316,9.675 25.516,9.675C25.66,9.675 25.79,9.743 25.906,9.879C26.022,10.015 26.08,10.155 26.08,10.299Z" style="fill:white;fill-rule:nonzero;"/>
        </g>
    </g>
</svg>
