<?xml version="1.0" encoding="UTF-8" standalone="no"?>
<!DOCTYPE svg PUBLIC "-//W3C//DTD SVG 1.1//EN" "http://www.w3.org/Graphics/SVG/1.1/DTD/svg11.dtd">
<svg width="100%" height="100%" viewBox="0 0 450 673" version="1.1" xmlns="http://www.w3.org/2000/svg" xmlns:xlink="http://www.w3.org/1999/xlink" xml:space="preserve" style="fill-rule:evenodd;clip-rule:evenodd;stroke-linejoin:round;stroke-miterlimit:1.41421;">
    <g id="Layer2">
        <rect x="2.897" y="11.682" width="66.526" height="121.052" style="fill:rgb(235,235,235);"/>
        <g transform="matrix(1,0,0,1,76.3372,0)">
            <rect x="2.897" y="11.682" width="66.526" height="121.052" style="fill:rgb(235,235,235);"/>
        </g>
        <g transform="matrix(1,0,0,1,151.227,0)">
            <rect x="2.897" y="11.682" width="66.526" height="121.052" style="fill:rgb(235,235,235);"/>
        </g>
        <g transform="matrix(1,0,0,1,225.38,0)">
            <rect x="2.897" y="11.682" width="66.526" height="121.052" style="fill:rgb(235,235,235);"/>
        </g>
        <g transform="matrix(1,0,0,1,302.096,0)">
            <rect x="2.897" y="11.682" width="66.526" height="121.052" style="fill:rgb(235,235,235);"/>
        </g>
        <g transform="matrix(1,0,0,1,376.41,0)">
            <rect x="2.897" y="11.682" width="66.526" height="121.052" style="fill:rgb(235,235,235);"/>
        </g>
        <g transform="matrix(3.5215,0,0,3.5215,31.0769,86.6621)">
            <path d="M3.792,-0.9L2.592,-0.9L2.592,-8.4L0.492,-8.4L0.492,-7.5L1.692,-7.5L1.692,-0.9L0.492,-0.9L0.492,0L3.792,0L3.792,-0.9Z" style="fill:rgb(107,107,107);fill-rule:nonzero;"/>
        </g>
        <g transform="matrix(3.5215,0,0,3.5215,104.092,87.0681)">
            <path d="M0.912,-2.556C0.72,-2.316 0.66,-2.028 0.66,-1.644L0.66,0L4.56,0L4.56,-0.9L1.56,-0.9L1.56,-1.644C1.56,-1.824 1.584,-1.884 1.644,-1.956L4.308,-5.364C4.5,-5.604 4.56,-5.892 4.56,-6.276L4.56,-7.2C4.56,-7.86 4.02,-8.4 3.36,-8.4L1.86,-8.4C1.2,-8.4 0.66,-7.86 0.66,-7.2L0.66,-6L1.56,-6L1.56,-7.2C1.56,-7.38 1.692,-7.5 1.86,-7.5L3.36,-7.5C3.54,-7.5 3.66,-7.38 3.66,-7.2L3.66,-6.276C3.66,-6.096 3.636,-6.036 3.576,-5.964L0.912,-2.556Z" style="fill:rgb(107,107,107);fill-rule:nonzero;"/>
        </g>
        <g transform="matrix(3.5215,0,0,3.5215,180.348,87.0681)">
            <path d="M4.56,-3.504C4.56,-4.02 4.332,-4.32 3.96,-4.428C4.332,-4.536 4.56,-4.836 4.56,-5.352L4.56,-7.2C4.56,-7.86 4.02,-8.4 3.36,-8.4L1.86,-8.4C1.2,-8.4 0.66,-7.86 0.66,-7.2L0.66,-6.156L1.56,-6.156L1.56,-7.2C1.56,-7.38 1.68,-7.5 1.86,-7.5L3.36,-7.5C3.54,-7.5 3.66,-7.38 3.66,-7.2L3.66,-5.196C3.66,-5.016 3.54,-4.896 3.36,-4.896L1.56,-4.896L1.56,-3.996L3.36,-3.996C3.54,-3.996 3.66,-3.864 3.66,-3.684L3.66,-1.2C3.66,-1.02 3.54,-0.9 3.36,-0.9L1.86,-0.9C1.68,-0.9 1.56,-1.02 1.56,-1.2L1.56,-2.244L0.66,-2.244L0.66,-1.2C0.66,-0.54 1.2,0 1.86,0L3.36,0C4.02,0 4.56,-0.54 4.56,-1.2L4.56,-3.504Z" style="fill:rgb(107,107,107);fill-rule:nonzero;"/>
        </g>
        <g transform="matrix(3.5215,0,0,3.5215,257.075,87.0681)">
            <path d="M1.452,-2.856L3.192,-6.672L3.192,-2.856L1.452,-2.856ZM4.692,-2.856L4.092,-2.856L4.092,-8.4L3.192,-8.4L0.492,-2.7L0.492,-1.956L3.192,-1.956L3.192,0L4.092,0L4.092,-1.956L4.692,-1.956L4.692,-2.856Z" style="fill:rgb(107,107,107);fill-rule:nonzero;"/>
        </g>
        <g transform="matrix(3.5215,0,0,3.5215,331.958,87.0681)">
            <path d="M4.56,-4.44C4.56,-5.1 4.02,-5.64 3.36,-5.64L2.496,-5.64C2.028,-5.64 1.716,-5.436 1.56,-5.04L1.56,-7.5L4.44,-7.5L4.44,-8.4L0.66,-8.4L0.66,-3.984L1.56,-3.984L1.56,-4.44C1.56,-4.62 1.68,-4.74 1.86,-4.74L3.36,-4.74C3.54,-4.74 3.66,-4.62 3.66,-4.44L3.66,-1.2C3.66,-1.02 3.54,-0.9 3.36,-0.9L1.86,-0.9C1.68,-0.9 1.56,-1.02 1.56,-1.2L1.56,-2.256L0.66,-2.256L0.66,-1.2C0.66,-0.54 1.2,0 1.86,0L3.36,0C4.02,0 4.56,-0.54 4.56,-1.2L4.56,-4.44Z" style="fill:rgb(107,107,107);fill-rule:nonzero;"/>
        </g>
        <g transform="matrix(3.5215,0,0,3.5215,404.213,87.0681)">
            <path d="M3.66,-1.2C3.66,-1.02 3.54,-0.9 3.36,-0.9L1.86,-0.9C1.68,-0.9 1.56,-1.02 1.56,-1.2L1.56,-3.696C1.56,-3.876 1.68,-3.996 1.86,-3.996L3.36,-3.996C3.54,-3.996 3.66,-3.876 3.66,-3.696L3.66,-1.2ZM4.56,-3.696C4.56,-4.356 4.032,-4.896 3.36,-4.896L2.496,-4.896C2.028,-4.896 1.716,-4.692 1.56,-4.296L1.56,-7.2C1.56,-7.38 1.68,-7.5 1.86,-7.5L3.36,-7.5C3.54,-7.5 3.66,-7.38 3.66,-7.2L3.66,-6.3L4.56,-6.3L4.56,-7.2C4.56,-7.86 4.02,-8.4 3.36,-8.4L1.86,-8.4C1.2,-8.4 0.66,-7.86 0.66,-7.2L0.66,-1.2C0.66,-0.54 1.2,0 1.86,0L3.36,0C4.032,0 4.56,-0.54 4.56,-1.2L4.56,-3.696Z" style="fill:rgb(107,107,107);fill-rule:nonzero;"/>
        </g>
    </g>
</svg>
