<svg width="450" height="673" viewBox="0 0 450 673" version="1.1" xmlns="http://www.w3.org/2000/svg" xmlns:xlink="http://www.w3.org/1999/xlink" xml:space="preserve" style="fill-rule:evenodd;clip-rule:evenodd;stroke-linecap:round;stroke-linejoin:round;stroke-miterlimit:1.5;">
    <g transform="matrix(-0.869336,0.239047,0.299479,1.08911,421.209,143.948)">
        <path d="M101.61,48.043C101.392,42.185 94.157,45.494 95.175,53.399C95.731,56.701 105.091,59.064 113.322,63.437C116.184,64.54 119.005,65.452 121.426,64.535C124.286,61.128 126.024,58.117 123.76,56.512C121.062,54.959 118.895,55.592 115.758,55.414L110.839,53.733C107.256,51.994 102.79,50.53 101.61,48.043Z" style="fill:white;stroke:rgb(226,226,226);stroke-width:1px;"/>
    </g>
    <g transform="matrix(0.943769,0.439481,-0.438058,0.940712,278.424,103.243)">
        <path d="M108.985,73.345C109.607,70.39 114.852,69.784 116.774,72.115C119.272,75.143 123.031,83.433 124.953,88.999C126.455,93.349 129.509,99.291 128.11,101.802C126.711,104.313 120.725,105.338 118.231,103.142C115.622,100.843 113.993,92.976 112.452,88.009C110.963,83.212 108.297,76.612 108.985,73.345Z" style="fill:white;stroke:rgb(226,226,226);stroke-width:1px;"/>
    </g>
    <g transform="matrix(1.04108,2.77556e-17,0,1.03771,259.798,133.822)">
        <path d="M82.9,103.312C87.461,105.792 90.227,106.244 95.215,105.729L93.215,116.154C92.384,117.945 92.782,119.139 94.453,119.712C101.613,120.546 102.591,121.768 103.434,123.037C104.021,124.078 104.277,126.529 103.472,128.202L85,127.943C82.415,127.929 80.8,127.03 79.873,125.151C79.368,124.151 80.067,121.774 80.773,119.628C82.746,113.98 80.384,108.781 82.9,103.312Z"/>
    </g>
    <g transform="matrix(-0.537861,0.891374,-0.888488,-0.536119,480.192,201.825)">
        <path d="M108.985,73.345C109.607,70.39 115.252,71.079 117.57,73.014C120.51,75.469 123.031,83.433 124.953,88.999C126.455,93.349 129.509,99.291 128.11,101.802C126.711,104.313 120.725,105.338 118.231,103.142C115.622,100.843 113.993,92.976 112.452,88.009C110.963,83.212 108.297,76.612 108.985,73.345Z" style="fill:white;stroke:rgb(226,226,226);stroke-width:1px;"/>
    </g>
    <g transform="matrix(1.04108,0,0,1.03771,-70.8812,-2.90284)">
        <path d="M116.919,28.904L117.492,57.058L108.949,54.583L109.239,30.909L116.919,28.904Z" style="fill:white;stroke:rgb(226,226,226);stroke-width:1px;"/>
    </g>
    <g transform="matrix(1,0,0,1,-73.5188,-4.85423)">
        <path d="M118.369,32.083L112.54,45.365L104.597,39.94L109.239,30.909L118.369,32.083Z" style="fill:white;stroke:rgb(226,226,226);stroke-width:1px;"/>
    </g>
    <g transform="matrix(1.04108,0,0,1.03771,-72.4259,-1.17385)">
        <path d="M91.181,70.405C92.795,72.813 91.5,85.527 91.181,86.788C91.122,87.024 88.305,99.356 86.33,104.506L92.229,109.512C96.151,102.372 99.481,94.404 101.658,84.828C102.137,79.906 102.245,76.843 101.361,74.425L91.181,70.405Z" style="fill:white;stroke:rgb(226,226,226);stroke-width:1px;"/>
    </g>
    <g transform="matrix(1.04108,0,0,1.03771,-72.4259,-1.17385)">
        <path d="M108.985,73.345L116.578,68.406C118.975,72.657 121.21,79.78 123.265,90.113C123.624,96.077 122.943,101.201 121.876,106.013L112.156,106.546C112.886,101.8 114.312,95.739 114.321,89.716C113.652,83.483 111.083,78.42 108.985,73.345Z" style="fill:white;stroke:rgb(226,226,226);stroke-width:1px;"/>
    </g>
    <g transform="matrix(1.04108,0,0,1.03771,-72.4259,-1.17385)">
        <path d="M84.568,103.424L96.013,109.103L93.215,116.154C92.384,117.945 92.782,119.139 94.453,119.712C101.613,120.546 102.591,121.768 103.434,123.037C104.021,124.078 104.277,126.529 103.472,128.202L85,127.943C82.415,127.929 80.8,127.03 79.873,125.151C79.368,124.151 80.067,121.774 80.773,119.628C82.746,113.98 82.052,108.893 84.568,103.424Z"/>
    </g>
    <g transform="matrix(1.04108,0,0,1.03771,-72.4259,-1.17385)">
        <path d="M110.881,105.285C114.847,105.731 120.418,105.146 124.31,105.018C125.596,107.567 123.811,110.311 124.053,113.825C124.132,116.665 127.563,118.087 132.518,118.864C134.583,119.135 136.458,120.025 137.708,122.762C137.995,124.031 137.881,125.285 137.458,126.527C133.709,127.974 117.852,127.697 116.743,125.093C116.743,125.093 110.331,107.289 110.881,105.285Z"/>
    </g>
    <g transform="matrix(0.764257,0,0,0.824254,7.67041,2.49705)">
        <ellipse cx="51.474" cy="23.304" rx="13.261" ry="11.85" style="fill:white;stroke:rgb(226,226,226);stroke-width:1.31px;"/>
    </g>
    <g transform="matrix(0.86673,0,0,0.881232,-17.6111,12.7513)">
        <rect x="78.991" y="7.239" width="3.709" height="6.829" style="fill:rgb(28,28,28);stroke:rgb(194,51,113);stroke-width:1.19px;"/>
    </g>
    <g transform="matrix(0.440069,0,0,0.881232,21.0325,12.7513)">
        <rect x="78.991" y="7.239" width="3.709" height="6.829" style="fill:rgb(28,28,28);stroke:rgb(194,51,113);stroke-width:1.49px;"/>
    </g>
    <g transform="matrix(1.04108,0,0,1.03771,-72.4259,-1.17385)">
        <path d="M108.199,37.947C105.122,35.135 101.869,33.942 98.528,33.567C97.24,33.689 95.988,34.309 94.754,35.18C92.352,38.8 92.97,43.973 97.024,50.913L97.253,54.691C95.993,56.355 89.375,69.005 87.411,70.275C90.624,79.316 113.858,82.011 120.055,71.718L109.485,53.99C109.351,51.074 110.378,48.701 112.015,46.614C111.104,42.737 109.821,39.878 108.199,37.947Z" style="fill:rgb(225,223,234);stroke:rgb(198,195,210);stroke-width:1px;"/>
    </g>
    <g transform="matrix(1.04108,0,0,1.03771,-68.778,-2.8954)">
        <path d="M121.567,19.828L114.246,19.828C112.275,19.774 112.461,22.385 112.37,24.813L112.848,56.976L108.796,56.929L108.796,42.614L108.813,57.026L104.068,56.824L104.116,20.867L104.114,30.257C104.063,31.165 102.065,32.531 98.679,33.759L94.569,36.73C92.93,38.096 90.575,41.041 90.094,43.805C89.76,47.834 89.897,51.761 90.267,55.638C90.516,60.124 86.562,63.178 79.981,62.894C80.778,59.653 84.219,56.385 84.44,52.928C84.765,48.34 84.403,38.386 84.459,35.352C84.514,32.328 86.895,25.962 86.94,25.625C87.545,21.03 95.199,14.087 100.85,11.907C104.435,10.525 111.67,10.605 114.443,11.615C116.381,12.321 117.776,13.379 119.643,15.452C120.721,16.649 121.434,18.509 121.567,19.828Z" style="fill:white;stroke:rgb(226,226,226);stroke-width:1px;"/>
    </g>
    <g transform="matrix(1.04108,0,0,1.03771,-72.4259,-1.17385)">
        <path d="M100.712,35.692C98.419,33.673 96.69,34.204 95.175,35.606C95.081,35.662 94.962,35.71 94.91,35.815C93.472,38.727 94.157,45.494 95.175,53.399C95.731,56.701 105.091,59.064 113.322,63.437C116.184,64.54 119.005,65.452 121.426,64.535C124.286,61.128 126.024,58.117 123.76,56.512C121.062,54.959 118.895,55.592 115.758,55.414L110.839,53.733C107.256,51.994 102.79,50.53 101.61,48.043C101.392,42.185 101.386,35.848 100.712,35.692Z" style="fill:white;stroke:rgb(226,226,226);stroke-width:1px;"/>
    </g>
    <g transform="matrix(1.04108,0,0,1.03771,-72.4259,-2.95125)">
        <path d="M93.701,35.775C95.37,32.609 99.535,32.396 101.491,34.429C102.3,35.27 103.252,35.898 102.669,39.64C99.347,34.381 96.024,35.066 92.708,39.89C92.822,38.334 92.873,37.365 93.701,35.775Z" style="fill:rgb(225,223,234);stroke:rgb(198,195,210);stroke-width:1px;"/>
    </g>
    <g transform="matrix(0.974575,0,0,0.971421,-67.2047,147.535)">
        <path d="M108.985,73.345L116.578,68.406C118.975,72.657 121.21,79.78 123.265,90.113C123.624,96.077 121.47,101.82 120.403,106.632L112.879,103.953C113.609,99.207 114.312,95.739 114.321,89.716C113.652,83.483 111.083,78.42 108.985,73.345Z" style="fill:white;stroke:rgb(226,226,226);stroke-width:1px;"/>
    </g>
    <g transform="matrix(-0.879157,-0.218018,0.217312,-0.876309,111.937,328.196)">
        <path d="M112.579,80.563L118.984,77.02C121.381,81.271 120.733,78.975 122.788,89.308C123.147,95.272 122.943,101.201 121.876,106.013L112.156,106.546C112.886,101.8 114.093,95.464 114.102,89.441C113.433,83.208 113.283,85.501 112.579,80.563Z" style="fill:white;stroke:rgb(226,226,226);stroke-width:1px;"/>
    </g>
    <g transform="matrix(0.974575,0,0,0.971421,-40.8338,144.179)">
        <path d="M84.568,103.424C88.287,105.759 91.964,107.454 95.522,107.366L93.215,116.154C92.384,117.945 92.291,119.38 93.962,119.953C97.859,121.289 94.77,126.361 95.613,127.63C96.2,128.671 85,127.943 85,127.943C82.415,127.929 81.318,125.993 81.114,123.906C80.943,122.152 82.54,119.608 83.246,117.462C85.219,111.814 82.052,108.893 84.568,103.424Z"/>
    </g>
    <g transform="matrix(-0.845053,0,0,0.971421,102.606,126.713)">
        <path d="M83.701,104.009C87.132,107.125 91.451,108.371 96.013,109.103L93.215,116.154C92.384,117.945 92.291,119.38 93.962,119.953C97.859,121.289 97.106,126.299 95.613,127.63C94.119,128.962 85,127.943 85,127.943C82.415,127.929 81.318,125.993 81.114,123.906C80.943,122.152 82.54,119.608 83.246,117.462C85.219,111.814 81.185,109.478 83.701,104.009Z"/>
    </g>
    <g transform="matrix(-0.739304,-0.634998,0.632941,-0.736911,98.0925,268.295)">
        <path d="M100.712,35.692C98.419,33.673 96.69,34.204 95.175,35.606C95.081,35.662 94.962,35.71 94.91,35.815C93.472,38.727 95.485,42.805 96.503,50.71C97.059,54.012 104.913,57.25 113.144,61.623C116.006,62.726 119.005,65.452 121.426,64.535C124.286,61.128 126.024,58.117 123.76,56.512C121.062,54.959 118.895,55.592 115.758,55.414L110.839,53.733C107.256,51.994 102.79,50.53 101.61,48.043C101.392,42.185 101.386,35.848 100.712,35.692Z" style="fill:white;stroke:rgb(226,226,226);stroke-width:1px;"/>
    </g>
    <g transform="matrix(0.521114,-0.655007,-0.763783,-0.607655,6.62856,291.564)">
        <path d="M101.61,48.043C100.732,46.434 94.955,46.216 96.503,50.71C97.059,54.012 104.913,57.25 113.144,61.623C116.006,62.726 119.005,65.452 121.426,64.535C124.286,61.128 126.024,58.117 123.76,56.512C121.062,54.959 118.895,55.592 115.758,55.414L110.839,53.733C107.256,51.994 102.79,50.53 101.61,48.043Z" style="fill:white;stroke:rgb(226,226,226);stroke-width:1px;"/>
    </g>
    <g transform="matrix(0.571234,-0.64837,-0.615457,-0.542236,-4.81399,289.911)">
        <path d="M123.76,56.512C121.485,55.142 111.898,51.921 105.713,48.25C102.06,46.08 94.993,47.409 96.503,50.71C97.059,54.012 104.913,57.25 113.144,61.623C116.006,62.726 119.005,65.452 121.426,64.535C124.286,61.128 126.024,58.117 123.76,56.512Z" style="fill:white;stroke:rgb(226,226,226);stroke-width:1px;"/>
    </g>
    <g transform="matrix(0.974575,0,0,0.971421,-62.1959,141.903)">
        <path d="M108.199,37.947C105.122,35.135 101.869,33.942 98.528,33.567C97.24,33.689 89.204,35.362 87.97,36.233C89.842,37.324 91.201,40.387 92.885,45.919C93.38,47.545 94.389,49.295 94.572,50.913C94.706,52.099 94.169,60.233 93.235,60.973C88.079,65.056 86.589,80.843 86.589,80.843C93.197,76.433 98.477,81.15 104.115,82.944C107.866,84.138 113.102,86.099 119.374,89.336C118.313,82.304 117.571,71.108 113.209,63.648C111.723,61.107 111.508,51.913 111.508,51.913C111.374,48.997 115.37,41.608 117.007,39.521C116.096,35.644 109.821,39.878 108.199,37.947Z" style="fill:rgb(225,223,234);stroke:rgb(198,195,210);stroke-width:1px;"/>
    </g>
    <g transform="matrix(0.819737,0,0,0.795777,-45.6398,138.557)">
        <path d="M114.026,77.073L112.248,77.071L112.072,49.156L110.644,49.149L110.774,77.106L109.046,77.125L108.782,49.159L107.365,49.151L107.541,77.105L105.855,77.133L105.8,49.281L104.369,49.252L104.57,77.148L102.655,77.178L102.641,49.221L101.218,49.215L101.237,77.228L99.551,77.237L99.492,49.194L98.17,49.203L98.127,77.248L96.486,77.23L96.579,49.159L95.19,49.137L95.079,77.293L93.36,77.313L93.496,49.146L92.096,49.113L91.994,77.338L90.328,77.42C90.328,77.42 90.856,55.74 90.36,49.163C89.884,42.864 88.599,41.083 88.315,37.542C87.893,32.275 88.489,25.787 89.402,22.378C90.165,19.529 92.248,15.567 95.036,13.501C98.537,10.907 106.86,10.915 110.397,13.725C113.075,15.854 115.203,18.891 115.981,22.222C116.948,26.36 116.713,32.869 116.428,37.55C116.188,41.506 114.525,45.865 114.359,49.496C114.081,55.577 114.026,77.073 114.026,77.073Z" style="fill:white;stroke:rgb(226,226,226);stroke-width:1px;"/>
    </g>
    <g transform="matrix(1.12887,0,0,1.12522,-3.02665,305.56)">
        <path d="M116.919,28.904L112.396,54.17L103.964,54.03L109.239,30.909L116.919,28.904Z" style="fill:white;stroke:rgb(226,226,226);stroke-width:1px;"/>
    </g>
    <g transform="matrix(1.10927,-0.209472,0.208794,1.10567,-15.6808,310.733)">
        <path d="M100.712,35.692C98.419,33.673 96.69,34.204 95.175,35.606C95.081,35.662 94.962,35.71 94.91,35.815C93.472,38.727 94.157,45.494 95.175,53.399C95.731,56.701 105.091,59.064 113.322,63.437C116.184,64.54 119.005,65.452 121.426,64.535C124.286,61.128 126.024,58.117 123.76,56.512C121.062,54.959 118.895,55.592 115.758,55.414L110.839,53.733C107.256,51.994 102.79,50.53 101.61,48.043C101.392,42.185 101.386,35.848 100.712,35.692Z" style="fill:white;stroke:rgb(226,226,226);stroke-width:1px;"/>
    </g>
    <g transform="matrix(0.771748,0.761695,-0.761695,0.771748,55.6791,226.997)">
        <path d="M118.56,31.948L112.069,43.052L104.597,39.94L109.239,30.909L118.56,31.948Z" style="fill:white;stroke:rgb(226,226,226);stroke-width:1px;"/>
    </g>
    <g transform="matrix(0.0839248,1.12575,-1.1221,0.083653,143.968,231.485)">
        <path d="M91.181,70.405C92.795,72.813 91.5,85.527 91.181,86.788C91.122,87.024 88.305,99.356 86.33,104.506L92.229,109.512C96.151,102.372 99.481,94.404 101.658,84.828C102.137,79.906 102.245,76.843 101.361,74.425L91.181,70.405Z" style="fill:white;stroke:rgb(226,226,226);stroke-width:1px;"/>
    </g>
    <g transform="matrix(0.0457938,1.12794,-1.12429,0.0456454,158.793,216.295)">
        <path d="M108.985,73.345L116.578,68.406C118.975,72.657 122.331,77.891 124.386,88.224C124.745,94.188 120.525,103.372 119.458,108.184L112.156,106.546C112.886,101.8 115.57,95.597 115.579,89.574C114.91,83.341 111.083,78.42 108.985,73.345Z" style="fill:white;stroke:rgb(226,226,226);stroke-width:1px;"/>
    </g>
    <g transform="matrix(-0.714592,0.873905,-0.871075,-0.712278,210.266,316.109)">
        <path d="M110.881,105.285C114.847,105.731 116.164,104.274 120.056,104.146C121.342,106.695 123.295,110.735 123.537,114.249C123.616,117.089 127.563,118.087 132.518,118.864C134.583,119.135 136.458,120.025 137.708,122.762C137.995,124.031 137.881,125.285 137.458,126.527C133.709,127.974 117.852,127.697 116.743,125.093C117.409,126.227 111.086,108.574 110.881,105.285Z"/>
    </g>
    <g transform="matrix(-0.655473,0.91908,-0.916103,-0.65335,217.618,314.371)">
        <path d="M110.881,105.285C114.847,105.731 116.164,104.274 120.056,104.146C121.342,106.695 123.811,110.311 124.053,113.825C124.132,116.665 127.563,118.087 132.518,118.864C134.583,119.135 136.458,120.025 137.708,122.762C137.995,124.031 137.881,125.285 137.458,126.527C133.709,127.974 117.852,127.697 116.743,125.093C116.743,125.093 110.331,107.289 110.881,105.285Z"/>
    </g>
    <g transform="matrix(0.828707,0,0,0.893764,82.1493,311.414)">
        <ellipse cx="51.474" cy="23.304" rx="13.261" ry="11.85" style="fill:white;stroke:rgb(226,226,226);stroke-width:1.31px;"/>
    </g>
    <g transform="matrix(0.939822,0,0,0.955547,54.7357,322.534)">
        <rect x="78.991" y="7.239" width="3.709" height="6.829" style="fill:rgb(28,28,28);stroke:rgb(194,51,113);stroke-width:1.19px;"/>
    </g>
    <g transform="matrix(0.47718,0,0,0.955547,96.6382,322.534)">
        <rect x="78.991" y="7.239" width="3.709" height="6.829" style="fill:rgb(28,28,28);stroke:rgb(194,51,113);stroke-width:1.49px;"/>
    </g>
    <g transform="matrix(0.0486767,1.12782,-1.12417,0.048519,147.525,225.031)">
        <path d="M108.199,37.947C105.122,35.135 102.406,36.575 99.065,36.2C97.777,36.322 98.746,37.724 97.512,38.595C95.11,42.215 96.608,47.661 97.024,50.913C97.184,52.164 97.889,56.242 97.328,57.372C95.726,60.599 89.375,69.005 87.411,70.275C90.624,79.316 113.858,82.011 120.055,71.718C120.055,71.718 109.671,57.98 108.331,53.796C107.538,51.321 112.223,49.205 112.015,46.614C111.801,43.94 109.821,39.878 108.199,37.947Z" style="fill:rgb(225,223,234);stroke:rgb(198,195,210);stroke-width:1px;"/>
    </g>
    <g transform="matrix(1.12887,0,0,1.12522,-0.746101,305.568)">
        <path d="M121.567,19.828L114.246,19.828C112.275,19.774 112.461,22.385 112.37,24.813L106.675,56.316L102.623,56.269L107.397,30.363L102.64,56.366L97.895,56.164L104.116,20.867L102.191,32.449C27.877,25.012 99.353,23.999 84.517,21.369C77.556,20.135 69.553,19.373 61.611,19.642C59.219,19.723 84.058,17.697 82.035,16.905C69.449,11.982 58.244,12.75 54.862,12.604C55.506,9.985 91.399,14.168 97.05,11.988C100.635,10.606 111.67,10.605 114.443,11.615C116.381,12.321 117.776,13.379 119.643,15.452C120.721,16.649 121.434,18.509 121.567,19.828Z" style="fill:white;stroke:rgb(226,226,226);stroke-width:1px;"/>
    </g>
    <g transform="matrix(1.04351,-0.430636,0.429242,1.04013,-12.2464,343.643)">
        <path d="M100.712,35.692C98.419,33.673 96.69,34.204 95.175,35.606C95.081,35.662 94.962,35.71 94.91,35.815C93.472,38.727 94.157,45.494 95.175,53.399C95.731,56.701 105.091,59.064 113.322,63.437C116.184,64.54 119.005,65.452 121.426,64.535C124.286,61.128 126.024,58.117 123.76,56.512C121.062,54.959 118.895,55.592 115.758,55.414L110.839,53.733C107.256,51.994 102.79,50.53 101.61,48.043C101.392,42.185 101.386,35.848 100.712,35.692Z" style="fill:white;stroke:rgb(226,226,226);stroke-width:1px;"/>
    </g>
    <g transform="matrix(1.12735,-0.05877,0.0585797,1.12369,-6.06651,303.748)">
        <path d="M93.701,35.775C95.37,32.609 99.535,32.396 101.491,34.429C102.3,35.27 103.252,35.898 102.669,39.64C99.347,34.381 96.024,35.066 92.708,39.89C92.822,38.334 92.873,37.365 93.701,35.775Z" style="fill:rgb(225,223,234);stroke:rgb(198,195,210);stroke-width:1px;"/>
    </g>
    <g transform="matrix(1.09063,0,0,1.0871,-3.20374,583.58)">
        <path d="M116.919,28.904L113.667,46.605L105.235,46.464L109.239,30.909L116.919,28.904Z" style="fill:white;stroke:rgb(226,226,226);stroke-width:1px;"/>
    </g>
    <g transform="matrix(0.7456,0.735887,-0.735887,0.7456,53.5129,507.68)">
        <path d="M118.56,31.948L112.069,43.052L104.597,39.94L109.239,30.909L118.56,31.948Z" style="fill:white;stroke:rgb(226,226,226);stroke-width:1px;"/>
    </g>
    <g transform="matrix(-0.00627259,1.09061,-1.08707,-0.00625227,166.465,524.243)">
        <path d="M91.181,70.405C92.795,72.813 91.5,85.527 91.181,86.788C91.122,87.024 88.305,99.356 86.33,104.506L92.229,109.512C96.151,102.372 99.481,94.404 101.658,84.828C102.137,79.906 102.245,76.843 101.361,74.425L91.181,70.405Z" style="fill:white;stroke:rgb(226,226,226);stroke-width:1px;"/>
    </g>
    <g transform="matrix(-0.0431632,1.08977,-1.08624,-0.0430233,162.264,502.441)">
        <path d="M108.985,73.345L116.578,68.406C118.975,72.657 121.21,79.78 123.265,90.113C123.624,96.077 121.313,106.459 120.246,111.271L112.156,106.546C112.886,101.8 114.312,95.739 114.321,89.716C113.652,83.483 111.083,78.42 108.985,73.345Z" style="fill:white;stroke:rgb(226,226,226);stroke-width:1px;"/>
    </g>
    <g transform="matrix(-0.755773,0.7863,-0.783753,-0.753325,223.764,610.867)">
        <path d="M110.881,105.285C114.847,105.731 116.164,104.274 120.056,104.146C121.342,106.695 123.295,110.735 123.537,114.249C123.616,117.089 127.563,118.087 132.518,118.864C134.583,119.135 136.458,120.025 137.708,122.762C137.995,124.031 137.881,125.285 137.458,126.527C133.709,127.974 117.852,127.697 116.743,125.093C117.409,126.227 111.086,108.574 110.881,105.285Z" style="stroke:rgb(54,54,54);stroke-width:1px;"/>
    </g>
    <g transform="matrix(-0.702335,0.834378,-0.831675,-0.70006,209.3,601.96)">
        <path d="M110.881,105.285C114.847,105.731 116.164,104.274 120.056,104.146C121.342,106.695 123.811,110.311 124.053,113.825C124.132,116.665 127.563,118.087 132.518,118.864C134.583,119.135 136.458,120.025 137.708,122.762C137.995,124.031 137.881,125.285 137.458,126.527C133.709,127.974 117.852,127.697 116.743,125.093C116.743,125.093 110.331,107.289 110.881,105.285Z" style="stroke:rgb(54,54,54);stroke-width:1px;"/>
    </g>
    <g transform="matrix(0.82732,0,0,0.892268,79.9567,587.59)">
        <ellipse cx="51.474" cy="23.304" rx="13.261" ry="11.85" style="fill:white;stroke:rgb(226,226,226);stroke-width:1.31px;"/>
    </g>
    <g transform="matrix(0.938249,0,0,0.953947,52.589,598.691)">
        <rect x="78.991" y="7.239" width="3.709" height="6.829" style="fill:rgb(28,28,28);stroke:rgb(194,51,113);stroke-width:1.19px;"/>
    </g>
    <g transform="matrix(0.476382,0,0,0.953947,94.4214,598.691)">
        <rect x="78.991" y="7.239" width="3.709" height="6.829" style="fill:rgb(28,28,28);stroke:rgb(194,51,113);stroke-width:1.49px;"/>
    </g>
    <g transform="matrix(1.00815,-0.416046,0.414698,1.00488,-12.726,615.563)">
        <path d="M100.712,35.692C98.419,33.673 96.69,34.204 95.175,35.606C95.081,35.662 94.962,35.71 94.91,35.815C93.472,38.727 94.157,45.494 95.175,53.399C95.731,56.701 105.091,59.064 113.322,63.437C116.184,64.54 119.005,65.452 121.426,64.535C124.286,61.128 126.024,58.117 123.76,56.512C121.062,54.959 118.895,55.592 115.758,55.414L110.839,53.733C107.256,51.994 102.79,50.53 101.61,48.043C101.392,42.185 101.386,35.848 100.712,35.692Z" style="fill:white;stroke:rgb(226,226,226);stroke-width:1px;"/>
    </g>
    <g transform="matrix(0.0470274,1.08961,-1.08608,0.0468751,142.246,505.78)">
        <path d="M108.199,37.947C105.122,35.135 102.406,36.575 99.065,36.2C97.777,36.322 98.746,37.724 97.512,38.595C95.11,42.215 96.608,47.661 97.024,50.913C97.184,52.164 97.889,56.242 97.328,57.372C95.726,60.599 89.196,73.158 87.232,74.428C90.445,83.469 105.983,77.204 112.18,66.911C112.18,66.911 109.671,57.98 108.331,53.796C107.538,51.321 112.223,49.205 112.015,46.614C111.801,43.94 109.821,39.878 108.199,37.947Z" style="fill:rgb(225,223,234);stroke:rgb(198,195,210);stroke-width:1px;"/>
    </g>
    <g transform="matrix(1.23935,0,0,1.23534,140.557,300.437)">
        <path d="M116.919,28.904L111.374,54.17L102.943,54.03L109.239,30.909L116.919,28.904Z" style="fill:white;stroke:rgb(226,226,226);stroke-width:1px;"/>
    </g>
    <g transform="matrix(0.847276,0.836238,-0.836238,0.847276,205.008,214.187)">
        <path d="M118.56,31.948L112.069,43.052L104.597,39.94L109.239,30.909L118.56,31.948Z" style="fill:white;stroke:rgb(226,226,226);stroke-width:1px;"/>
    </g>
    <g transform="matrix(0.0857444,1.15016,-1.14643,0.0854667,296.582,228.23)">
        <path d="M91.181,70.405C92.795,72.813 91.5,85.527 91.181,86.788C91.122,87.024 88.305,99.356 86.33,104.506L92.229,109.512C96.151,102.372 99.481,94.404 101.658,84.828C102.137,79.906 102.245,76.843 101.361,74.425L91.181,70.405Z" style="fill:white;stroke:rgb(226,226,226);stroke-width:1px;"/>
    </g>
    <g transform="matrix(0.0467866,1.1524,-1.14866,0.0466351,311.729,212.709)">
        <path d="M108.985,73.345L116.578,68.406C118.975,72.657 121.21,79.78 123.265,90.113C123.624,96.077 119.223,106.223 118.156,111.035L110.582,106.482C111.312,101.736 114.312,95.739 114.321,89.716C113.652,83.483 111.083,78.42 108.985,73.345Z" style="fill:white;stroke:rgb(226,226,226);stroke-width:1px;"/>
    </g>
    <g transform="matrix(-0.730086,0.892853,-0.889961,-0.727721,364.318,314.688)">
        <path d="M110.881,105.285C114.847,105.731 116.164,104.274 120.056,104.146C121.342,106.695 123.295,110.735 123.537,114.249C123.616,117.089 127.563,118.087 132.518,118.864C134.583,119.135 136.458,120.025 137.708,122.762C137.995,124.031 137.881,125.285 137.458,126.527C133.709,127.974 117.852,127.697 116.743,125.093C117.409,126.227 111.086,108.574 110.881,105.285Z"/>
    </g>
    <g transform="matrix(-0.669685,0.939007,-0.935966,-0.667516,369.764,311.025)">
        <path d="M110.881,105.285C114.847,105.731 116.164,104.274 120.056,104.146C121.342,106.695 123.811,110.311 124.053,113.825C124.132,116.665 127.563,118.087 132.518,118.864C134.583,119.135 136.458,120.025 137.708,122.762C137.995,124.031 137.881,125.285 137.458,126.527C133.709,127.974 117.852,127.697 116.743,125.093C116.743,125.093 110.331,107.289 110.881,105.285Z"/>
    </g>
    <g transform="matrix(0.909809,0,0,0.981232,234.069,306.865)">
        <ellipse cx="51.474" cy="23.304" rx="13.261" ry="11.85" style="fill:white;stroke:rgb(226,226,226);stroke-width:1.31px;"/>
    </g>
    <g transform="matrix(1.0318,0,0,1.04906,203.973,319.072)">
        <rect x="78.991" y="7.239" width="3.709" height="6.829" style="fill:rgb(28,28,28);stroke:rgb(194,51,113);stroke-width:1.19px;"/>
    </g>
    <g transform="matrix(0.52388,0,0,1.04906,249.976,319.072)">
        <rect x="78.991" y="7.239" width="3.709" height="6.829" style="fill:rgb(28,28,28);stroke:rgb(194,51,113);stroke-width:1.49px;"/>
    </g>
    <g transform="matrix(1.06613,-0.439973,0.438549,1.06268,137.909,338.123)">
        <path d="M100.712,35.692C98.419,33.673 96.69,34.204 95.175,35.606C95.081,35.662 94.962,35.71 94.91,35.815C93.472,38.727 94.157,45.494 95.175,53.399C95.731,56.701 105.091,59.064 113.322,63.437C116.184,64.54 119.005,65.452 121.426,64.535C124.286,61.128 126.024,58.117 123.76,56.512C121.062,54.959 118.895,55.592 115.758,55.414L110.839,53.733C107.256,51.994 102.79,50.53 101.61,48.043C101.392,42.185 101.386,35.848 100.712,35.692Z" style="fill:white;stroke:rgb(226,226,226);stroke-width:1px;"/>
    </g>
    <g transform="matrix(0.0542431,1.2568,-1.17937,0.0509016,300.803,209.356)">
        <path d="M108.199,37.947C105.122,35.135 102.406,36.575 99.065,36.2C97.777,36.322 98.746,37.724 97.512,38.595C95.11,42.215 96.608,47.661 97.024,50.913C97.184,52.164 97.889,56.242 97.328,57.372C95.726,60.599 94.05,69.869 92.086,71.139C95.299,80.18 110.832,84.108 117.029,73.815C117.029,73.815 109.671,57.98 108.331,53.796C107.538,51.321 112.223,49.205 112.015,46.614C111.801,43.94 109.821,39.878 108.199,37.947Z" style="fill:rgb(225,223,234);stroke:rgb(198,195,210);stroke-width:1px;"/>
    </g>
    <g transform="matrix(1.23935,0,0,1.23534,143.061,300.445)">
        <path d="M121.567,19.828L114.246,19.828C112.275,19.774 112.461,22.385 112.37,24.813L104.984,55.584L100.932,55.537L104.405,40.897L100.949,55.634L96.204,55.432L104.116,20.867L101.232,32.69C53.528,21.597 109.776,22.568 84.517,21.369C77.455,21.034 78.084,20.681 70.143,20.95C67.751,21.031 84.058,17.697 82.035,16.905C69.449,11.982 62.718,9.789 59.336,9.643C59.98,7.024 91.399,14.168 97.05,11.988C100.635,10.606 111.67,10.605 114.443,11.615C116.381,12.321 117.776,13.379 119.643,15.452C120.721,16.649 121.434,18.509 121.567,19.828Z" style="fill:white;stroke:rgb(226,226,226);stroke-width:1px;"/>
    </g>
    <g transform="matrix(1.06613,-0.439973,0.438549,1.06268,126.36,344.804)">
        <path d="M110.247,42.244C107.954,40.225 105.267,36.748 103.752,38.15C103.658,38.206 93.917,41.194 94.935,49.099C95.491,52.401 102.968,61.864 113.322,63.437C116.184,64.54 119.005,65.452 121.426,64.535C124.286,61.128 126.024,58.117 123.76,56.512C121.062,54.959 118.895,55.592 115.758,55.414L110.274,55.107C108.58,54.286 102.965,52.206 102.883,49.006C102.792,45.435 111.985,43.774 110.247,42.244Z" style="fill:white;stroke:rgb(226,226,226);stroke-width:1px;"/>
    </g>
    <g transform="matrix(0.957241,0.787196,-0.784646,0.954141,195.691,228.527)">
        <path d="M93.701,35.775C95.37,32.609 99.535,32.396 101.491,34.429C102.3,35.27 103.252,35.898 102.669,39.64C99.347,34.381 96.024,35.066 92.708,39.89C92.822,38.334 92.873,37.365 93.701,35.775Z" style="fill:rgb(225,223,234);stroke:rgb(198,195,210);stroke-width:1px;"/>
    </g>
    <g transform="matrix(1.06206,0,0,1.05862,-4.55723,486.856)">
        <path d="M116.919,28.904L107.631,51.324L99.199,51.184L109.239,30.909L116.919,28.904Z" style="fill:white;stroke:rgb(226,226,226);stroke-width:1px;"/>
    </g>
    <g transform="matrix(0.758323,0.748444,-0.748444,0.758323,51.2198,410.708)">
        <path d="M118.56,31.948L112.069,43.052L104.597,39.94L109.239,30.909L118.56,31.948Z" style="fill:white;stroke:rgb(226,226,226);stroke-width:1px;"/>
    </g>
    <g transform="matrix(0.0789575,1.05912,-1.05568,0.0787018,134.513,420.6)">
        <path d="M91.181,70.405C92.795,72.813 91.5,85.527 91.181,86.788C91.122,87.024 88.305,99.356 86.33,104.506L92.229,109.512C96.151,102.372 99.481,94.404 101.658,84.828C102.137,79.906 102.245,76.843 101.361,74.425L91.181,70.405Z" style="fill:white;stroke:rgb(226,226,226);stroke-width:1px;"/>
    </g>
    <g transform="matrix(0.0430834,1.06118,-1.05774,0.0429438,148.461,406.309)">
        <path d="M108.985,73.345L116.578,68.406C118.975,72.657 121.21,79.78 123.265,90.113C123.624,96.077 122.943,101.201 121.876,106.013L112.156,106.546C112.886,101.8 114.312,95.739 114.321,89.716C113.652,83.483 111.083,78.42 108.985,73.345Z" style="fill:white;stroke:rgb(226,226,226);stroke-width:1px;"/>
    </g>
    <g transform="matrix(-0.672297,0.822181,-0.819519,-0.67012,196.887,500.216)">
        <path d="M110.881,105.285C114.847,105.731 116.164,104.274 120.056,104.146C121.342,106.695 123.295,110.735 123.537,114.249C123.616,117.089 127.563,118.087 132.518,118.864C134.583,119.135 136.458,120.025 137.708,122.762C137.995,124.031 137.881,125.285 137.458,126.527C133.709,127.974 117.852,127.697 116.743,125.093C117.409,126.227 111.086,108.574 110.881,105.285Z" style="stroke:rgb(54,54,54);stroke-width:1px;"/>
    </g>
    <g transform="matrix(-0.616678,0.864682,-0.861881,-0.61468,209.5,500.219)">
        <path d="M110.881,105.285C114.847,105.731 116.164,104.274 120.056,104.146C121.342,106.695 123.811,110.311 124.053,113.825C124.132,116.665 127.563,118.087 132.518,118.864C134.583,119.135 136.458,120.025 137.708,122.762C137.995,124.031 137.881,125.285 137.458,126.527C133.709,127.974 117.852,127.697 116.743,125.093C116.743,125.093 110.331,107.289 110.881,105.285Z" style="stroke:rgb(54,54,54);stroke-width:1px;"/>
    </g>
    <g transform="matrix(0.981744,-0.405148,0.403836,0.978564,-1.65692,521.002)">
        <path d="M100.712,35.692C98.419,33.673 96.69,34.204 95.175,35.606C95.081,35.662 94.962,35.71 94.91,35.815C93.472,38.727 94.157,45.494 95.175,53.399C95.731,56.701 105.091,59.064 113.322,63.437C116.184,64.54 119.005,65.452 121.426,64.535C124.286,61.128 126.024,58.117 123.76,56.512C121.062,54.959 118.895,55.592 115.758,55.414L110.839,53.733C107.256,51.994 102.79,50.53 101.61,48.043C101.392,42.185 101.386,35.848 100.712,35.692Z" style="fill:white;stroke:rgb(226,226,226);stroke-width:1px;"/>
    </g>
    <g transform="matrix(0.814291,0,0,0.878216,77.2295,493.656)">
        <ellipse cx="51.474" cy="23.304" rx="13.261" ry="11.85" style="fill:white;stroke:rgb(226,226,226);stroke-width:1.31px;"/>
    </g>
    <g transform="matrix(0.923472,0,0,0.938924,50.2928,504.583)">
        <rect x="78.991" y="7.239" width="3.709" height="6.829" style="fill:rgb(28,28,28);stroke:rgb(194,51,113);stroke-width:1.19px;"/>
    </g>
    <g transform="matrix(0.468879,0,0,0.938924,91.4664,504.583)">
        <rect x="78.991" y="7.239" width="3.709" height="6.829" style="fill:rgb(28,28,28);stroke:rgb(194,51,113);stroke-width:1.49px;"/>
    </g>
    <g transform="matrix(0.0484615,1.12284,-1.1192,0.0483045,139.779,407.339)">
        <path d="M108.199,37.947C105.122,35.135 102.406,36.575 99.065,36.2C97.777,36.322 98.746,37.724 97.512,38.595C95.11,42.215 96.608,47.661 97.024,50.913C97.184,52.164 97.889,56.242 97.328,57.372C95.726,60.599 89.375,69.005 87.411,70.275C90.624,79.316 108.641,82.868 114.838,72.575C114.838,72.575 109.671,57.98 108.331,53.796C107.538,51.321 112.223,49.205 112.015,46.614C111.801,43.94 109.821,39.878 108.199,37.947Z" style="fill:rgb(225,223,234);stroke:rgb(198,195,210);stroke-width:1px;"/>
    </g>
    <g transform="matrix(1.10924,0,0,1.10565,-4.22381,487.881)">
        <path d="M121.567,19.828L114.246,19.828C112.275,19.774 112.461,22.385 112.37,24.813L101.664,50.726L97.612,50.679L106.348,28.454L97.629,50.776L92.884,50.574L104.116,20.867L100.508,29.772C36.459,25.399 99.322,20.864 84.517,21.369C77.452,21.61 67.341,17.625 59.399,17.894C57.007,17.975 84.058,17.697 82.035,16.905C69.449,11.982 58.244,12.75 54.862,12.604C55.506,9.985 91.399,14.168 97.05,11.988C100.635,10.606 111.67,10.605 114.443,11.615C116.381,12.321 117.776,13.379 119.643,15.452C120.721,16.649 121.434,18.509 121.567,19.828Z" style="fill:white;stroke:rgb(226,226,226);stroke-width:1px;"/>
    </g>
    <g transform="matrix(1.12699,0,0,1.12334,-2.79991,581.581)">
        <path d="M121.567,19.828L114.246,19.828C112.275,19.774 112.461,22.385 112.37,24.813L105.461,50.726L101.409,50.679L106.348,28.454L101.426,50.776L96.681,50.574L104.116,20.867L102.156,29.772C66.706,25.251 91.116,21.496 84.517,21.369C77.449,21.233 67.842,16.558 59.9,16.827C57.508,16.908 84.058,17.697 82.035,16.905C69.449,11.982 52.873,8.764 49.491,8.618C50.135,5.999 88.259,10.985 97.05,11.988C100.866,12.423 111.67,10.605 114.443,11.615C116.381,12.321 117.776,13.379 119.643,15.452C120.721,16.649 121.434,18.509 121.567,19.828Z" style="fill:white;stroke:rgb(226,226,226);stroke-width:1px;"/>
    </g>
    <g transform="matrix(1.06171,-0.0270452,0.0269576,1.05827,-5.52415,488.414)">
        <path d="M101.411,34.475C99.118,32.456 95.296,33.247 93.781,34.649C93.687,34.705 94.157,45.494 95.175,53.399C95.731,56.701 106.39,57.235 115.208,58.191C118.07,59.294 120.891,60.206 123.312,59.289C126.172,55.882 127.91,52.871 125.646,51.266C122.948,49.713 120.781,50.346 117.644,50.168L111.047,50.433C106.926,50.156 102.79,50.53 101.61,48.043C101.392,42.185 102.085,34.631 101.411,34.475Z" style="fill:white;stroke:rgb(226,226,226);stroke-width:1px;"/>
    </g>
    <g transform="matrix(0.96212,-0.513599,0.511936,0.959005,-11.9,633.327)">
        <path d="M102.766,37.077C100.473,35.058 96.69,34.204 95.175,35.606C95.081,35.662 94.962,35.71 94.91,35.815C93.472,38.727 94.859,46.571 98.015,53.592C105.699,59.049 111.793,62.178 120.024,66.551C122.886,67.654 125.707,68.566 128.128,67.649C130.988,64.242 132.726,61.231 130.462,59.626C127.764,58.073 125.597,58.706 122.46,58.528L117.541,56.847C113.958,55.108 105.63,50.723 104.45,48.236C102.083,43.248 103.44,37.233 102.766,37.077Z" style="fill:white;stroke:rgb(226,226,226);stroke-width:1px;"/>
    </g>
    <g transform="matrix(1.12546,-0.0586716,0.0584816,1.12181,-8.11141,580.96)">
        <path d="M93.701,35.775C95.37,32.609 99.535,32.396 101.491,34.429C102.3,35.27 103.252,35.898 102.669,39.64C99.347,34.381 96.024,35.066 92.708,39.89C92.822,38.334 92.873,37.365 93.701,35.775Z" style="fill:rgb(225,223,234);stroke:rgb(198,195,210);stroke-width:1px;"/>
    </g>
    <g transform="matrix(1.10773,-0.0577476,0.0575606,1.10414,-9.45166,486.124)">
        <path d="M93.701,35.775C95.37,32.609 99.535,32.396 101.491,34.429C102.3,35.27 103.252,35.898 102.669,39.64C99.347,34.381 96.024,35.066 92.708,39.89C92.822,38.334 92.873,37.365 93.701,35.775Z" style="fill:rgb(225,223,234);stroke:rgb(198,195,210);stroke-width:1px;"/>
    </g>
    <g transform="matrix(0.0822821,1.10372,-1.10013,0.0820156,150.427,327.906)">
        <path d="M91.181,70.405C92.795,72.813 91.5,85.527 91.181,86.788C91.122,87.024 88.305,99.356 86.33,104.506L92.229,109.512C96.151,102.372 99.481,94.404 101.658,84.828C102.137,79.906 102.245,76.843 101.361,74.425L91.181,70.405Z" style="fill:white;stroke:rgb(226,226,226);stroke-width:1px;"/>
    </g>
    <g transform="matrix(-0.700605,0.8568,-0.854025,-0.698336,215.427,410.874)">
        <path d="M110.881,105.285C114.847,105.731 116.164,104.274 120.056,104.146C121.342,106.695 123.295,110.735 123.537,114.249C123.616,117.089 127.563,118.087 132.518,118.864C134.583,119.135 136.458,120.025 137.708,122.762C137.995,124.031 137.881,125.285 137.458,126.527C133.709,127.974 117.852,127.697 116.743,125.093C117.409,126.227 111.086,108.574 110.881,105.285Z" style="stroke:rgb(54,54,54);stroke-width:1px;"/>
    </g>
    <g transform="matrix(0.0448974,1.10586,-1.10228,0.044752,153.226,310.831)">
        <path d="M108.985,73.345L116.578,68.406C118.975,72.657 121.21,79.78 123.265,90.113C123.624,96.077 119.985,110.127 118.918,114.939L109.198,115.472C109.928,110.726 114.312,95.739 114.321,89.716C113.652,83.483 111.083,78.42 108.985,73.345Z" style="fill:white;stroke:rgb(226,226,226);stroke-width:1px;"/>
    </g>
    <g transform="matrix(-0.642644,0.90109,-0.898172,-0.640562,203.946,406.111)">
        <path d="M110.881,105.285C114.847,105.731 116.164,104.274 120.056,104.146C121.342,106.695 123.811,110.311 124.053,113.825C124.132,116.665 127.563,118.087 132.518,118.864C134.583,119.135 136.458,120.025 137.708,122.762C137.995,124.031 137.881,125.285 137.458,126.527C133.709,127.974 117.852,127.697 116.743,125.093C116.743,125.093 110.331,107.289 110.881,105.285Z" style="stroke:rgb(54,54,54);stroke-width:1px;"/>
    </g>
    <g transform="matrix(1.10678,0,0,1.1032,-5.42609,398.349)">
        <path d="M116.919,28.904L105.722,45.792L97.291,45.652L109.239,30.909L116.919,28.904Z" style="fill:white;stroke:rgb(226,226,226);stroke-width:1px;"/>
    </g>
    <g transform="matrix(1.02986,-0.405386,0.404073,1.02653,-8.66323,430.936)">
        <path d="M100.712,35.692C98.419,33.673 96.69,34.204 95.175,35.606C95.081,35.662 94.962,35.71 94.91,35.815C93.472,38.727 94.157,45.494 95.175,53.399C95.731,56.701 107.853,56.374 116.084,60.747C118.946,61.85 121.767,62.762 124.188,61.845C127.048,58.438 128.786,55.427 126.522,53.822C123.824,52.269 121.657,52.902 118.52,52.724L110.883,51.323C107.3,49.584 102.887,49.122 101.707,46.635C101.489,40.777 101.386,35.848 100.712,35.692Z" style="fill:white;stroke:rgb(226,226,226);stroke-width:1px;"/>
    </g>
    <g transform="matrix(0.812486,0,0,0.87627,78.0827,404.09)">
        <ellipse cx="51.474" cy="23.304" rx="13.261" ry="11.85" style="fill:white;stroke:rgb(226,226,226);stroke-width:1.31px;"/>
    </g>
    <g transform="matrix(0.921426,0,0,0.936843,51.2056,414.991)">
        <rect x="78.991" y="7.239" width="3.709" height="6.829" style="fill:rgb(28,28,28);stroke:rgb(194,51,113);stroke-width:1.19px;"/>
    </g>
    <g transform="matrix(0.46784,0,0,0.936843,92.288,414.991)">
        <rect x="78.991" y="7.239" width="3.709" height="6.829" style="fill:rgb(28,28,28);stroke:rgb(194,51,113);stroke-width:1.49px;"/>
    </g>
    <g transform="matrix(0.0477239,1.10575,-1.10216,0.0475693,142.178,319.397)">
        <path d="M108.199,37.947C105.122,35.135 102.406,36.575 99.065,36.2C97.777,36.322 98.746,37.724 97.512,38.595C95.11,42.215 96.608,47.661 97.024,50.913C97.184,52.164 97.889,56.242 97.328,57.372C95.726,60.599 89.375,69.005 87.411,70.275C90.624,79.316 109.932,83.507 116.129,73.214C116.129,73.214 109.671,57.98 108.331,53.796C107.538,51.321 112.223,49.205 112.015,46.614C111.801,43.94 109.821,39.878 108.199,37.947Z" style="fill:rgb(225,223,234);stroke:rgb(198,195,210);stroke-width:1px;"/>
    </g>
    <g transform="matrix(1.10678,0,0,1.1032,-3.19018,398.357)">
        <path d="M121.567,19.828L114.246,19.828C112.275,19.774 112.461,22.385 112.37,24.813L95.615,50.475L91.563,50.428L105.067,28.582L91.58,50.525L86.835,50.323L104.116,20.867L97.712,31.636C38.218,24.654 106.389,25.848 86.165,23.053C79.162,22.085 58.049,16.047 50.107,16.316C47.715,16.397 84.11,17.548 82.035,16.905C38.985,3.568 75.905,15.948 102.775,10.492C106.727,9.689 117.702,11.098 119.643,15.452C120.299,16.923 121.434,18.509 121.567,19.828Z" style="fill:white;stroke:rgb(226,226,226);stroke-width:1px;"/>
    </g>
    <g transform="matrix(1.10303,-0.0910887,0.0907936,1.09945,-9.03091,400.253)">
        <path d="M100.712,35.692C98.419,33.673 96.69,34.204 95.175,35.606C95.081,35.662 94.962,35.71 94.91,35.815C93.472,38.727 94.157,45.494 95.175,53.399C95.731,56.701 107.853,56.374 116.084,60.747C118.946,61.85 121.767,62.762 124.188,61.845C127.048,58.438 128.786,55.427 126.522,53.822C123.824,52.269 121.657,52.902 118.52,52.724L110.883,51.323C107.3,49.584 102.887,49.122 101.707,46.635C101.489,40.777 101.386,35.848 100.712,35.692Z" style="fill:white;stroke:rgb(226,226,226);stroke-width:1px;"/>
    </g>
    <g transform="matrix(1.10528,-0.0576196,0.057433,1.1017,-8.40645,396.574)">
        <path d="M93.701,35.775C95.37,32.609 99.535,32.396 101.491,34.429C102.3,35.27 103.252,35.898 102.669,39.64C99.347,34.381 96.024,35.066 92.708,39.89C92.822,38.334 92.873,37.365 93.701,35.775Z" style="fill:rgb(225,223,234);stroke:rgb(198,195,210);stroke-width:1px;"/>
    </g>
    <g transform="matrix(1.04108,0,0,1.03771,227.832,170.393)">
        <path d="M116.919,28.904L117.492,57.058L108.949,54.583L109.239,30.909L116.919,28.904Z" style="fill:white;stroke:rgb(226,226,226);stroke-width:1px;"/>
    </g>
    <g transform="matrix(1,0,0,1,225.195,168.441)">
        <path d="M118.369,32.083L112.54,45.365L104.597,39.94L109.239,30.909L118.369,32.083Z" style="fill:white;stroke:rgb(226,226,226);stroke-width:1px;"/>
    </g>
    <g transform="matrix(0.770009,-0.700663,0.698394,0.767515,189.826,270.263)">
        <path d="M108.985,73.345C109.607,70.39 114.26,66.471 116.578,68.406C119.518,70.861 124.861,77.323 126.783,82.889C128.285,87.239 129.509,99.291 128.11,101.802C126.711,104.313 119.008,104.775 116.514,102.578C113.905,100.28 112.519,92.282 110.978,87.316C109.489,82.519 108.297,76.612 108.985,73.345Z" style="fill:white;stroke:rgb(226,226,226);stroke-width:1px;"/>
    </g>
    <g transform="matrix(-0.617755,0.837987,-0.835273,-0.615754,490.944,226.325)">
        <path d="M110.881,105.285C114.847,105.731 120.418,105.146 124.31,105.018C125.596,107.567 123.811,110.311 124.053,113.825C124.132,116.665 127.563,118.087 132.518,118.864C134.583,119.135 136.458,120.025 137.708,122.762C137.995,124.031 137.881,125.285 137.458,126.527C133.709,127.974 117.852,127.697 116.743,125.093C116.743,125.093 110.331,107.289 110.881,105.285Z"/>
    </g>
    <g transform="matrix(0.764257,0,0,0.824254,306.384,175.793)">
        <ellipse cx="51.474" cy="23.304" rx="13.261" ry="11.85" style="fill:white;stroke:rgb(226,226,226);stroke-width:1.31px;"/>
    </g>
    <g transform="matrix(0.86673,0,0,0.881232,281.102,186.047)">
        <rect x="78.991" y="7.239" width="3.709" height="6.829" style="fill:rgb(28,28,28);stroke:rgb(194,51,113);stroke-width:1.19px;"/>
    </g>
    <g transform="matrix(0.440069,0,0,0.881232,319.746,186.047)">
        <rect x="78.991" y="7.239" width="3.709" height="6.829" style="fill:rgb(28,28,28);stroke:rgb(194,51,113);stroke-width:1.49px;"/>
    </g>
    <g transform="matrix(1.04108,0,0,1.03771,224.058,170.746)">
        <path d="M108.199,37.947C105.122,35.135 101.869,33.942 98.528,33.567C97.24,33.689 95.988,34.309 94.754,35.18C92.352,38.8 92.97,43.973 97.024,50.913L97.253,54.691C95.993,56.355 90.543,66.451 88.579,67.721C92.425,77.87 115.152,78.525 120.773,67.224L109.485,53.99C109.351,51.074 110.378,48.701 112.015,46.614C111.104,42.737 109.821,39.878 108.199,37.947Z" style="fill:rgb(225,223,234);stroke:rgb(198,195,210);stroke-width:1px;"/>
    </g>
    <g transform="matrix(1.04108,0,0,1.03771,229.935,170.4)">
        <path d="M121.567,19.828L114.246,19.828C112.275,19.774 112.461,22.385 112.37,24.813L112.848,56.976L108.796,56.929L108.796,42.614L108.813,57.026L104.068,56.824L104.116,20.867L104.114,30.257C104.063,31.165 102.065,32.531 98.679,33.759L94.569,36.73C92.93,38.096 90.575,41.041 90.094,43.805C89.76,47.834 89.897,51.761 90.267,55.638C90.516,60.124 86.562,63.178 79.981,62.894C80.778,59.653 84.219,56.385 84.44,52.928C84.765,48.34 84.403,38.386 84.459,35.352C84.514,32.328 89.56,25.962 89.605,25.625C90.21,21.03 93.941,14.581 99.592,12.401C103.177,11.019 111.67,10.605 114.443,11.615C116.381,12.321 117.776,13.379 119.643,15.452C120.721,16.649 121.434,18.509 121.567,19.828Z" style="fill:white;stroke:rgb(226,226,226);stroke-width:1px;"/>
    </g>
    <g transform="matrix(0.983696,0.34086,-0.339756,0.98051,242.227,139.212)">
        <path d="M100.712,35.692C98.419,33.673 96.69,34.204 95.175,35.606C95.081,35.662 94.962,35.71 94.91,35.815C93.472,38.727 94.157,45.494 95.175,53.399C95.731,56.701 105.091,59.064 113.322,63.437C116.184,64.54 119.005,65.452 121.426,64.535C124.286,61.128 126.024,58.117 123.76,56.512C121.062,54.959 118.895,55.592 115.758,55.414L110.839,53.733C107.256,51.994 102.79,50.53 101.61,48.043C101.392,42.185 101.386,35.848 100.712,35.692Z" style="fill:white;stroke:rgb(226,226,226);stroke-width:1px;"/>
    </g>
    <g transform="matrix(1.04108,0,0,1.03771,224.058,168.969)">
        <path d="M93.701,35.775C95.37,32.609 99.535,32.396 101.491,34.429C102.3,35.27 103.252,35.898 102.669,39.64C99.347,34.381 96.024,35.066 92.708,39.89C92.822,38.334 92.873,37.365 93.701,35.775Z" style="fill:rgb(225,223,234);stroke:rgb(198,195,210);stroke-width:1px;"/>
    </g>
    <g transform="matrix(1,0,0,1,5.86036,0)">
        <path d="M100.691,72.759C102.305,75.167 97.087,82.368 93.371,86.249C93.312,86.485 87.002,91.201 85.027,96.351L90.695,103.152C94.746,99.059 98.689,93.93 103.172,88.602C106.93,84.135 111.031,76.718 110.147,74.3L100.691,72.759Z" style="fill:white;stroke:rgb(226,226,226);stroke-width:1px;"/>
    </g>
    <g transform="matrix(1,0,0,1,5.86036,0)">
        <path d="M115.617,70.237L123.69,68.197C126.087,72.448 126.622,82.307 125.471,90.113C124.564,96.265 122.943,101.201 121.876,106.013L112.156,106.546C112.886,101.8 115.971,95.739 115.98,89.716C115.992,81.825 116.165,75.478 115.617,70.237Z" style="fill:white;stroke:rgb(226,226,226);stroke-width:1px;"/>
    </g>
    <g transform="matrix(0.806768,0.590869,-0.590869,0.806768,87.1747,-42.6222)">
        <path d="M84.568,103.424L96.013,109.103L93.215,116.154C92.384,117.945 91.786,120.365 92.701,122.287C96.366,129.991 96.755,130.759 99.195,132.785C102.475,135.509 94.089,139.788 91.054,138.076C85.35,136.165 80.8,127.03 79.873,125.151C79.368,124.151 80.067,121.774 80.773,119.628C82.746,113.98 82.052,108.893 84.568,103.424Z"/>
    </g>
    <g transform="matrix(0.956077,0.293117,-0.293117,0.956077,43.7256,-27.4649)">
        <path d="M108.061,104.009C111.295,104.373 120.002,100.163 120.72,100.14C122.006,102.689 123.704,111.004 125.14,115.052C126.16,117.929 127.4,117.079 131.108,117.097C134.898,117.116 136.375,117.102 138.706,118.365C140.823,119.512 142.452,122.456 140.62,123.923C136.852,126.94 124.406,128.731 120.121,127.089C118.123,125.844 107.365,107.165 108.061,104.009Z"/>
    </g>
    <g transform="matrix(1,0,0,1,10.3809,-8.5362)">
        <path d="M118.369,32.083L112.54,45.365L104.597,39.94L109.239,30.909L118.369,32.083Z" style="fill:white;stroke:rgb(226,226,226);stroke-width:1px;"/>
    </g>
    <g transform="matrix(0.734102,0,0,0.794304,89.9319,-1.03184)">
        <ellipse cx="51.474" cy="23.304" rx="13.261" ry="11.85" style="fill:white;stroke:rgb(226,226,226);stroke-width:1.31px;"/>
    </g>
    <g transform="matrix(0.554792,0,0,0.849211,91.6842,10.033)">
        <rect x="78.991" y="7.239" width="3.709" height="6.829" style="fill:rgb(28,28,28);stroke:rgb(194,51,113);stroke-width:1.19px;"/>
    </g>
    <g transform="matrix(1,0,0,1,5.86036,0)">
        <path d="M113.149,31.396C110.072,28.584 109.01,34.866 107.776,35.737C105.374,39.357 104.521,51.02 104.521,51.02C103.261,52.684 92.666,69.921 90.702,71.191C93.915,80.232 119.756,82.665 125.953,72.372L118.759,48.48C118.625,45.564 113.946,44.997 115.583,42.91C114.672,39.033 114.771,33.327 113.149,31.396Z" style="fill:rgb(225,223,234);stroke:rgb(198,195,210);stroke-width:1px;"/>
    </g>
    <g transform="matrix(0.996868,-0.0790828,0.0790828,0.996868,16.3289,3.90059)">
        <path d="M105.594,37.756C103.301,35.737 99.483,38.649 99.431,38.754C97.993,41.666 94.157,45.494 95.175,53.399C95.731,56.701 105.091,59.064 113.322,63.437C116.184,64.54 119.005,65.452 121.426,64.535C124.286,61.128 126.024,58.117 123.76,56.512C121.062,54.959 118.895,55.592 115.758,55.414L110.839,53.733C107.256,51.994 104.144,51.588 102.964,49.101C102.746,43.243 106.268,37.912 105.594,37.756Z" style="fill:white;stroke:rgb(226,226,226);stroke-width:1px;"/>
    </g>
    <g transform="matrix(0.99096,0.134158,-0.134158,0.99096,28.0902,-16.2655)">
        <path d="M93.701,35.775C95.37,32.609 99.535,32.396 101.491,34.429C102.3,35.27 103.252,35.898 102.669,39.64C99.347,34.381 96.024,35.066 92.708,39.89C92.822,38.334 92.873,37.365 93.701,35.775Z" style="fill:rgb(225,223,234);stroke:rgb(198,195,210);stroke-width:1px;"/>
    </g>
    <g transform="matrix(1,0,0,1,9.77995,-0.262958)">
        <path d="M119.14,15.697C114.22,23.054 115.659,26.668 111.881,32.274C103.923,38.402 96.496,42.817 87.291,54.188L93.112,41.693C93.183,38.987 76.953,38.148 76.985,37.313C77.016,36.515 89.071,35.605 88.961,34.849C88.788,33.666 74.306,33.271 74.304,32.226C74.3,30.836 88.12,30.818 87.775,29.709C86.891,26.859 70.558,27.625 70.575,26.723C70.63,23.699 80.702,23.119 86.26,20.984C90.839,19.225 93.295,17.391 101.295,9.789C105.224,6.056 114.411,4.756 118.28,5.551C120.056,5.916 126.024,6.789 127.672,13.621C127.989,14.934 121.188,12.635 119.14,15.697Z" style="fill:white;stroke:rgb(226,226,226);stroke-width:1px;"/>
    </g>
    <g transform="matrix(0.866007,0.500032,-0.500032,0.866007,45.7843,-69.7443)">
        <path d="M116.919,28.904C110.665,34.762 113.722,50.386 119.611,68.978C115.352,65.617 107.93,73.55 107.574,71.741C105.826,62.858 104.328,50.899 110.143,30.477" style="fill:white;stroke:rgb(226,226,226);stroke-width:1px;"/>
    </g>
    <g transform="matrix(0.988182,0.153283,-0.153283,0.988182,102.934,-14.636)">
        <path d="M98.041,70.3C97.903,73.302 96.791,77.386 93.074,81.267C95.189,79.059 87.002,91.201 85.027,96.351L90.695,103.152C94.746,99.059 99.37,91.663 103.853,86.334C107.611,81.868 107.929,67.682 107.045,65.264L98.041,70.3Z" style="fill:white;stroke:rgb(226,226,226);stroke-width:1px;"/>
    </g>
    <g transform="matrix(1.15882,-0.351173,0.351173,1.15882,26.7917,27.9856)">
        <path d="M115.954,72.896L124.42,73.199C126.817,77.45 126.622,82.307 125.471,90.113C124.564,96.265 122.943,101.201 121.876,106.013L112.156,106.546C112.886,101.8 115.971,95.739 115.98,89.716C115.992,81.825 116.503,78.137 115.954,72.896Z" style="fill:white;stroke:rgb(226,226,226);stroke-width:1px;"/>
    </g>
    <g transform="matrix(0.806768,0.590869,-0.590869,0.806768,166.556,-45.3318)">
        <path d="M84.568,103.424L96.013,109.103L93.215,116.154C92.384,117.945 91.786,120.365 92.701,122.287C96.366,129.991 96.755,130.759 99.195,132.785C102.475,135.509 94.089,139.788 91.054,138.076C85.35,136.165 80.8,127.03 79.873,125.151C79.368,124.151 80.067,121.774 80.773,119.628C82.746,113.98 82.052,108.893 84.568,103.424Z"/>
    </g>
    <g transform="matrix(0.86794,0.496669,-0.496669,0.86794,151.263,-43.9463)">
        <path d="M108.061,104.009C111.295,104.373 120.002,100.163 120.72,100.14C122.006,102.689 123.704,111.004 125.14,115.052C126.16,117.929 127.4,117.079 131.108,117.097C134.898,117.116 136.375,117.102 138.706,118.365C140.823,119.512 142.452,122.456 140.62,123.923C136.852,126.94 124.406,128.731 120.121,127.089C118.123,125.844 107.365,107.165 108.061,104.009Z"/>
    </g>
    <g transform="matrix(1,0,0,1,85.2002,-7.11335)">
        <path d="M118.369,32.083L112.54,45.365L104.597,39.94L109.239,30.909L118.369,32.083Z" style="fill:white;stroke:rgb(226,226,226);stroke-width:1px;"/>
    </g>
    <g transform="matrix(0.734102,0,0,0.794304,166.705,-1.03184)">
        <ellipse cx="51.474" cy="23.304" rx="13.261" ry="11.85" style="fill:white;stroke:rgb(226,226,226);stroke-width:1.31px;"/>
    </g>
    <g transform="matrix(0.288788,0,0,0.849211,190.456,10.033)">
        <rect x="78.991" y="7.239" width="3.709" height="6.829" style="fill:rgb(28,28,28);stroke:rgb(194,51,113);stroke-width:1.19px;"/>
    </g>
    <g transform="matrix(1,0,0,1,82.6338,0)">
        <path d="M113.149,31.396C110.072,28.584 109.01,34.866 107.776,35.737C105.374,39.357 104.521,51.02 104.521,51.02C103.261,52.684 96.756,66.366 94.792,67.636C98.005,76.677 119.356,79.195 125.553,68.902L118.759,48.48C118.625,45.564 113.946,44.997 115.583,42.91C114.672,39.033 114.771,33.327 113.149,31.396Z" style="fill:rgb(225,223,234);stroke:rgb(198,195,210);stroke-width:1px;"/>
    </g>
    <g transform="matrix(0.994628,0.103518,-0.103518,0.994628,97.3896,-12.9444)">
        <path d="M97.756,37.967C95.463,35.948 93.164,37.566 93.112,37.671C91.674,40.583 94.157,45.494 95.175,53.399C95.731,56.701 105.091,59.064 113.322,63.437C116.184,64.54 119.005,65.452 121.426,64.535C124.286,61.128 125.735,59.064 123.471,57.459C120.137,56.87 118.966,56.277 115.829,56.099L110.487,54.667C106.904,52.928 103.616,50.825 100.99,49.68C99.862,44.066 98.43,38.123 97.756,37.967Z" style="fill:white;stroke:rgb(226,226,226);stroke-width:1px;"/>
    </g>
    <g transform="matrix(0.974047,-0.226346,0.226346,0.974047,84.9587,21.199)">
        <path d="M93.701,35.775C95.37,32.609 99.623,32.315 101.491,34.429C102.247,35.284 103.134,35.929 102.669,39.64C99.347,34.381 96.024,35.066 92.708,39.89C92.822,38.334 92.873,37.365 93.701,35.775Z" style="fill:rgb(225,223,234);stroke:rgb(198,195,210);stroke-width:1px;"/>
    </g>
    <g transform="matrix(1,0,0,1,86.5534,-0.262958)">
        <path d="M117.521,15.499C112.6,22.855 113.508,19.286 109.731,24.892C101.772,31.02 88.874,35.706 79.669,47.077L88.496,34.372C88.567,31.666 74.595,35.046 74.627,34.211C74.658,33.413 88.224,30.178 88.113,29.422C87.941,28.239 73.275,28.7 73.273,27.655C73.269,26.265 91.052,25.281 90.707,24.171C89.822,21.322 70.286,15.07 70.303,14.168C70.358,11.144 95.121,13.3 99.809,9.789C104.13,6.553 114.411,4.756 118.28,5.551C120.056,5.916 126.024,6.789 127.672,13.621C127.989,14.934 119.569,12.436 117.521,15.499Z" style="fill:white;stroke:rgb(226,226,226);stroke-width:1px;"/>
    </g>
    <g transform="matrix(0.998571,0.0534477,-0.0534477,0.998571,88.2477,-18.9517)">
        <path d="M116.919,28.904L119.721,71.041L114.433,71.325L113.59,54.174L114.523,71.345L109.445,71.641L107.598,30.178" style="fill:white;stroke:rgb(226,226,226);stroke-width:1px;"/>
    </g>
    <g transform="matrix(1,0,0,1,157.484,-6.35065)">
        <path d="M118.369,32.083L112.54,45.365L104.597,39.94L109.239,30.909L118.369,32.083Z" style="fill:white;stroke:rgb(226,226,226);stroke-width:1px;"/>
    </g>
    <g transform="matrix(0.613454,0.675792,-0.672212,0.610203,258.768,-32.5683)">
        <path d="M92.117,73.205C93.731,75.613 91.5,85.527 91.181,86.788C91.122,87.024 88.305,99.356 86.33,104.506L92.229,109.512C96.151,102.372 99.481,94.404 101.658,84.828C102.137,79.906 102.245,76.843 101.361,74.425L92.117,73.205Z" style="fill:white;stroke:rgb(226,226,226);stroke-width:1px;"/>
    </g>
    <g transform="matrix(1.17376,0,0,1.11276,132.644,-7.20292)">
        <path d="M108.985,73.345L116.578,68.406C118.975,72.657 121.21,79.78 123.265,90.113C123.624,96.077 122.943,101.201 121.876,106.013L112.156,106.546C112.886,101.8 114.312,95.739 114.321,89.716C113.652,83.483 111.083,78.42 108.985,73.345Z" style="fill:white;stroke:rgb(226,226,226);stroke-width:1px;"/>
    </g>
    <g transform="matrix(0.556649,0.830747,-0.830747,0.556649,286.929,-41.2998)">
        <path d="M84.568,103.424L96.013,109.103L93.215,116.154C92.384,117.945 92.782,119.139 94.453,119.712C101.613,120.546 102.591,121.768 103.434,123.037C104.021,124.078 104.277,126.529 103.472,128.202L85,127.943C82.415,127.929 80.8,127.03 79.873,125.151C79.368,124.151 80.067,121.774 80.773,119.628C82.746,113.98 82.052,108.893 84.568,103.424Z"/>
    </g>
    <g transform="matrix(1,0,0,1,152.122,5.41602)">
        <path d="M110.881,105.285C114.847,105.731 120.418,105.146 124.31,105.018C125.596,107.567 123.811,110.311 124.053,113.825C124.132,116.665 127.563,118.087 132.518,118.864C134.583,119.135 136.458,120.025 137.708,122.762C137.995,124.031 137.881,125.285 137.458,126.527C133.709,127.974 117.852,127.697 116.743,125.093C116.743,125.093 110.331,107.289 110.881,105.285Z"/>
    </g>
    <g transform="matrix(0.734102,0,0,0.794304,238.817,2.15381)">
        <ellipse cx="51.474" cy="23.304" rx="13.261" ry="11.85" style="fill:white;stroke:rgb(226,226,226);stroke-width:1.31px;"/>
    </g>
    <g transform="matrix(0.832531,0,0,0.849211,214.533,12.0355)">
        <rect x="78.991" y="7.239" width="3.709" height="6.829" style="fill:rgb(28,28,28);stroke:rgb(194,51,113);stroke-width:1.19px;"/>
    </g>
    <g transform="matrix(0.832531,0,0,0.849211,142.9,10.0105)">
        <rect x="78.991" y="7.239" width="3.709" height="6.829" style="fill:rgb(28,28,28);stroke:rgb(194,51,113);stroke-width:1.19px;"/>
    </g>
    <g transform="matrix(0.422705,0,0,0.849211,251.652,12.0355)">
        <rect x="78.991" y="7.239" width="3.709" height="6.829" style="fill:rgb(28,28,28);stroke:rgb(194,51,113);stroke-width:1.49px;"/>
    </g>
    <g transform="matrix(1,0,0,1,165.385,-3.04271)">
        <path d="M121.567,19.828L114.246,19.828C109.512,17.212 100.73,31.555 99.91,35.162L94.569,36.73C92.93,38.096 86.304,32.231 77.943,33.746C55.812,37.757 83.605,26.514 83.661,23.48C83.716,20.456 68.47,21.888 68.515,21.551C69.12,16.956 91.542,13.672 97.193,11.492C100.778,10.11 111.67,10.605 114.443,11.615C116.381,12.321 117.776,13.379 119.643,15.452C120.721,16.649 121.434,18.509 121.567,19.828Z" style="fill:white;stroke:rgb(226,226,226);stroke-width:1px;"/>
    </g>
    <g transform="matrix(0.741553,0.287368,-0.288082,0.743395,216.462,-20.6309)">
        <path d="M100.712,35.692C98.419,33.673 96.69,34.204 95.175,35.606C95.081,35.662 94.962,35.71 94.91,35.815C93.472,38.727 94.157,45.494 95.175,53.399C95.731,56.701 105.091,59.064 113.322,63.437C116.184,64.54 119.005,65.452 121.426,64.535C124.286,61.128 126.024,58.117 123.76,56.512C121.062,54.959 118.895,55.592 115.758,55.414L110.839,53.733C107.256,51.994 102.79,50.53 101.61,48.043C101.392,42.185 101.386,35.848 100.712,35.692Z" style="fill:white;stroke:rgb(226,226,226);stroke-width:1px;"/>
    </g>
    <g transform="matrix(1,0,0,1,159.897,1.73103)">
        <path d="M106.625,33.329C104.517,32.381 101.675,30.556 100.78,29.577C98.388,26.958 92.168,27.903 91.782,30.88C94.883,36.126 94.761,32.255 98.815,39.195L100.123,51.068C100.316,53.742 90.065,63.029 87.014,63.544C90.186,75.532 115.975,78.446 122.208,65.512C118.393,62.023 114.724,58.146 111.825,52.234C111.632,49.599 113.041,40.661 113.769,39.381C114.988,37.237 118.074,33.684 120.048,32.628C121.768,31.707 114.68,29.238 113.863,31.176C112.659,34.03 107.034,33.816 106.625,33.329Z" style="fill:rgb(225,223,234);stroke:rgb(198,195,210);stroke-width:1px;"/>
    </g>
    <g transform="matrix(0.301226,0.750775,-0.844289,0.338746,257.596,-51.3785)">
        <path d="M100.712,35.692C98.419,33.673 96.69,34.204 95.175,35.606C95.081,35.662 93.459,36.166 93.407,36.271C91.969,39.183 94.157,45.494 95.175,53.399C95.731,56.701 105.091,59.064 113.322,63.437C116.184,64.54 119.005,65.452 121.426,64.535C124.286,61.128 126.024,58.117 123.76,56.512C121.062,54.959 118.895,55.592 115.758,55.414L110.839,53.733C107.256,51.994 102.79,50.53 101.61,48.043C101.392,42.185 101.386,35.848 100.712,35.692Z" style="fill:white;stroke:rgb(226,226,226);stroke-width:1px;"/>
    </g>
    <g transform="matrix(0.70507,0.709137,-0.709137,0.70507,211.877,-61.7948)">
        <path d="M93.701,35.775C95.37,32.609 99.535,32.396 101.491,34.429C102.3,35.27 103.252,35.898 102.669,39.64C99.347,34.381 96.024,35.066 92.708,39.89C92.822,38.334 92.873,37.365 93.701,35.775Z" style="fill:rgb(225,223,234);stroke:rgb(198,195,210);stroke-width:1px;"/>
    </g>
    <g transform="matrix(0.701198,0.712967,-0.712967,0.701198,207.444,-92.586)">
        <path d="M116.919,28.904C112.682,37.891 113.722,50.386 119.611,68.978C115.352,65.617 107.93,73.55 107.574,71.741C105.826,62.858 106.291,41.903 109.764,33.771" style="fill:white;stroke:rgb(226,226,226);stroke-width:1px;"/>
    </g>
    <g transform="matrix(0.795232,-0.00930417,0.00932728,0.797208,267.995,8.66662)">
        <path d="M100.712,35.692C98.419,33.673 96.69,34.204 95.175,35.606C95.081,35.662 94.962,35.71 94.91,35.815C93.472,38.727 94.157,45.494 95.175,53.399C95.731,56.701 105.091,59.064 113.322,63.437C116.184,64.54 119.005,65.452 121.426,64.535C124.286,61.128 126.024,58.117 123.76,56.512C121.062,54.959 118.895,55.592 115.758,55.414L110.839,53.733C107.256,51.994 102.79,50.53 101.61,48.043C101.392,42.185 101.386,35.848 100.712,35.692Z" style="fill:white;stroke:rgb(226,226,226);stroke-width:1px;"/>
    </g>
    <g transform="matrix(1,0,0,1,231.132,-2.92292)">
        <path d="M118.369,32.083L112.54,45.365L104.597,39.94L109.239,30.909L118.369,32.083Z" style="fill:white;stroke:rgb(226,226,226);stroke-width:1px;"/>
    </g>
    <g transform="matrix(1.26295,0.262004,-0.243499,1.17375,241.127,-43.0611)">
        <path d="M92.117,73.205C93.731,75.613 91.5,85.527 91.181,86.788C91.122,87.024 88.305,99.356 86.33,104.506L92.229,109.512C96.151,102.372 99.481,94.404 101.658,84.828C102.137,79.906 102.245,76.843 101.361,74.425L92.117,73.205Z" style="fill:white;stroke:rgb(226,226,226);stroke-width:1px;"/>
    </g>
    <g transform="matrix(0.906878,0.421393,-0.421393,0.906878,292.274,-30.9437)">
        <path d="M84.568,103.424L96.013,109.103L93.215,116.154C92.384,117.945 92.782,119.139 94.453,119.712C101.613,120.546 102.591,121.768 103.434,123.037C104.021,124.078 104.277,126.529 103.472,128.202L85,127.943C82.415,127.929 80.8,127.03 79.873,125.151C79.368,124.151 80.067,121.774 80.773,119.628C82.746,113.98 82.052,108.893 84.568,103.424Z"/>
    </g>
    <g transform="matrix(1.17376,0,0,1.11276,196.303,-8.17977)">
        <path d="M108.985,73.345L116.578,68.406C118.975,72.657 121.21,79.78 123.265,90.113C123.624,96.077 122.943,101.201 121.876,106.013L112.156,106.546C112.886,101.8 114.312,95.739 114.321,89.716C113.652,83.483 111.083,78.42 108.985,73.345Z" style="fill:white;stroke:rgb(226,226,226);stroke-width:1px;"/>
    </g>
    <g transform="matrix(0.971885,0.235458,-0.235458,0.971885,243.327,-21.4198)">
        <path d="M110.881,105.285C114.847,105.731 120.418,105.146 124.31,105.018C125.596,107.567 123.811,110.311 124.053,113.825C124.132,116.665 127.563,118.087 132.518,118.864C134.583,119.135 136.458,120.025 137.708,122.762C137.995,124.031 137.881,125.285 137.458,126.527C133.709,127.974 117.852,127.697 116.743,125.093C116.743,125.093 110.331,107.289 110.881,105.285Z"/>
    </g>
    <g transform="matrix(0.734102,0,0,0.794304,312.464,5.58154)">
        <ellipse cx="51.474" cy="23.304" rx="13.261" ry="11.85" style="fill:white;stroke:rgb(226,226,226);stroke-width:1.31px;"/>
    </g>
    <g transform="matrix(0.832531,0,0,0.849211,286.336,15.4633)">
        <rect x="78.991" y="7.239" width="3.709" height="6.829" style="fill:rgb(28,28,28);stroke:rgb(194,51,113);stroke-width:1.19px;"/>
    </g>
    <g transform="matrix(0.668945,0,0,0.849211,304.935,15.4633)">
        <rect x="78.991" y="7.239" width="3.709" height="6.829" style="fill:rgb(28,28,28);stroke:rgb(194,51,113);stroke-width:1.49px;"/>
    </g>
    <g transform="matrix(1,0,0,1,239.032,0.385027)">
        <path d="M121.567,19.828L114.246,19.828C109.512,17.212 99.202,29.86 98.382,33.467L94.569,36.73C92.93,38.096 86.304,32.231 77.943,33.746C55.812,37.757 83.605,26.514 83.661,23.48C83.716,20.456 68.47,21.888 68.515,21.551C69.12,16.956 91.542,13.672 97.193,11.492C100.778,10.11 111.67,10.605 114.443,11.615C116.381,12.321 117.776,13.379 119.643,15.452C120.721,16.649 121.434,18.509 121.567,19.828Z" style="fill:white;stroke:rgb(226,226,226);stroke-width:1px;"/>
    </g>
    <g transform="matrix(1,0,0,1,233.545,5.15876)">
        <path d="M106.625,33.329C104.517,32.381 101.675,30.556 100.78,29.577C98.388,26.958 92.168,27.903 91.782,30.88C94.883,36.126 94.761,32.255 98.815,39.195L100.123,51.068C100.316,53.742 90.065,63.029 87.014,63.544C90.186,75.532 115.975,78.446 122.208,65.512C118.393,62.023 114.724,58.146 111.825,52.234C111.632,49.599 113.041,40.661 113.769,39.381C114.988,37.237 114.68,29.238 113.863,31.176C112.659,34.03 107.034,33.816 106.625,33.329Z" style="fill:rgb(225,223,234);stroke:rgb(198,195,210);stroke-width:1px;"/>
    </g>
    <g transform="matrix(0.470194,0.658269,-0.74026,0.528759,309.738,-46.152)">
        <path d="M100.712,35.692C98.419,33.673 96.69,34.204 95.175,35.606C95.081,35.662 93.459,36.166 93.407,36.271C91.969,39.183 94.157,45.494 95.175,53.399C95.731,56.701 105.091,59.064 113.322,63.437C116.184,64.54 119.005,65.452 121.426,64.535C124.286,61.128 126.024,58.117 123.76,56.512C121.062,54.959 118.895,55.592 115.758,55.414L110.839,53.733C107.256,51.994 102.79,50.53 101.61,48.043C101.392,42.185 101.386,35.848 100.712,35.692Z" style="fill:white;stroke:rgb(226,226,226);stroke-width:1px;"/>
    </g>
    <g transform="matrix(0.70507,0.709137,-0.709137,0.70507,285.524,-58.367)">
        <path d="M93.701,35.775C95.37,32.609 99.535,32.396 101.491,34.429C102.3,35.27 103.252,35.898 102.669,39.64C99.347,34.381 96.024,35.066 92.708,39.89C92.822,38.334 92.873,37.365 93.701,35.775Z" style="fill:rgb(225,223,234);stroke:rgb(198,195,210);stroke-width:1px;"/>
    </g>
    <g transform="matrix(0.390424,0.920635,-0.920635,0.390424,328.975,-103.059)">
        <path d="M116.919,28.904C112.682,37.891 113.722,50.386 119.611,68.978C115.352,65.617 107.93,73.55 107.574,71.741C105.826,62.858 106.291,41.903 109.764,33.771" style="fill:white;stroke:rgb(226,226,226);stroke-width:1px;"/>
    </g>
    <g transform="matrix(0.732514,0.309684,-0.310453,0.734334,347.285,-17.6553)">
        <path d="M100.712,35.692C98.419,33.673 96.69,34.204 95.175,35.606C95.081,35.662 94.962,35.71 94.91,35.815C93.472,38.727 94.157,45.494 95.175,53.399C95.731,56.701 105.091,59.064 113.322,63.437C116.184,64.54 119.005,65.452 121.426,64.535C124.286,61.128 126.024,58.117 123.76,56.512C121.062,54.959 118.895,55.592 115.758,55.414L110.839,53.733C107.256,51.994 102.79,50.53 101.61,48.043C101.392,42.185 101.386,35.848 100.712,35.692Z" style="fill:white;stroke:rgb(226,226,226);stroke-width:1px;"/>
    </g>
    <g transform="matrix(0.863614,0.205559,-0.18779,0.788962,329.844,-8.70973)">
        <path d="M93.701,35.775C95.37,32.609 99.535,32.396 101.491,34.429C102.3,35.27 103.252,35.898 102.669,39.64C99.347,34.381 96.024,35.066 92.708,39.89C92.822,38.334 92.873,37.365 93.701,35.775Z" style="fill:rgb(225,223,234);stroke:rgb(198,195,210);stroke-width:1px;"/>
    </g>
    <g transform="matrix(0.877689,0.47923,-0.47923,0.877689,338.969,-52.5865)">
        <path d="M118.369,32.083L112.54,45.365L104.597,39.94L109.239,30.909L118.369,32.083Z" style="fill:white;stroke:rgb(226,226,226);stroke-width:1px;"/>
    </g>
    <g transform="matrix(1.26295,0.262004,-0.243499,1.17375,306.331,-47.1474)">
        <path d="M92.117,73.205C93.731,75.613 91.5,85.527 91.181,86.788C91.122,87.024 86.004,103.547 84.029,108.697L90.275,114.432C94.197,107.292 99.481,94.404 101.658,84.828C102.137,79.906 102.245,76.843 101.361,74.425L92.117,73.205Z" style="fill:white;stroke:rgb(226,226,226);stroke-width:1px;"/>
    </g>
    <g transform="matrix(0.906878,0.421393,-0.421393,0.906878,355.071,-30.7096)">
        <path d="M84.568,103.424L96.013,109.103L93.215,116.154C92.384,117.945 92.782,119.139 94.453,119.712C101.613,120.546 102.591,121.768 103.434,123.037C104.021,124.078 104.277,126.529 103.472,128.202L85,127.943C82.415,127.929 80.8,127.03 79.873,125.151C79.368,124.151 80.067,121.774 80.773,119.628C82.746,113.98 82.052,108.893 84.568,103.424Z"/>
    </g>
    <g transform="matrix(1.12654,-0.329553,0.312427,1.068,258.976,31.5415)">
        <path d="M108.985,73.345L116.578,68.406C118.975,72.657 121.21,79.78 123.265,90.113C123.624,96.077 120.751,108.438 119.684,113.25L111.334,112.1C112.064,107.354 114.312,95.739 114.321,89.716C113.652,83.483 111.083,78.42 108.985,73.345Z" style="fill:white;stroke:rgb(226,226,226);stroke-width:1px;"/>
    </g>
    <g transform="matrix(0.971885,0.235458,-0.235458,0.971885,334.083,-21.8063)">
        <path d="M110.881,105.285C114.847,105.731 120.418,105.146 124.31,105.018C125.596,107.567 123.811,110.311 124.053,113.825C124.132,116.665 127.563,118.087 132.518,118.864C134.583,119.135 136.458,120.025 137.708,122.762C137.995,124.031 137.881,125.285 137.458,126.527C133.709,127.974 117.852,127.697 116.743,125.093C116.743,125.093 110.331,107.289 110.881,105.285Z"/>
    </g>
    <g transform="matrix(0.734102,0,0,0.794304,391.833,7.1433)">
        <ellipse cx="51.474" cy="23.304" rx="13.261" ry="11.85" style="fill:white;stroke:rgb(226,226,226);stroke-width:1.31px;"/>
    </g>
    <g transform="matrix(0.832531,0,0,0.849211,369.111,17.025)">
        <rect x="78.991" y="7.239" width="3.709" height="6.829" style="fill:rgb(28,28,28);stroke:rgb(194,51,113);stroke-width:1.19px;"/>
    </g>
    <g transform="matrix(1,0,0,1,307.325,1.58324)">
        <path d="M107.158,33.323C105.63,33.227 101.713,35.463 100.528,37.861C99.343,40.259 100.047,47.711 100.047,47.711C99.856,52.317 89.687,62.857 87.663,67.294C91.886,78.701 113.709,81.859 120.41,67.482C116.595,63.993 114.619,55.639 111.72,49.727C111.926,41.681 115.271,41.412 117.082,40.268C112.414,33.374 108.864,33.43 107.158,33.323Z" style="fill:rgb(225,223,234);stroke:rgb(198,195,210);stroke-width:1px;"/>
    </g>
    <g transform="matrix(0.753794,0.293589,-0.330158,0.847684,362.263,-14.9201)">
        <path d="M100.712,35.692C98.419,33.673 96.69,34.204 95.175,35.606C95.081,35.662 93.459,36.166 93.407,36.271C91.969,39.183 94.157,45.494 95.175,53.399C95.731,56.701 105.091,59.064 113.322,63.437C116.184,64.54 119.005,65.452 121.426,64.535C124.286,61.128 126.024,58.117 123.76,56.512C121.062,54.959 118.895,55.592 115.758,55.414L110.839,53.733C107.256,51.994 102.79,50.53 101.61,48.043C101.392,42.185 101.386,35.848 100.712,35.692Z" style="fill:white;stroke:rgb(226,226,226);stroke-width:1px;"/>
    </g>
    <g transform="matrix(0.863614,0.205559,-0.18779,0.788962,345.726,-5.19118)">
        <path d="M93.701,35.775C95.37,32.609 99.535,32.396 101.491,34.429C102.3,35.27 103.252,35.898 102.669,39.64C99.347,34.381 96.024,35.066 92.708,39.89C92.822,38.334 92.873,37.365 93.701,35.775Z" style="fill:rgb(225,223,234);stroke:rgb(198,195,210);stroke-width:1px;"/>
    </g>
    <g transform="matrix(1,0,0,1,318.401,1.94678)">
        <path d="M121.567,19.828L114.246,19.828C109.512,17.212 101.662,30.65 98.382,33.467C97.113,34.557 94.569,36.73 94.569,36.73C92.93,38.096 86.304,32.231 77.943,33.746C55.812,37.757 83.605,26.514 83.661,23.48C83.716,20.456 68.47,21.888 68.515,21.551C69.12,16.956 91.542,13.672 97.193,11.492C100.778,10.11 111.67,10.605 114.443,11.615C116.381,12.321 117.776,13.379 119.643,15.452C120.721,16.649 121.434,18.509 121.567,19.828Z" style="fill:white;stroke:rgb(226,226,226);stroke-width:1px;"/>
    </g>
    <g transform="matrix(0.233809,0.972283,-0.972283,0.233809,427.365,-102.325)">
        <path d="M116.919,28.904C112.682,37.891 113.722,50.386 119.611,68.978C115.352,65.617 107.93,73.55 107.574,71.741C105.826,62.858 106.291,41.903 109.764,33.771" style="fill:white;stroke:rgb(226,226,226);stroke-width:1px;"/>
    </g>
    <g transform="matrix(0.787394,0,0,0.766861,10.2993,38.3914)">
        <path d="M25.564,181.123L25.459,168.239" style="fill:none;stroke:rgb(226,226,226);stroke-width:0.9px;"/>
    </g>
    <g transform="matrix(0.787394,0,0,0.766861,12.8396,38.3914)">
        <path d="M25.564,181.123L25.459,168.239" style="fill:none;stroke:rgb(226,226,226);stroke-width:0.9px;"/>
    </g>
    <g transform="matrix(0.787394,0,0,0.766861,15.3835,38.3914)">
        <path d="M25.564,181.123L25.459,168.239" style="fill:none;stroke:rgb(226,226,226);stroke-width:0.9px;"/>
    </g>
    <g transform="matrix(0.787394,0,0,0.766861,17.8762,38.3914)">
        <path d="M25.564,181.123L25.459,168.239" style="fill:none;stroke:rgb(226,226,226);stroke-width:0.9px;"/>
    </g>
    <g transform="matrix(0.787394,0,0,0.766861,20.5022,38.3914)">
        <path d="M25.564,181.123L25.459,168.239" style="fill:none;stroke:rgb(226,226,226);stroke-width:0.9px;"/>
    </g>
    <g transform="matrix(0.787394,0,0,0.766861,22.817,38.3914)">
        <path d="M25.564,181.123L25.459,168.239" style="fill:none;stroke:rgb(226,226,226);stroke-width:0.9px;"/>
    </g>
    <g transform="matrix(0.787394,0,0,0.766861,25.5828,38.3914)">
        <path d="M25.564,181.123L25.459,168.239" style="fill:none;stroke:rgb(226,226,226);stroke-width:0.9px;"/>
    </g>
    <g transform="matrix(-1.01283,0,0,0.988163,374.169,148.913)">
        <path d="M108.985,73.345L116.578,68.406C118.975,72.657 121.21,79.78 123.265,90.113C123.624,96.077 121.725,99.668 120.658,104.48L113.364,101.672C114.094,96.926 114.312,95.739 114.321,89.716C113.652,83.483 111.083,78.42 108.985,73.345Z" style="fill:white;stroke:rgb(226,226,226);stroke-width:1px;"/>
    </g>
    <g transform="matrix(0.913665,-0.221775,-0.225841,-0.891412,187.996,332.688)">
        <path d="M111.565,81.285L118.202,75.636C120.599,79.887 119.627,79.25 121.682,89.583C122.041,95.547 122.943,101.201 121.876,106.013L112.156,106.546C112.886,101.8 112.987,95.739 112.996,89.716C112.327,83.483 113.663,86.36 111.565,81.285Z" style="fill:white;stroke:rgb(226,226,226);stroke-width:1px;"/>
    </g>
    <g transform="matrix(-1.01283,0,0,0.988163,345.937,142.501)">
        <path d="M84.568,103.424C88.287,105.759 91.964,107.454 95.522,107.366L93.215,116.154C92.384,117.945 92.291,119.38 93.962,119.953C97.859,121.289 94.77,126.361 95.613,127.63C96.2,128.671 85,127.943 85,127.943C82.415,127.929 81.318,125.993 81.114,123.906C80.943,122.152 82.54,119.608 83.246,117.462C85.219,111.814 82.052,108.893 84.568,103.424Z"/>
    </g>
    <g transform="matrix(0.878222,0,0,0.988163,197.694,128.168)">
        <path d="M83.701,104.009C87.132,107.125 91.451,108.371 96.013,109.103L93.215,116.154C92.384,117.945 92.291,119.38 93.962,119.953C97.859,121.289 97.106,126.299 95.613,127.63C94.119,128.962 85,127.943 85,127.943C82.415,127.929 81.318,125.993 81.114,123.906C80.943,122.152 82.54,119.608 83.246,117.462C85.219,111.814 81.185,109.478 83.701,104.009Z"/>
    </g>
    <g transform="matrix(0.768323,-0.645942,-0.657785,-0.749611,202.383,271.755)">
        <path d="M100.712,35.692C98.419,33.673 96.69,34.204 95.175,35.606C95.081,35.662 94.962,35.71 94.91,35.815C93.472,38.727 95.485,42.805 96.503,50.71C97.059,54.012 104.913,57.25 113.144,61.623C116.006,62.726 119.005,65.452 121.426,64.535C124.286,61.128 126.024,58.117 123.76,56.512C121.062,54.959 118.895,55.592 115.758,55.414L110.839,53.733C107.256,51.994 102.79,50.53 101.61,48.043C101.392,42.185 101.386,35.848 100.712,35.692Z" style="fill:white;stroke:rgb(226,226,226);stroke-width:1px;"/>
    </g>
    <g transform="matrix(-0.541569,-0.666296,0.793762,-0.618128,297.437,295.425)">
        <path d="M101.61,48.043C100.732,46.434 94.955,46.216 96.503,50.71C97.059,54.012 104.913,57.25 113.144,61.623C116.006,62.726 119.005,65.452 121.426,64.535C124.286,61.128 126.024,58.117 123.76,56.512C121.062,54.959 118.895,55.592 115.758,55.414L110.839,53.733C107.256,51.994 102.79,50.53 101.61,48.043Z" style="fill:white;stroke:rgb(226,226,226);stroke-width:1px;"/>
    </g>
    <g transform="matrix(-0.593656,-0.659544,0.639614,-0.551582,309.329,293.743)">
        <path d="M123.76,56.512C121.485,55.142 111.898,51.921 105.713,48.25C102.06,46.08 94.993,47.409 96.503,50.71C97.059,54.012 104.913,57.25 113.144,61.623C116.006,62.726 119.005,65.452 121.426,64.535C124.286,61.128 126.024,58.117 123.76,56.512Z" style="fill:white;stroke:rgb(226,226,226);stroke-width:1px;"/>
    </g>
    <g transform="matrix(-1.01283,0,0,0.988163,368.963,143.184)">
        <path d="M108.199,37.947C105.122,35.135 101.869,33.942 98.528,33.567C97.24,33.689 89.204,35.362 87.97,36.233C89.842,37.324 91.201,40.387 92.885,45.919C93.38,47.545 94.389,49.295 94.572,50.913C94.706,52.099 94.169,60.233 93.235,60.973C88.079,65.056 86.589,80.843 86.589,80.843C93.197,78.763 97.809,81.61 103.447,83.404C107.198,84.598 113.102,86.099 119.374,89.336C118.313,82.304 117.571,71.108 113.209,63.648C111.723,61.107 111.508,51.913 111.508,51.913C111.374,48.997 115.37,41.608 117.007,39.521C116.096,35.644 109.821,39.878 108.199,37.947Z" style="fill:rgb(225,223,234);stroke:rgb(198,195,210);stroke-width:1px;"/>
    </g>
    <g transform="matrix(-0.851913,0,0,0.809492,351.758,139.781)">
        <path d="M114.026,77.073L112.248,77.071L112.072,49.156L110.644,49.149L110.774,77.106L109.046,77.125L108.782,49.159L107.365,49.151L107.541,77.105L105.855,77.133L105.8,49.281L104.369,49.252L104.57,77.148L102.655,77.178L102.641,49.221L101.218,49.215L101.237,77.228L99.551,77.237L99.492,49.194L98.17,49.203L98.127,77.248L96.486,77.23L96.579,49.159L95.19,49.137L95.079,77.293L93.36,77.313L93.496,49.146L92.096,49.113L91.994,77.338L90.328,77.42C90.328,77.42 90.856,55.74 90.36,49.163C89.884,42.864 88.599,41.083 88.315,37.542C87.893,32.275 88.489,25.787 89.402,22.378C90.165,19.529 92.248,15.567 95.036,13.501C98.537,10.907 106.86,10.915 110.397,13.725C113.075,15.854 115.203,18.891 115.981,22.222C116.948,26.36 116.713,32.869 116.428,37.55C116.188,41.506 114.525,45.865 114.359,49.496C114.081,55.577 114.026,77.073 114.026,77.073Z" style="fill:white;stroke:rgb(226,226,226);stroke-width:1px;"/>
    </g>
    <g transform="matrix(-0.818299,0,0,0.780078,293.623,37.8884)">
        <path d="M25.564,181.123L25.459,168.239" style="fill:none;stroke:rgb(226,226,226);stroke-width:0.89px;"/>
    </g>
    <g transform="matrix(-0.818299,0,0,0.780078,290.983,37.8884)">
        <path d="M25.564,181.123L25.459,168.239" style="fill:none;stroke:rgb(226,226,226);stroke-width:0.89px;"/>
    </g>
    <g transform="matrix(-0.818299,0,0,0.780078,288.339,37.8884)">
        <path d="M25.564,181.123L25.459,168.239" style="fill:none;stroke:rgb(226,226,226);stroke-width:0.89px;"/>
    </g>
    <g transform="matrix(-0.818299,0,0,0.780078,285.748,37.8884)">
        <path d="M25.564,181.123L25.459,168.239" style="fill:none;stroke:rgb(226,226,226);stroke-width:0.89px;"/>
    </g>
    <g transform="matrix(-0.818299,0,0,0.780078,283.019,37.8884)">
        <path d="M25.564,181.123L25.459,168.239" style="fill:none;stroke:rgb(226,226,226);stroke-width:0.89px;"/>
    </g>
    <g transform="matrix(-0.818299,0,0,0.780078,280.614,37.8884)">
        <path d="M25.564,181.123L25.459,168.239" style="fill:none;stroke:rgb(226,226,226);stroke-width:0.89px;"/>
    </g>
    <g transform="matrix(-0.818299,0,0,0.780078,277.739,37.8884)">
        <path d="M25.564,181.123L25.459,168.239" style="fill:none;stroke:rgb(226,226,226);stroke-width:0.89px;"/>
    </g>
    <g transform="matrix(1.00729,0,0,1.00403,7.7426,139.312)">
        <path d="M108.985,73.345L116.578,68.406C118.975,72.657 118.901,80.101 120.956,90.434C121.315,96.398 121.156,101.765 120.089,106.577L112.156,103.972C112.886,99.226 112.003,96.06 112.012,90.037C111.343,83.804 111.083,78.42 108.985,73.345Z" style="fill:white;stroke:rgb(226,226,226);stroke-width:1px;"/>
    </g>
    <g transform="matrix(-0.908667,-0.225336,0.224606,-0.905724,190.057,332.601)">
        <path d="M111.491,78.647L117.274,73.379C119.671,77.63 119.627,79.25 121.682,89.583C122.041,95.547 122.943,101.201 121.876,106.013L112.156,106.546C112.886,101.8 112.987,95.739 112.996,89.716C112.327,83.483 113.589,83.722 111.491,78.647Z" style="fill:white;stroke:rgb(226,226,226);stroke-width:1px;"/>
    </g>
    <g transform="matrix(1.00729,0,0,1.00403,34.6448,136.622)">
        <path d="M84.568,103.424C88.287,105.759 91.964,107.454 95.522,107.366L93.215,116.154C92.384,117.945 92.291,119.38 93.962,119.953C97.859,121.289 94.77,126.361 95.613,127.63C96.2,128.671 85,127.943 85,127.943C82.415,127.929 81.318,125.993 81.114,123.906C80.943,122.152 82.54,119.608 83.246,117.462C85.219,111.814 82.052,108.893 84.568,103.424Z"/>
    </g>
    <g transform="matrix(-0.873419,0,0,1.00403,180.414,127.838)">
        <path d="M83.701,104.009C87.132,107.125 91.451,108.371 96.013,109.103L93.215,116.154C92.384,117.945 92.291,119.38 93.962,119.953C97.859,121.289 97.106,126.299 95.613,127.63C94.119,128.962 85,127.943 85,127.943C82.415,127.929 81.318,125.993 81.114,123.906C80.943,122.152 82.54,119.608 83.246,117.462C85.219,111.814 81.185,109.478 83.701,104.009Z"/>
    </g>
    <g transform="matrix(-0.627157,-0.788227,0.785673,-0.625126,155.012,287.973)">
        <path d="M100.712,35.692C98.419,33.673 96.69,34.204 95.175,35.606C95.081,35.662 94.962,35.71 94.91,35.815C93.472,38.727 95.485,42.805 96.503,50.71C97.059,54.012 104.913,57.25 113.144,61.623C116.006,62.726 119.005,65.452 121.426,64.535C124.286,61.128 126.024,58.117 123.76,56.512C121.062,54.959 118.895,55.592 115.758,55.414L110.839,53.733C107.256,51.994 102.79,50.53 101.61,48.043C101.392,42.185 101.386,35.848 100.712,35.692Z" style="fill:white;stroke:rgb(226,226,226);stroke-width:1px;"/>
    </g>
    <g transform="matrix(0.620386,-0.628435,-0.75153,-0.741905,68.2284,284.598)">
        <path d="M101.61,48.043C100.732,46.434 94.955,46.216 96.503,50.71C97.059,54.012 104.913,57.25 113.144,61.623C116.006,62.726 119.005,65.452 121.426,64.535C124.286,61.128 126.024,58.117 123.76,56.512C121.062,54.959 118.895,55.592 115.758,55.414L110.839,53.733C107.256,51.994 102.79,50.53 101.61,48.043Z" style="fill:white;stroke:rgb(226,226,226);stroke-width:1px;"/>
    </g>
    <g transform="matrix(0.861296,-0.236283,-0.224288,-0.817574,13.5467,256.834)">
        <path d="M123.76,56.512C121.485,55.142 117.623,55.933 111.439,52.262C107.785,50.092 102.608,52.02 104.118,55.32C104.674,58.622 106.996,58.933 115.227,63.306C118.089,64.409 119.005,65.452 121.426,64.535C124.286,61.128 126.024,58.117 123.76,56.512Z" style="fill:white;stroke:rgb(226,226,226);stroke-width:1px;"/>
    </g>
    <g transform="matrix(1.00729,0,0,1.00403,10.0796,140.055)">
        <path d="M108.199,37.947C105.122,35.135 101.869,33.942 98.528,33.567C97.24,33.689 89.204,35.362 87.97,36.233C89.842,37.324 91.201,40.387 92.885,45.919C93.38,47.545 94.389,49.295 94.572,50.913C94.706,52.099 94.169,60.233 93.235,60.973C88.079,65.056 86.589,80.843 86.589,80.843C89.771,80.5 96.779,78.675 103.813,82.687C110.074,86.259 118.018,85.584 121.269,86.607C120.208,79.575 117.571,71.108 113.209,63.648C111.723,61.107 111.508,54.708 111.508,54.708C111.374,51.792 116.513,48.456 118.15,46.369C117.239,42.492 109.821,39.878 108.199,37.947Z" style="fill:rgb(225,223,234);stroke:rgb(198,195,210);stroke-width:1px;"/>
    </g>
    <g transform="matrix(0.847254,0,0,0.822488,27.1915,136.597)">
        <path d="M114.026,77.073L112.248,77.071L112.072,49.156L110.644,49.149L110.774,77.106L109.046,77.125L108.782,49.159L107.365,49.151L107.541,77.105L105.855,77.133L105.8,49.281L104.369,49.252L104.57,77.148L102.655,77.178L102.641,49.221L101.218,49.215L101.237,77.228L99.551,77.237L99.492,49.194L98.17,49.203L98.127,77.248L96.486,77.23L96.579,49.159L95.19,49.137L95.079,77.293L93.36,77.313L93.496,49.146L92.096,49.113L91.994,77.338L90.328,77.42C90.328,77.42 90.856,55.74 90.36,49.163C89.884,42.864 88.599,41.083 88.315,37.542C87.893,32.275 88.489,25.787 89.402,22.378C90.165,19.529 92.248,15.567 95.036,13.501C98.537,10.907 106.86,10.915 110.397,13.725C113.075,15.854 115.203,18.891 115.981,22.222C116.948,26.36 116.713,32.869 116.428,37.55C116.188,41.506 114.525,45.865 114.359,49.496C114.081,55.577 114.026,77.073 114.026,77.073Z" style="fill:white;stroke:rgb(226,226,226);stroke-width:1px;"/>
    </g>
    <g transform="matrix(0.813824,0,0,0.792602,85.0082,33.0685)">
        <path d="M25.564,181.123L25.459,168.239" style="fill:none;stroke:rgb(226,226,226);stroke-width:0.9px;"/>
    </g>
    <g transform="matrix(0.813824,0,0,0.792602,87.6337,33.0685)">
        <path d="M25.564,181.123L25.459,168.239" style="fill:none;stroke:rgb(226,226,226);stroke-width:0.9px;"/>
    </g>
    <g transform="matrix(0.813824,0,0,0.792602,90.2631,33.0685)">
        <path d="M25.564,181.123L25.459,168.239" style="fill:none;stroke:rgb(226,226,226);stroke-width:0.9px;"/>
    </g>
    <g transform="matrix(0.813824,0,0,0.792602,92.8394,33.0685)">
        <path d="M25.564,181.123L25.459,168.239" style="fill:none;stroke:rgb(226,226,226);stroke-width:0.9px;"/>
    </g>
    <g transform="matrix(0.813824,0,0,0.792602,95.5536,33.0685)">
        <path d="M25.564,181.123L25.459,168.239" style="fill:none;stroke:rgb(226,226,226);stroke-width:0.9px;"/>
    </g>
    <g transform="matrix(0.813824,0,0,0.792602,97.9461,33.0685)">
        <path d="M25.564,181.123L25.459,168.239" style="fill:none;stroke:rgb(226,226,226);stroke-width:0.9px;"/>
    </g>
    <g transform="matrix(0.813824,0,0,0.792602,100.805,33.0685)">
        <path d="M25.564,181.123L25.459,168.239" style="fill:none;stroke:rgb(226,226,226);stroke-width:0.9px;"/>
    </g>
    <g transform="matrix(-1.01294,0,0,1.00107,299.105,139.522)">
        <path d="M108.985,73.345L116.578,68.406C118.975,72.657 120.23,80.101 122.285,90.434C122.644,96.398 123.286,98.532 122.219,103.344L113.908,101.482C114.638,96.736 113.332,96.06 113.341,90.037C112.672,83.804 111.083,78.42 108.985,73.345Z" style="fill:white;stroke:rgb(226,226,226);stroke-width:1px;"/>
    </g>
    <g transform="matrix(0.913766,-0.224672,-0.225867,-0.903057,112.904,332.576)">
        <path d="M112.266,81.02L118.138,76.908C120.535,81.159 119.627,79.25 121.682,89.583C122.041,95.547 122.943,101.201 121.876,106.013L112.156,106.546C112.886,101.8 112.987,95.739 112.996,89.716C112.327,83.483 114.364,86.095 112.266,81.02Z" style="fill:white;stroke:rgb(226,226,226);stroke-width:1px;"/>
    </g>
    <g transform="matrix(-1.01294,0,0,1.00107,270.221,133.597)">
        <path d="M84.568,103.424C88.287,105.759 91.964,107.454 95.522,107.366L93.215,116.154C92.384,117.945 92.291,119.38 93.962,119.953C97.859,121.289 94.77,126.361 95.613,127.63C96.2,128.671 85,127.943 85,127.943C82.415,127.929 81.318,125.993 81.114,123.906C80.943,122.152 82.54,119.608 83.246,117.462C85.219,111.814 82.052,108.893 84.568,103.424Z"/>
    </g>
    <g transform="matrix(0.878321,0,0,1.00107,122.601,125.22)">
        <path d="M83.701,104.009C87.132,107.125 91.451,108.371 96.013,109.103L93.215,116.154C92.384,117.945 92.291,119.38 93.962,119.953C97.859,121.289 97.106,126.299 95.613,127.63C94.119,128.962 85,127.943 85,127.943C82.415,127.929 81.318,125.993 81.114,123.906C80.943,122.152 82.54,119.608 83.246,117.462C85.219,111.814 81.185,109.478 83.701,104.009Z"/>
    </g>
    <g transform="matrix(0.630676,-0.785906,-0.790083,-0.623286,148.146,290.071)">
        <path d="M100.712,35.692C98.419,33.673 96.69,34.204 95.175,35.606C95.081,35.662 94.962,35.71 94.91,35.815C93.472,38.727 95.485,42.805 96.503,50.71C97.059,54.012 104.913,57.25 113.144,61.623C116.006,62.726 119.005,65.452 121.426,64.535C124.286,61.128 126.024,58.117 123.76,56.512C121.062,54.959 118.895,55.592 115.758,55.414L110.839,53.733C107.256,51.994 102.79,50.53 101.61,48.043C101.392,42.185 101.386,35.848 100.712,35.692Z" style="fill:white;stroke:rgb(226,226,226);stroke-width:1px;"/>
    </g>
    <g transform="matrix(-0.576142,-0.670732,0.808058,-0.68219,227.219,286.38)">
        <path d="M101.61,48.043C100.732,46.434 94.955,46.216 96.503,50.71C97.059,54.012 104.913,57.25 113.144,61.623C116.006,62.726 119.005,65.452 121.426,64.535C124.286,61.128 126.024,58.117 123.76,56.512C121.062,54.959 118.895,55.592 115.758,55.414L110.839,53.733C107.256,51.994 102.79,50.53 101.61,48.043Z" style="fill:white;stroke:rgb(226,226,226);stroke-width:1px;"/>
    </g>
    <g transform="matrix(-0.866131,-0.235587,0.225547,-0.815167,290.405,257.033)">
        <path d="M123.76,56.512C121.485,55.142 117.623,55.933 111.439,52.262C107.785,50.092 102.608,52.02 104.118,55.32C104.674,58.622 106.996,58.933 115.227,63.306C118.089,64.409 119.005,65.452 121.426,64.535C124.286,61.128 126.024,58.117 123.76,56.512Z" style="fill:white;stroke:rgb(226,226,226);stroke-width:1px;"/>
    </g>
    <g transform="matrix(-1.01294,0,0,1.00107,293.891,140.597)">
        <path d="M108.199,37.947C105.122,35.135 101.869,33.942 98.528,33.567C97.24,33.689 89.204,35.362 87.97,36.233C89.842,37.324 91.201,40.387 92.885,45.919C93.38,47.545 94.389,49.295 94.572,50.913C94.706,52.099 94.169,60.233 93.235,60.973C88.079,65.056 86.589,80.843 86.589,80.843C89.508,80.857 96.581,80.056 102.011,82.756C108.985,86.223 117.761,85.653 121.269,86.607C120.208,79.575 117.571,71.108 113.209,63.648C111.723,61.107 111.508,54.708 111.508,54.708C111.374,51.792 116.513,48.456 118.15,46.369C117.239,42.492 109.821,39.878 108.199,37.947Z" style="fill:rgb(225,223,234);stroke:rgb(198,195,210);stroke-width:1px;"/>
    </g>
    <g transform="matrix(-0.852009,0,0,0.820067,276.683,137.15)">
        <path d="M114.026,77.073L112.248,77.071L112.072,49.156L110.644,49.149L110.774,77.106L109.046,77.125L108.782,49.159L107.365,49.151L107.541,77.105L105.855,77.133L105.8,49.281L104.369,49.252L104.57,77.148L102.655,77.178L102.641,49.221L101.218,49.215L101.237,77.228L99.551,77.237L99.492,49.194L98.17,49.203L98.127,77.248L96.486,77.23L96.579,49.159L95.19,49.137L95.079,77.293L93.36,77.313L93.496,49.146L92.096,49.113L91.994,77.338L90.328,77.42C90.328,77.42 90.856,55.74 90.36,49.163C89.884,42.864 88.599,41.083 88.315,37.542C87.893,32.275 88.489,25.787 89.402,22.378C90.165,19.529 92.248,15.567 95.036,13.501C98.537,10.907 106.86,10.915 110.397,13.725C113.075,15.854 115.203,18.891 115.981,22.222C116.948,26.36 116.713,32.869 116.428,37.55C116.188,41.506 114.525,45.865 114.359,49.496C114.081,55.577 114.026,77.073 114.026,77.073Z" style="fill:white;stroke:rgb(226,226,226);stroke-width:1px;"/>
    </g>
    <g transform="matrix(-0.818391,0,0,0.790268,218.542,33.9258)">
        <path d="M25.564,181.123L25.459,168.239" style="fill:none;stroke:rgb(226,226,226);stroke-width:0.9px;"/>
    </g>
    <g transform="matrix(-0.818391,0,0,0.790268,215.901,33.9258)">
        <path d="M25.564,181.123L25.459,168.239" style="fill:none;stroke:rgb(226,226,226);stroke-width:0.9px;"/>
    </g>
    <g transform="matrix(-0.818391,0,0,0.790268,213.257,33.9258)">
        <path d="M25.564,181.123L25.459,168.239" style="fill:none;stroke:rgb(226,226,226);stroke-width:0.9px;"/>
    </g>
    <g transform="matrix(-0.818391,0,0,0.790268,210.667,33.9258)">
        <path d="M25.564,181.123L25.459,168.239" style="fill:none;stroke:rgb(226,226,226);stroke-width:0.9px;"/>
    </g>
    <g transform="matrix(-0.818391,0,0,0.790268,207.937,33.9258)">
        <path d="M25.564,181.123L25.459,168.239" style="fill:none;stroke:rgb(226,226,226);stroke-width:0.9px;"/>
    </g>
    <g transform="matrix(-0.818391,0,0,0.790268,205.531,33.9258)">
        <path d="M25.564,181.123L25.459,168.239" style="fill:none;stroke:rgb(226,226,226);stroke-width:0.9px;"/>
    </g>
    <g transform="matrix(-0.818391,0,0,0.790268,202.657,33.9258)">
        <path d="M25.564,181.123L25.459,168.239" style="fill:none;stroke:rgb(226,226,226);stroke-width:0.9px;"/>
    </g>
</svg>
